<svg width="160" height="90" viewBox="0 0 160 90" fill="none" xmlns="http://www.w3.org/2000/svg">
  <rect width="160" height="90" rx="12" fill="#1F1F1F"/>
  <path d="M18.0398 37.2727V40.2727H17.1023V37.2727H18.0398ZM20.2216 37.2727V40.2727H19.2841V37.2727H20.2216ZM24.8398 46H22.1467V37.2727H24.9592C25.8058 37.2727 26.5302 37.4474 27.1325 37.7969C27.7347 38.1435 28.1964 38.642 28.5174 39.2926C28.8384 39.9403 28.9989 40.7159 28.9989 41.6193C28.9989 42.5284 28.837 43.3111 28.5131 43.9673C28.1893 44.6207 27.7177 45.1236 27.0984 45.4759C26.479 45.8253 25.7262 46 24.8398 46ZM23.2035 45.0625H24.7717C25.4933 45.0625 26.0913 44.9233 26.5657 44.6449C27.0401 44.3665 27.3938 43.9702 27.6268 43.456C27.8597 42.9418 27.9762 42.3295 27.9762 41.6193C27.9762 40.9148 27.8612 40.3082 27.631 39.7997C27.4009 39.2884 27.0572 38.8963 26.5998 38.6236C26.1424 38.348 25.5728 38.2102 24.891 38.2102H23.2035V45.0625ZM33.3796 46.1364C32.7489 46.1364 32.2049 45.9972 31.7475 45.7188C31.293 45.4375 30.9421 45.0455 30.695 44.5426C30.4506 44.0369 30.3285 43.4489 30.3285 42.7784C30.3285 42.108 30.4506 41.517 30.695 41.0057C30.9421 40.4915 31.2859 40.0909 31.7262 39.804C32.1694 39.5142 32.6864 39.3693 33.2773 39.3693C33.6183 39.3693 33.9549 39.4261 34.2873 39.5398C34.6197 39.6534 34.9222 39.8381 35.195 40.0938C35.4677 40.3466 35.685 40.6818 35.8469 41.0994C36.0089 41.517 36.0898 42.0312 36.0898 42.642V43.0682H31.0444V42.1989H35.0671C35.0671 41.8295 34.9933 41.5 34.8455 41.2102C34.7006 40.9205 34.4933 40.6918 34.2234 40.5241C33.9563 40.3565 33.641 40.2727 33.2773 40.2727C32.8768 40.2727 32.5302 40.3722 32.2376 40.571C31.9478 40.767 31.7248 41.0227 31.5685 41.3381C31.4123 41.6534 31.3342 41.9915 31.3342 42.3523V42.9318C31.3342 43.4261 31.4194 43.8452 31.5898 44.1889C31.7631 44.5298 32.0032 44.7898 32.31 44.9688C32.6168 45.1449 32.9734 45.233 33.3796 45.233C33.6438 45.233 33.8825 45.196 34.0955 45.1222C34.3114 45.0455 34.4975 44.9318 34.6538 44.7812C34.81 44.6278 34.9308 44.4375 35.016 44.2102L35.9876 44.483C35.8853 44.8125 35.7134 45.1023 35.4719 45.3523C35.2305 45.5994 34.9322 45.7926 34.5771 45.9318C34.2219 46.0682 33.8228 46.1364 33.3796 46.1364ZM42.256 40.9205L41.3526 41.1761C41.2958 41.0256 41.212 40.8793 41.1012 40.7372C40.9933 40.5923 40.8455 40.473 40.658 40.3793C40.4705 40.2855 40.2305 40.2386 39.9379 40.2386C39.5373 40.2386 39.2035 40.331 38.9364 40.5156C38.6722 40.6974 38.5401 40.929 38.5401 41.2102C38.5401 41.4602 38.631 41.6577 38.8129 41.8026C38.9947 41.9474 39.2788 42.0682 39.6651 42.1648L40.6367 42.4034C41.2219 42.5455 41.658 42.7628 41.945 43.0554C42.2319 43.3452 42.3754 43.7187 42.3754 44.1761C42.3754 44.5511 42.2674 44.8864 42.0515 45.1818C41.8384 45.4773 41.5401 45.7102 41.1566 45.8807C40.7731 46.0511 40.3271 46.1364 39.8185 46.1364C39.1509 46.1364 38.5984 45.9915 38.1609 45.7017C37.7234 45.4119 37.4464 44.9886 37.3299 44.4318L38.2844 44.1932C38.3754 44.5455 38.5472 44.8097 38.8001 44.9858C39.0558 45.1619 39.3896 45.25 39.8015 45.25C40.2702 45.25 40.6424 45.1506 40.918 44.9517C41.1964 44.75 41.3356 44.5085 41.3356 44.2273C41.3356 44 41.256 43.8097 41.0969 43.6562C40.9379 43.5 40.6935 43.3835 40.364 43.3068L39.2731 43.0511C38.6737 42.9091 38.2333 42.6889 37.9521 42.3906C37.6737 42.0895 37.5344 41.7131 37.5344 41.2614C37.5344 40.892 37.6381 40.5653 37.8455 40.2812C38.0558 39.9972 38.3413 39.7741 38.7021 39.6122C39.0657 39.4503 39.4776 39.3693 39.9379 39.3693C40.5856 39.3693 41.0941 39.5114 41.4634 39.7955C41.8356 40.0795 42.0998 40.4545 42.256 40.9205ZM43.8892 46V39.4545H44.8949V46H43.8892ZM44.4006 38.3636C44.2045 38.3636 44.0355 38.2969 43.8935 38.1634C43.7543 38.0298 43.6847 37.8693 43.6847 37.6818C43.6847 37.4943 43.7543 37.3338 43.8935 37.2003C44.0355 37.0668 44.2045 37 44.4006 37C44.5966 37 44.7642 37.0668 44.9034 37.2003C45.0455 37.3338 45.1165 37.4943 45.1165 37.6818C45.1165 37.8693 45.0455 38.0298 44.9034 38.1634C44.7642 38.2969 44.5966 38.3636 44.4006 38.3636ZM49.3789 48.5909C48.8931 48.5909 48.4755 48.5284 48.1261 48.4034C47.7766 48.2812 47.4854 48.1193 47.2525 47.9176C47.0224 47.7188 46.8391 47.5057 46.7028 47.2784L47.5039 46.7159C47.5948 46.8352 47.7099 46.9716 47.8491 47.125C47.9883 47.2812 48.1786 47.4162 48.4201 47.5298C48.6644 47.6463 48.984 47.7045 49.3789 47.7045C49.9073 47.7045 50.3434 47.5767 50.6871 47.321C51.0309 47.0653 51.2028 46.6648 51.2028 46.1193V44.7898H51.1175C51.0437 44.9091 50.9386 45.0568 50.8022 45.233C50.6687 45.4062 50.4755 45.5611 50.2227 45.6974C49.9727 45.831 49.6346 45.8977 49.2085 45.8977C48.68 45.8977 48.2056 45.7727 47.7852 45.5227C47.3675 45.2727 47.0366 44.9091 46.7923 44.4318C46.5508 43.9545 46.43 43.375 46.43 42.6932C46.43 42.0227 46.5479 41.4389 46.7837 40.9418C47.0195 40.4418 47.3477 40.0554 47.7681 39.7827C48.1886 39.5071 48.6744 39.3693 49.2255 39.3693C49.6516 39.3693 49.9897 39.4403 50.2397 39.5824C50.4925 39.7216 50.6857 39.8807 50.8192 40.0597C50.9556 40.2358 51.0607 40.3807 51.1346 40.4943H51.2369V39.4545H52.2085V46.1875C52.2085 46.75 52.0806 47.2074 51.8249 47.5597C51.5721 47.9148 51.2312 48.1747 50.8022 48.3395C50.3761 48.5071 49.9016 48.5909 49.3789 48.5909ZM49.3448 44.9943C49.7482 44.9943 50.0891 44.902 50.3675 44.7173C50.646 44.5327 50.8576 44.267 51.0025 43.9205C51.1474 43.5739 51.2198 43.1591 51.2198 42.6761C51.2198 42.2045 51.1488 41.7884 51.0067 41.4276C50.8647 41.0668 50.6545 40.7841 50.3761 40.5795C50.0977 40.375 49.7539 40.2727 49.3448 40.2727C48.9187 40.2727 48.5636 40.3807 48.2795 40.5966C47.9982 40.8125 47.7866 41.1023 47.6445 41.4659C47.5053 41.8295 47.4357 42.233 47.4357 42.6761C47.4357 43.1307 47.5067 43.5327 47.6488 43.8821C47.7937 44.2287 48.0067 44.5014 48.288 44.7003C48.5721 44.8963 48.9244 44.9943 49.3448 44.9943ZM55.055 42.0625V46H54.0494V39.4545H55.021V40.4773H55.1062C55.2596 40.1449 55.4925 39.8778 55.805 39.6761C56.1175 39.4716 56.521 39.3693 57.0153 39.3693C57.4585 39.3693 57.8462 39.4602 58.1786 39.642C58.511 39.821 58.7695 40.0938 58.9542 40.4602C59.1388 40.8239 59.2312 41.2841 59.2312 41.8409V46H58.2255V41.9091C58.2255 41.3949 58.092 40.9943 57.8249 40.7074C57.5579 40.4176 57.1914 40.2727 56.7255 40.2727C56.4045 40.2727 56.1175 40.3423 55.8647 40.4815C55.6147 40.6207 55.4173 40.8239 55.2724 41.0909C55.1275 41.358 55.055 41.6818 55.055 42.0625ZM61.0689 46V39.4545H62.0746V46H61.0689ZM61.5803 38.3636C61.3842 38.3636 61.2152 38.2969 61.0732 38.1634C60.9339 38.0298 60.8643 37.8693 60.8643 37.6818C60.8643 37.4943 60.9339 37.3338 61.0732 37.2003C61.2152 37.0668 61.3842 37 61.5803 37C61.7763 37 61.9439 37.0668 62.0831 37.2003C62.2251 37.3338 62.2962 37.4943 62.2962 37.6818C62.2962 37.8693 62.2251 38.0298 62.0831 38.1634C61.9439 38.2969 61.7763 38.3636 61.5803 38.3636ZM64.9222 42.0625V46H63.9165V39.4545H64.8881V40.4773H64.9734C65.1268 40.1449 65.3597 39.8778 65.6722 39.6761C65.9847 39.4716 66.3881 39.3693 66.8825 39.3693C67.3256 39.3693 67.7134 39.4602 68.0458 39.642C68.3782 39.821 68.6367 40.0938 68.8214 40.4602C69.006 40.8239 69.0984 41.2841 69.0984 41.8409V46H68.0927V41.9091C68.0927 41.3949 67.9592 40.9943 67.6921 40.7074C67.4251 40.4176 67.0586 40.2727 66.5927 40.2727C66.2717 40.2727 65.9847 40.3423 65.7319 40.4815C65.4819 40.6207 65.2844 40.8239 65.1396 41.0909C64.9947 41.358 64.9222 41.6818 64.9222 42.0625ZM73.5781 48.5909C73.0923 48.5909 72.6747 48.5284 72.3253 48.4034C71.9759 48.2812 71.6847 48.1193 71.4517 47.9176C71.2216 47.7188 71.0384 47.5057 70.902 47.2784L71.7031 46.7159C71.794 46.8352 71.9091 46.9716 72.0483 47.125C72.1875 47.2812 72.3778 47.4162 72.6193 47.5298C72.8636 47.6463 73.1832 47.7045 73.5781 47.7045C74.1065 47.7045 74.5426 47.5767 74.8864 47.321C75.2301 47.0653 75.402 46.6648 75.402 46.1193V44.7898H75.3168C75.2429 44.9091 75.1378 45.0568 75.0014 45.233C74.8679 45.4062 74.6747 45.5611 74.4219 45.6974C74.1719 45.831 73.8338 45.8977 73.4077 45.8977C72.8793 45.8977 72.4048 45.7727 71.9844 45.5227C71.5668 45.2727 71.2358 44.9091 70.9915 44.4318C70.75 43.9545 70.6293 43.375 70.6293 42.6932C70.6293 42.0227 70.7472 41.4389 70.983 40.9418C71.2188 40.4418 71.5469 40.0554 71.9673 39.7827C72.3878 39.5071 72.8736 39.3693 73.4247 39.3693C73.8509 39.3693 74.1889 39.4403 74.4389 39.5824C74.6918 39.7216 74.8849 39.8807 75.0185 40.0597C75.1548 40.2358 75.2599 40.3807 75.3338 40.4943H75.4361V39.4545H76.4077V46.1875C76.4077 46.75 76.2798 47.2074 76.0241 47.5597C75.7713 47.9148 75.4304 48.1747 75.0014 48.3395C74.5753 48.5071 74.1009 48.5909 73.5781 48.5909ZM73.544 44.9943C73.9474 44.9943 74.2884 44.902 74.5668 44.7173C74.8452 44.5327 75.0568 44.267 75.2017 43.9205C75.3466 43.5739 75.419 43.1591 75.419 42.6761C75.419 42.2045 75.348 41.7884 75.206 41.4276C75.0639 41.0668 74.8537 40.7841 74.5753 40.5795C74.2969 40.375 73.9531 40.2727 73.544 40.2727C73.1179 40.2727 72.7628 40.3807 72.4787 40.5966C72.1974 40.8125 71.9858 41.1023 71.8438 41.4659C71.7045 41.8295 71.6349 42.233 71.6349 42.6761C71.6349 43.1307 71.706 43.5327 71.848 43.8821C71.9929 44.2287 72.206 44.5014 72.4872 44.7003C72.7713 44.8963 73.1236 44.9943 73.544 44.9943ZM84.4702 39.4545V40.3068H81.0781V39.4545H84.4702ZM82.0668 37.8864H83.0724V44.125C83.0724 44.4091 83.1136 44.6222 83.196 44.7642C83.2813 44.9034 83.3892 44.9972 83.5199 45.0455C83.6534 45.0909 83.794 45.1136 83.9418 45.1136C84.0526 45.1136 84.1435 45.108 84.2145 45.0966C84.2855 45.0824 84.3423 45.071 84.3849 45.0625L84.5895 45.9659C84.5213 45.9915 84.4261 46.017 84.304 46.0426C84.1818 46.071 84.027 46.0852 83.8395 46.0852C83.5554 46.0852 83.277 46.0241 83.0043 45.902C82.7344 45.7798 82.5099 45.5938 82.331 45.3438C82.1548 45.0938 82.0668 44.7784 82.0668 44.3977V37.8864ZM86.6307 48.4545C86.4602 48.4545 86.3082 48.4403 86.1747 48.4119C86.0412 48.3864 85.9489 48.3608 85.8977 48.3352L86.1534 47.4489C86.3977 47.5114 86.6136 47.5341 86.8011 47.517C86.9886 47.5 87.1548 47.4162 87.2997 47.2656C87.4474 47.1179 87.5824 46.8778 87.7045 46.5455L87.892 46.0341L85.4716 39.4545H86.5625L88.3693 44.6705H88.4375L90.2443 39.4545H91.3352L88.5568 46.9545C88.4318 47.2926 88.277 47.5724 88.0923 47.794C87.9077 48.0185 87.6932 48.1847 87.4489 48.2926C87.2074 48.4006 86.9347 48.4545 86.6307 48.4545ZM92.6626 48.4545V39.4545H93.6342V40.4943H93.7536C93.8274 40.3807 93.9297 40.2358 94.0604 40.0597C94.1939 39.8807 94.3842 39.7216 94.6314 39.5824C94.8814 39.4403 95.2195 39.3693 95.6456 39.3693C96.1967 39.3693 96.6825 39.5071 97.103 39.7827C97.5234 40.0582 97.8516 40.4489 98.0874 40.9545C98.3232 41.4602 98.4411 42.0568 98.4411 42.7443C98.4411 43.4375 98.3232 44.0384 98.0874 44.5469C97.8516 45.0526 97.5249 45.4446 97.1072 45.723C96.6896 45.9986 96.2081 46.1364 95.6626 46.1364C95.2422 46.1364 94.9055 46.0668 94.6527 45.9276C94.3999 45.7855 94.2053 45.625 94.0689 45.446C93.9325 45.2642 93.8274 45.1136 93.7536 44.9943H93.6683V48.4545H92.6626ZM93.6513 42.7273C93.6513 43.2216 93.7237 43.6577 93.8686 44.0355C94.0135 44.4105 94.2251 44.7045 94.5036 44.9176C94.782 45.1278 95.1229 45.233 95.5263 45.233C95.9467 45.233 96.2976 45.1222 96.5788 44.9006C96.8629 44.6761 97.076 44.375 97.218 43.9972C97.3629 43.6165 97.4354 43.1932 97.4354 42.7273C97.4354 42.267 97.3643 41.8523 97.2223 41.483C97.0831 41.1108 96.8714 40.8168 96.5874 40.6009C96.3061 40.3821 95.9524 40.2727 95.5263 40.2727C95.1172 40.2727 94.7734 40.3764 94.495 40.5838C94.2166 40.7884 94.0064 41.0753 93.8643 41.4446C93.7223 41.8111 93.6513 42.2386 93.6513 42.7273ZM102.719 46.1364C102.089 46.1364 101.545 45.9972 101.087 45.7188C100.633 45.4375 100.282 45.0455 100.035 44.5426C99.7905 44.0369 99.6683 43.4489 99.6683 42.7784C99.6683 42.108 99.7905 41.517 100.035 41.0057C100.282 40.4915 100.626 40.0909 101.066 39.804C101.509 39.5142 102.026 39.3693 102.617 39.3693C102.958 39.3693 103.295 39.4261 103.627 39.5398C103.96 39.6534 104.262 39.8381 104.535 40.0938C104.808 40.3466 105.025 40.6818 105.187 41.0994C105.349 41.517 105.43 42.0312 105.43 42.642V43.0682H100.384V42.1989H104.407C104.407 41.8295 104.333 41.5 104.185 41.2102C104.04 40.9205 103.833 40.6918 103.563 40.5241C103.296 40.3565 102.981 40.2727 102.617 40.2727C102.217 40.2727 101.87 40.3722 101.577 40.571C101.288 40.767 101.065 41.0227 100.908 41.3381C100.752 41.6534 100.674 41.9915 100.674 42.3523V42.9318C100.674 43.4261 100.759 43.8452 100.93 44.1889C101.103 44.5298 101.343 44.7898 101.65 44.9688C101.957 45.1449 102.313 45.233 102.719 45.233C102.984 45.233 103.222 45.196 103.435 45.1222C103.651 45.0455 103.837 44.9318 103.994 44.7812C104.15 44.6278 104.271 44.4375 104.356 44.2102L105.327 44.483C105.225 44.8125 105.053 45.1023 104.812 45.3523C104.57 45.5994 104.272 45.7926 103.917 45.9318C103.562 46.0682 103.163 46.1364 102.719 46.1364ZM111.596 40.9205L110.692 41.1761C110.636 41.0256 110.552 40.8793 110.441 40.7372C110.333 40.5923 110.185 40.473 109.998 40.3793C109.81 40.2855 109.57 40.2386 109.278 40.2386C108.877 40.2386 108.543 40.331 108.276 40.5156C108.012 40.6974 107.88 40.929 107.88 41.2102C107.88 41.4602 107.971 41.6577 108.153 41.8026C108.335 41.9474 108.619 42.0682 109.005 42.1648L109.977 42.4034C110.562 42.5455 110.998 42.7628 111.285 43.0554C111.572 43.3452 111.715 43.7187 111.715 44.1761C111.715 44.5511 111.607 44.8864 111.391 45.1818C111.178 45.4773 110.88 45.7102 110.496 45.8807C110.113 46.0511 109.667 46.1364 109.158 46.1364C108.491 46.1364 107.938 45.9915 107.501 45.7017C107.063 45.4119 106.786 44.9886 106.67 44.4318L107.624 44.1932C107.715 44.5455 107.887 44.8097 108.14 44.9858C108.396 45.1619 108.729 45.25 109.141 45.25C109.61 45.25 109.982 45.1506 110.258 44.9517C110.536 44.75 110.675 44.5085 110.675 44.2273C110.675 44 110.596 43.8097 110.437 43.6562C110.278 43.5 110.033 43.3835 109.704 43.3068L108.613 43.0511C108.013 42.9091 107.573 42.6889 107.292 42.3906C107.013 42.0895 106.874 41.7131 106.874 41.2614C106.874 40.892 106.978 40.5653 107.185 40.2812C107.396 39.9972 107.681 39.7741 108.042 39.6122C108.406 39.4503 108.817 39.3693 109.278 39.3693C109.925 39.3693 110.434 39.5114 110.803 39.7955C111.175 40.0795 111.44 40.4545 111.596 40.9205ZM114.098 37.2727V40.2727H113.161V37.2727H114.098ZM116.28 37.2727V40.2727H115.343V37.2727H116.28Z" fill="white"/>
  <path d="M37.0568 28V19.2727H42.2898V20.2102H38.1136V23.1591H41.8977V24.0966H38.1136V28H37.0568ZM46.2273 28.1364C45.5966 28.1364 45.0526 27.9972 44.5952 27.7188C44.1406 27.4375 43.7898 27.0455 43.5426 26.5426C43.2983 26.0369 43.1761 25.4489 43.1761 24.7784C43.1761 24.108 43.2983 23.517 43.5426 23.0057C43.7898 22.4915 44.1335 22.0909 44.5739 21.804C45.017 21.5142 45.5341 21.3693 46.125 21.3693C46.4659 21.3693 46.8026 21.4261 47.1349 21.5398C47.4673 21.6534 47.7699 21.8381 48.0426 22.0938C48.3153 22.3466 48.5327 22.6818 48.6946 23.0994C48.8565 23.517 48.9375 24.0312 48.9375 24.642V25.0682H43.892V24.1989H47.9148C47.9148 23.8295 47.8409 23.5 47.6932 23.2102C47.5483 22.9205 47.3409 22.6918 47.071 22.5241C46.804 22.3565 46.4886 22.2727 46.125 22.2727C45.7244 22.2727 45.3778 22.3722 45.0852 22.571C44.7955 22.767 44.5724 23.0227 44.4162 23.3381C44.2599 23.6534 44.1818 23.9915 44.1818 24.3523V24.9318C44.1818 25.4261 44.267 25.8452 44.4375 26.1889C44.6108 26.5298 44.8509 26.7898 45.1577 26.9688C45.4645 27.1449 45.821 27.233 46.2273 27.233C46.4915 27.233 46.7301 27.196 46.9432 27.1222C47.1591 27.0455 47.3452 26.9318 47.5014 26.7812C47.6577 26.6278 47.7784 26.4375 47.8636 26.2102L48.8352 26.483C48.733 26.8125 48.5611 27.1023 48.3196 27.3523C48.0781 27.5994 47.7798 27.7926 47.4247 27.9318C47.0696 28.0682 46.6705 28.1364 46.2273 28.1364ZM53.2116 28.1364C52.581 28.1364 52.0369 27.9972 51.5795 27.7188C51.125 27.4375 50.7741 27.0455 50.527 26.5426C50.2827 26.0369 50.1605 25.4489 50.1605 24.7784C50.1605 24.108 50.2827 23.517 50.527 23.0057C50.7741 22.4915 51.1179 22.0909 51.5582 21.804C52.0014 21.5142 52.5185 21.3693 53.1094 21.3693C53.4503 21.3693 53.7869 21.4261 54.1193 21.5398C54.4517 21.6534 54.7543 21.8381 55.027 22.0938C55.2997 22.3466 55.517 22.6818 55.679 23.0994C55.8409 23.517 55.9219 24.0312 55.9219 24.642V25.0682H50.8764V24.1989H54.8991C54.8991 23.8295 54.8253 23.5 54.6776 23.2102C54.5327 22.9205 54.3253 22.6918 54.0554 22.5241C53.7884 22.3565 53.473 22.2727 53.1094 22.2727C52.7088 22.2727 52.3622 22.3722 52.0696 22.571C51.7798 22.767 51.5568 23.0227 51.4006 23.3381C51.2443 23.6534 51.1662 23.9915 51.1662 24.3523V24.9318C51.1662 25.4261 51.2514 25.8452 51.4219 26.1889C51.5952 26.5298 51.8352 26.7898 52.142 26.9688C52.4489 27.1449 52.8054 27.233 53.2116 27.233C53.4759 27.233 53.7145 27.196 53.9276 27.1222C54.1435 27.0455 54.3295 26.9318 54.4858 26.7812C54.642 26.6278 54.7628 26.4375 54.848 26.2102L55.8196 26.483C55.7173 26.8125 55.5455 27.1023 55.304 27.3523C55.0625 27.5994 54.7642 27.7926 54.4091 27.9318C54.054 28.0682 53.6548 28.1364 53.2116 28.1364ZM59.9233 28.1364C59.3778 28.1364 58.8963 27.9986 58.4787 27.723C58.0611 27.4446 57.7344 27.0526 57.4986 26.5469C57.2628 26.0384 57.1449 25.4375 57.1449 24.7443C57.1449 24.0568 57.2628 23.4602 57.4986 22.9545C57.7344 22.4489 58.0625 22.0582 58.483 21.7827C58.9034 21.5071 59.3892 21.3693 59.9403 21.3693C60.3665 21.3693 60.7031 21.4403 60.9503 21.5824C61.2003 21.7216 61.3906 21.8807 61.5213 22.0597C61.6548 22.2358 61.7585 22.3807 61.8324 22.4943H61.9176V19.2727H62.9233V28H61.9517V26.9943H61.8324C61.7585 27.1136 61.6534 27.2642 61.517 27.446C61.3807 27.625 61.1861 27.7855 60.9332 27.9276C60.6804 28.0668 60.3438 28.1364 59.9233 28.1364ZM60.0597 27.233C60.4631 27.233 60.804 27.1278 61.0824 26.9176C61.3608 26.7045 61.5724 26.4105 61.7173 26.0355C61.8622 25.6577 61.9347 25.2216 61.9347 24.7273C61.9347 24.2386 61.8636 23.8111 61.7216 23.4446C61.5795 23.0753 61.3693 22.7884 61.0909 22.5838C60.8125 22.3764 60.4688 22.2727 60.0597 22.2727C59.6335 22.2727 59.2784 22.3821 58.9943 22.6009C58.7131 22.8168 58.5014 23.1108 58.3594 23.483C58.2202 23.8523 58.1506 24.267 58.1506 24.7273C58.1506 25.1932 58.2216 25.6165 58.3636 25.9972C58.5085 26.375 58.7216 26.6761 59.0028 26.9006C59.2869 27.1222 59.6392 27.233 60.0597 27.233ZM65.0412 28V19.2727H66.0469V22.4943H66.1321C66.206 22.3807 66.3082 22.2358 66.4389 22.0597C66.5724 21.8807 66.7628 21.7216 67.0099 21.5824C67.2599 21.4403 67.598 21.3693 68.0241 21.3693C68.5753 21.3693 69.0611 21.5071 69.4815 21.7827C69.902 22.0582 70.2301 22.4489 70.4659 22.9545C70.7017 23.4602 70.8196 24.0568 70.8196 24.7443C70.8196 25.4375 70.7017 26.0384 70.4659 26.5469C70.2301 27.0526 69.9034 27.4446 69.4858 27.723C69.0682 27.9986 68.5866 28.1364 68.0412 28.1364C67.6207 28.1364 67.2841 28.0668 67.0312 27.9276C66.7784 27.7855 66.5838 27.625 66.4474 27.446C66.3111 27.2642 66.206 27.1136 66.1321 26.9943H66.0128V28H65.0412ZM66.0298 24.7273C66.0298 25.2216 66.1023 25.6577 66.2472 26.0355C66.392 26.4105 66.6037 26.7045 66.8821 26.9176C67.1605 27.1278 67.5014 27.233 67.9048 27.233C68.3253 27.233 68.6761 27.1222 68.9574 26.9006C69.2415 26.6761 69.4545 26.375 69.5966 25.9972C69.7415 25.6165 69.8139 25.1932 69.8139 24.7273C69.8139 24.267 69.7429 23.8523 69.6009 23.483C69.4616 23.1108 69.25 22.8168 68.9659 22.6009C68.6847 22.3821 68.331 22.2727 67.9048 22.2727C67.4957 22.2727 67.152 22.3764 66.8736 22.5838C66.5952 22.7884 66.3849 23.0753 66.2429 23.4446C66.1009 23.8111 66.0298 24.2386 66.0298 24.7273ZM74.2841 28.1534C73.8693 28.1534 73.4929 28.0753 73.1548 27.919C72.8168 27.7599 72.5483 27.5312 72.3494 27.233C72.1506 26.9318 72.0511 26.5682 72.0511 26.142C72.0511 25.767 72.125 25.4631 72.2727 25.2301C72.4205 24.9943 72.6179 24.8097 72.8651 24.6761C73.1122 24.5426 73.3849 24.4432 73.6832 24.3778C73.9844 24.3097 74.2869 24.2557 74.5909 24.2159C74.9886 24.1648 75.3111 24.1264 75.5582 24.1009C75.8082 24.0724 75.9901 24.0256 76.1037 23.9602C76.2202 23.8949 76.2784 23.7812 76.2784 23.6193V23.5852C76.2784 23.1648 76.1634 22.8381 75.9332 22.6051C75.706 22.3722 75.3608 22.2557 74.8977 22.2557C74.4176 22.2557 74.0412 22.3608 73.7685 22.571C73.4957 22.7812 73.304 23.0057 73.1932 23.2443L72.2386 22.9034C72.4091 22.5057 72.6364 22.196 72.9205 21.9744C73.2074 21.75 73.5199 21.5937 73.858 21.5057C74.1989 21.4148 74.5341 21.3693 74.8636 21.3693C75.0739 21.3693 75.3153 21.3949 75.5881 21.446C75.8636 21.4943 76.1293 21.5952 76.3849 21.7486C76.6435 21.902 76.858 22.1335 77.0284 22.4432C77.1989 22.7528 77.2841 23.1676 77.2841 23.6875V28H76.2784V27.1136H76.2273C76.1591 27.2557 76.0455 27.4077 75.8864 27.5696C75.7273 27.7315 75.5156 27.8693 75.2514 27.983C74.9872 28.0966 74.6648 28.1534 74.2841 28.1534ZM74.4375 27.25C74.8352 27.25 75.1705 27.1719 75.4432 27.0156C75.7188 26.8594 75.9261 26.6577 76.0653 26.4105C76.2074 26.1634 76.2784 25.9034 76.2784 25.6307V24.7102C76.2358 24.7614 76.142 24.8082 75.9972 24.8509C75.8551 24.8906 75.6903 24.9261 75.5028 24.9574C75.3182 24.9858 75.1378 25.0114 74.9616 25.0341C74.7884 25.054 74.6477 25.071 74.5398 25.0852C74.2784 25.1193 74.0341 25.1747 73.8068 25.2514C73.5824 25.3253 73.4006 25.4375 73.2614 25.5881C73.125 25.7358 73.0568 25.9375 73.0568 26.1932C73.0568 26.5426 73.1861 26.8068 73.4446 26.9858C73.706 27.1619 74.0369 27.25 74.4375 27.25ZM81.7788 28.1364C81.1651 28.1364 80.6367 27.9915 80.1935 27.7017C79.7504 27.4119 79.4094 27.0128 79.1708 26.5043C78.9322 25.9957 78.8129 25.4148 78.8129 24.7614C78.8129 24.0966 78.935 23.5099 79.1793 23.0014C79.4265 22.4901 79.7702 22.0909 80.2106 21.804C80.6538 21.5142 81.1708 21.3693 81.7617 21.3693C82.2219 21.3693 82.6367 21.4545 83.006 21.625C83.3754 21.7955 83.6779 22.0341 83.9137 22.3409C84.1495 22.6477 84.2958 23.0057 84.3526 23.4148H83.3469C83.2702 23.1165 83.0998 22.8523 82.8356 22.6222C82.5742 22.3892 82.2219 22.2727 81.7788 22.2727C81.3867 22.2727 81.043 22.375 80.7475 22.5795C80.4549 22.7812 80.2262 23.0668 80.0614 23.4361C79.8995 23.8026 79.8185 24.233 79.8185 24.7273C79.8185 25.233 79.8981 25.6733 80.0572 26.0483C80.2191 26.4233 80.4464 26.7145 80.739 26.9219C81.0344 27.1293 81.381 27.233 81.7788 27.233C82.0401 27.233 82.2773 27.1875 82.4904 27.0966C82.7035 27.0057 82.8839 26.875 83.0316 26.7045C83.1793 26.5341 83.2844 26.3295 83.3469 26.0909H84.3526C84.2958 26.4773 84.1552 26.8253 83.9308 27.1349C83.7092 27.4418 83.4151 27.6861 83.0487 27.8679C82.685 28.0469 82.2617 28.1364 81.7788 28.1364ZM86.7603 25.6136L86.7433 24.3693H86.9478L89.8114 21.4545H91.0558L88.0046 24.5398H87.9194L86.7603 25.6136ZM85.8228 28V19.2727H86.8285V28H85.8228ZM89.9819 28L87.4251 24.7614L88.141 24.0625L91.2603 28H89.9819ZM100.362 22.9205L99.4581 23.1761C99.4013 23.0256 99.3175 22.8793 99.2067 22.7372C99.0987 22.5923 98.951 22.473 98.7635 22.3793C98.576 22.2855 98.3359 22.2386 98.0433 22.2386C97.6428 22.2386 97.3089 22.331 97.0419 22.5156C96.7777 22.6974 96.6456 22.929 96.6456 23.2102C96.6456 23.4602 96.7365 23.6577 96.9183 23.8026C97.1001 23.9474 97.3842 24.0682 97.7706 24.1648L98.7422 24.4034C99.3274 24.5455 99.7635 24.7628 100.05 25.0554C100.337 25.3452 100.481 25.7187 100.481 26.1761C100.481 26.5511 100.373 26.8864 100.157 27.1818C99.9439 27.4773 99.6456 27.7102 99.2621 27.8807C98.8786 28.0511 98.4325 28.1364 97.924 28.1364C97.2564 28.1364 96.7038 27.9915 96.2663 27.7017C95.8288 27.4119 95.5518 26.9886 95.4354 26.4318L96.3899 26.1932C96.4808 26.5455 96.6527 26.8097 96.9055 26.9858C97.1612 27.1619 97.495 27.25 97.907 27.25C98.3757 27.25 98.7479 27.1506 99.0234 26.9517C99.3018 26.75 99.4411 26.5085 99.4411 26.2273C99.4411 26 99.3615 25.8097 99.2024 25.6562C99.0433 25.5 98.799 25.3835 98.4695 25.3068L97.3786 25.0511C96.7791 24.9091 96.3388 24.6889 96.0575 24.3906C95.7791 24.0895 95.6399 23.7131 95.6399 23.2614C95.6399 22.892 95.7436 22.5653 95.951 22.2812C96.1612 21.9972 96.4467 21.7741 96.8075 21.6122C97.1712 21.4503 97.5831 21.3693 98.0433 21.3693C98.6911 21.3693 99.1996 21.5114 99.5689 21.7955C99.9411 22.0795 100.205 22.4545 100.362 22.9205ZM104.739 28.1364C104.108 28.1364 103.564 27.9972 103.107 27.7188C102.652 27.4375 102.301 27.0455 102.054 26.5426C101.81 26.0369 101.688 25.4489 101.688 24.7784C101.688 24.108 101.81 23.517 102.054 23.0057C102.301 22.4915 102.645 22.0909 103.086 21.804C103.529 21.5142 104.046 21.3693 104.637 21.3693C104.978 21.3693 105.314 21.4261 105.647 21.5398C105.979 21.6534 106.282 21.8381 106.554 22.0938C106.827 22.3466 107.044 22.6818 107.206 23.0994C107.368 23.517 107.449 24.0312 107.449 24.642V25.0682H102.404V24.1989H106.426C106.426 23.8295 106.353 23.5 106.205 23.2102C106.06 22.9205 105.853 22.6918 105.583 22.5241C105.316 22.3565 105 22.2727 104.637 22.2727C104.236 22.2727 103.89 22.3722 103.597 22.571C103.307 22.767 103.084 23.0227 102.928 23.3381C102.772 23.6534 102.694 23.9915 102.694 24.3523V24.9318C102.694 25.4261 102.779 25.8452 102.949 26.1889C103.123 26.5298 103.363 26.7898 103.669 26.9688C103.976 27.1449 104.333 27.233 104.739 27.233C105.003 27.233 105.242 27.196 105.455 27.1222C105.671 27.0455 105.857 26.9318 106.013 26.7812C106.169 26.6278 106.29 26.4375 106.375 26.2102L107.347 26.483C107.245 26.8125 107.073 27.1023 106.831 27.3523C106.59 27.5994 106.292 27.7926 105.936 27.9318C105.581 28.0682 105.182 28.1364 104.739 28.1364ZM113.615 22.9205L112.712 23.1761C112.655 23.0256 112.571 22.8793 112.461 22.7372C112.353 22.5923 112.205 22.473 112.017 22.3793C111.83 22.2855 111.59 22.2386 111.297 22.2386C110.897 22.2386 110.563 22.331 110.296 22.5156C110.032 22.6974 109.9 22.929 109.9 23.2102C109.9 23.4602 109.99 23.6577 110.172 23.8026C110.354 23.9474 110.638 24.0682 111.025 24.1648L111.996 24.4034C112.581 24.5455 113.017 24.7628 113.304 25.0554C113.591 25.3452 113.735 25.7187 113.735 26.1761C113.735 26.5511 113.627 26.8864 113.411 27.1818C113.198 27.4773 112.9 27.7102 112.516 27.8807C112.132 28.0511 111.686 28.1364 111.178 28.1364C110.51 28.1364 109.958 27.9915 109.52 27.7017C109.083 27.4119 108.806 26.9886 108.689 26.4318L109.644 26.1932C109.735 26.5455 109.907 26.8097 110.159 26.9858C110.415 27.1619 110.749 27.25 111.161 27.25C111.63 27.25 112.002 27.1506 112.277 26.9517C112.556 26.75 112.695 26.5085 112.695 26.2273C112.695 26 112.615 25.8097 112.456 25.6562C112.297 25.5 112.053 25.3835 111.723 25.3068L110.632 25.0511C110.033 24.9091 109.593 24.6889 109.311 24.3906C109.033 24.0895 108.894 23.7131 108.894 23.2614C108.894 22.892 108.998 22.5653 109.205 22.2812C109.415 21.9972 109.701 21.7741 110.061 21.6122C110.425 21.4503 110.837 21.3693 111.297 21.3693C111.945 21.3693 112.453 21.5114 112.823 21.7955C113.195 22.0795 113.459 22.4545 113.615 22.9205ZM119.885 22.9205L118.982 23.1761C118.925 23.0256 118.841 22.8793 118.73 22.7372C118.622 22.5923 118.474 22.473 118.287 22.3793C118.099 22.2855 117.859 22.2386 117.567 22.2386C117.166 22.2386 116.832 22.331 116.565 22.5156C116.301 22.6974 116.169 22.929 116.169 23.2102C116.169 23.4602 116.26 23.6577 116.442 23.8026C116.624 23.9474 116.908 24.0682 117.294 24.1648L118.266 24.4034C118.851 24.5455 119.287 24.7628 119.574 25.0554C119.861 25.3452 120.004 25.7187 120.004 26.1761C120.004 26.5511 119.896 26.8864 119.68 27.1818C119.467 27.4773 119.169 27.7102 118.786 27.8807C118.402 28.0511 117.956 28.1364 117.447 28.1364C116.78 28.1364 116.227 27.9915 115.79 27.7017C115.352 27.4119 115.075 26.9886 114.959 26.4318L115.913 26.1932C116.004 26.5455 116.176 26.8097 116.429 26.9858C116.685 27.1619 117.018 27.25 117.43 27.25C117.899 27.25 118.271 27.1506 118.547 26.9517C118.825 26.75 118.964 26.5085 118.964 26.2273C118.964 26 118.885 25.8097 118.726 25.6562C118.567 25.5 118.322 25.3835 117.993 25.3068L116.902 25.0511C116.303 24.9091 115.862 24.6889 115.581 24.3906C115.303 24.0895 115.163 23.7131 115.163 23.2614C115.163 22.892 115.267 22.5653 115.474 22.2812C115.685 21.9972 115.97 21.7741 116.331 21.6122C116.695 21.4503 117.107 21.3693 117.567 21.3693C118.214 21.3693 118.723 21.5114 119.092 21.7955C119.464 22.0795 119.729 22.4545 119.885 22.9205ZM121.518 28V21.4545H122.524V28H121.518ZM122.029 20.3636C121.833 20.3636 121.664 20.2969 121.522 20.1634C121.383 20.0298 121.314 19.8693 121.314 19.6818C121.314 19.4943 121.383 19.3338 121.522 19.2003C121.664 19.0668 121.833 19 122.029 19C122.225 19 122.393 19.0668 122.532 19.2003C122.674 19.3338 122.745 19.4943 122.745 19.6818C122.745 19.8693 122.674 20.0298 122.532 20.1634C122.393 20.2969 122.225 20.3636 122.029 20.3636ZM127.025 28.1364C126.434 28.1364 125.915 27.9957 125.469 27.7145C125.026 27.4332 124.68 27.0398 124.43 26.5341C124.183 26.0284 124.059 25.4375 124.059 24.7614C124.059 24.0795 124.183 23.4844 124.43 22.9759C124.68 22.4673 125.026 22.0724 125.469 21.7912C125.915 21.5099 126.434 21.3693 127.025 21.3693C127.616 21.3693 128.133 21.5099 128.576 21.7912C129.022 22.0724 129.369 22.4673 129.616 22.9759C129.866 23.4844 129.991 24.0795 129.991 24.7614C129.991 25.4375 129.866 26.0284 129.616 26.5341C129.369 27.0398 129.022 27.4332 128.576 27.7145C128.133 27.9957 127.616 28.1364 127.025 28.1364ZM127.025 27.233C127.474 27.233 127.843 27.1179 128.133 26.8878C128.423 26.6577 128.637 26.3551 128.776 25.9801C128.915 25.6051 128.985 25.1989 128.985 24.7614C128.985 24.3239 128.915 23.9162 128.776 23.5384C128.637 23.1605 128.423 22.8551 128.133 22.6222C127.843 22.3892 127.474 22.2727 127.025 22.2727C126.576 22.2727 126.207 22.3892 125.917 22.6222C125.627 22.8551 125.413 23.1605 125.273 23.5384C125.134 23.9162 125.065 24.3239 125.065 24.7614C125.065 25.1989 125.134 25.6051 125.273 25.9801C125.413 26.3551 125.627 26.6577 125.917 26.8878C126.207 27.1179 126.576 27.233 127.025 27.233ZM132.532 24.0625V28H131.526V21.4545H132.498V22.4773H132.583C132.736 22.1449 132.969 21.8778 133.282 21.6761C133.594 21.4716 133.998 21.3693 134.492 21.3693C134.935 21.3693 135.323 21.4602 135.655 21.642C135.988 21.821 136.246 22.0938 136.431 22.4602C136.615 22.8239 136.708 23.2841 136.708 23.8409V28H135.702V23.9091C135.702 23.3949 135.569 22.9943 135.301 22.7074C135.034 22.4176 134.668 22.2727 134.202 22.2727C133.881 22.2727 133.594 22.3423 133.341 22.4815C133.091 22.6207 132.894 22.8239 132.749 23.0909C132.604 23.358 132.532 23.6818 132.532 24.0625Z" fill="white"/>
  <path d="M16.5 20.5C16.5 18.8431 17.8431 17.5 19.5 17.5H26.5C28.1569 17.5 29.5 18.8431 29.5 20.5V27.5C29.5 29.1569 28.1569 30.5 26.5 30.5H19.5C17.8431 30.5 16.5 29.1569 16.5 27.5V20.5Z" stroke="#808080"/>
  <rect x="16" y="58" width="34" height="16" rx="3" fill="#093B57"/>
  <path d="M21.4219 70L19.2344 62H20.2188L21.8906 68.5156H21.9688L23.6719 62H24.7656L26.4688 68.5156H26.5469L28.2188 62H29.2031L27.0156 70H26.0156L24.25 63.625H24.1875L22.4219 70H21.4219ZM32.3641 70.125C31.8224 70.125 31.3471 69.9961 30.9383 69.7383C30.532 69.4805 30.2143 69.1198 29.9852 68.6562C29.7586 68.1927 29.6453 67.651 29.6453 67.0312C29.6453 66.4062 29.7586 65.8607 29.9852 65.3945C30.2143 64.9284 30.532 64.5664 30.9383 64.3086C31.3471 64.0508 31.8224 63.9219 32.3641 63.9219C32.9057 63.9219 33.3797 64.0508 33.7859 64.3086C34.1948 64.5664 34.5125 64.9284 34.7391 65.3945C34.9682 65.8607 35.0828 66.4062 35.0828 67.0312C35.0828 67.651 34.9682 68.1927 34.7391 68.6562C34.5125 69.1198 34.1948 69.4805 33.7859 69.7383C33.3797 69.9961 32.9057 70.125 32.3641 70.125ZM32.3641 69.2969C32.7755 69.2969 33.1141 69.1914 33.3797 68.9805C33.6453 68.7695 33.8419 68.4922 33.9695 68.1484C34.0971 67.8047 34.1609 67.4323 34.1609 67.0312C34.1609 66.6302 34.0971 66.2565 33.9695 65.9102C33.8419 65.5638 33.6453 65.2839 33.3797 65.0703C33.1141 64.8568 32.7755 64.75 32.3641 64.75C31.9526 64.75 31.6141 64.8568 31.3484 65.0703C31.0828 65.2839 30.8862 65.5638 30.7586 65.9102C30.631 66.2565 30.5672 66.6302 30.5672 67.0312C30.5672 67.4323 30.631 67.8047 30.7586 68.1484C30.8862 68.4922 31.0828 68.7695 31.3484 68.9805C31.6141 69.1914 31.9526 69.2969 32.3641 69.2969ZM36.69 70V64H37.5807V64.9062H37.6432C37.7525 64.6094 37.9505 64.3685 38.2369 64.1836C38.5234 63.9987 38.8463 63.9062 39.2057 63.9062C39.2734 63.9062 39.358 63.9076 39.4596 63.9102C39.5611 63.9128 39.638 63.9167 39.69 63.9219V64.8594C39.6588 64.8516 39.5872 64.8398 39.4752 64.8242C39.3658 64.806 39.2499 64.7969 39.1275 64.7969C38.8359 64.7969 38.5755 64.8581 38.3463 64.9805C38.1197 65.1003 37.94 65.2669 37.8072 65.4805C37.677 65.6914 37.6119 65.9323 37.6119 66.2031V70H36.69ZM41.8422 67.8125L41.8266 66.6719H42.0141L44.6391 64H45.7797L42.9828 66.8281H42.9047L41.8422 67.8125ZM40.9828 70V62H41.9047V70H40.9828ZM44.7953 70L42.4516 67.0312L43.1078 66.3906L45.9672 70H44.7953Z" fill="#18A3F1"/>
</svg>
