<svg xmlns="http://www.w3.org/2000/svg" viewBox="0 0 160 134" fill="none"><path d="M8.67614 1.91193V0.818182H16.3125V1.91193H13.1108V11H11.8778V1.91193H8.67614ZM19.9311 11.1591C19.2417 11.1591 18.6369 10.995 18.1165 10.6669C17.5995 10.3388 17.1951 9.87973 16.9034 9.28977C16.6151 8.69981 16.4709 8.01042 16.4709 7.22159C16.4709 6.42614 16.6151 5.73177 16.9034 5.13849C17.1951 4.54522 17.5995 4.08452 18.1165 3.75639C18.6369 3.42827 19.2417 3.2642 19.9311 3.2642C20.6205 3.2642 21.2238 3.42827 21.7408 3.75639C22.2612 4.08452 22.6655 4.54522 22.9539 5.13849C23.2455 5.73177 23.3914 6.42614 23.3914 7.22159C23.3914 8.01042 23.2455 8.69981 22.9539 9.28977C22.6655 9.87973 22.2612 10.3388 21.7408 10.6669C21.2238 10.995 20.6205 11.1591 19.9311 11.1591ZM19.9311 10.1051C20.4548 10.1051 20.8857 9.97088 21.2238 9.70241C21.5618 9.43395 21.8121 9.08097 21.9745 8.64347C22.1369 8.20597 22.2181 7.73201 22.2181 7.22159C22.2181 6.71117 22.1369 6.23556 21.9745 5.79474C21.8121 5.35393 21.5618 4.99763 21.2238 4.72585C20.8857 4.45407 20.4548 4.31818 19.9311 4.31818C19.4075 4.31818 18.9766 4.45407 18.6385 4.72585C18.3005 4.99763 18.0502 5.35393 17.8878 5.79474C17.7254 6.23556 17.6442 6.71117 17.6442 7.22159C17.6442 7.73201 17.7254 8.20597 17.8878 8.64347C18.0502 9.08097 18.3005 9.43395 18.6385 9.70241C18.9766 9.97088 19.4075 10.1051 19.9311 10.1051ZM27.9459 11.1591C27.3095 11.1591 26.7477 10.9983 26.2605 10.6768C25.7733 10.352 25.3922 9.89465 25.1171 9.30469C24.842 8.71141 24.7044 8.01042 24.7044 7.2017C24.7044 6.39962 24.842 5.7036 25.1171 5.11364C25.3922 4.52367 25.775 4.06794 26.2655 3.74645C26.756 3.42495 27.3228 3.2642 27.9658 3.2642C28.4629 3.2642 28.8557 3.34706 29.1441 3.51278C29.4357 3.67519 29.6578 3.8608 29.8102 4.0696C29.966 4.27509 30.087 4.44413 30.1732 4.5767H30.2726V0.818182H31.4459V11H30.3124V9.8267H30.1732C30.087 9.96591 29.9644 10.1416 29.8053 10.3537C29.6462 10.5625 29.4192 10.7498 29.1242 10.9155C28.8292 11.0779 28.4364 11.1591 27.9459 11.1591ZM28.105 10.1051C28.5756 10.1051 28.9734 9.98248 29.2982 9.73722C29.623 9.48864 29.8699 9.1456 30.0389 8.7081C30.208 8.26728 30.2925 7.75852 30.2925 7.18182C30.2925 6.61174 30.2096 6.11293 30.0439 5.68537C29.8782 5.2545 29.6329 4.91974 29.3081 4.68111C28.9833 4.43916 28.5823 4.31818 28.105 4.31818C27.6078 4.31818 27.1935 4.44579 26.8621 4.70099C26.534 4.95289 26.287 5.29593 26.1213 5.73011C25.9589 6.16098 25.8777 6.64489 25.8777 7.18182C25.8777 7.72538 25.9606 8.21922 26.1263 8.66335C26.2953 9.10417 26.5439 9.45549 26.872 9.71733C27.2035 9.97585 27.6145 10.1051 28.105 10.1051ZM35.8849 11.179C35.4009 11.179 34.9618 11.0878 34.5674 10.9055C34.173 10.7199 33.8598 10.4531 33.6277 10.1051C33.3957 9.75379 33.2797 9.32955 33.2797 8.83239C33.2797 8.39489 33.3659 8.04025 33.5383 7.76847C33.7106 7.49337 33.941 7.27794 34.2293 7.12216C34.5177 6.96638 34.8358 6.85038 35.1839 6.77415C35.5352 6.6946 35.8882 6.63163 36.2428 6.58523C36.7068 6.52557 37.083 6.48082 37.3714 6.45099C37.663 6.41785 37.8751 6.36316 38.0077 6.28693C38.1436 6.2107 38.2116 6.07812 38.2116 5.8892V5.84943C38.2116 5.3589 38.0773 4.97775 37.8089 4.70597C37.5437 4.43419 37.141 4.2983 36.6008 4.2983C36.0406 4.2983 35.6015 4.42093 35.2833 4.66619C34.9651 4.91146 34.7414 5.1733 34.6121 5.4517L33.4985 5.05398C33.6974 4.58996 33.9625 4.22869 34.2939 3.97017C34.6287 3.70833 34.9933 3.52604 35.3877 3.4233C35.7854 3.31723 36.1765 3.2642 36.561 3.2642C36.8063 3.2642 37.088 3.29403 37.4062 3.35369C37.7277 3.41004 38.0375 3.5277 38.3358 3.70668C38.6375 3.88565 38.8877 4.15578 39.0866 4.51705C39.2854 4.87831 39.3849 5.36222 39.3849 5.96875V11H38.2116V9.96591H38.1519C38.0724 10.1316 37.9398 10.3089 37.7542 10.4979C37.5686 10.6868 37.3216 10.8475 37.0134 10.9801C36.7052 11.1127 36.329 11.179 35.8849 11.179ZM36.0638 10.125C36.5278 10.125 36.9189 10.0339 37.2371 9.85156C37.5586 9.66927 37.8006 9.43395 37.963 9.1456C38.1287 8.85724 38.2116 8.55398 38.2116 8.2358V7.16193C38.1618 7.22159 38.0525 7.27628 37.8834 7.32599C37.7177 7.3724 37.5255 7.41383 37.3067 7.45028C37.0913 7.48343 36.8808 7.51326 36.6753 7.53977C36.4732 7.56297 36.3091 7.58286 36.1831 7.59943C35.8782 7.6392 35.5932 7.70384 35.328 7.79332C35.0662 7.8795 34.8541 8.01042 34.6917 8.18608C34.5326 8.35843 34.453 8.59375 34.453 8.89205C34.453 9.29972 34.6038 9.60795 34.9054 9.81676C35.2104 10.0223 35.5965 10.125 36.0638 10.125ZM41.8886 13.8636C41.6897 13.8636 41.5124 13.8471 41.3566 13.8139C41.2009 13.7841 41.0932 13.7543 41.0335 13.7244L41.3318 12.6903C41.6168 12.7633 41.8687 12.7898 42.0875 12.7699C42.3062 12.75 42.5001 12.6522 42.6691 12.4766C42.8415 12.3042 42.9989 12.0241 43.1414 11.6364L43.3602 11.0398L40.5363 3.36364H41.8091L43.917 9.44886H43.9966L46.1045 3.36364H47.3772L44.1358 12.1136C43.9899 12.508 43.8093 12.8345 43.5939 13.093C43.3784 13.3549 43.1282 13.5488 42.8432 13.6747C42.5614 13.8007 42.2432 13.8636 41.8886 13.8636Z" fill="white"/><rect y="26" width="160" height="108" rx="12" fill="#1F1F1F"/><path d="M19.8295 72.1364C19.2386 72.1364 18.7202 71.9957 18.2741 71.7145C17.831 71.4332 17.4844 71.0398 17.2344 70.5341C16.9872 70.0284 16.8636 69.4375 16.8636 68.7614C16.8636 68.0795 16.9872 67.4844 17.2344 66.9759C17.4844 66.4673 17.831 66.0724 18.2741 65.7912C18.7202 65.5099 19.2386 65.3693 19.8295 65.3693C20.4205 65.3693 20.9375 65.5099 21.3807 65.7912C21.8267 66.0724 22.1733 66.4673 22.4205 66.9759C22.6705 67.4844 22.7955 68.0795 22.7955 68.7614C22.7955 69.4375 22.6705 70.0284 22.4205 70.5341C22.1733 71.0398 21.8267 71.4332 21.3807 71.7145C20.9375 71.9957 20.4205 72.1364 19.8295 72.1364ZM19.8295 71.233C20.2784 71.233 20.6477 71.1179 20.9375 70.8878C21.2273 70.6577 21.4418 70.3551 21.581 69.9801C21.7202 69.6051 21.7898 69.1989 21.7898 68.7614C21.7898 68.3239 21.7202 67.9162 21.581 67.5384C21.4418 67.1605 21.2273 66.8551 20.9375 66.6222C20.6477 66.3892 20.2784 66.2727 19.8295 66.2727C19.3807 66.2727 19.0114 66.3892 18.7216 66.6222C18.4318 66.8551 18.2173 67.1605 18.0781 67.5384C17.9389 67.9162 17.8693 68.3239 17.8693 68.7614C17.8693 69.1989 17.9389 69.6051 18.0781 69.9801C18.2173 70.3551 18.4318 70.6577 18.7216 70.8878C19.0114 71.1179 19.3807 71.233 19.8295 71.233ZM27.2454 65.4545V66.3068H23.717V65.4545H27.2454ZM24.7738 72V64.5511C24.7738 64.1761 24.8619 63.8636 25.038 63.6136C25.2141 63.3636 25.4428 63.1761 25.7241 63.0511C26.0053 62.9261 26.3022 62.8636 26.6147 62.8636C26.8619 62.8636 27.0636 62.8835 27.2198 62.9233C27.3761 62.9631 27.4925 63 27.5692 63.0341L27.2795 63.9034C27.2283 63.8864 27.1573 63.8651 27.0664 63.8395C26.9783 63.8139 26.8619 63.8011 26.717 63.8011C26.3846 63.8011 26.1445 63.8849 25.9968 64.0526C25.8519 64.2202 25.7795 64.4659 25.7795 64.7898V72H24.7738ZM39.0866 63.2727V72H38.0639L33.3082 65.1477H33.223V72H32.1662V63.2727H33.1889L37.9616 70.142H38.0469V63.2727H39.0866ZM41.2013 72V63.2727H42.2582V71.0625H46.315V72H41.2013ZM47.9513 72V63.2727H50.9002C51.5849 63.2727 52.1445 63.3963 52.5792 63.6435C53.0167 63.8878 53.3406 64.2188 53.5508 64.6364C53.761 65.054 53.8661 65.5199 53.8661 66.0341C53.8661 66.5483 53.761 67.0156 53.5508 67.4361C53.3434 67.8565 53.0224 68.1918 52.5877 68.4418C52.1531 68.6889 51.5962 68.8125 50.9173 68.8125H48.8036V67.875H50.8832C51.3519 67.875 51.7283 67.794 52.0124 67.6321C52.2965 67.4702 52.5025 67.2514 52.6303 66.9759C52.761 66.6974 52.8263 66.3835 52.8263 66.0341C52.8263 65.6847 52.761 65.3722 52.6303 65.0966C52.5025 64.821 52.2951 64.6051 52.0082 64.4489C51.7212 64.2898 51.3406 64.2102 50.8661 64.2102H49.0082V72H47.9513ZM58.8072 72V65.4545H59.7788V66.4773H59.864C60.0004 66.1278 60.2205 65.8565 60.5245 65.6634C60.8285 65.4673 61.1935 65.3693 61.6197 65.3693C62.0515 65.3693 62.4109 65.4673 62.6978 65.6634C62.9876 65.8565 63.2134 66.1278 63.3754 66.4773H63.4435C63.6112 66.1392 63.8626 65.8707 64.1978 65.6719C64.533 65.4702 64.935 65.3693 65.4038 65.3693C65.989 65.3693 66.4677 65.5526 66.8398 65.919C67.212 66.2827 67.3981 66.8494 67.3981 67.6193V72H66.3924V67.6193C66.3924 67.1364 66.2603 66.7912 65.9961 66.5838C65.7319 66.3764 65.4208 66.2727 65.0629 66.2727C64.6026 66.2727 64.2461 66.4119 63.9933 66.6903C63.7404 66.9659 63.614 67.3153 63.614 67.7386V72H62.5913V67.517C62.5913 67.1449 62.4705 66.8452 62.229 66.6179C61.9876 66.3878 61.6765 66.2727 61.2958 66.2727C61.0344 66.2727 60.7901 66.3423 60.5629 66.4815C60.3384 66.6207 60.1566 66.8139 60.0174 67.0611C59.881 67.3054 59.8129 67.5881 59.8129 67.9091V72H58.8072ZM71.896 72.1364C71.305 72.1364 70.7866 71.9957 70.3406 71.7145C69.8974 71.4332 69.5508 71.0398 69.3008 70.5341C69.0536 70.0284 68.93 69.4375 68.93 68.7614C68.93 68.0795 69.0536 67.4844 69.3008 66.9759C69.5508 66.4673 69.8974 66.0724 70.3406 65.7912C70.7866 65.5099 71.305 65.3693 71.896 65.3693C72.4869 65.3693 73.0039 65.5099 73.4471 65.7912C73.8931 66.0724 74.2397 66.4673 74.4869 66.9759C74.7369 67.4844 74.8619 68.0795 74.8619 68.7614C74.8619 69.4375 74.7369 70.0284 74.4869 70.5341C74.2397 71.0398 73.8931 71.4332 73.4471 71.7145C73.0039 71.9957 72.4869 72.1364 71.896 72.1364ZM71.896 71.233C72.3448 71.233 72.7141 71.1179 73.0039 70.8878C73.2937 70.6577 73.5082 70.3551 73.6474 69.9801C73.7866 69.6051 73.8562 69.1989 73.8562 68.7614C73.8562 68.3239 73.7866 67.9162 73.6474 67.5384C73.5082 67.1605 73.2937 66.8551 73.0039 66.6222C72.7141 66.3892 72.3448 66.2727 71.896 66.2727C71.4471 66.2727 71.0778 66.3892 70.788 66.6222C70.4982 66.8551 70.2837 67.1605 70.1445 67.5384C70.0053 67.9162 69.9357 68.3239 69.9357 68.7614C69.9357 69.1989 70.0053 69.6051 70.1445 69.9801C70.2837 70.3551 70.4982 70.6577 70.788 70.8878C71.0778 71.1179 71.4471 71.233 71.896 71.233ZM78.8686 72.1364C78.3232 72.1364 77.8416 71.9986 77.424 71.723C77.0064 71.4446 76.6797 71.0526 76.4439 70.5469C76.2081 70.0384 76.0902 69.4375 76.0902 68.7443C76.0902 68.0568 76.2081 67.4602 76.4439 66.9545C76.6797 66.4489 77.0078 66.0582 77.4283 65.7827C77.8487 65.5071 78.3345 65.3693 78.8857 65.3693C79.3118 65.3693 79.6484 65.4403 79.8956 65.5824C80.1456 65.7216 80.3359 65.8807 80.4666 66.0597C80.6001 66.2358 80.7038 66.3807 80.7777 66.4943H80.8629V63.2727H81.8686V72H80.897V70.9943H80.7777C80.7038 71.1136 80.5987 71.2642 80.4624 71.446C80.326 71.625 80.1314 71.7855 79.8786 71.9276C79.6257 72.0668 79.2891 72.1364 78.8686 72.1364ZM79.005 71.233C79.4084 71.233 79.7493 71.1278 80.0277 70.9176C80.3061 70.7045 80.5178 70.4105 80.6626 70.0355C80.8075 69.6577 80.88 69.2216 80.88 68.7273C80.88 68.2386 80.8089 67.8111 80.6669 67.4446C80.5249 67.0753 80.3146 66.7884 80.0362 66.5838C79.7578 66.3764 79.4141 66.2727 79.005 66.2727C78.5788 66.2727 78.2237 66.3821 77.9396 66.6009C77.6584 66.8168 77.4467 67.1108 77.3047 67.483C77.1655 67.8523 77.0959 68.267 77.0959 68.7273C77.0959 69.1932 77.1669 69.6165 77.3089 69.9972C77.4538 70.375 77.6669 70.6761 77.9482 70.9006C78.2322 71.1222 78.5845 71.233 79.005 71.233ZM87.9751 69.3239V65.4545H88.9808V72H87.9751V70.892H87.907C87.7536 71.2244 87.5149 71.5071 87.1911 71.7401C86.8672 71.9702 86.4581 72.0852 85.9638 72.0852C85.5547 72.0852 85.1911 71.9957 84.8729 71.8168C84.5547 71.6349 84.3047 71.3622 84.1229 70.9986C83.9411 70.6321 83.8501 70.1705 83.8501 69.6136V65.4545H84.8558V69.5455C84.8558 70.0227 84.9893 70.4034 85.2564 70.6875C85.5263 70.9716 85.87 71.1136 86.2876 71.1136C86.5376 71.1136 86.7919 71.0497 87.0504 70.9219C87.3118 70.794 87.5305 70.598 87.7067 70.3338C87.8857 70.0696 87.9751 69.733 87.9751 69.3239ZM91.8285 63.2727V72H90.8228V63.2727H91.8285ZM96.4148 72.1364C95.7841 72.1364 95.2401 71.9972 94.7827 71.7188C94.3281 71.4375 93.9773 71.0455 93.7301 70.5426C93.4858 70.0369 93.3636 69.4489 93.3636 68.7784C93.3636 68.108 93.4858 67.517 93.7301 67.0057C93.9773 66.4915 94.321 66.0909 94.7614 65.804C95.2045 65.5142 95.7216 65.3693 96.3125 65.3693C96.6534 65.3693 96.9901 65.4261 97.3224 65.5398C97.6548 65.6534 97.9574 65.8381 98.2301 66.0938C98.5028 66.3466 98.7202 66.6818 98.8821 67.0994C99.044 67.517 99.125 68.0312 99.125 68.642V69.0682H94.0795V68.1989H98.1023C98.1023 67.8295 98.0284 67.5 97.8807 67.2102C97.7358 66.9205 97.5284 66.6918 97.2585 66.5241C96.9915 66.3565 96.6761 66.2727 96.3125 66.2727C95.9119 66.2727 95.5653 66.3722 95.2727 66.571C94.983 66.767 94.7599 67.0227 94.6037 67.3381C94.4474 67.6534 94.3693 67.9915 94.3693 68.3523V68.9318C94.3693 69.4261 94.4545 69.8452 94.625 70.1889C94.7983 70.5298 95.0384 70.7898 95.3452 70.9688C95.652 71.1449 96.0085 71.233 96.4148 71.233C96.679 71.233 96.9176 71.196 97.1307 71.1222C97.3466 71.0455 97.5327 70.9318 97.6889 70.7812C97.8452 70.6278 97.9659 70.4375 98.0511 70.2102L99.0227 70.483C98.9205 70.8125 98.7486 71.1023 98.5071 71.3523C98.2656 71.5994 97.9673 71.7926 97.6122 71.9318C97.2571 72.0682 96.858 72.1364 96.4148 72.1364ZM106.945 65.4545V66.3068H103.416V65.4545H106.945ZM104.473 72V64.5511C104.473 64.1761 104.561 63.8636 104.737 63.6136C104.913 63.3636 105.142 63.1761 105.423 63.0511C105.705 62.9261 106.001 62.8636 106.314 62.8636C106.561 62.8636 106.763 62.8835 106.919 62.9233C107.075 62.9631 107.192 63 107.268 63.0341L106.979 63.9034C106.928 63.8864 106.857 63.8651 106.766 63.8395C106.678 63.8139 106.561 63.8011 106.416 63.8011C106.084 63.8011 105.844 63.8849 105.696 64.0526C105.551 64.2202 105.479 64.4659 105.479 64.7898V72H104.473ZM110.744 72.1364C110.153 72.1364 109.634 71.9957 109.188 71.7145C108.745 71.4332 108.398 71.0398 108.148 70.5341C107.901 70.0284 107.778 69.4375 107.778 68.7614C107.778 68.0795 107.901 67.4844 108.148 66.9759C108.398 66.4673 108.745 66.0724 109.188 65.7912C109.634 65.5099 110.153 65.3693 110.744 65.3693C111.335 65.3693 111.852 65.5099 112.295 65.7912C112.741 66.0724 113.087 66.4673 113.335 66.9759C113.585 67.4844 113.71 68.0795 113.71 68.7614C113.71 69.4375 113.585 70.0284 113.335 70.5341C113.087 71.0398 112.741 71.4332 112.295 71.7145C111.852 71.9957 111.335 72.1364 110.744 72.1364ZM110.744 71.233C111.192 71.233 111.562 71.1179 111.852 70.8878C112.141 70.6577 112.356 70.3551 112.495 69.9801C112.634 69.6051 112.704 69.1989 112.704 68.7614C112.704 68.3239 112.634 67.9162 112.495 67.5384C112.356 67.1605 112.141 66.8551 111.852 66.6222C111.562 66.3892 111.192 66.2727 110.744 66.2727C110.295 66.2727 109.925 66.3892 109.636 66.6222C109.346 66.8551 109.131 67.1605 108.992 67.5384C108.853 67.9162 108.783 68.3239 108.783 68.7614C108.783 69.1989 108.853 69.6051 108.992 69.9801C109.131 70.3551 109.346 70.6577 109.636 70.8878C109.925 71.1179 110.295 71.233 110.744 71.233ZM115.245 72V65.4545H116.216V66.4432H116.284C116.404 66.1193 116.62 65.8565 116.932 65.6548C117.245 65.4531 117.597 65.3523 117.989 65.3523C118.063 65.3523 118.155 65.3537 118.266 65.3565C118.377 65.3594 118.461 65.3636 118.517 65.3693V66.392C118.483 66.3835 118.405 66.3707 118.283 66.3537C118.164 66.3338 118.037 66.3239 117.904 66.3239C117.586 66.3239 117.301 66.3906 117.051 66.5241C116.804 66.6548 116.608 66.8366 116.463 67.0696C116.321 67.2997 116.25 67.5625 116.25 67.858V72H115.245ZM21.8068 84.9205L20.9034 85.1761C20.8466 85.0256 20.7628 84.8793 20.652 84.7372C20.544 84.5923 20.3963 84.473 20.2088 84.3793C20.0213 84.2855 19.7812 84.2386 19.4886 84.2386C19.0881 84.2386 18.7543 84.331 18.4872 84.5156C18.223 84.6974 18.0909 84.929 18.0909 85.2102C18.0909 85.4602 18.1818 85.6577 18.3636 85.8026C18.5455 85.9474 18.8295 86.0682 19.2159 86.1648L20.1875 86.4034C20.7727 86.5455 21.2088 86.7628 21.4957 87.0554C21.7827 87.3452 21.9261 87.7187 21.9261 88.1761C21.9261 88.5511 21.8182 88.8864 21.6023 89.1818C21.3892 89.4773 21.0909 89.7102 20.7074 89.8807C20.3239 90.0511 19.8778 90.1364 19.3693 90.1364C18.7017 90.1364 18.1491 89.9915 17.7116 89.7017C17.2741 89.4119 16.9972 88.9886 16.8807 88.4318L17.8352 88.1932C17.9261 88.5455 18.098 88.8097 18.3509 88.9858C18.6065 89.1619 18.9403 89.25 19.3523 89.25C19.821 89.25 20.1932 89.1506 20.4688 88.9517C20.7472 88.75 20.8864 88.5085 20.8864 88.2273C20.8864 88 20.8068 87.8097 20.6477 87.6562C20.4886 87.5 20.2443 87.3835 19.9148 87.3068L18.8239 87.0511C18.2244 86.9091 17.7841 86.6889 17.5028 86.3906C17.2244 86.0895 17.0852 85.7131 17.0852 85.2614C17.0852 84.892 17.1889 84.5653 17.3963 84.2812C17.6065 83.9972 17.892 83.7741 18.2528 83.6122C18.6165 83.4503 19.0284 83.3693 19.4886 83.3693C20.1364 83.3693 20.6449 83.5114 21.0142 83.7955C21.3864 84.0795 21.6506 84.4545 21.8068 84.9205ZM27.565 87.3239V83.4545H28.5707V90H27.565V88.892H27.4968C27.3434 89.2244 27.1048 89.5071 26.7809 89.7401C26.457 89.9702 26.0479 90.0852 25.5536 90.0852C25.1445 90.0852 24.7809 89.9957 24.4627 89.8168C24.1445 89.6349 23.8945 89.3622 23.7127 88.9986C23.5309 88.6321 23.44 88.1705 23.44 87.6136V83.4545H24.4457V87.5455C24.4457 88.0227 24.5792 88.4034 24.8462 88.6875C25.1161 88.9716 25.4599 89.1136 25.8775 89.1136C26.1275 89.1136 26.3817 89.0497 26.6403 88.9219C26.9016 88.794 27.1204 88.598 27.2965 88.3338C27.4755 88.0696 27.565 87.733 27.565 87.3239ZM33.0547 92.5909C32.5689 92.5909 32.1513 92.5284 31.8018 92.4034C31.4524 92.2812 31.1612 92.1193 30.9283 91.9176C30.6982 91.7188 30.5149 91.5057 30.3786 91.2784L31.1797 90.7159C31.2706 90.8352 31.3857 90.9716 31.5249 91.125C31.6641 91.2812 31.8544 91.4162 32.0959 91.5298C32.3402 91.6463 32.6598 91.7045 33.0547 91.7045C33.5831 91.7045 34.0192 91.5767 34.3629 91.321C34.7067 91.0653 34.8786 90.6648 34.8786 90.1193V88.7898H34.7933C34.7195 88.9091 34.6143 89.0568 34.478 89.233C34.3445 89.4062 34.1513 89.5611 33.8984 89.6974C33.6484 89.831 33.3104 89.8977 32.8842 89.8977C32.3558 89.8977 31.8814 89.7727 31.4609 89.5227C31.0433 89.2727 30.7124 88.9091 30.468 88.4318C30.2266 87.9545 30.1058 87.375 30.1058 86.6932C30.1058 86.0227 30.2237 85.4389 30.4595 84.9418C30.6953 84.4418 31.0234 84.0554 31.4439 83.7827C31.8643 83.5071 32.3501 83.3693 32.9013 83.3693C33.3274 83.3693 33.6655 83.4403 33.9155 83.5824C34.1683 83.7216 34.3615 83.8807 34.495 84.0597C34.6314 84.2358 34.7365 84.3807 34.8104 84.4943H34.9126V83.4545H35.8842V90.1875C35.8842 90.75 35.7564 91.2074 35.5007 91.5597C35.2479 91.9148 34.907 92.1747 34.478 92.3395C34.0518 92.5071 33.5774 92.5909 33.0547 92.5909ZM33.0206 88.9943C33.424 88.9943 33.7649 88.902 34.0433 88.7173C34.3217 88.5327 34.5334 88.267 34.6783 87.9205C34.8232 87.5739 34.8956 87.1591 34.8956 86.6761C34.8956 86.2045 34.8246 85.7884 34.6825 85.4276C34.5405 85.0668 34.3303 84.7841 34.0518 84.5795C33.7734 84.375 33.4297 84.2727 33.0206 84.2727C32.5945 84.2727 32.2393 84.3807 31.9553 84.5966C31.674 84.8125 31.4624 85.1023 31.3203 85.4659C31.1811 85.8295 31.1115 86.233 31.1115 86.6761C31.1115 87.1307 31.1825 87.5327 31.3246 87.8821C31.4695 88.2287 31.6825 88.5014 31.9638 88.7003C32.2479 88.8963 32.6001 88.9943 33.0206 88.9943ZM40.3672 92.5909C39.8814 92.5909 39.4638 92.5284 39.1143 92.4034C38.7649 92.2812 38.4737 92.1193 38.2408 91.9176C38.0107 91.7188 37.8274 91.5057 37.6911 91.2784L38.4922 90.7159C38.5831 90.8352 38.6982 90.9716 38.8374 91.125C38.9766 91.2812 39.1669 91.4162 39.4084 91.5298C39.6527 91.6463 39.9723 91.7045 40.3672 91.7045C40.8956 91.7045 41.3317 91.5767 41.6754 91.321C42.0192 91.0653 42.1911 90.6648 42.1911 90.1193V88.7898H42.1058C42.032 88.9091 41.9268 89.0568 41.7905 89.233C41.657 89.4062 41.4638 89.5611 41.2109 89.6974C40.9609 89.831 40.6229 89.8977 40.1967 89.8977C39.6683 89.8977 39.1939 89.7727 38.7734 89.5227C38.3558 89.2727 38.0249 88.9091 37.7805 88.4318C37.5391 87.9545 37.4183 87.375 37.4183 86.6932C37.4183 86.0227 37.5362 85.4389 37.772 84.9418C38.0078 84.4418 38.3359 84.0554 38.7564 83.7827C39.1768 83.5071 39.6626 83.3693 40.2138 83.3693C40.6399 83.3693 40.978 83.4403 41.228 83.5824C41.4808 83.7216 41.674 83.8807 41.8075 84.0597C41.9439 84.2358 42.049 84.3807 42.1229 84.4943H42.2251V83.4545H43.1967V90.1875C43.1967 90.75 43.0689 91.2074 42.8132 91.5597C42.5604 91.9148 42.2195 92.1747 41.7905 92.3395C41.3643 92.5071 40.8899 92.5909 40.3672 92.5909ZM40.3331 88.9943C40.7365 88.9943 41.0774 88.902 41.3558 88.7173C41.6342 88.5327 41.8459 88.267 41.9908 87.9205C42.1357 87.5739 42.2081 87.1591 42.2081 86.6761C42.2081 86.2045 42.1371 85.7884 41.995 85.4276C41.853 85.0668 41.6428 84.7841 41.3643 84.5795C41.0859 84.375 40.7422 84.2727 40.3331 84.2727C39.907 84.2727 39.5518 84.3807 39.2678 84.5966C38.9865 84.8125 38.7749 85.1023 38.6328 85.4659C38.4936 85.8295 38.424 86.233 38.424 86.6761C38.424 87.1307 38.495 87.5327 38.6371 87.8821C38.782 88.2287 38.995 88.5014 39.2763 88.7003C39.5604 88.8963 39.9126 88.9943 40.3331 88.9943ZM47.782 90.1364C47.1513 90.1364 46.6072 89.9972 46.1499 89.7188C45.6953 89.4375 45.3445 89.0455 45.0973 88.5426C44.853 88.0369 44.7308 87.4489 44.7308 86.7784C44.7308 86.108 44.853 85.517 45.0973 85.0057C45.3445 84.4915 45.6882 84.0909 46.1286 83.804C46.5717 83.5142 47.0888 83.3693 47.6797 83.3693C48.0206 83.3693 48.3572 83.4261 48.6896 83.5398C49.022 83.6534 49.3246 83.8381 49.5973 84.0938C49.87 84.3466 50.0874 84.6818 50.2493 85.0994C50.4112 85.517 50.4922 86.0312 50.4922 86.642V87.0682H45.4467V86.1989H49.4695C49.4695 85.8295 49.3956 85.5 49.2479 85.2102C49.103 84.9205 48.8956 84.6918 48.6257 84.5241C48.3587 84.3565 48.0433 84.2727 47.6797 84.2727C47.2791 84.2727 46.9325 84.3722 46.6399 84.571C46.3501 84.767 46.1271 85.0227 45.9709 85.3381C45.8146 85.6534 45.7365 85.9915 45.7365 86.3523V86.9318C45.7365 87.4261 45.8217 87.8452 45.9922 88.1889C46.1655 88.5298 46.4055 88.7898 46.7124 88.9688C47.0192 89.1449 47.3757 89.233 47.782 89.233C48.0462 89.233 48.2848 89.196 48.4979 89.1222C48.7138 89.0455 48.8999 88.9318 49.0561 88.7812C49.2124 88.6278 49.3331 88.4375 49.4183 88.2102L50.3899 88.483C50.2876 88.8125 50.1158 89.1023 49.8743 89.3523C49.6328 89.5994 49.3345 89.7926 48.9794 89.9318C48.6243 90.0682 48.2251 90.1364 47.782 90.1364ZM56.6584 84.9205L55.755 85.1761C55.6982 85.0256 55.6143 84.8793 55.5036 84.7372C55.3956 84.5923 55.2479 84.473 55.0604 84.3793C54.8729 84.2855 54.6328 84.2386 54.3402 84.2386C53.9396 84.2386 53.6058 84.331 53.3388 84.5156C53.0746 84.6974 52.9425 84.929 52.9425 85.2102C52.9425 85.4602 53.0334 85.6577 53.2152 85.8026C53.397 85.9474 53.6811 86.0682 54.0675 86.1648L55.0391 86.4034C55.6243 86.5455 56.0604 86.7628 56.3473 87.0554C56.6342 87.3452 56.7777 87.7187 56.7777 88.1761C56.7777 88.5511 56.6697 88.8864 56.4538 89.1818C56.2408 89.4773 55.9425 89.7102 55.5589 89.8807C55.1754 90.0511 54.7294 90.1364 54.2209 90.1364C53.5533 90.1364 53.0007 89.9915 52.5632 89.7017C52.1257 89.4119 51.8487 88.9886 51.7322 88.4318L52.6868 88.1932C52.7777 88.5455 52.9496 88.8097 53.2024 88.9858C53.4581 89.1619 53.7919 89.25 54.2038 89.25C54.6726 89.25 55.0447 89.1506 55.3203 88.9517C55.5987 88.75 55.7379 88.5085 55.7379 88.2273C55.7379 88 55.6584 87.8097 55.4993 87.6562C55.3402 87.5 55.0959 87.3835 54.7663 87.3068L53.6754 87.0511C53.076 86.9091 52.6357 86.6889 52.3544 86.3906C52.076 86.0895 51.9368 85.7131 51.9368 85.2614C51.9368 84.892 52.0405 84.5653 52.2479 84.2812C52.4581 83.9972 52.7436 83.7741 53.1044 83.6122C53.468 83.4503 53.88 83.3693 54.3402 83.3693C54.9879 83.3693 55.4964 83.5114 55.8658 83.7955C56.2379 84.0795 56.5021 84.4545 56.6584 84.9205ZM61.1381 83.4545V84.3068H57.7461V83.4545H61.1381ZM58.7347 81.8864H59.7404V88.125C59.7404 88.4091 59.7816 88.6222 59.864 88.7642C59.9492 88.9034 60.0572 88.9972 60.1879 89.0455C60.3214 89.0909 60.462 89.1136 60.6097 89.1136C60.7205 89.1136 60.8114 89.108 60.8825 89.0966C60.9535 89.0824 61.0103 89.071 61.0529 89.0625L61.2575 89.9659C61.1893 89.9915 61.0941 90.017 60.9719 90.0426C60.8498 90.071 60.695 90.0852 60.5075 90.0852C60.2234 90.0852 59.945 90.0241 59.6722 89.902C59.4023 89.7798 59.1779 89.5938 58.9989 89.3438C58.8228 89.0938 58.7347 88.7784 58.7347 88.3977V81.8864ZM62.6509 90V83.4545H63.6566V90H62.6509ZM63.1623 82.3636C62.9663 82.3636 62.7972 82.2969 62.6552 82.1634C62.516 82.0298 62.4464 81.8693 62.4464 81.6818C62.4464 81.4943 62.516 81.3338 62.6552 81.2003C62.7972 81.0668 62.9663 81 63.1623 81C63.3583 81 63.5259 81.0668 63.6651 81.2003C63.8072 81.3338 63.8782 81.4943 63.8782 81.6818C63.8782 81.8693 63.8072 82.0298 63.6651 82.1634C63.5259 82.2969 63.3583 82.3636 63.1623 82.3636ZM68.1577 90.1364C67.5668 90.1364 67.0483 89.9957 66.6023 89.7145C66.1591 89.4332 65.8125 89.0398 65.5625 88.5341C65.3153 88.0284 65.1918 87.4375 65.1918 86.7614C65.1918 86.0795 65.3153 85.4844 65.5625 84.9759C65.8125 84.4673 66.1591 84.0724 66.6023 83.7912C67.0483 83.5099 67.5668 83.3693 68.1577 83.3693C68.7486 83.3693 69.2656 83.5099 69.7088 83.7912C70.1548 84.0724 70.5014 84.4673 70.7486 84.9759C70.9986 85.4844 71.1236 86.0795 71.1236 86.7614C71.1236 87.4375 70.9986 88.0284 70.7486 88.5341C70.5014 89.0398 70.1548 89.4332 69.7088 89.7145C69.2656 89.9957 68.7486 90.1364 68.1577 90.1364ZM68.1577 89.233C68.6065 89.233 68.9759 89.1179 69.2656 88.8878C69.5554 88.6577 69.7699 88.3551 69.9091 87.9801C70.0483 87.6051 70.1179 87.1989 70.1179 86.7614C70.1179 86.3239 70.0483 85.9162 69.9091 85.5384C69.7699 85.1605 69.5554 84.8551 69.2656 84.6222C68.9759 84.3892 68.6065 84.2727 68.1577 84.2727C67.7088 84.2727 67.3395 84.3892 67.0497 84.6222C66.7599 84.8551 66.5455 85.1605 66.4062 85.5384C66.267 85.9162 66.1974 86.3239 66.1974 86.7614C66.1974 87.1989 66.267 87.6051 66.4062 87.9801C66.5455 88.3551 66.7599 88.6577 67.0497 88.8878C67.3395 89.1179 67.7088 89.233 68.1577 89.233ZM73.6644 86.0625V90H72.6587V83.4545H73.6303V84.4773H73.7156C73.869 84.1449 74.1019 83.8778 74.4144 83.6761C74.7269 83.4716 75.1303 83.3693 75.6246 83.3693C76.0678 83.3693 76.4556 83.4602 76.788 83.642C77.1204 83.821 77.3789 84.0938 77.5636 84.4602C77.7482 84.8239 77.8406 85.2841 77.8406 85.8409V90H76.8349V85.9091C76.8349 85.3949 76.7013 84.9943 76.4343 84.7074C76.1673 84.4176 75.8008 84.2727 75.3349 84.2727C75.0138 84.2727 74.7269 84.3423 74.4741 84.4815C74.2241 84.6207 74.0266 84.8239 73.8817 85.0909C73.7369 85.358 73.6644 85.6818 73.6644 86.0625ZM84.3146 84.9205L83.4112 85.1761C83.3544 85.0256 83.2706 84.8793 83.1598 84.7372C83.0518 84.5923 82.9041 84.473 82.7166 84.3793C82.5291 84.2855 82.2891 84.2386 81.9964 84.2386C81.5959 84.2386 81.2621 84.331 80.995 84.5156C80.7308 84.6974 80.5987 84.929 80.5987 85.2102C80.5987 85.4602 80.6896 85.6577 80.8714 85.8026C81.0533 85.9474 81.3374 86.0682 81.7237 86.1648L82.6953 86.4034C83.2805 86.5455 83.7166 86.7628 84.0036 87.0554C84.2905 87.3452 84.4339 87.7187 84.4339 88.1761C84.4339 88.5511 84.326 88.8864 84.1101 89.1818C83.897 89.4773 83.5987 89.7102 83.2152 89.8807C82.8317 90.0511 82.3857 90.1364 81.8771 90.1364C81.2095 90.1364 80.657 89.9915 80.2195 89.7017C79.782 89.4119 79.505 88.9886 79.3885 88.4318L80.343 88.1932C80.4339 88.5455 80.6058 88.8097 80.8587 88.9858C81.1143 89.1619 81.4482 89.25 81.8601 89.25C82.3288 89.25 82.701 89.1506 82.9766 88.9517C83.255 88.75 83.3942 88.5085 83.3942 88.2273C83.3942 88 83.3146 87.8097 83.1555 87.6562C82.9964 87.5 82.7521 87.3835 82.4226 87.3068L81.3317 87.0511C80.7322 86.9091 80.2919 86.6889 80.0107 86.3906C79.7322 86.0895 79.593 85.7131 79.593 85.2614C79.593 84.892 79.6967 84.5653 79.9041 84.2812C80.1143 83.9972 80.3999 83.7741 80.7607 83.6122C81.1243 83.4503 81.5362 83.3693 81.9964 83.3693C82.6442 83.3693 83.1527 83.5114 83.522 83.7955C83.8942 84.0795 84.1584 84.4545 84.3146 84.9205Z" fill="white"/><path d="M43.0227 48C42.929 47.7131 42.8054 47.456 42.652 47.2287C42.5014 46.9986 42.321 46.8026 42.1108 46.6406C41.9034 46.4787 41.6676 46.3551 41.4034 46.2699C41.1392 46.1847 40.8494 46.142 40.5341 46.142C40.017 46.142 39.5469 46.2756 39.1236 46.5426C38.7003 46.8097 38.3636 47.2031 38.1136 47.723C37.8636 48.2429 37.7386 48.8807 37.7386 49.6364C37.7386 50.392 37.8651 51.0298 38.1179 51.5497C38.3707 52.0696 38.7131 52.4631 39.1449 52.7301C39.5767 52.9972 40.0625 53.1307 40.6023 53.1307C41.1023 53.1307 41.5426 53.0241 41.9233 52.8111C42.3068 52.5952 42.6051 52.2912 42.8182 51.8991C43.0341 51.5043 43.142 51.0398 43.142 50.5057L43.4659 50.5739H40.8409V49.6364H44.1648V50.5739C44.1648 51.2926 44.0114 51.9176 43.7045 52.4489C43.4006 52.9801 42.9801 53.392 42.4432 53.6847C41.9091 53.9744 41.2955 54.1193 40.6023 54.1193C39.8295 54.1193 39.1506 53.9375 38.5653 53.5739C37.983 53.2102 37.5284 52.6932 37.2017 52.0227C36.8778 51.3523 36.7159 50.5568 36.7159 49.6364C36.7159 48.946 36.8082 48.3253 36.9929 47.7741C37.1804 47.2202 37.4446 46.7486 37.7855 46.3594C38.1264 45.9702 38.5298 45.6719 38.9957 45.4645C39.4616 45.2571 39.9744 45.1534 40.5341 45.1534C40.9943 45.1534 41.4233 45.223 41.821 45.3622C42.2216 45.4986 42.5781 45.6932 42.8906 45.946C43.206 46.196 43.4688 46.4957 43.679 46.8452C43.8892 47.1918 44.0341 47.5767 44.1136 48H43.0227ZM45.8384 54V47.4545H46.81V48.4432H46.8782C46.9975 48.1193 47.2134 47.8565 47.5259 47.6548C47.8384 47.4531 48.1907 47.3523 48.5827 47.3523C48.6566 47.3523 48.7489 47.3537 48.8597 47.3565C48.9705 47.3594 49.0543 47.3636 49.1112 47.3693V48.392C49.0771 48.3835 48.9989 48.3707 48.8768 48.3537C48.7575 48.3338 48.631 48.3239 48.4975 48.3239C48.1793 48.3239 47.8952 48.3906 47.6452 48.5241C47.3981 48.6548 47.2021 48.8366 47.0572 49.0696C46.9151 49.2997 46.8441 49.5625 46.8441 49.858V54H45.8384ZM52.7631 54.1364C52.1722 54.1364 51.6538 53.9957 51.2077 53.7145C50.7646 53.4332 50.418 53.0398 50.168 52.5341C49.9208 52.0284 49.7972 51.4375 49.7972 50.7614C49.7972 50.0795 49.9208 49.4844 50.168 48.9759C50.418 48.4673 50.7646 48.0724 51.2077 47.7912C51.6538 47.5099 52.1722 47.3693 52.7631 47.3693C53.354 47.3693 53.8711 47.5099 54.3143 47.7912C54.7603 48.0724 55.1069 48.4673 55.354 48.9759C55.604 49.4844 55.729 50.0795 55.729 50.7614C55.729 51.4375 55.604 52.0284 55.354 52.5341C55.1069 53.0398 54.7603 53.4332 54.3143 53.7145C53.8711 53.9957 53.354 54.1364 52.7631 54.1364ZM52.7631 53.233C53.212 53.233 53.5813 53.1179 53.8711 52.8878C54.1609 52.6577 54.3754 52.3551 54.5146 51.9801C54.6538 51.6051 54.7234 51.1989 54.7234 50.7614C54.7234 50.3239 54.6538 49.9162 54.5146 49.5384C54.3754 49.1605 54.1609 48.8551 53.8711 48.6222C53.5813 48.3892 53.212 48.2727 52.7631 48.2727C52.3143 48.2727 51.945 48.3892 51.6552 48.6222C51.3654 48.8551 51.1509 49.1605 51.0117 49.5384C50.8725 49.9162 50.8029 50.3239 50.8029 50.7614C50.8029 51.1989 50.8725 51.6051 51.0117 51.9801C51.1509 52.3551 51.3654 52.6577 51.6552 52.8878C51.945 53.1179 52.3143 53.233 52.7631 53.233ZM61.3892 51.3239V47.4545H62.3949V54H61.3892V52.892H61.321C61.1676 53.2244 60.929 53.5071 60.6051 53.7401C60.2813 53.9702 59.8722 54.0852 59.3778 54.0852C58.9688 54.0852 58.6051 53.9957 58.2869 53.8168C57.9688 53.6349 57.7188 53.3622 57.5369 52.9986C57.3551 52.6321 57.2642 52.1705 57.2642 51.6136V47.4545H58.2699V51.5455C58.2699 52.0227 58.4034 52.4034 58.6705 52.6875C58.9403 52.9716 59.2841 53.1136 59.7017 53.1136C59.9517 53.1136 60.206 53.0497 60.4645 52.9219C60.7259 52.794 60.9446 52.598 61.1207 52.3338C61.2997 52.0696 61.3892 51.733 61.3892 51.3239ZM64.2369 56.4545V47.4545H65.2085V48.4943H65.3278C65.4016 48.3807 65.5039 48.2358 65.6346 48.0597C65.7681 47.8807 65.9585 47.7216 66.2056 47.5824C66.4556 47.4403 66.7937 47.3693 67.2198 47.3693C67.771 47.3693 68.2567 47.5071 68.6772 47.7827C69.0977 48.0582 69.4258 48.4489 69.6616 48.9545C69.8974 49.4602 70.0153 50.0568 70.0153 50.7443C70.0153 51.4375 69.8974 52.0384 69.6616 52.5469C69.4258 53.0526 69.0991 53.4446 68.6815 53.723C68.2638 53.9986 67.7823 54.1364 67.2369 54.1364C66.8164 54.1364 66.4798 54.0668 66.2269 53.9276C65.9741 53.7855 65.7795 53.625 65.6431 53.446C65.5067 53.2642 65.4016 53.1136 65.3278 52.9943H65.2425V56.4545H64.2369ZM65.2255 50.7273C65.2255 51.2216 65.2979 51.6577 65.4428 52.0355C65.5877 52.4105 65.7994 52.7045 66.0778 52.9176C66.3562 53.1278 66.6971 53.233 67.1005 53.233C67.521 53.233 67.8718 53.1222 68.1531 52.9006C68.4371 52.6761 68.6502 52.375 68.7923 51.9972C68.9371 51.6165 69.0096 51.1932 69.0096 50.7273C69.0096 50.267 68.9386 49.8523 68.7965 49.483C68.6573 49.1108 68.4457 48.8168 68.1616 48.6009C67.8803 48.3821 67.5266 48.2727 67.1005 48.2727C66.6914 48.2727 66.3477 48.3764 66.0692 48.5838C65.7908 48.7884 65.5806 49.0753 65.4386 49.4446C65.2965 49.8111 65.2255 50.2386 65.2255 50.7273ZM77.5835 54.1364C76.9698 54.1364 76.4414 53.9915 75.9982 53.7017C75.555 53.4119 75.2141 53.0128 74.9755 52.5043C74.7369 51.9957 74.6175 51.4148 74.6175 50.7614C74.6175 50.0966 74.7397 49.5099 74.984 49.0014C75.2312 48.4901 75.5749 48.0909 76.0153 47.804C76.4585 47.5142 76.9755 47.3693 77.5664 47.3693C78.0266 47.3693 78.4414 47.4545 78.8107 47.625C79.18 47.7955 79.4826 48.0341 79.7184 48.3409C79.9542 48.6477 80.1005 49.0057 80.1573 49.4148H79.1516C79.0749 49.1165 78.9045 48.8523 78.6403 48.6222C78.3789 48.3892 78.0266 48.2727 77.5835 48.2727C77.1914 48.2727 76.8477 48.375 76.5522 48.5795C76.2596 48.7812 76.0309 49.0668 75.8661 49.4361C75.7042 49.8026 75.6232 50.233 75.6232 50.7273C75.6232 51.233 75.7028 51.6733 75.8619 52.0483C76.0238 52.4233 76.2511 52.7145 76.5437 52.9219C76.8391 53.1293 77.1857 53.233 77.5835 53.233C77.8448 53.233 78.082 53.1875 78.2951 53.0966C78.5082 53.0057 78.6886 52.875 78.8363 52.7045C78.984 52.5341 79.0891 52.3295 79.1516 52.0909H80.1573C80.1005 52.4773 79.9599 52.8253 79.7354 53.1349C79.5138 53.4418 79.2198 53.6861 78.8533 53.8679C78.4897 54.0469 78.0664 54.1364 77.5835 54.1364ZM83.5536 54.1534C83.1388 54.1534 82.7624 54.0753 82.4244 53.919C82.0863 53.7599 81.8178 53.5312 81.619 53.233C81.4201 52.9318 81.3207 52.5682 81.3207 52.142C81.3207 51.767 81.3945 51.4631 81.5423 51.2301C81.69 50.9943 81.8874 50.8097 82.1346 50.6761C82.3817 50.5426 82.6545 50.4432 82.9528 50.3778C83.2539 50.3097 83.5565 50.2557 83.8604 50.2159C84.2582 50.1648 84.5806 50.1264 84.8278 50.1009C85.0778 50.0724 85.2596 50.0256 85.3732 49.9602C85.4897 49.8949 85.5479 49.7812 85.5479 49.6193V49.5852C85.5479 49.1648 85.4329 48.8381 85.2028 48.6051C84.9755 48.3722 84.6303 48.2557 84.1673 48.2557C83.6871 48.2557 83.3107 48.3608 83.038 48.571C82.7653 48.7812 82.5735 49.0057 82.4627 49.2443L81.5082 48.9034C81.6786 48.5057 81.9059 48.196 82.19 47.9744C82.4769 47.75 82.7894 47.5937 83.1275 47.5057C83.4684 47.4148 83.8036 47.3693 84.1332 47.3693C84.3434 47.3693 84.5849 47.3949 84.8576 47.446C85.1332 47.4943 85.3988 47.5952 85.6545 47.7486C85.913 47.902 86.1275 48.1335 86.2979 48.4432C86.4684 48.7528 86.5536 49.1676 86.5536 49.6875V54H85.5479V53.1136H85.4968C85.4286 53.2557 85.315 53.4077 85.1559 53.5696C84.9968 53.7315 84.7852 53.8693 84.521 53.983C84.2567 54.0966 83.9343 54.1534 83.5536 54.1534ZM83.707 53.25C84.1048 53.25 84.44 53.1719 84.7127 53.0156C84.9883 52.8594 85.1957 52.6577 85.3349 52.4105C85.4769 52.1634 85.5479 51.9034 85.5479 51.6307V50.7102C85.5053 50.7614 85.4116 50.8082 85.2667 50.8509C85.1246 50.8906 84.9599 50.9261 84.7724 50.9574C84.5877 50.9858 84.4073 51.0114 84.2312 51.0341C84.0579 51.054 83.9173 51.071 83.8093 51.0852C83.5479 51.1193 83.3036 51.1747 83.0763 51.2514C82.8519 51.3253 82.6701 51.4375 82.5309 51.5881C82.3945 51.7358 82.3263 51.9375 82.3263 52.1932C82.3263 52.5426 82.4556 52.8068 82.7141 52.9858C82.9755 53.1619 83.3065 53.25 83.707 53.25ZM89.3949 45.2727V54H88.3892V45.2727H89.3949ZM92.2425 45.2727V54H91.2369V45.2727H92.2425ZM100.119 54.1364C99.5277 54.1364 99.0092 53.9957 98.5632 53.7145C98.12 53.4332 97.7734 53.0398 97.5234 52.5341C97.2763 52.0284 97.1527 51.4375 97.1527 50.7614C97.1527 50.0795 97.2763 49.4844 97.5234 48.9759C97.7734 48.4673 98.12 48.0724 98.5632 47.7912C99.0092 47.5099 99.5277 47.3693 100.119 47.3693C100.71 47.3693 101.227 47.5099 101.67 47.7912C102.116 48.0724 102.462 48.4673 102.71 48.9759C102.96 49.4844 103.085 50.0795 103.085 50.7614C103.085 51.4375 102.96 52.0284 102.71 52.5341C102.462 53.0398 102.116 53.4332 101.67 53.7145C101.227 53.9957 100.71 54.1364 100.119 54.1364ZM100.119 53.233C100.567 53.233 100.937 53.1179 101.227 52.8878C101.516 52.6577 101.731 52.3551 101.87 51.9801C102.009 51.6051 102.079 51.1989 102.079 50.7614C102.079 50.3239 102.009 49.9162 101.87 49.5384C101.731 49.1605 101.516 48.8551 101.227 48.6222C100.937 48.3892 100.567 48.2727 100.119 48.2727C99.6697 48.2727 99.3004 48.3892 99.0107 48.6222C98.7209 48.8551 98.5064 49.1605 98.3672 49.5384C98.228 49.9162 98.1584 50.3239 98.1584 50.7614C98.1584 51.1989 98.228 51.6051 98.3672 51.9801C98.5064 52.3551 98.7209 52.6577 99.0107 52.8878C99.3004 53.1179 99.6697 53.233 100.119 53.233ZM105.625 50.0625V54H104.62V47.4545H105.591V48.4773H105.676C105.83 48.1449 106.063 47.8778 106.375 47.6761C106.688 47.4716 107.091 47.3693 107.586 47.3693C108.029 47.3693 108.417 47.4602 108.749 47.642C109.081 47.821 109.34 48.0938 109.525 48.4602C109.709 48.8239 109.801 49.2841 109.801 49.8409V54H108.796V49.9091C108.796 49.3949 108.662 48.9943 108.395 48.7074C108.128 48.4176 107.762 48.2727 107.296 48.2727C106.975 48.2727 106.688 48.3423 106.435 48.4815C106.185 48.6207 105.988 48.8239 105.843 49.0909C105.698 49.358 105.625 49.6818 105.625 50.0625ZM117.861 47.4545V48.3068H114.469V47.4545H117.861ZM115.457 45.8864H116.463V52.125C116.463 52.4091 116.504 52.6222 116.587 52.7642C116.672 52.9034 116.78 52.9972 116.911 53.0455C117.044 53.0909 117.185 53.1136 117.332 53.1136C117.443 53.1136 117.534 53.108 117.605 53.0966C117.676 53.0824 117.733 53.071 117.776 53.0625L117.98 53.9659C117.912 53.9915 117.817 54.017 117.695 54.0426C117.572 54.071 117.418 54.0852 117.23 54.0852C116.946 54.0852 116.668 54.0241 116.395 53.902C116.125 53.7798 115.901 53.5938 115.722 53.3438C115.545 53.0938 115.457 52.7784 115.457 52.3977V45.8864ZM121.962 54.1364C121.371 54.1364 120.853 53.9957 120.407 53.7145C119.964 53.4332 119.617 53.0398 119.367 52.5341C119.12 52.0284 118.996 51.4375 118.996 50.7614C118.996 50.0795 119.12 49.4844 119.367 48.9759C119.617 48.4673 119.964 48.0724 120.407 47.7912C120.853 47.5099 121.371 47.3693 121.962 47.3693C122.553 47.3693 123.07 47.5099 123.513 47.7912C123.96 48.0724 124.306 48.4673 124.553 48.9759C124.803 49.4844 124.928 50.0795 124.928 50.7614C124.928 51.4375 124.803 52.0284 124.553 52.5341C124.306 53.0398 123.96 53.4332 123.513 53.7145C123.07 53.9957 122.553 54.1364 121.962 54.1364ZM121.962 53.233C122.411 53.233 122.781 53.1179 123.07 52.8878C123.36 52.6577 123.575 52.3551 123.714 51.9801C123.853 51.6051 123.923 51.1989 123.923 50.7614C123.923 50.3239 123.853 49.9162 123.714 49.5384C123.575 49.1605 123.36 48.8551 123.07 48.6222C122.781 48.3892 122.411 48.2727 121.962 48.2727C121.513 48.2727 121.144 48.3892 120.854 48.6222C120.565 48.8551 120.35 49.1605 120.211 49.5384C120.072 49.9162 120.002 50.3239 120.002 50.7614C120.002 51.1989 120.072 51.6051 120.211 51.9801C120.35 52.3551 120.565 52.6577 120.854 52.8878C121.144 53.1179 121.513 53.233 121.962 53.233ZM126.463 56.4545V47.4545H127.435V48.4943H127.554C127.628 48.3807 127.73 48.2358 127.861 48.0597C127.995 47.8807 128.185 47.7216 128.432 47.5824C128.682 47.4403 129.02 47.3693 129.446 47.3693C129.998 47.3693 130.483 47.5071 130.904 47.7827C131.324 48.0582 131.652 48.4489 131.888 48.9545C132.124 49.4602 132.242 50.0568 132.242 50.7443C132.242 51.4375 132.124 52.0384 131.888 52.5469C131.652 53.0526 131.326 53.4446 130.908 53.723C130.49 53.9986 130.009 54.1364 129.463 54.1364C129.043 54.1364 128.706 54.0668 128.453 53.9276C128.201 53.7855 128.006 53.625 127.87 53.446C127.733 53.2642 127.628 53.1136 127.554 52.9943H127.469V56.4545H126.463ZM127.452 50.7273C127.452 51.2216 127.525 51.6577 127.669 52.0355C127.814 52.4105 128.026 52.7045 128.304 52.9176C128.583 53.1278 128.924 53.233 129.327 53.233C129.748 53.233 130.098 53.1222 130.38 52.9006C130.664 52.6761 130.877 52.375 131.019 51.9972C131.164 51.6165 131.236 51.1932 131.236 50.7273C131.236 50.267 131.165 49.8523 131.023 49.483C130.884 49.1108 130.672 48.8168 130.388 48.6009C130.107 48.3821 129.753 48.2727 129.327 48.2727C128.918 48.2727 128.574 48.3764 128.296 48.5838C128.017 48.7884 127.807 49.0753 127.665 49.4446C127.523 49.8111 127.452 50.2386 127.452 50.7273ZM133.776 54V47.4545H134.782V54H133.776ZM134.287 46.3636C134.091 46.3636 133.922 46.2969 133.78 46.1634C133.641 46.0298 133.571 45.8693 133.571 45.6818C133.571 45.4943 133.641 45.3338 133.78 45.2003C133.922 45.0668 134.091 45 134.287 45C134.483 45 134.651 45.0668 134.79 45.2003C134.932 45.3338 135.003 45.4943 135.003 45.6818C135.003 45.8693 134.932 46.0298 134.79 46.1634C134.651 46.2969 134.483 46.3636 134.287 46.3636ZM139.283 54.1364C138.669 54.1364 138.141 53.9915 137.697 53.7017C137.254 53.4119 136.913 53.0128 136.675 52.5043C136.436 51.9957 136.317 51.4148 136.317 50.7614C136.317 50.0966 136.439 49.5099 136.683 49.0014C136.93 48.4901 137.274 48.0909 137.714 47.804C138.158 47.5142 138.675 47.3693 139.266 47.3693C139.726 47.3693 140.141 47.4545 140.51 47.625C140.879 47.7955 141.182 48.0341 141.418 48.3409C141.653 48.6477 141.8 49.0057 141.857 49.4148H140.851C140.774 49.1165 140.604 48.8523 140.339 48.6222C140.078 48.3892 139.726 48.2727 139.283 48.2727C138.891 48.2727 138.547 48.375 138.251 48.5795C137.959 48.7812 137.73 49.0668 137.565 49.4361C137.403 49.8026 137.322 50.233 137.322 50.7273C137.322 51.233 137.402 51.6733 137.561 52.0483C137.723 52.4233 137.95 52.7145 138.243 52.9219C138.538 53.1293 138.885 53.233 139.283 53.233C139.544 53.233 139.781 53.1875 139.994 53.0966C140.207 53.0057 140.388 52.875 140.536 52.7045C140.683 52.5341 140.788 52.3295 140.851 52.0909H141.857C141.8 52.4773 141.659 52.8253 141.435 53.1349C141.213 53.4418 140.919 53.6861 140.553 53.8679C140.189 54.0469 139.766 54.1364 139.283 54.1364Z" fill="white"/><rect x="16" y="102" width="34" height="16" rx="3" fill="#093B57"/><path d="M21.4219 114L19.2344 106H20.2188L21.8906 112.516H21.9688L23.6719 106H24.7656L26.4688 112.516H26.5469L28.2188 106H29.2031L27.0156 114H26.0156L24.25 107.625H24.1875L22.4219 114H21.4219ZM32.3641 114.125C31.8224 114.125 31.3471 113.996 30.9383 113.738C30.532 113.48 30.2143 113.12 29.9852 112.656C29.7586 112.193 29.6453 111.651 29.6453 111.031C29.6453 110.406 29.7586 109.861 29.9852 109.395C30.2143 108.928 30.532 108.566 30.9383 108.309C31.3471 108.051 31.8224 107.922 32.3641 107.922C32.9057 107.922 33.3797 108.051 33.7859 108.309C34.1948 108.566 34.5125 108.928 34.7391 109.395C34.9682 109.861 35.0828 110.406 35.0828 111.031C35.0828 111.651 34.9682 112.193 34.7391 112.656C34.5125 113.12 34.1948 113.48 33.7859 113.738C33.3797 113.996 32.9057 114.125 32.3641 114.125ZM32.3641 113.297C32.7755 113.297 33.1141 113.191 33.3797 112.98C33.6453 112.77 33.8419 112.492 33.9695 112.148C34.0971 111.805 34.1609 111.432 34.1609 111.031C34.1609 110.63 34.0971 110.257 33.9695 109.91C33.8419 109.564 33.6453 109.284 33.3797 109.07C33.1141 108.857 32.7755 108.75 32.3641 108.75C31.9526 108.75 31.6141 108.857 31.3484 109.07C31.0828 109.284 30.8862 109.564 30.7586 109.91C30.631 110.257 30.5672 110.63 30.5672 111.031C30.5672 111.432 30.631 111.805 30.7586 112.148C30.8862 112.492 31.0828 112.77 31.3484 112.98C31.6141 113.191 31.9526 113.297 32.3641 113.297ZM36.69 114V108H37.5807V108.906H37.6432C37.7525 108.609 37.9505 108.368 38.2369 108.184C38.5234 107.999 38.8463 107.906 39.2057 107.906C39.2734 107.906 39.358 107.908 39.4596 107.91C39.5611 107.913 39.638 107.917 39.69 107.922V108.859C39.6588 108.852 39.5872 108.84 39.4752 108.824C39.3658 108.806 39.2499 108.797 39.1275 108.797C38.8359 108.797 38.5755 108.858 38.3463 108.98C38.1197 109.1 37.94 109.267 37.8072 109.48C37.677 109.691 37.6119 109.932 37.6119 110.203V114H36.69ZM41.8422 111.812L41.8266 110.672H42.0141L44.6391 108H45.7797L42.9828 110.828H42.9047L41.8422 111.812ZM40.9828 114V106H41.9047V114H40.9828ZM44.7953 114L42.4516 111.031L43.1078 110.391L45.9672 114H44.7953Z" fill="#18A3F1"/><path d="M16 46.5C16 44.567 17.567 43 19.5 43H26.5C28.433 43 30 44.567 30 46.5V53.5C30 55.433 28.433 57 26.5 57H19.5C17.567 57 16 55.433 16 53.5V46.5Z" fill="#4CAD00"/><path d="M19.5 50L22.5 53L26.5 46.5" stroke="white"/></svg>