<svg xmlns="http://www.w3.org/2000/svg" viewBox="0 0 160 90" fill="none"><rect width="160" height="90" rx="12" fill="#1F1F1F"/><path d="M17.6648 37.2727L20.2557 44.6193H20.358L22.9489 37.2727H24.0568L20.8523 46H19.7614L16.5568 37.2727H17.6648ZM25.2798 46V39.4545H26.2855V46H25.2798ZM25.7912 38.3636C25.5952 38.3636 25.4261 38.2969 25.2841 38.1634C25.1449 38.0298 25.0753 37.8693 25.0753 37.6818C25.0753 37.4943 25.1449 37.3338 25.2841 37.2003C25.4261 37.0668 25.5952 37 25.7912 37C25.9872 37 26.1548 37.0668 26.294 37.2003C26.4361 37.3338 26.5071 37.4943 26.5071 37.6818C26.5071 37.8693 26.4361 38.0298 26.294 38.1634C26.1548 38.2969 25.9872 38.3636 25.7912 38.3636ZM30.8718 46.1364C30.2411 46.1364 29.6971 45.9972 29.2397 45.7188C28.7852 45.4375 28.4343 45.0455 28.1871 44.5426C27.9428 44.0369 27.8207 43.4489 27.8207 42.7784C27.8207 42.108 27.9428 41.517 28.1871 41.0057C28.4343 40.4915 28.7781 40.0909 29.2184 39.804C29.6616 39.5142 30.1786 39.3693 30.7695 39.3693C31.1104 39.3693 31.4471 39.4261 31.7795 39.5398C32.1119 39.6534 32.4144 39.8381 32.6871 40.0938C32.9599 40.3466 33.1772 40.6818 33.3391 41.0994C33.5011 41.517 33.582 42.0312 33.582 42.642V43.0682H28.5366V42.1989H32.5593C32.5593 41.8295 32.4854 41.5 32.3377 41.2102C32.1928 40.9205 31.9854 40.6918 31.7156 40.5241C31.4485 40.3565 31.1332 40.2727 30.7695 40.2727C30.369 40.2727 30.0224 40.3722 29.7298 40.571C29.44 40.767 29.217 41.0227 29.0607 41.3381C28.9045 41.6534 28.8263 41.9915 28.8263 42.3523V42.9318C28.8263 43.4261 28.9116 43.8452 29.082 44.1889C29.2553 44.5298 29.4954 44.7898 29.8022 44.9688C30.109 45.1449 30.4656 45.233 30.8718 45.233C31.136 45.233 31.3746 45.196 31.5877 45.1222C31.8036 45.0455 31.9897 44.9318 32.146 44.7812C32.3022 44.6278 32.4229 44.4375 32.5082 44.2102L33.4798 44.483C33.3775 44.8125 33.2056 45.1023 32.9641 45.3523C32.7227 45.5994 32.4244 45.7926 32.0692 45.9318C31.7141 46.0682 31.315 46.1364 30.8718 46.1364ZM36.1175 42.0625V46H35.1119V39.4545H36.0835V40.4773H36.1687C36.3221 40.1449 36.555 39.8778 36.8675 39.6761C37.18 39.4716 37.5835 39.3693 38.0778 39.3693C38.521 39.3693 38.9087 39.4602 39.2411 39.642C39.5735 39.821 39.832 40.0938 40.0167 40.4602C40.2013 40.8239 40.2937 41.2841 40.2937 41.8409V46H39.288V41.9091C39.288 41.3949 39.1545 40.9943 38.8874 40.7074C38.6204 40.4176 38.2539 40.2727 37.788 40.2727C37.467 40.2727 37.18 40.3423 36.9272 40.4815C36.6772 40.6207 36.4798 40.8239 36.3349 41.0909C36.19 41.358 36.1175 41.6818 36.1175 42.0625ZM43.1371 42.0625V46H42.1314V39.4545H43.103V40.4773H43.1882C43.3416 40.1449 43.5746 39.8778 43.8871 39.6761C44.1996 39.4716 44.603 39.3693 45.0973 39.3693C45.5405 39.3693 45.9283 39.4602 46.2607 39.642C46.593 39.821 46.8516 40.0938 47.0362 40.4602C47.2209 40.8239 47.3132 41.2841 47.3132 41.8409V46H46.3075V41.9091C46.3075 41.3949 46.174 40.9943 45.907 40.7074C45.6399 40.4176 45.2734 40.2727 44.8075 40.2727C44.4865 40.2727 44.1996 40.3423 43.9467 40.4815C43.6967 40.6207 43.4993 40.8239 43.3544 41.0909C43.2095 41.358 43.1371 41.6818 43.1371 42.0625ZM51.0771 46.1534C50.6623 46.1534 50.2859 46.0753 49.9478 45.919C49.6097 45.7599 49.3413 45.5312 49.1424 45.233C48.9435 44.9318 48.8441 44.5682 48.8441 44.142C48.8441 43.767 48.918 43.4631 49.0657 43.2301C49.2134 42.9943 49.4109 42.8097 49.658 42.6761C49.9052 42.5426 50.1779 42.4432 50.4762 42.3778C50.7773 42.3097 51.0799 42.2557 51.3839 42.2159C51.7816 42.1648 52.104 42.1264 52.3512 42.1009C52.6012 42.0724 52.783 42.0256 52.8967 41.9602C53.0131 41.8949 53.0714 41.7812 53.0714 41.6193V41.5852C53.0714 41.1648 52.9563 40.8381 52.7262 40.6051C52.4989 40.3722 52.1538 40.2557 51.6907 40.2557C51.2106 40.2557 50.8342 40.3608 50.5614 40.571C50.2887 40.7812 50.0969 41.0057 49.9862 41.2443L49.0316 40.9034C49.2021 40.5057 49.4293 40.196 49.7134 39.9744C50.0004 39.75 50.3129 39.5937 50.6509 39.5057C50.9918 39.4148 51.3271 39.3693 51.6566 39.3693C51.8668 39.3693 52.1083 39.3949 52.381 39.446C52.6566 39.4943 52.9222 39.5952 53.1779 39.7486C53.4364 39.902 53.6509 40.1335 53.8214 40.4432C53.9918 40.7528 54.0771 41.1676 54.0771 41.6875V46H53.0714V45.1136H53.0202C52.9521 45.2557 52.8384 45.4077 52.6793 45.5696C52.5202 45.7315 52.3086 45.8693 52.0444 45.983C51.7802 46.0966 51.4577 46.1534 51.0771 46.1534ZM51.2305 45.25C51.6282 45.25 51.9634 45.1719 52.2362 45.0156C52.5117 44.8594 52.7191 44.6577 52.8583 44.4105C53.0004 44.1634 53.0714 43.9034 53.0714 43.6307V42.7102C53.0288 42.7614 52.935 42.8082 52.7901 42.8509C52.6481 42.8906 52.4833 42.9261 52.2958 42.9574C52.1112 42.9858 51.9308 43.0114 51.7546 43.0341C51.5813 43.054 51.4407 43.071 51.3327 43.0852C51.0714 43.1193 50.8271 43.1747 50.5998 43.2514C50.3754 43.3253 50.1935 43.4375 50.0543 43.5881C49.918 43.7358 49.8498 43.9375 49.8498 44.1932C49.8498 44.5426 49.979 44.8068 50.2376 44.9858C50.4989 45.1619 50.8299 45.25 51.2305 45.25Z" fill="white"/><path d="M37.0568 19.2727H38.3182L41.2841 26.517H41.3864L44.3523 19.2727H45.6136V28H44.625V21.3693H44.5398L41.8125 28H40.858L38.1307 21.3693H38.0455V28H37.0568V19.2727ZM50.3406 28.1364C49.7099 28.1364 49.1658 27.9972 48.7085 27.7188C48.2539 27.4375 47.9031 27.0455 47.6559 26.5426C47.4116 26.0369 47.2894 25.4489 47.2894 24.7784C47.2894 24.108 47.4116 23.517 47.6559 23.0057C47.9031 22.4915 48.2468 22.0909 48.6871 21.804C49.1303 21.5142 49.6474 21.3693 50.2383 21.3693C50.5792 21.3693 50.9158 21.4261 51.2482 21.5398C51.5806 21.6534 51.8832 21.8381 52.1559 22.0938C52.4286 22.3466 52.646 22.6818 52.8079 23.0994C52.9698 23.517 53.0508 24.0312 53.0508 24.642V25.0682H48.0053V24.1989H52.0281C52.0281 23.8295 51.9542 23.5 51.8065 23.2102C51.6616 22.9205 51.4542 22.6918 51.1843 22.5241C50.9173 22.3565 50.6019 22.2727 50.2383 22.2727C49.8377 22.2727 49.4911 22.3722 49.1985 22.571C48.9087 22.767 48.6857 23.0227 48.5295 23.3381C48.3732 23.6534 48.2951 23.9915 48.2951 24.3523V24.9318C48.2951 25.4261 48.3803 25.8452 48.5508 26.1889C48.7241 26.5298 48.9641 26.7898 49.271 26.9688C49.5778 27.1449 49.9343 27.233 50.3406 27.233C50.6048 27.233 50.8434 27.196 51.0565 27.1222C51.2724 27.0455 51.4585 26.9318 51.6147 26.7812C51.771 26.6278 51.8917 26.4375 51.9769 26.2102L52.9485 26.483C52.8462 26.8125 52.6744 27.1023 52.4329 27.3523C52.1914 27.5994 51.8931 27.7926 51.538 27.9318C51.1829 28.0682 50.7837 28.1364 50.3406 28.1364ZM57.3249 28.1364C56.6942 28.1364 56.1502 27.9972 55.6928 27.7188C55.2383 27.4375 54.8874 27.0455 54.6403 26.5426C54.396 26.0369 54.2738 25.4489 54.2738 24.7784C54.2738 24.108 54.396 23.517 54.6403 23.0057C54.8874 22.4915 55.2312 22.0909 55.6715 21.804C56.1147 21.5142 56.6317 21.3693 57.2227 21.3693C57.5636 21.3693 57.9002 21.4261 58.2326 21.5398C58.565 21.6534 58.8675 21.8381 59.1403 22.0938C59.413 22.3466 59.6303 22.6818 59.7923 23.0994C59.9542 23.517 60.0352 24.0312 60.0352 24.642V25.0682H54.9897V24.1989H59.0124C59.0124 23.8295 58.9386 23.5 58.7908 23.2102C58.646 22.9205 58.4386 22.6918 58.1687 22.5241C57.9016 22.3565 57.5863 22.2727 57.2227 22.2727C56.8221 22.2727 56.4755 22.3722 56.1829 22.571C55.8931 22.767 55.6701 23.0227 55.5138 23.3381C55.3576 23.6534 55.2795 23.9915 55.2795 24.3523V24.9318C55.2795 25.4261 55.3647 25.8452 55.5352 26.1889C55.7085 26.5298 55.9485 26.7898 56.2553 26.9688C56.5621 27.1449 56.9187 27.233 57.3249 27.233C57.5891 27.233 57.8278 27.196 58.0408 27.1222C58.2567 27.0455 58.4428 26.9318 58.5991 26.7812C58.7553 26.6278 58.8761 26.4375 58.9613 26.2102L59.9329 26.483C59.8306 26.8125 59.6587 27.1023 59.4173 27.3523C59.1758 27.5994 58.8775 27.7926 58.5224 27.9318C58.1673 28.0682 57.7681 28.1364 57.3249 28.1364ZM64.4116 21.4545V22.3068H61.0195V21.4545H64.4116ZM62.0082 19.8864H63.0138V26.125C63.0138 26.4091 63.055 26.6222 63.1374 26.7642C63.2227 26.9034 63.3306 26.9972 63.4613 27.0455C63.5948 27.0909 63.7354 27.1136 63.8832 27.1136C63.994 27.1136 64.0849 27.108 64.1559 27.0966C64.2269 27.0824 64.2837 27.071 64.3263 27.0625L64.5309 27.9659C64.4627 27.9915 64.3675 28.017 64.2454 28.0426C64.1232 28.071 63.9684 28.0852 63.7809 28.0852C63.4968 28.0852 63.2184 28.0241 62.9457 27.902C62.6758 27.7798 62.4513 27.5938 62.2724 27.3438C62.0962 27.0938 62.0082 26.7784 62.0082 26.3977V19.8864ZM69.7937 28H68.6857L71.8903 19.2727H72.9812L76.1857 28H75.0778L72.4698 20.6534H72.4016L69.7937 28ZM70.2028 24.5909H74.6687V25.5284H70.2028V24.5909ZM78.4144 19.2727V28H77.4087V19.2727H78.4144ZM80.2564 28V21.4545H81.2621V28H80.2564ZM80.7678 20.3636C80.5717 20.3636 80.4027 20.2969 80.2607 20.1634C80.1214 20.0298 80.0518 19.8693 80.0518 19.6818C80.0518 19.4943 80.1214 19.3338 80.2607 19.2003C80.4027 19.0668 80.5717 19 80.7678 19C80.9638 19 81.1314 19.0668 81.2706 19.2003C81.4126 19.3338 81.4837 19.4943 81.4837 19.6818C81.4837 19.8693 81.4126 20.0298 81.2706 20.1634C81.1314 20.2969 80.9638 20.3636 80.7678 20.3636ZM85.7631 28.1364C85.1495 28.1364 84.6211 27.9915 84.1779 27.7017C83.7347 27.4119 83.3938 27.0128 83.1552 26.5043C82.9165 25.9957 82.7972 25.4148 82.7972 24.7614C82.7972 24.0966 82.9194 23.5099 83.1637 23.0014C83.4109 22.4901 83.7546 22.0909 84.195 21.804C84.6381 21.5142 85.1552 21.3693 85.7461 21.3693C86.2063 21.3693 86.6211 21.4545 86.9904 21.625C87.3597 21.7955 87.6623 22.0341 87.8981 22.3409C88.1339 22.6477 88.2802 23.0057 88.337 23.4148H87.3313C87.2546 23.1165 87.0842 22.8523 86.82 22.6222C86.5586 22.3892 86.2063 22.2727 85.7631 22.2727C85.3711 22.2727 85.0273 22.375 84.7319 22.5795C84.4393 22.7812 84.2106 23.0668 84.0458 23.4361C83.8839 23.8026 83.8029 24.233 83.8029 24.7273C83.8029 25.233 83.8825 25.6733 84.0415 26.0483C84.2035 26.4233 84.4308 26.7145 84.7234 26.9219C85.0188 27.1293 85.3654 27.233 85.7631 27.233C86.0245 27.233 86.2617 27.1875 86.4748 27.0966C86.6879 27.0057 86.8683 26.875 87.016 26.7045C87.1637 26.5341 87.2688 26.3295 87.3313 26.0909H88.337C88.2802 26.4773 88.1396 26.8253 87.9151 27.1349C87.6935 27.4418 87.3995 27.6861 87.033 27.8679C86.6694 28.0469 86.2461 28.1364 85.7631 28.1364ZM92.5515 28.1364C91.9208 28.1364 91.3768 27.9972 90.9194 27.7188C90.4648 27.4375 90.114 27.0455 89.8668 26.5426C89.6225 26.0369 89.5004 25.4489 89.5004 24.7784C89.5004 24.108 89.6225 23.517 89.8668 23.0057C90.114 22.4915 90.4577 22.0909 90.8981 21.804C91.3413 21.5142 91.8583 21.3693 92.4492 21.3693C92.7901 21.3693 93.1268 21.4261 93.4592 21.5398C93.7915 21.6534 94.0941 21.8381 94.3668 22.0938C94.6396 22.3466 94.8569 22.6818 95.0188 23.0994C95.1808 23.517 95.2617 24.0312 95.2617 24.642V25.0682H90.2163V24.1989H94.239C94.239 23.8295 94.1651 23.5 94.0174 23.2102C93.8725 22.9205 93.6651 22.6918 93.3952 22.5241C93.1282 22.3565 92.8129 22.2727 92.4492 22.2727C92.0487 22.2727 91.7021 22.3722 91.4094 22.571C91.1197 22.767 90.8967 23.0227 90.7404 23.3381C90.5842 23.6534 90.506 23.9915 90.506 24.3523V24.9318C90.506 25.4261 90.5913 25.8452 90.7617 26.1889C90.935 26.5298 91.1751 26.7898 91.4819 26.9688C91.7887 27.1449 92.1452 27.233 92.5515 27.233C92.8157 27.233 93.0543 27.196 93.2674 27.1222C93.4833 27.0455 93.6694 26.9318 93.8256 26.7812C93.9819 26.6278 94.1026 26.4375 94.1879 26.2102L95.1594 26.483C95.0572 26.8125 94.8853 27.1023 94.6438 27.3523C94.4023 27.5994 94.104 27.7926 93.7489 27.9318C93.3938 28.0682 92.9947 28.1364 92.5515 28.1364ZM103.081 21.4545V22.3068H99.5529V21.4545H103.081ZM100.61 28V20.5511C100.61 20.1761 100.698 19.8636 100.874 19.6136C101.05 19.3636 101.279 19.1761 101.56 19.0511C101.841 18.9261 102.138 18.8636 102.451 18.8636C102.698 18.8636 102.9 18.8835 103.056 18.9233C103.212 18.9631 103.328 19 103.405 19.0341L103.115 19.9034C103.064 19.8864 102.993 19.8651 102.902 19.8395C102.814 19.8139 102.698 19.8011 102.553 19.8011C102.221 19.8011 101.98 19.8849 101.833 20.0526C101.688 20.2202 101.615 20.4659 101.615 20.7898V28H100.61ZM104.491 28V21.4545H105.462V22.4432H105.531C105.65 22.1193 105.866 21.8565 106.178 21.6548C106.491 21.4531 106.843 21.3523 107.235 21.3523C107.309 21.3523 107.401 21.3537 107.512 21.3565C107.623 21.3594 107.707 21.3636 107.763 21.3693V22.392C107.729 22.3835 107.651 22.3707 107.529 22.3537C107.41 22.3338 107.283 22.3239 107.15 22.3239C106.832 22.3239 106.548 22.3906 106.298 22.5241C106.05 22.6548 105.854 22.8366 105.71 23.0696C105.567 23.2997 105.496 23.5625 105.496 23.858V28H104.491ZM111.415 28.1364C110.825 28.1364 110.306 27.9957 109.86 27.7145C109.417 27.4332 109.07 27.0398 108.82 26.5341C108.573 26.0284 108.45 25.4375 108.45 24.7614C108.45 24.0795 108.573 23.4844 108.82 22.9759C109.07 22.4673 109.417 22.0724 109.86 21.7912C110.306 21.5099 110.825 21.3693 111.415 21.3693C112.006 21.3693 112.523 21.5099 112.967 21.7912C113.413 22.0724 113.759 22.4673 114.006 22.9759C114.256 23.4844 114.381 24.0795 114.381 24.7614C114.381 25.4375 114.256 26.0284 114.006 26.5341C113.759 27.0398 113.413 27.4332 112.967 27.7145C112.523 27.9957 112.006 28.1364 111.415 28.1364ZM111.415 27.233C111.864 27.233 112.234 27.1179 112.523 26.8878C112.813 26.6577 113.028 26.3551 113.167 25.9801C113.306 25.6051 113.376 25.1989 113.376 24.7614C113.376 24.3239 113.306 23.9162 113.167 23.5384C113.028 23.1605 112.813 22.8551 112.523 22.6222C112.234 22.3892 111.864 22.2727 111.415 22.2727C110.967 22.2727 110.597 22.3892 110.308 22.6222C110.018 22.8551 109.803 23.1605 109.664 23.5384C109.525 23.9162 109.455 24.3239 109.455 24.7614C109.455 25.1989 109.525 25.6051 109.664 25.9801C109.803 26.3551 110.018 26.6577 110.308 26.8878C110.597 27.1179 110.967 27.233 111.415 27.233ZM115.917 28V21.4545H116.888V22.4773H116.973C117.11 22.1278 117.33 21.8565 117.634 21.6634C117.938 21.4673 118.303 21.3693 118.729 21.3693C119.161 21.3693 119.52 21.4673 119.807 21.6634C120.097 21.8565 120.323 22.1278 120.485 22.4773H120.553C120.721 22.1392 120.972 21.8707 121.307 21.6719C121.642 21.4702 122.044 21.3693 122.513 21.3693C123.098 21.3693 123.577 21.5526 123.949 21.919C124.321 22.2827 124.507 22.8494 124.507 23.6193V28H123.502V23.6193C123.502 23.1364 123.37 22.7912 123.105 22.5838C122.841 22.3764 122.53 22.2727 122.172 22.2727C121.712 22.2727 121.355 22.4119 121.103 22.6903C120.85 22.9659 120.723 23.3153 120.723 23.7386V28H119.701V23.517C119.701 23.1449 119.58 22.8452 119.338 22.6179C119.097 22.3878 118.786 22.2727 118.405 22.2727C118.144 22.2727 117.9 22.3423 117.672 22.4815C117.448 22.6207 117.266 22.8139 117.127 23.0611C116.99 23.3054 116.922 23.5881 116.922 23.9091V28H115.917Z" fill="white"/><rect x="16" y="58" width="40" height="16" rx="3" fill="#483308"/><path d="M19.9688 70V62H24.7656V62.8594H20.9375V65.5625H24.4063V66.4219H20.9375V70H19.9688ZM26.4354 70V64H27.326V64.9062H27.3885C27.4979 64.6094 27.6958 64.3685 27.9822 64.1836C28.2687 63.9987 28.5916 63.9062 28.951 63.9062C29.0187 63.9062 29.1033 63.9076 29.2049 63.9102C29.3064 63.9128 29.3833 63.9167 29.4354 63.9219V64.8594C29.4041 64.8516 29.3325 64.8398 29.2205 64.8242C29.1111 64.806 28.9952 64.7969 28.8729 64.7969C28.5812 64.7969 28.3208 64.8581 28.0916 64.9805C27.865 65.1003 27.6854 65.2669 27.5525 65.4805C27.4223 65.6914 27.3572 65.9323 27.3572 66.2031V70H26.4354ZM30.7281 70V64H31.65V70H30.7281ZM31.1969 63C31.0172 63 30.8622 62.9388 30.732 62.8164C30.6044 62.694 30.5406 62.5469 30.5406 62.375C30.5406 62.2031 30.6044 62.056 30.732 61.9336C30.8622 61.8112 31.0172 61.75 31.1969 61.75C31.3766 61.75 31.5302 61.8112 31.6578 61.9336C31.788 62.056 31.8531 62.2031 31.8531 62.375C31.8531 62.5469 31.788 62.694 31.6578 62.8164C31.5302 62.9388 31.3766 63 31.1969 63ZM36.0541 70.125C35.476 70.125 34.9773 69.9974 34.558 69.7422C34.1413 69.4844 33.8197 69.125 33.5932 68.6641C33.3692 68.2005 33.2572 67.6615 33.2572 67.0469C33.2572 66.4323 33.3692 65.8906 33.5932 65.4219C33.8197 64.9505 34.1348 64.5833 34.5385 64.3203C34.9447 64.0547 35.4187 63.9219 35.9604 63.9219C36.2729 63.9219 36.5814 63.974 36.8861 64.0781C37.1908 64.1823 37.4682 64.3516 37.7182 64.5859C37.9682 64.8177 38.1674 65.125 38.3158 65.5078C38.4643 65.8906 38.5385 66.362 38.5385 66.9219V67.3125H33.9135V66.5156H37.601C37.601 66.1771 37.5333 65.875 37.3979 65.6094C37.265 65.3437 37.0749 65.1341 36.8275 64.9805C36.5827 64.8268 36.2937 64.75 35.9604 64.75C35.5932 64.75 35.2755 64.8411 35.0072 65.0234C34.7416 65.2031 34.5372 65.4375 34.3939 65.7266C34.2507 66.0156 34.1791 66.3255 34.1791 66.6562V67.1875C34.1791 67.6406 34.2572 68.0247 34.4135 68.3398C34.5723 68.6523 34.7924 68.8906 35.0736 69.0547C35.3549 69.2161 35.6817 69.2969 36.0541 69.2969C36.2963 69.2969 36.515 69.263 36.7104 69.1953C36.9083 69.125 37.0788 69.0208 37.2221 68.8828C37.3653 68.7422 37.476 68.5677 37.5541 68.3594L38.4447 68.6094C38.351 68.9115 38.1934 69.1771 37.9721 69.4062C37.7507 69.6328 37.4773 69.8099 37.1518 69.9375C36.8262 70.0625 36.4604 70.125 36.0541 70.125ZM41.0627 66.3906V70H40.1408V64H41.0314V64.9375H41.1096C41.2502 64.6328 41.4637 64.388 41.7502 64.2031C42.0367 64.0156 42.4064 63.9219 42.8596 63.9219C43.2658 63.9219 43.6213 64.0052 43.926 64.1719C44.2307 64.3359 44.4676 64.5859 44.6369 64.9219C44.8062 65.2552 44.8908 65.6771 44.8908 66.1875V70H43.9689V66.25C43.9689 65.7786 43.8465 65.4115 43.6018 65.1484C43.357 64.8828 43.021 64.75 42.5939 64.75C42.2997 64.75 42.0367 64.8138 41.8049 64.9414C41.5757 65.069 41.3947 65.2552 41.2619 65.5C41.1291 65.7448 41.0627 66.0417 41.0627 66.3906ZM49.041 70.125C48.541 70.125 48.0996 69.9987 47.7168 69.7461C47.334 69.4909 47.0345 69.1315 46.8184 68.668C46.6022 68.2018 46.4941 67.651 46.4941 67.0156C46.4941 66.3854 46.6022 65.8385 46.8184 65.375C47.0345 64.9115 47.3353 64.5534 47.7207 64.3008C48.1061 64.0482 48.5514 63.9219 49.0566 63.9219C49.4473 63.9219 49.7559 63.987 49.9824 64.1172C50.2116 64.2448 50.3861 64.3906 50.5059 64.5547C50.6283 64.7161 50.7233 64.849 50.791 64.9531H50.8691V62H51.791V70H50.9004V69.0781H50.791C50.7233 69.1875 50.627 69.3255 50.502 69.4922C50.377 69.6562 50.1986 69.8034 49.9668 69.9336C49.735 70.0612 49.4264 70.125 49.041 70.125ZM49.166 69.2969C49.5358 69.2969 49.8483 69.2005 50.1035 69.0078C50.3587 68.8125 50.5527 68.543 50.6855 68.1992C50.8184 67.8529 50.8848 67.4531 50.8848 67C50.8848 66.5521 50.8197 66.1602 50.6895 65.8242C50.5592 65.4857 50.3665 65.2227 50.1113 65.0352C49.8561 64.8451 49.541 64.75 49.166 64.75C48.7754 64.75 48.4499 64.8503 48.1895 65.0508C47.9316 65.2487 47.7376 65.5182 47.6074 65.8594C47.4798 66.1979 47.416 66.5781 47.416 67C47.416 67.4271 47.4811 67.8151 47.6113 68.1641C47.7441 68.5104 47.9395 68.7865 48.1973 68.9922C48.4577 69.1953 48.7806 69.2969 49.166 69.2969Z" fill="#FFB522"/><path d="M16 20.5C16 18.567 17.567 17 19.5 17H26.5C28.433 17 30 18.567 30 20.5V27.5C30 29.433 28.433 31 26.5 31H19.5C17.567 31 16 29.433 16 27.5V20.5Z" fill="#4CAD00"/><path d="M19.5 24L22.5 27L26.5 20.5" stroke="white"/></svg>