<svg xmlns="http://www.w3.org/2000/svg" viewBox="0 0 160 116" fill="none"><path d="M8.67614 1.91193V0.818182H16.3125V1.91193H13.1108V11H11.8778V1.91193H8.67614ZM19.9311 11.1591C19.2417 11.1591 18.6369 10.995 18.1165 10.6669C17.5995 10.3388 17.1951 9.87973 16.9034 9.28977C16.6151 8.69981 16.4709 8.01042 16.4709 7.22159C16.4709 6.42614 16.6151 5.73177 16.9034 5.13849C17.1951 4.54522 17.5995 4.08452 18.1165 3.75639C18.6369 3.42827 19.2417 3.2642 19.9311 3.2642C20.6205 3.2642 21.2238 3.42827 21.7408 3.75639C22.2612 4.08452 22.6655 4.54522 22.9539 5.13849C23.2455 5.73177 23.3914 6.42614 23.3914 7.22159C23.3914 8.01042 23.2455 8.69981 22.9539 9.28977C22.6655 9.87973 22.2612 10.3388 21.7408 10.6669C21.2238 10.995 20.6205 11.1591 19.9311 11.1591ZM19.9311 10.1051C20.4548 10.1051 20.8857 9.97088 21.2238 9.70241C21.5618 9.43395 21.8121 9.08097 21.9745 8.64347C22.1369 8.20597 22.2181 7.73201 22.2181 7.22159C22.2181 6.71117 22.1369 6.23556 21.9745 5.79474C21.8121 5.35393 21.5618 4.99763 21.2238 4.72585C20.8857 4.45407 20.4548 4.31818 19.9311 4.31818C19.4075 4.31818 18.9766 4.45407 18.6385 4.72585C18.3005 4.99763 18.0502 5.35393 17.8878 5.79474C17.7254 6.23556 17.6442 6.71117 17.6442 7.22159C17.6442 7.73201 17.7254 8.20597 17.8878 8.64347C18.0502 9.08097 18.3005 9.43395 18.6385 9.70241C18.9766 9.97088 19.4075 10.1051 19.9311 10.1051ZM25.0624 11V3.36364H26.1959V4.55682H26.2953C26.4544 4.14915 26.7113 3.83262 27.0659 3.60724C27.4206 3.37855 27.8465 3.2642 28.3436 3.2642C28.8474 3.2642 29.2667 3.37855 29.6014 3.60724C29.9395 3.83262 30.203 4.14915 30.3919 4.55682H30.4715C30.667 4.16241 30.9603 3.84919 31.3514 3.61719C31.7425 3.38187 32.2115 3.2642 32.7584 3.2642C33.4412 3.2642 33.9996 3.47798 34.4338 3.90554C34.868 4.32978 35.0851 4.991 35.0851 5.8892V11H33.9118V5.8892C33.9118 5.32576 33.7577 4.92306 33.4495 4.68111C33.1412 4.43916 32.7783 4.31818 32.3607 4.31818C31.8237 4.31818 31.4078 4.48059 31.1128 4.8054C30.8178 5.12689 30.6703 5.53456 30.6703 6.02841V11H29.4772V5.76989C29.4772 5.3357 29.3363 4.98603 29.0546 4.72088C28.7728 4.45241 28.4099 4.31818 27.9658 4.31818C27.6609 4.31818 27.3758 4.39938 27.1107 4.56179C26.8488 4.72419 26.6367 4.94957 26.4743 5.23793C26.3152 5.52296 26.2357 5.85275 26.2357 6.22727V11H25.0624ZM40.2126 11.1591C39.5232 11.1591 38.9183 10.995 38.398 10.6669C37.8809 10.3388 37.4766 9.87973 37.1849 9.28977C36.8966 8.69981 36.7524 8.01042 36.7524 7.22159C36.7524 6.42614 36.8966 5.73177 37.1849 5.13849C37.4766 4.54522 37.8809 4.08452 38.398 3.75639C38.9183 3.42827 39.5232 3.2642 40.2126 3.2642C40.902 3.2642 41.5052 3.42827 42.0223 3.75639C42.5426 4.08452 42.947 4.54522 43.2353 5.13849C43.527 5.73177 43.6728 6.42614 43.6728 7.22159C43.6728 8.01042 43.527 8.69981 43.2353 9.28977C42.947 9.87973 42.5426 10.3388 42.0223 10.6669C41.5052 10.995 40.902 11.1591 40.2126 11.1591ZM40.2126 10.1051C40.7363 10.1051 41.1672 9.97088 41.5052 9.70241C41.8433 9.43395 42.0935 9.08097 42.2559 8.64347C42.4183 8.20597 42.4996 7.73201 42.4996 7.22159C42.4996 6.71117 42.4183 6.23556 42.2559 5.79474C42.0935 5.35393 41.8433 4.99763 41.5052 4.72585C41.1672 4.45407 40.7363 4.31818 40.2126 4.31818C39.6889 4.31818 39.2581 4.45407 38.92 4.72585C38.5819 4.99763 38.3317 5.35393 38.1693 5.79474C38.0069 6.23556 37.9257 6.71117 37.9257 7.22159C37.9257 7.73201 38.0069 8.20597 38.1693 8.64347C38.3317 9.08097 38.5819 9.43395 38.92 9.70241C39.2581 9.97088 39.6889 10.1051 40.2126 10.1051ZM45.3439 11V3.36364H46.4774V4.51705H46.5569C46.6961 4.1392 46.948 3.83262 47.3126 3.5973C47.6772 3.36198 48.0882 3.24432 48.5456 3.24432C48.6317 3.24432 48.7395 3.24597 48.8687 3.24929C48.998 3.2526 49.0958 3.25758 49.162 3.2642V4.45739C49.1223 4.44744 49.0311 4.43253 48.8886 4.41264C48.7494 4.38944 48.6019 4.37784 48.4461 4.37784C48.0749 4.37784 47.7435 4.45573 47.4518 4.61151C47.1635 4.76397 46.9348 4.97609 46.7657 5.24787C46.6 5.51634 46.5172 5.82292 46.5172 6.16761V11H45.3439ZM50.4328 11V3.36364H51.5664V4.51705H51.6459C51.7851 4.1392 52.037 3.83262 52.4016 3.5973C52.7662 3.36198 53.1772 3.24432 53.6346 3.24432C53.7207 3.24432 53.8284 3.24597 53.9577 3.24929C54.087 3.2526 54.1847 3.25758 54.251 3.2642V4.45739C54.2113 4.44744 54.1201 4.43253 53.9776 4.41264C53.8384 4.38944 53.6909 4.37784 53.5351 4.37784C53.1639 4.37784 52.8325 4.45573 52.5408 4.61151C52.2525 4.76397 52.0238 4.97609 51.8547 5.24787C51.689 5.51634 51.6061 5.82292 51.6061 6.16761V11H50.4328ZM58.3917 11.1591C57.7023 11.1591 57.0974 10.995 56.5771 10.6669C56.06 10.3388 55.6556 9.87973 55.364 9.28977C55.0756 8.69981 54.9315 8.01042 54.9315 7.22159C54.9315 6.42614 55.0756 5.73177 55.364 5.13849C55.6556 4.54522 56.06 4.08452 56.5771 3.75639C57.0974 3.42827 57.7023 3.2642 58.3917 3.2642C59.0811 3.2642 59.6843 3.42827 60.2013 3.75639C60.7217 4.08452 61.1261 4.54522 61.4144 5.13849C61.7061 5.73177 61.8519 6.42614 61.8519 7.22159C61.8519 8.01042 61.7061 8.69981 61.4144 9.28977C61.1261 9.87973 60.7217 10.3388 60.2013 10.6669C59.6843 10.995 59.0811 11.1591 58.3917 11.1591ZM58.3917 10.1051C58.9154 10.1051 59.3462 9.97088 59.6843 9.70241C60.0224 9.43395 60.2726 9.08097 60.435 8.64347C60.5974 8.20597 60.6786 7.73201 60.6786 7.22159C60.6786 6.71117 60.5974 6.23556 60.435 5.79474C60.2726 5.35393 60.0224 4.99763 59.6843 4.72585C59.3462 4.45407 58.9154 4.31818 58.3917 4.31818C57.868 4.31818 57.4371 4.45407 57.0991 4.72585C56.761 4.99763 56.5108 5.35393 56.3484 5.79474C56.186 6.23556 56.1048 6.71117 56.1048 7.22159C56.1048 7.73201 56.186 8.20597 56.3484 8.64347C56.5108 9.08097 56.761 9.43395 57.0991 9.70241C57.4371 9.97088 57.868 10.1051 58.3917 10.1051ZM64.9933 11L62.6666 3.36364H63.8995L65.5501 9.21023H65.6296L67.2603 3.36364H68.5132L70.124 9.19034H70.2035L71.8541 3.36364H73.087L70.7603 11H69.6069L67.9365 5.13352H67.8171L66.1467 11H64.9933Z" fill="white"/><rect y="26" width="160" height="90" rx="12" fill="#1F1F1F"/><path d="M20.0852 65.4545V66.3068H16.5568V65.4545H20.0852ZM17.6136 72V64.5511C17.6136 64.1761 17.7017 63.8636 17.8778 63.6136C18.054 63.3636 18.2827 63.1761 18.5639 63.0511C18.8452 62.9261 19.142 62.8636 19.4545 62.8636C19.7017 62.8636 19.9034 62.8835 20.0597 62.9233C20.2159 62.9631 20.3324 63 20.4091 63.0341L20.1193 63.9034C20.0682 63.8864 19.9972 63.8651 19.9062 63.8395C19.8182 63.8139 19.7017 63.8011 19.5568 63.8011C19.2244 63.8011 18.9844 63.8849 18.8366 64.0526C18.6918 64.2202 18.6193 64.4659 18.6193 64.7898V72H17.6136ZM21.4947 72V65.4545H22.4663V66.4432H22.5344C22.6538 66.1193 22.8697 65.8565 23.1822 65.6548C23.4947 65.4531 23.8469 65.3523 24.239 65.3523C24.3129 65.3523 24.4052 65.3537 24.516 65.3565C24.6268 65.3594 24.7106 65.3636 24.7674 65.3693V66.392C24.7333 66.3835 24.6552 66.3707 24.533 66.3537C24.4137 66.3338 24.2873 66.3239 24.1538 66.3239C23.8356 66.3239 23.5515 66.3906 23.3015 66.5241C23.0543 66.6548 22.8583 66.8366 22.7134 67.0696C22.5714 67.2997 22.5004 67.5625 22.5004 67.858V72H21.4947ZM30.0845 69.3239V65.4545H31.0902V72H30.0845V70.892H30.0163C29.8629 71.2244 29.6243 71.5071 29.3004 71.7401C28.9766 71.9702 28.5675 72.0852 28.0732 72.0852C27.6641 72.0852 27.3004 71.9957 26.9822 71.8168C26.6641 71.6349 26.4141 71.3622 26.2322 70.9986C26.0504 70.6321 25.9595 70.1705 25.9595 69.6136V65.4545H26.9652V69.5455C26.9652 70.0227 27.0987 70.4034 27.3658 70.6875C27.6357 70.9716 27.9794 71.1136 28.397 71.1136C28.647 71.1136 28.9013 71.0497 29.1598 70.9219C29.4212 70.794 29.6399 70.598 29.8161 70.3338C29.995 70.0696 30.0845 69.733 30.0845 69.3239ZM32.9322 72V65.4545H33.9379V72H32.9322ZM33.4435 64.3636C33.2475 64.3636 33.0785 64.2969 32.9364 64.1634C32.7972 64.0298 32.7276 63.8693 32.7276 63.6818C32.7276 63.4943 32.7972 63.3338 32.9364 63.2003C33.0785 63.0668 33.2475 63 33.4435 63C33.6396 63 33.8072 63.0668 33.9464 63.2003C34.0884 63.3338 34.1594 63.4943 34.1594 63.6818C34.1594 63.8693 34.0884 64.0298 33.9464 64.1634C33.8072 64.2969 33.6396 64.3636 33.4435 64.3636ZM38.6264 65.4545V66.3068H35.2344V65.4545H38.6264ZM36.223 63.8864H37.2287V70.125C37.2287 70.4091 37.2699 70.6222 37.3523 70.7642C37.4375 70.9034 37.5455 70.9972 37.6761 71.0455C37.8097 71.0909 37.9503 71.1136 38.098 71.1136C38.2088 71.1136 38.2997 71.108 38.3707 71.0966C38.4418 71.0824 38.4986 71.071 38.5412 71.0625L38.7457 71.9659C38.6776 71.9915 38.5824 72.017 38.4602 72.0426C38.3381 72.071 38.1832 72.0852 37.9957 72.0852C37.7116 72.0852 37.4332 72.0241 37.1605 71.902C36.8906 71.7798 36.6662 71.5938 36.4872 71.3438C36.3111 71.0938 36.223 70.7784 36.223 70.3977V63.8864ZM44.6584 66.9205L43.755 67.1761C43.6982 67.0256 43.6143 66.8793 43.5036 66.7372C43.3956 66.5923 43.2479 66.473 43.0604 66.3793C42.8729 66.2855 42.6328 66.2386 42.3402 66.2386C41.9396 66.2386 41.6058 66.331 41.3388 66.5156C41.0746 66.6974 40.9425 66.929 40.9425 67.2102C40.9425 67.4602 41.0334 67.6577 41.2152 67.8026C41.397 67.9474 41.6811 68.0682 42.0675 68.1648L43.0391 68.4034C43.6243 68.5455 44.0604 68.7628 44.3473 69.0554C44.6342 69.3452 44.7777 69.7187 44.7777 70.1761C44.7777 70.5511 44.6697 70.8864 44.4538 71.1818C44.2408 71.4773 43.9425 71.7102 43.5589 71.8807C43.1754 72.0511 42.7294 72.1364 42.2209 72.1364C41.5533 72.1364 41.0007 71.9915 40.5632 71.7017C40.1257 71.4119 39.8487 70.9886 39.7322 70.4318L40.6868 70.1932C40.7777 70.5455 40.9496 70.8097 41.2024 70.9858C41.4581 71.1619 41.7919 71.25 42.2038 71.25C42.6726 71.25 43.0447 71.1506 43.3203 70.9517C43.5987 70.75 43.7379 70.5085 43.7379 70.2273C43.7379 70 43.6584 69.8097 43.4993 69.6562C43.3402 69.5 43.0959 69.3835 42.7663 69.3068L41.6754 69.0511C41.076 68.9091 40.6357 68.6889 40.3544 68.3906C40.076 68.0895 39.9368 67.7131 39.9368 67.2614C39.9368 66.892 40.0405 66.5653 40.2479 66.2812C40.4581 65.9972 40.7436 65.7741 41.1044 65.6122C41.468 65.4503 41.88 65.3693 42.3402 65.3693C42.9879 65.3693 43.4964 65.5114 43.8658 65.7955C44.2379 66.0795 44.5021 66.4545 44.6584 66.9205ZM52.3256 72.1364C51.7347 72.1364 51.2163 71.9957 50.7702 71.7145C50.3271 71.4332 49.9805 71.0398 49.7305 70.5341C49.4833 70.0284 49.3597 69.4375 49.3597 68.7614C49.3597 68.0795 49.4833 67.4844 49.7305 66.9759C49.9805 66.4673 50.3271 66.0724 50.7702 65.7912C51.2163 65.5099 51.7347 65.3693 52.3256 65.3693C52.9165 65.3693 53.4336 65.5099 53.8768 65.7912C54.3228 66.0724 54.6694 66.4673 54.9165 66.9759C55.1665 67.4844 55.2915 68.0795 55.2915 68.7614C55.2915 69.4375 55.1665 70.0284 54.9165 70.5341C54.6694 71.0398 54.3228 71.4332 53.8768 71.7145C53.4336 71.9957 52.9165 72.1364 52.3256 72.1364ZM52.3256 71.233C52.7745 71.233 53.1438 71.1179 53.4336 70.8878C53.7234 70.6577 53.9379 70.3551 54.0771 69.9801C54.2163 69.6051 54.2859 69.1989 54.2859 68.7614C54.2859 68.3239 54.2163 67.9162 54.0771 67.5384C53.9379 67.1605 53.7234 66.8551 53.4336 66.6222C53.1438 66.3892 52.7745 66.2727 52.3256 66.2727C51.8768 66.2727 51.5075 66.3892 51.2177 66.6222C50.9279 66.8551 50.7134 67.1605 50.5742 67.5384C50.435 67.9162 50.3654 68.3239 50.3654 68.7614C50.3654 69.1989 50.435 69.6051 50.5742 69.9801C50.7134 70.3551 50.9279 70.6577 51.2177 70.8878C51.5075 71.1179 51.8768 71.233 52.3256 71.233ZM57.8324 68.0625V72H56.8267V65.4545H57.7983V66.4773H57.8835C58.0369 66.1449 58.2699 65.8778 58.5824 65.6761C58.8949 65.4716 59.2983 65.3693 59.7926 65.3693C60.2358 65.3693 60.6236 65.4602 60.956 65.642C61.2884 65.821 61.5469 66.0938 61.7315 66.4602C61.9162 66.8239 62.0085 67.2841 62.0085 67.8409V72H61.0028V67.9091C61.0028 67.3949 60.8693 66.9943 60.6023 66.7074C60.3352 66.4176 59.9688 66.2727 59.5028 66.2727C59.1818 66.2727 58.8949 66.3423 58.642 66.4815C58.392 66.6207 58.1946 66.8239 58.0497 67.0909C57.9048 67.358 57.8324 67.6818 57.8324 68.0625ZM64.8519 63.2727V72H63.8462V63.2727H64.8519ZM66.6939 72V65.4545H67.6996V72H66.6939ZM67.2053 64.3636C67.0092 64.3636 66.8402 64.2969 66.6982 64.1634C66.5589 64.0298 66.4893 63.8693 66.4893 63.6818C66.4893 63.4943 66.5589 63.3338 66.6982 63.2003C66.8402 63.0668 67.0092 63 67.2053 63C67.4013 63 67.5689 63.0668 67.7081 63.2003C67.8501 63.3338 67.9212 63.4943 67.9212 63.6818C67.9212 63.8693 67.8501 64.0298 67.7081 64.1634C67.5689 64.2969 67.4013 64.3636 67.2053 64.3636ZM70.5472 68.0625V72H69.5415V65.4545H70.5131V66.4773H70.5984C70.7518 66.1449 70.9847 65.8778 71.2972 65.6761C71.6097 65.4716 72.0131 65.3693 72.5075 65.3693C72.9506 65.3693 73.3384 65.4602 73.6708 65.642C74.0032 65.821 74.2617 66.0938 74.4464 66.4602C74.631 66.8239 74.7234 67.2841 74.7234 67.8409V72H73.7177V67.9091C73.7177 67.3949 73.5842 66.9943 73.3171 66.7074C73.0501 66.4176 72.6836 66.2727 72.2177 66.2727C71.8967 66.2727 71.6097 66.3423 71.3569 66.4815C71.1069 66.6207 70.9094 66.8239 70.7646 67.0909C70.6197 67.358 70.5472 67.6818 70.5472 68.0625ZM79.3054 72.1364C78.6747 72.1364 78.1307 71.9972 77.6733 71.7188C77.2188 71.4375 76.8679 71.0455 76.6207 70.5426C76.3764 70.0369 76.2543 69.4489 76.2543 68.7784C76.2543 68.108 76.3764 67.517 76.6207 67.0057C76.8679 66.4915 77.2116 66.0909 77.652 65.804C78.0952 65.5142 78.6122 65.3693 79.2031 65.3693C79.544 65.3693 79.8807 65.4261 80.2131 65.5398C80.5455 65.6534 80.848 65.8381 81.1207 66.0938C81.3935 66.3466 81.6108 66.6818 81.7727 67.0994C81.9347 67.517 82.0156 68.0312 82.0156 68.642V69.0682H76.9702V68.1989H80.9929C80.9929 67.8295 80.919 67.5 80.7713 67.2102C80.6264 66.9205 80.419 66.6918 80.1491 66.5241C79.8821 66.3565 79.5668 66.2727 79.2031 66.2727C78.8026 66.2727 78.456 66.3722 78.1634 66.571C77.8736 66.767 77.6506 67.0227 77.4943 67.3381C77.3381 67.6534 77.2599 67.9915 77.2599 68.3523V68.9318C77.2599 69.4261 77.3452 69.8452 77.5156 70.1889C77.6889 70.5298 77.929 70.7898 78.2358 70.9688C78.5426 71.1449 78.8991 71.233 79.3054 71.233C79.5696 71.233 79.8082 71.196 80.0213 71.1222C80.2372 71.0455 80.4233 70.9318 80.5795 70.7812C80.7358 70.6278 80.8565 70.4375 80.9418 70.2102L81.9134 70.483C81.8111 70.8125 81.6392 71.1023 81.3977 71.3523C81.1563 71.5994 80.858 71.7926 80.5028 71.9318C80.1477 72.0682 79.7486 72.1364 79.3054 72.1364Z" fill="white"/><path d="M44.4205 49.6364C44.4205 50.5568 44.2543 51.3523 43.9219 52.0227C43.5895 52.6932 43.1335 53.2102 42.554 53.5739C41.9744 53.9375 41.3125 54.1193 40.5682 54.1193C39.8239 54.1193 39.1619 53.9375 38.5824 53.5739C38.0028 53.2102 37.5469 52.6932 37.2145 52.0227C36.8821 51.3523 36.7159 50.5568 36.7159 49.6364C36.7159 48.7159 36.8821 47.9205 37.2145 47.25C37.5469 46.5795 38.0028 46.0625 38.5824 45.6989C39.1619 45.3352 39.8239 45.1534 40.5682 45.1534C41.3125 45.1534 41.9744 45.3352 42.554 45.6989C43.1335 46.0625 43.5895 46.5795 43.9219 47.25C44.2543 47.9205 44.4205 48.7159 44.4205 49.6364ZM43.3977 49.6364C43.3977 48.8807 43.2713 48.2429 43.0185 47.723C42.7685 47.2031 42.429 46.8097 42 46.5426C41.5739 46.2756 41.0966 46.142 40.5682 46.142C40.0398 46.142 39.5611 46.2756 39.1321 46.5426C38.706 46.8097 38.3665 47.2031 38.1136 47.723C37.8636 48.2429 37.7386 48.8807 37.7386 49.6364C37.7386 50.392 37.8636 51.0298 38.1136 51.5497C38.3665 52.0696 38.706 52.4631 39.1321 52.7301C39.5611 52.9972 40.0398 53.1307 40.5682 53.1307C41.0966 53.1307 41.5739 52.9972 42 52.7301C42.429 52.4631 42.7685 52.0696 43.0185 51.5497C43.2713 51.0298 43.3977 50.392 43.3977 49.6364ZM46.0611 54V47.4545H47.0327V48.4432H47.1009C47.2202 48.1193 47.4361 47.8565 47.7486 47.6548C48.0611 47.4531 48.4134 47.3523 48.8054 47.3523C48.8793 47.3523 48.9716 47.3537 49.0824 47.3565C49.1932 47.3594 49.277 47.3636 49.3338 47.3693V48.392C49.2997 48.3835 49.2216 48.3707 49.0994 48.3537C48.9801 48.3338 48.8537 48.3239 48.7202 48.3239C48.402 48.3239 48.1179 48.3906 47.8679 48.5241C47.6207 48.6548 47.4247 48.8366 47.2798 49.0696C47.1378 49.2997 47.0668 49.5625 47.0668 49.858V54H46.0611ZM52.7983 54.1364C52.2528 54.1364 51.7713 53.9986 51.3537 53.723C50.9361 53.4446 50.6094 53.0526 50.3736 52.5469C50.1378 52.0384 50.0199 51.4375 50.0199 50.7443C50.0199 50.0568 50.1378 49.4602 50.3736 48.9545C50.6094 48.4489 50.9375 48.0582 51.358 47.7827C51.7784 47.5071 52.2642 47.3693 52.8153 47.3693C53.2415 47.3693 53.5781 47.4403 53.8253 47.5824C54.0753 47.7216 54.2656 47.8807 54.3963 48.0597C54.5298 48.2358 54.6335 48.3807 54.7074 48.4943H54.7926V45.2727H55.7983V54H54.8267V52.9943H54.7074C54.6335 53.1136 54.5284 53.2642 54.392 53.446C54.2557 53.625 54.0611 53.7855 53.8082 53.9276C53.5554 54.0668 53.2188 54.1364 52.7983 54.1364ZM52.9347 53.233C53.3381 53.233 53.679 53.1278 53.9574 52.9176C54.2358 52.7045 54.4474 52.4105 54.5923 52.0355C54.7372 51.6577 54.8097 51.2216 54.8097 50.7273C54.8097 50.2386 54.7386 49.8111 54.5966 49.4446C54.4545 49.0753 54.2443 48.7884 53.9659 48.5838C53.6875 48.3764 53.3438 48.2727 52.9347 48.2727C52.5085 48.2727 52.1534 48.3821 51.8693 48.6009C51.5881 48.8168 51.3764 49.1108 51.2344 49.483C51.0952 49.8523 51.0256 50.267 51.0256 50.7273C51.0256 51.1932 51.0966 51.6165 51.2386 51.9972C51.3835 52.375 51.5966 52.6761 51.8778 52.9006C52.1619 53.1222 52.5142 53.233 52.9347 53.233ZM60.5241 54.1364C59.8935 54.1364 59.3494 53.9972 58.892 53.7188C58.4375 53.4375 58.0866 53.0455 57.8395 52.5426C57.5952 52.0369 57.473 51.4489 57.473 50.7784C57.473 50.108 57.5952 49.517 57.8395 49.0057C58.0866 48.4915 58.4304 48.0909 58.8707 47.804C59.3139 47.5142 59.831 47.3693 60.4219 47.3693C60.7628 47.3693 61.0994 47.4261 61.4318 47.5398C61.7642 47.6534 62.0668 47.8381 62.3395 48.0938C62.6122 48.3466 62.8295 48.6818 62.9915 49.0994C63.1534 49.517 63.2344 50.0312 63.2344 50.642V51.0682H58.1889V50.1989H62.2116C62.2116 49.8295 62.1378 49.5 61.9901 49.2102C61.8452 48.9205 61.6378 48.6918 61.3679 48.5241C61.1009 48.3565 60.7855 48.2727 60.4219 48.2727C60.0213 48.2727 59.6747 48.3722 59.3821 48.571C59.0923 48.767 58.8693 49.0227 58.7131 49.3381C58.5568 49.6534 58.4787 49.9915 58.4787 50.3523V50.9318C58.4787 51.4261 58.5639 51.8452 58.7344 52.1889C58.9077 52.5298 59.1477 52.7898 59.4545 52.9688C59.7614 53.1449 60.1179 53.233 60.5241 53.233C60.7884 53.233 61.027 53.196 61.2401 53.1222C61.456 53.0455 61.642 52.9318 61.7983 52.7812C61.9545 52.6278 62.0753 52.4375 62.1605 52.2102L63.1321 52.483C63.0298 52.8125 62.858 53.1023 62.6165 53.3523C62.375 53.5994 62.0767 53.7926 61.7216 53.9318C61.3665 54.0682 60.9673 54.1364 60.5241 54.1364ZM64.7642 54V47.4545H65.7358V48.4432H65.804C65.9233 48.1193 66.1392 47.8565 66.4517 47.6548C66.7642 47.4531 67.1165 47.3523 67.5085 47.3523C67.5824 47.3523 67.6747 47.3537 67.7855 47.3565C67.8963 47.3594 67.9801 47.3636 68.0369 47.3693V48.392C68.0028 48.3835 67.9247 48.3707 67.8026 48.3537C67.6832 48.3338 67.5568 48.3239 67.4233 48.3239C67.1051 48.3239 66.821 48.3906 66.571 48.5241C66.3239 48.6548 66.1278 48.8366 65.983 49.0696C65.8409 49.2997 65.7699 49.5625 65.7699 49.858V54H64.7642ZM74.087 54L72.0927 47.4545H73.1495L74.5643 52.4659H74.6325L76.0302 47.4545H77.104L78.4847 52.4489H78.5529L79.9677 47.4545H81.0245L79.0302 54H78.0415L76.6097 48.9716H76.5075L75.0756 54H74.087ZM84.2802 54.1534C83.8654 54.1534 83.489 54.0753 83.1509 53.919C82.8129 53.7599 82.5444 53.5312 82.3455 53.233C82.1467 52.9318 82.0472 52.5682 82.0472 52.142C82.0472 51.767 82.1211 51.4631 82.2688 51.2301C82.4165 50.9943 82.614 50.8097 82.8612 50.6761C83.1083 50.5426 83.381 50.4432 83.6793 50.3778C83.9805 50.3097 84.283 50.2557 84.587 50.2159C84.9847 50.1648 85.3072 50.1264 85.5543 50.1009C85.8043 50.0724 85.9862 50.0256 86.0998 49.9602C86.2163 49.8949 86.2745 49.7812 86.2745 49.6193V49.5852C86.2745 49.1648 86.1594 48.8381 85.9293 48.6051C85.7021 48.3722 85.3569 48.2557 84.8938 48.2557C84.4137 48.2557 84.0373 48.3608 83.7646 48.571C83.4918 48.7812 83.3001 49.0057 83.1893 49.2443L82.2347 48.9034C82.4052 48.5057 82.6325 48.196 82.9165 47.9744C83.2035 47.75 83.516 47.5937 83.854 47.5057C84.195 47.4148 84.5302 47.3693 84.8597 47.3693C85.07 47.3693 85.3114 47.3949 85.5842 47.446C85.8597 47.4943 86.1254 47.5952 86.381 47.7486C86.6396 47.902 86.854 48.1335 87.0245 48.4432C87.195 48.7528 87.2802 49.1676 87.2802 49.6875V54H86.2745V53.1136H86.2234C86.1552 53.2557 86.0415 53.4077 85.8825 53.5696C85.7234 53.7315 85.5117 53.8693 85.2475 53.983C84.9833 54.0966 84.6609 54.1534 84.2802 54.1534ZM84.4336 53.25C84.8313 53.25 85.1665 53.1719 85.4393 53.0156C85.7148 52.8594 85.9222 52.6577 86.0614 52.4105C86.2035 52.1634 86.2745 51.9034 86.2745 51.6307V50.7102C86.2319 50.7614 86.1381 50.8082 85.9933 50.8509C85.8512 50.8906 85.6864 50.9261 85.4989 50.9574C85.3143 50.9858 85.1339 51.0114 84.9577 51.0341C84.7844 51.054 84.6438 51.071 84.5359 51.0852C84.2745 51.1193 84.0302 51.1747 83.8029 51.2514C83.5785 51.3253 83.3967 51.4375 83.2575 51.5881C83.1211 51.7358 83.0529 51.9375 83.0529 52.1932C83.0529 52.5426 83.1822 52.8068 83.4407 52.9858C83.7021 53.1619 84.033 53.25 84.4336 53.25ZM91.9624 47.4545V48.3068H88.5703V47.4545H91.9624ZM89.5589 45.8864H90.5646V52.125C90.5646 52.4091 90.6058 52.6222 90.6882 52.7642C90.7734 52.9034 90.8814 52.9972 91.0121 53.0455C91.1456 53.0909 91.2862 53.1136 91.4339 53.1136C91.5447 53.1136 91.6357 53.108 91.7067 53.0966C91.7777 53.0824 91.8345 53.071 91.8771 53.0625L92.0817 53.9659C92.0135 53.9915 91.9183 54.017 91.7962 54.0426C91.674 54.071 91.5192 54.0852 91.3317 54.0852C91.0476 54.0852 90.7692 54.0241 90.4964 53.902C90.2266 53.7798 90.0021 53.5938 89.8232 53.3438C89.647 53.0938 89.5589 52.7784 89.5589 52.3977V45.8864ZM96.1491 54.1364C95.5185 54.1364 94.9744 53.9972 94.517 53.7188C94.0625 53.4375 93.7116 53.0455 93.4645 52.5426C93.2202 52.0369 93.098 51.4489 93.098 50.7784C93.098 50.108 93.2202 49.517 93.4645 49.0057C93.7116 48.4915 94.0554 48.0909 94.4957 47.804C94.9389 47.5142 95.456 47.3693 96.0469 47.3693C96.3878 47.3693 96.7244 47.4261 97.0568 47.5398C97.3892 47.6534 97.6918 47.8381 97.9645 48.0938C98.2372 48.3466 98.4545 48.6818 98.6165 49.0994C98.7784 49.517 98.8594 50.0312 98.8594 50.642V51.0682H93.8139V50.1989H97.8366C97.8366 49.8295 97.7628 49.5 97.6151 49.2102C97.4702 48.9205 97.2628 48.6918 96.9929 48.5241C96.7259 48.3565 96.4105 48.2727 96.0469 48.2727C95.6463 48.2727 95.2997 48.3722 95.0071 48.571C94.7173 48.767 94.4943 49.0227 94.3381 49.3381C94.1818 49.6534 94.1037 49.9915 94.1037 50.3523V50.9318C94.1037 51.4261 94.1889 51.8452 94.3594 52.1889C94.5327 52.5298 94.7727 52.7898 95.0795 52.9688C95.3864 53.1449 95.7429 53.233 96.1491 53.233C96.4134 53.233 96.652 53.196 96.8651 53.1222C97.081 53.0455 97.267 52.9318 97.4233 52.7812C97.5795 52.6278 97.7003 52.4375 97.7855 52.2102L98.7571 52.483C98.6548 52.8125 98.483 53.1023 98.2415 53.3523C98 53.5994 97.7017 53.7926 97.3466 53.9318C96.9915 54.0682 96.5923 54.1364 96.1491 54.1364ZM100.389 54V47.4545H101.361V48.4432H101.429C101.548 48.1193 101.764 47.8565 102.077 47.6548C102.389 47.4531 102.741 47.3523 103.134 47.3523C103.207 47.3523 103.3 47.3537 103.411 47.3565C103.521 47.3594 103.605 47.3636 103.662 47.3693V48.392C103.628 48.3835 103.55 48.3707 103.428 48.3537C103.308 48.3338 103.182 48.3239 103.048 48.3239C102.73 48.3239 102.446 48.3906 102.196 48.5241C101.949 48.6548 101.753 48.8366 101.608 49.0696C101.466 49.2997 101.395 49.5625 101.395 49.858V54H100.389ZM110.155 54.1534C109.74 54.1534 109.364 54.0753 109.026 53.919C108.688 53.7599 108.419 53.5312 108.221 53.233C108.022 52.9318 107.922 52.5682 107.922 52.142C107.922 51.767 107.996 51.4631 108.144 51.2301C108.292 50.9943 108.489 50.8097 108.736 50.6761C108.983 50.5426 109.256 50.4432 109.554 50.3778C109.855 50.3097 110.158 50.2557 110.462 50.2159C110.86 50.1648 111.182 50.1264 111.429 50.1009C111.679 50.0724 111.861 50.0256 111.975 49.9602C112.091 49.8949 112.15 49.7812 112.15 49.6193V49.5852C112.15 49.1648 112.034 48.8381 111.804 48.6051C111.577 48.3722 111.232 48.2557 110.769 48.2557C110.289 48.2557 109.912 48.3608 109.64 48.571C109.367 48.7812 109.175 49.0057 109.064 49.2443L108.11 48.9034C108.28 48.5057 108.507 48.196 108.792 47.9744C109.078 47.75 109.391 47.5937 109.729 47.5057C110.07 47.4148 110.405 47.3693 110.735 47.3693C110.945 47.3693 111.186 47.3949 111.459 47.446C111.735 47.4943 112 47.5952 112.256 47.7486C112.515 47.902 112.729 48.1335 112.9 48.4432C113.07 48.7528 113.155 49.1676 113.155 49.6875V54H112.15V53.1136H112.098C112.03 53.2557 111.917 53.4077 111.757 53.5696C111.598 53.7315 111.387 53.8693 111.123 53.983C110.858 54.0966 110.536 54.1534 110.155 54.1534ZM110.309 53.25C110.706 53.25 111.042 53.1719 111.314 53.0156C111.59 52.8594 111.797 52.6577 111.936 52.4105C112.078 52.1634 112.15 51.9034 112.15 51.6307V50.7102C112.107 50.7614 112.013 50.8082 111.868 50.8509C111.726 50.8906 111.561 50.9261 111.374 50.9574C111.189 50.9858 111.009 51.0114 110.833 51.0341C110.659 51.054 110.519 51.071 110.411 51.0852C110.15 51.1193 109.905 51.1747 109.678 51.2514C109.453 51.3253 109.272 51.4375 109.132 51.5881C108.996 51.7358 108.928 51.9375 108.928 52.1932C108.928 52.5426 109.057 52.8068 109.316 52.9858C109.577 53.1619 109.908 53.25 110.309 53.25ZM115.996 50.0625V54H114.991V47.4545H115.962V48.4773H116.048C116.201 48.1449 116.434 47.8778 116.746 47.6761C117.059 47.4716 117.462 47.3693 117.957 47.3693C118.4 47.3693 118.788 47.4602 119.12 47.642C119.452 47.821 119.711 48.0938 119.896 48.4602C120.08 48.8239 120.173 49.2841 120.173 49.8409V54H119.167V49.9091C119.167 49.3949 119.033 48.9943 118.766 48.7074C118.499 48.4176 118.133 48.2727 117.667 48.2727C117.346 48.2727 117.059 48.3423 116.806 48.4815C116.556 48.6207 116.359 48.8239 116.214 49.0909C116.069 49.358 115.996 49.6818 115.996 50.0625ZM124.482 54.1364C123.936 54.1364 123.455 53.9986 123.037 53.723C122.62 53.4446 122.293 53.0526 122.057 52.5469C121.821 52.0384 121.703 51.4375 121.703 50.7443C121.703 50.0568 121.821 49.4602 122.057 48.9545C122.293 48.4489 122.621 48.0582 123.042 47.7827C123.462 47.5071 123.948 47.3693 124.499 47.3693C124.925 47.3693 125.262 47.4403 125.509 47.5824C125.759 47.7216 125.949 47.8807 126.08 48.0597C126.213 48.2358 126.317 48.3807 126.391 48.4943H126.476V45.2727H127.482V54H126.51V52.9943H126.391C126.317 53.1136 126.212 53.2642 126.076 53.446C125.939 53.625 125.745 53.7855 125.492 53.9276C125.239 54.0668 124.902 54.1364 124.482 54.1364ZM124.618 53.233C125.022 53.233 125.363 53.1278 125.641 52.9176C125.919 52.7045 126.131 52.4105 126.276 52.0355C126.421 51.6577 126.493 51.2216 126.493 50.7273C126.493 50.2386 126.422 49.8111 126.28 49.4446C126.138 49.0753 125.928 48.7884 125.65 48.5838C125.371 48.3764 125.027 48.2727 124.618 48.2727C124.192 48.2727 123.837 48.3821 123.553 48.6009C123.272 48.8168 123.06 49.1108 122.918 49.483C122.779 49.8523 122.709 50.267 122.709 50.7273C122.709 51.1932 122.78 51.6165 122.922 51.9972C123.067 52.375 123.28 52.6761 123.561 52.9006C123.846 53.1222 124.198 53.233 124.618 53.233Z" fill="white"/><path d="M16.5 46.5C16.5 44.8431 17.8431 43.5 19.5 43.5H26.5C28.1569 43.5 29.5 44.8431 29.5 46.5V53.5C29.5 55.1569 28.1569 56.5 26.5 56.5H19.5C17.8431 56.5 16.5 55.1569 16.5 53.5V46.5Z" stroke="#808080"/><rect x="16" y="84" width="43" height="16" rx="3" fill="#294B0E"/><path d="M24.3438 90C24.2969 89.6042 24.1068 89.2969 23.7734 89.0781C23.4401 88.8594 23.0313 88.75 22.5469 88.75C22.1927 88.75 21.8828 88.8073 21.6172 88.9219C21.3542 89.0365 21.1484 89.194 21 89.3945C20.8542 89.5951 20.7813 89.8229 20.7813 90.0781C20.7813 90.2917 20.832 90.4753 20.9336 90.6289C21.0378 90.7799 21.1706 90.9062 21.332 91.0078C21.4935 91.1068 21.6628 91.1888 21.8398 91.2539C22.0169 91.3164 22.1797 91.3672 22.3281 91.4062L23.1406 91.625C23.349 91.6797 23.5807 91.7552 23.8359 91.8516C24.0938 91.9479 24.3398 92.0794 24.5742 92.2461C24.8112 92.4102 25.0065 92.6211 25.1602 92.8789C25.3138 93.1367 25.3906 93.4531 25.3906 93.8281C25.3906 94.2604 25.2773 94.651 25.0508 95C24.8268 95.349 24.4987 95.6263 24.0664 95.832C23.6367 96.0378 23.1146 96.1406 22.5 96.1406C21.9271 96.1406 21.431 96.0482 21.0117 95.8633C20.5951 95.6784 20.2669 95.4206 20.0273 95.0898C19.7904 94.7591 19.6563 94.375 19.625 93.9375H20.625C20.651 94.2396 20.7526 94.4896 20.9297 94.6875C21.1094 94.8828 21.3359 95.0286 21.6094 95.125C21.8854 95.2187 22.1823 95.2656 22.5 95.2656C22.8698 95.2656 23.2018 95.2057 23.4961 95.0859C23.7904 94.9635 24.0234 94.7943 24.1953 94.5781C24.3672 94.3594 24.4531 94.1042 24.4531 93.8125C24.4531 93.5469 24.3789 93.3307 24.2305 93.1641C24.082 92.9974 23.8867 92.862 23.6445 92.7578C23.4023 92.6536 23.1406 92.5625 22.8594 92.4844L21.875 92.2031C21.25 92.0234 20.7552 91.7669 20.3906 91.4336C20.026 91.1003 19.8438 90.6641 19.8438 90.125C19.8438 89.6771 19.9648 89.2865 20.207 88.9531C20.4518 88.6172 20.7799 88.3568 21.1914 88.1719C21.6055 87.9844 22.0677 87.8906 22.5781 87.8906C23.0938 87.8906 23.5521 87.9831 23.9531 88.168C24.3542 88.3503 24.6719 88.6003 24.9062 88.918C25.1432 89.2357 25.2682 89.5964 25.2813 90H24.3438ZM30.8396 93.5469V90H31.7615V96H30.8396V94.9844H30.7771C30.6365 95.2891 30.4178 95.5482 30.1209 95.7617C29.824 95.9727 29.449 96.0781 28.9959 96.0781C28.6209 96.0781 28.2876 95.9961 27.9959 95.832C27.7042 95.6654 27.4751 95.4154 27.3084 95.082C27.1417 94.7461 27.0584 94.3229 27.0584 93.8125V90H27.9803V93.75C27.9803 94.1875 28.1027 94.5365 28.3475 94.7969C28.5949 95.0573 28.91 95.1875 29.2928 95.1875C29.5219 95.1875 29.755 95.1289 29.992 95.0117C30.2316 94.8945 30.4321 94.7148 30.5936 94.4727C30.7576 94.2305 30.8396 93.9219 30.8396 93.5469ZM33.65 98.25V90H34.5406V90.9531H34.65C34.7177 90.849 34.8115 90.7161 34.9312 90.5547C35.0536 90.3906 35.2281 90.2448 35.4547 90.1172C35.6839 89.987 35.9937 89.9219 36.3844 89.9219C36.8896 89.9219 37.3349 90.0482 37.7203 90.3008C38.1057 90.5534 38.4065 90.9115 38.6227 91.375C38.8388 91.8385 38.9469 92.3854 38.9469 93.0156C38.9469 93.651 38.8388 94.2018 38.6227 94.668C38.4065 95.1315 38.107 95.4909 37.7242 95.7461C37.3414 95.9987 36.9 96.125 36.4 96.125C36.0146 96.125 35.706 96.0612 35.4742 95.9336C35.2424 95.8034 35.0641 95.6562 34.9391 95.4922C34.8141 95.3255 34.7177 95.1875 34.65 95.0781H34.5719V98.25H33.65ZM34.5562 93C34.5562 93.4531 34.6227 93.8529 34.7555 94.1992C34.8883 94.543 35.0823 94.8125 35.3375 95.0078C35.5927 95.2005 35.9052 95.2969 36.275 95.2969C36.6604 95.2969 36.982 95.1953 37.2398 94.9922C37.5003 94.7865 37.6956 94.5104 37.8258 94.1641C37.9586 93.8151 38.025 93.4271 38.025 93C38.025 92.5781 37.9599 92.1979 37.8297 91.8594C37.7021 91.5182 37.5081 91.2487 37.2477 91.0508C36.9898 90.8503 36.6656 90.75 36.275 90.75C35.9 90.75 35.5849 90.8451 35.3297 91.0352C35.0745 91.2227 34.8818 91.4857 34.7516 91.8242C34.6214 92.1602 34.5562 92.5521 34.5562 93ZM40.5531 98.25V90H41.4438V90.9531H41.5531C41.6208 90.849 41.7146 90.7161 41.8344 90.5547C41.9568 90.3906 42.1313 90.2448 42.3578 90.1172C42.587 89.987 42.8969 89.9219 43.2875 89.9219C43.7927 89.9219 44.238 90.0482 44.6234 90.3008C45.0089 90.5534 45.3096 90.9115 45.5258 91.375C45.7419 91.8385 45.85 92.3854 45.85 93.0156C45.85 93.651 45.7419 94.2018 45.5258 94.668C45.3096 95.1315 45.0102 95.4909 44.6273 95.7461C44.2445 95.9987 43.8031 96.125 43.3031 96.125C42.9177 96.125 42.6091 96.0612 42.3773 95.9336C42.1456 95.8034 41.9672 95.6562 41.8422 95.4922C41.7172 95.3255 41.6208 95.1875 41.5531 95.0781H41.475V98.25H40.5531ZM41.4594 93C41.4594 93.4531 41.5258 93.8529 41.6586 94.1992C41.7914 94.543 41.9854 94.8125 42.2406 95.0078C42.4958 95.2005 42.8083 95.2969 43.1781 95.2969C43.5635 95.2969 43.8852 95.1953 44.143 94.9922C44.4034 94.7865 44.5987 94.5104 44.7289 94.1641C44.8617 93.8151 44.9281 93.4271 44.9281 93C44.9281 92.5781 44.863 92.1979 44.7328 91.8594C44.6052 91.5182 44.4112 91.2487 44.1508 91.0508C43.893 90.8503 43.5688 90.75 43.1781 90.75C42.8031 90.75 42.488 90.8451 42.2328 91.0352C41.9776 91.2227 41.7849 91.4857 41.6547 91.8242C41.5245 92.1602 41.4594 92.5521 41.4594 93ZM48.3781 88V96H47.4562V88H48.3781ZM50.8604 98.25C50.7041 98.25 50.5648 98.237 50.4424 98.2109C50.32 98.1875 50.2354 98.1641 50.1885 98.1406L50.4229 97.3281C50.6468 97.3854 50.8447 97.4063 51.0166 97.3906C51.1885 97.375 51.3408 97.2982 51.4736 97.1602C51.609 97.0247 51.7327 96.8047 51.8447 96.5L52.0166 96.0313L49.7979 90H50.7979L52.4541 94.7812H52.5166L54.1729 90H55.1729L52.626 96.875C52.5114 97.1849 52.3695 97.4414 52.2002 97.6445C52.0309 97.8503 51.8343 98.0026 51.6104 98.1016C51.389 98.2005 51.139 98.25 50.8604 98.25Z" fill="#70CD28"/></svg>