<svg xmlns="http://www.w3.org/2000/svg" viewBox="0 0 160 108" fill="none"><rect width="160" height="108" rx="12" fill="#1F1F1F"/><path d="M19.0966 46.1534C18.6818 46.1534 18.3054 46.0753 17.9673 45.919C17.6293 45.7599 17.3608 45.5312 17.1619 45.233C16.9631 44.9318 16.8636 44.5682 16.8636 44.142C16.8636 43.767 16.9375 43.4631 17.0852 43.2301C17.233 42.9943 17.4304 42.8097 17.6776 42.6761C17.9247 42.5426 18.1974 42.4432 18.4957 42.3778C18.7969 42.3097 19.0994 42.2557 19.4034 42.2159C19.8011 42.1648 20.1236 42.1264 20.3707 42.1009C20.6207 42.0724 20.8026 42.0256 20.9162 41.9602C21.0327 41.8949 21.0909 41.7812 21.0909 41.6193V41.5852C21.0909 41.1648 20.9759 40.8381 20.7457 40.6051C20.5185 40.3722 20.1733 40.2557 19.7102 40.2557C19.2301 40.2557 18.8537 40.3608 18.581 40.571C18.3082 40.7812 18.1165 41.0057 18.0057 41.2443L17.0511 40.9034C17.2216 40.5057 17.4489 40.196 17.733 39.9744C18.0199 39.75 18.3324 39.5937 18.6705 39.5057C19.0114 39.4148 19.3466 39.3693 19.6761 39.3693C19.8864 39.3693 20.1278 39.3949 20.4006 39.446C20.6761 39.4943 20.9418 39.5952 21.1974 39.7486C21.456 39.902 21.6705 40.1335 21.8409 40.4432C22.0114 40.7528 22.0966 41.1676 22.0966 41.6875V46H21.0909V45.1136H21.0398C20.9716 45.2557 20.858 45.4077 20.6989 45.5696C20.5398 45.7315 20.3281 45.8693 20.0639 45.983C19.7997 46.0966 19.4773 46.1534 19.0966 46.1534ZM19.25 45.25C19.6477 45.25 19.983 45.1719 20.2557 45.0156C20.5313 44.8594 20.7386 44.6577 20.8778 44.4105C21.0199 44.1634 21.0909 43.9034 21.0909 43.6307V42.7102C21.0483 42.7614 20.9545 42.8082 20.8097 42.8509C20.6676 42.8906 20.5028 42.9261 20.3153 42.9574C20.1307 42.9858 19.9503 43.0114 19.7741 43.0341C19.6009 43.054 19.4602 43.071 19.3523 43.0852C19.0909 43.1193 18.8466 43.1747 18.6193 43.2514C18.3949 43.3253 18.2131 43.4375 18.0739 43.5881C17.9375 43.7358 17.8693 43.9375 17.8693 44.1932C17.8693 44.5426 17.9986 44.8068 18.2571 44.9858C18.5185 45.1619 18.8494 45.25 19.25 45.25ZM24.0685 46V37.2727H25.0742V40.4943H25.1594C25.2333 40.3807 25.3356 40.2358 25.4663 40.0597C25.5998 39.8807 25.7901 39.7216 26.0373 39.5824C26.2873 39.4403 26.6254 39.3693 27.0515 39.3693C27.6026 39.3693 28.0884 39.5071 28.5089 39.7827C28.9293 40.0582 29.2575 40.4489 29.4933 40.9545C29.729 41.4602 29.8469 42.0568 29.8469 42.7443C29.8469 43.4375 29.729 44.0384 29.4933 44.5469C29.2575 45.0526 28.9308 45.4446 28.5131 45.723C28.0955 45.9986 27.614 46.1364 27.0685 46.1364C26.6481 46.1364 26.3114 46.0668 26.0586 45.9276C25.8058 45.7855 25.6112 45.625 25.4748 45.446C25.3384 45.2642 25.2333 45.1136 25.1594 44.9943H25.0401V46H24.0685ZM25.0572 42.7273C25.0572 43.2216 25.1296 43.6577 25.2745 44.0355C25.4194 44.4105 25.631 44.7045 25.9094 44.9176C26.1879 45.1278 26.5288 45.233 26.9322 45.233C27.3526 45.233 27.7035 45.1222 27.9847 44.9006C28.2688 44.6761 28.4819 44.375 28.6239 43.9972C28.7688 43.6165 28.8413 43.1932 28.8413 42.7273C28.8413 42.267 28.7702 41.8523 28.6282 41.483C28.489 41.1108 28.2773 40.8168 27.9933 40.6009C27.712 40.3821 27.3583 40.2727 26.9322 40.2727C26.5231 40.2727 26.1793 40.3764 25.9009 40.5838C25.6225 40.7884 25.4123 41.0753 25.2702 41.4446C25.1282 41.8111 25.0572 42.2386 25.0572 42.7273ZM34.0444 46.1364C33.4535 46.1364 32.935 45.9957 32.489 45.7145C32.0458 45.4332 31.6992 45.0398 31.4492 44.5341C31.2021 44.0284 31.0785 43.4375 31.0785 42.7614C31.0785 42.0795 31.2021 41.4844 31.4492 40.9759C31.6992 40.4673 32.0458 40.0724 32.489 39.7912C32.935 39.5099 33.4535 39.3693 34.0444 39.3693C34.6353 39.3693 35.1523 39.5099 35.5955 39.7912C36.0415 40.0724 36.3881 40.4673 36.6353 40.9759C36.8853 41.4844 37.0103 42.0795 37.0103 42.7614C37.0103 43.4375 36.8853 44.0284 36.6353 44.5341C36.3881 45.0398 36.0415 45.4332 35.5955 45.7145C35.1523 45.9957 34.6353 46.1364 34.0444 46.1364ZM34.0444 45.233C34.4933 45.233 34.8626 45.1179 35.1523 44.8878C35.4421 44.6577 35.6566 44.3551 35.7958 43.9801C35.935 43.6051 36.0046 43.1989 36.0046 42.7614C36.0046 42.3239 35.935 41.9162 35.7958 41.5384C35.6566 41.1605 35.4421 40.8551 35.1523 40.6222C34.8626 40.3892 34.4933 40.2727 34.0444 40.2727C33.5955 40.2727 33.2262 40.3892 32.9364 40.6222C32.6467 40.8551 32.4322 41.1605 32.293 41.5384C32.1538 41.9162 32.0842 42.3239 32.0842 42.7614C32.0842 43.1989 32.1538 43.6051 32.293 43.9801C32.4322 44.3551 32.6467 44.6577 32.9364 44.8878C33.2262 45.1179 33.5955 45.233 34.0444 45.233ZM42.6705 43.3239V39.4545H43.6761V46H42.6705V44.892H42.6023C42.4489 45.2244 42.2102 45.5071 41.8864 45.7401C41.5625 45.9702 41.1534 46.0852 40.6591 46.0852C40.25 46.0852 39.8864 45.9957 39.5682 45.8168C39.25 45.6349 39 45.3622 38.8182 44.9986C38.6364 44.6321 38.5455 44.1705 38.5455 43.6136V39.4545H39.5511V43.5455C39.5511 44.0227 39.6847 44.4034 39.9517 44.6875C40.2216 44.9716 40.5653 45.1136 40.983 45.1136C41.233 45.1136 41.4872 45.0497 41.7457 44.9219C42.0071 44.794 42.2259 44.598 42.402 44.3338C42.581 44.0696 42.6705 43.733 42.6705 43.3239ZM48.3647 39.4545V40.3068H44.9727V39.4545H48.3647ZM45.9613 37.8864H46.967V44.125C46.967 44.4091 47.0082 44.6222 47.0906 44.7642C47.1758 44.9034 47.2837 44.9972 47.4144 45.0455C47.5479 45.0909 47.6886 45.1136 47.8363 45.1136C47.9471 45.1136 48.038 45.108 48.109 45.0966C48.18 45.0824 48.2369 45.071 48.2795 45.0625L48.484 45.9659C48.4158 45.9915 48.3207 46.017 48.1985 46.0426C48.0763 46.071 47.9215 46.0852 47.734 46.0852C47.4499 46.0852 47.1715 46.0241 46.8988 45.902C46.6289 45.7798 46.4045 45.5938 46.2255 45.3438C46.0494 45.0938 45.9613 44.7784 45.9613 44.3977V37.8864ZM55.1786 46.1534C54.7638 46.1534 54.3874 46.0753 54.0494 45.919C53.7113 45.7599 53.4428 45.5312 53.244 45.233C53.0451 44.9318 52.9457 44.5682 52.9457 44.142C52.9457 43.767 53.0195 43.4631 53.1673 43.2301C53.315 42.9943 53.5124 42.8097 53.7596 42.6761C54.0067 42.5426 54.2795 42.4432 54.5778 42.3778C54.8789 42.3097 55.1815 42.2557 55.4854 42.2159C55.8832 42.1648 56.2056 42.1264 56.4528 42.1009C56.7028 42.0724 56.8846 42.0256 56.9982 41.9602C57.1147 41.8949 57.1729 41.7812 57.1729 41.6193V41.5852C57.1729 41.1648 57.0579 40.8381 56.8278 40.6051C56.6005 40.3722 56.2553 40.2557 55.7923 40.2557C55.3121 40.2557 54.9357 40.3608 54.663 40.571C54.3903 40.7812 54.1985 41.0057 54.0877 41.2443L53.1332 40.9034C53.3036 40.5057 53.5309 40.196 53.815 39.9744C54.1019 39.75 54.4144 39.5937 54.7525 39.5057C55.0934 39.4148 55.4286 39.3693 55.7582 39.3693C55.9684 39.3693 56.2099 39.3949 56.4826 39.446C56.7582 39.4943 57.0238 39.5952 57.2795 39.7486C57.538 39.902 57.7525 40.1335 57.9229 40.4432C58.0934 40.7528 58.1786 41.1676 58.1786 41.6875V46H57.1729V45.1136H57.1218C57.0536 45.2557 56.94 45.4077 56.7809 45.5696C56.6218 45.7315 56.4102 45.8693 56.146 45.983C55.8817 46.0966 55.5593 46.1534 55.1786 46.1534ZM55.332 45.25C55.7298 45.25 56.065 45.1719 56.3377 45.0156C56.6133 44.8594 56.8207 44.6577 56.9599 44.4105C57.1019 44.1634 57.1729 43.9034 57.1729 43.6307V42.7102C57.1303 42.7614 57.0366 42.8082 56.8917 42.8509C56.7496 42.8906 56.5849 42.9261 56.3974 42.9574C56.2127 42.9858 56.0323 43.0114 55.8562 43.0341C55.6829 43.054 55.5423 43.071 55.4343 43.0852C55.1729 43.1193 54.9286 43.1747 54.7013 43.2514C54.4769 43.3253 54.2951 43.4375 54.1559 43.5881C54.0195 43.7358 53.9513 43.9375 53.9513 44.1932C53.9513 44.5426 54.0806 44.8068 54.3391 44.9858C54.6005 45.1619 54.9315 45.25 55.332 45.25ZM68.0256 40.9205L67.1222 41.1761C67.0653 41.0256 66.9815 40.8793 66.8707 40.7372C66.7628 40.5923 66.6151 40.473 66.4276 40.3793C66.2401 40.2855 66 40.2386 65.7074 40.2386C65.3068 40.2386 64.973 40.331 64.706 40.5156C64.4418 40.6974 64.3097 40.929 64.3097 41.2102C64.3097 41.4602 64.4006 41.6577 64.5824 41.8026C64.7642 41.9474 65.0483 42.0682 65.4347 42.1648L66.4062 42.4034C66.9915 42.5455 67.4276 42.7628 67.7145 43.0554C68.0014 43.3452 68.1449 43.7187 68.1449 44.1761C68.1449 44.5511 68.0369 44.8864 67.821 45.1818C67.608 45.4773 67.3097 45.7102 66.9261 45.8807C66.5426 46.0511 66.0966 46.1364 65.5881 46.1364C64.9205 46.1364 64.3679 45.9915 63.9304 45.7017C63.4929 45.4119 63.2159 44.9886 63.0994 44.4318L64.054 44.1932C64.1449 44.5455 64.3168 44.8097 64.5696 44.9858C64.8253 45.1619 65.1591 45.25 65.571 45.25C66.0398 45.25 66.4119 45.1506 66.6875 44.9517C66.9659 44.75 67.1051 44.5085 67.1051 44.2273C67.1051 44 67.0256 43.8097 66.8665 43.6562C66.7074 43.5 66.4631 43.3835 66.1335 43.3068L65.0426 43.0511C64.4432 42.9091 64.0028 42.6889 63.7216 42.3906C63.4432 42.0895 63.304 41.7131 63.304 41.2614C63.304 40.892 63.4077 40.5653 63.6151 40.2812C63.8253 39.9972 64.1108 39.7741 64.4716 39.6122C64.8352 39.4503 65.2472 39.3693 65.7074 39.3693C66.3551 39.3693 66.8636 39.5114 67.233 39.7955C67.6051 40.0795 67.8693 40.4545 68.0256 40.9205ZM73.7837 43.3239V39.4545H74.7894V46H73.7837V44.892H73.7156C73.5621 45.2244 73.3235 45.5071 72.9996 45.7401C72.6758 45.9702 72.2667 46.0852 71.7724 46.0852C71.3633 46.0852 70.9996 45.9957 70.6815 45.8168C70.3633 45.6349 70.1133 45.3622 69.9315 44.9986C69.7496 44.6321 69.6587 44.1705 69.6587 43.6136V39.4545H70.6644V43.5455C70.6644 44.0227 70.7979 44.4034 71.065 44.6875C71.3349 44.9716 71.6786 45.1136 72.0962 45.1136C72.3462 45.1136 72.6005 45.0497 72.859 44.9219C73.1204 44.794 73.3391 44.598 73.5153 44.3338C73.6942 44.0696 73.7837 43.733 73.7837 43.3239ZM81.2678 40.9205L80.3643 41.1761C80.3075 41.0256 80.2237 40.8793 80.1129 40.7372C80.005 40.5923 79.8572 40.473 79.6697 40.3793C79.4822 40.2855 79.2422 40.2386 78.9496 40.2386C78.549 40.2386 78.2152 40.331 77.9482 40.5156C77.6839 40.6974 77.5518 40.929 77.5518 41.2102C77.5518 41.4602 77.6428 41.6577 77.8246 41.8026C78.0064 41.9474 78.2905 42.0682 78.6768 42.1648L79.6484 42.4034C80.2337 42.5455 80.6697 42.7628 80.9567 43.0554C81.2436 43.3452 81.3871 43.7187 81.3871 44.1761C81.3871 44.5511 81.2791 44.8864 81.0632 45.1818C80.8501 45.4773 80.5518 45.7102 80.1683 45.8807C79.7848 46.0511 79.3388 46.1364 78.8303 46.1364C78.1626 46.1364 77.6101 45.9915 77.1726 45.7017C76.7351 45.4119 76.4581 44.9886 76.3416 44.4318L77.2962 44.1932C77.3871 44.5455 77.5589 44.8097 77.8118 44.9858C78.0675 45.1619 78.4013 45.25 78.8132 45.25C79.282 45.25 79.6541 45.1506 79.9297 44.9517C80.2081 44.75 80.3473 44.5085 80.3473 44.2273C80.3473 44 80.2678 43.8097 80.1087 43.6562C79.9496 43.5 79.7053 43.3835 79.3757 43.3068L78.2848 43.0511C77.6854 42.9091 77.245 42.6889 76.9638 42.3906C76.6854 42.0895 76.5462 41.7131 76.5462 41.2614C76.5462 40.892 76.6499 40.5653 76.8572 40.2812C77.0675 39.9972 77.353 39.7741 77.7138 39.6122C78.0774 39.4503 78.4893 39.3693 78.9496 39.3693C79.5973 39.3693 80.1058 39.5114 80.4751 39.7955C80.8473 40.0795 81.1115 40.4545 81.2678 40.9205ZM85.7475 39.4545V40.3068H82.3555V39.4545H85.7475ZM83.3441 37.8864H84.3498V44.125C84.3498 44.4091 84.391 44.6222 84.4734 44.7642C84.5586 44.9034 84.6665 44.9972 84.7972 45.0455C84.9308 45.0909 85.0714 45.1136 85.2191 45.1136C85.3299 45.1136 85.4208 45.108 85.4918 45.0966C85.5629 45.0824 85.6197 45.071 85.6623 45.0625L85.8668 45.9659C85.7987 45.9915 85.7035 46.017 85.5813 46.0426C85.4592 46.071 85.3043 46.0852 85.1168 46.0852C84.8327 46.0852 84.5543 46.0241 84.2816 45.902C84.0117 45.7798 83.7873 45.5938 83.6083 45.3438C83.4322 45.0938 83.3441 44.7784 83.3441 44.3977V37.8864ZM89.1864 46.1534C88.7717 46.1534 88.3952 46.0753 88.0572 45.919C87.7191 45.7599 87.4506 45.5312 87.2518 45.233C87.0529 44.9318 86.9535 44.5682 86.9535 44.142C86.9535 43.767 87.0273 43.4631 87.1751 43.2301C87.3228 42.9943 87.5202 42.8097 87.7674 42.6761C88.0146 42.5426 88.2873 42.4432 88.5856 42.3778C88.8867 42.3097 89.1893 42.2557 89.4933 42.2159C89.891 42.1648 90.2134 42.1264 90.4606 42.1009C90.7106 42.0724 90.8924 42.0256 91.006 41.9602C91.1225 41.8949 91.1808 41.7812 91.1808 41.6193V41.5852C91.1808 41.1648 91.0657 40.8381 90.8356 40.6051C90.6083 40.3722 90.2631 40.2557 89.8001 40.2557C89.32 40.2557 88.9435 40.3608 88.6708 40.571C88.3981 40.7812 88.2063 41.0057 88.0955 41.2443L87.141 40.9034C87.3114 40.5057 87.5387 40.196 87.8228 39.9744C88.1097 39.75 88.4222 39.5937 88.7603 39.5057C89.1012 39.4148 89.4364 39.3693 89.766 39.3693C89.9762 39.3693 90.2177 39.3949 90.4904 39.446C90.766 39.4943 91.0316 39.5952 91.2873 39.7486C91.5458 39.902 91.7603 40.1335 91.9308 40.4432C92.1012 40.7528 92.1864 41.1676 92.1864 41.6875V46H91.1808V45.1136H91.1296C91.0614 45.2557 90.9478 45.4077 90.7887 45.5696C90.6296 45.7315 90.418 45.8693 90.1538 45.983C89.8896 46.0966 89.5671 46.1534 89.1864 46.1534ZM89.3398 45.25C89.7376 45.25 90.0728 45.1719 90.3455 45.0156C90.6211 44.8594 90.8285 44.6577 90.9677 44.4105C91.1097 44.1634 91.1808 43.9034 91.1808 43.6307V42.7102C91.1381 42.7614 91.0444 42.8082 90.8995 42.8509C90.7575 42.8906 90.5927 42.9261 90.4052 42.9574C90.2205 42.9858 90.0401 43.0114 89.864 43.0341C89.6907 43.054 89.5501 43.071 89.4421 43.0852C89.1808 43.1193 88.9364 43.1747 88.7092 43.2514C88.4847 43.3253 88.3029 43.4375 88.1637 43.5881C88.0273 43.7358 87.9592 43.9375 87.9592 44.1932C87.9592 44.5426 88.0884 44.8068 88.3469 44.9858C88.6083 45.1619 88.9393 45.25 89.3398 45.25ZM94.022 46V39.4545H95.0277V46H94.022ZM94.5334 38.3636C94.3374 38.3636 94.1683 38.2969 94.0263 38.1634C93.8871 38.0298 93.8175 37.8693 93.8175 37.6818C93.8175 37.4943 93.8871 37.3338 94.0263 37.2003C94.1683 37.0668 94.3374 37 94.5334 37C94.7294 37 94.897 37.0668 95.0362 37.2003C95.1783 37.3338 95.2493 37.4943 95.2493 37.6818C95.2493 37.8693 95.1783 38.0298 95.0362 38.1634C94.897 38.2969 94.7294 38.3636 94.5334 38.3636ZM97.8754 42.0625V46H96.8697V39.4545H97.8413V40.4773H97.9265C98.0799 40.1449 98.3129 39.8778 98.6254 39.6761C98.9379 39.4716 99.3413 39.3693 99.8356 39.3693C100.279 39.3693 100.667 39.4602 100.999 39.642C101.331 39.821 101.59 40.0938 101.775 40.4602C101.959 40.8239 102.051 41.2841 102.051 41.8409V46H101.046V41.9091C101.046 41.3949 100.912 40.9943 100.645 40.7074C100.378 40.4176 100.012 40.2727 99.5458 40.2727C99.2248 40.2727 98.9379 40.3423 98.685 40.4815C98.435 40.6207 98.2376 40.8239 98.0927 41.0909C97.9478 41.358 97.8754 41.6818 97.8754 42.0625ZM105.815 46.1534C105.401 46.1534 105.024 46.0753 104.686 45.919C104.348 45.7599 104.08 45.5312 103.881 45.233C103.682 44.9318 103.582 44.5682 103.582 44.142C103.582 43.767 103.656 43.4631 103.804 43.2301C103.952 42.9943 104.149 42.8097 104.396 42.6761C104.643 42.5426 104.916 42.4432 105.214 42.3778C105.516 42.3097 105.818 42.2557 106.122 42.2159C106.52 42.1648 106.842 42.1264 107.089 42.1009C107.339 42.0724 107.521 42.0256 107.635 41.9602C107.751 41.8949 107.81 41.7812 107.81 41.6193V41.5852C107.81 41.1648 107.695 40.8381 107.464 40.6051C107.237 40.3722 106.892 40.2557 106.429 40.2557C105.949 40.2557 105.572 40.3608 105.3 40.571C105.027 40.7812 104.835 41.0057 104.724 41.2443L103.77 40.9034C103.94 40.5057 104.168 40.196 104.452 39.9744C104.739 39.75 105.051 39.5937 105.389 39.5057C105.73 39.4148 106.065 39.3693 106.395 39.3693C106.605 39.3693 106.847 39.3949 107.119 39.446C107.395 39.4943 107.661 39.5952 107.916 39.7486C108.175 39.902 108.389 40.1335 108.56 40.4432C108.73 40.7528 108.815 41.1676 108.815 41.6875V46H107.81V45.1136H107.759C107.69 45.2557 107.577 45.4077 107.418 45.5696C107.259 45.7315 107.047 45.8693 106.783 45.983C106.518 46.0966 106.196 46.1534 105.815 46.1534ZM105.969 45.25C106.366 45.25 106.702 45.1719 106.974 45.0156C107.25 44.8594 107.457 44.6577 107.597 44.4105C107.739 44.1634 107.81 43.9034 107.81 43.6307V42.7102C107.767 42.7614 107.673 42.8082 107.528 42.8509C107.386 42.8906 107.222 42.9261 107.034 42.9574C106.849 42.9858 106.669 43.0114 106.493 43.0341C106.32 43.054 106.179 43.071 106.071 43.0852C105.81 43.1193 105.565 43.1747 105.338 43.2514C105.114 43.3253 104.932 43.4375 104.793 43.5881C104.656 43.7358 104.588 43.9375 104.588 44.1932C104.588 44.5426 104.717 44.8068 104.976 44.9858C105.237 45.1619 105.568 45.25 105.969 45.25ZM110.787 46V37.2727H111.793V40.4943H111.878C111.952 40.3807 112.054 40.2358 112.185 40.0597C112.319 39.8807 112.509 39.7216 112.756 39.5824C113.006 39.4403 113.344 39.3693 113.77 39.3693C114.321 39.3693 114.807 39.5071 115.228 39.7827C115.648 40.0582 115.976 40.4489 116.212 40.9545C116.448 41.4602 116.566 42.0568 116.566 42.7443C116.566 43.4375 116.448 44.0384 116.212 44.5469C115.976 45.0526 115.65 45.4446 115.232 45.723C114.814 45.9986 114.333 46.1364 113.787 46.1364C113.367 46.1364 113.03 46.0668 112.777 45.9276C112.525 45.7855 112.33 45.625 112.194 45.446C112.057 45.2642 111.952 45.1136 111.878 44.9943H111.759V46H110.787ZM111.776 42.7273C111.776 43.2216 111.848 43.6577 111.993 44.0355C112.138 44.4105 112.35 44.7045 112.628 44.9176C112.907 45.1278 113.248 45.233 113.651 45.233C114.071 45.233 114.422 45.1222 114.703 44.9006C114.988 44.6761 115.201 44.375 115.343 43.9972C115.488 43.6165 115.56 43.1932 115.56 42.7273C115.56 42.267 115.489 41.8523 115.347 41.483C115.208 41.1108 114.996 40.8168 114.712 40.6009C114.431 40.3821 114.077 40.2727 113.651 40.2727C113.242 40.2727 112.898 40.3764 112.62 40.5838C112.341 40.7884 112.131 41.0753 111.989 41.4446C111.847 41.8111 111.776 42.2386 111.776 42.7273ZM119.11 37.2727V46H118.104V37.2727H119.11ZM123.696 46.1364C123.065 46.1364 122.521 45.9972 122.064 45.7188C121.609 45.4375 121.259 45.0455 121.011 44.5426C120.767 44.0369 120.645 43.4489 120.645 42.7784C120.645 42.108 120.767 41.517 121.011 41.0057C121.259 40.4915 121.602 40.0909 122.043 39.804C122.486 39.5142 123.003 39.3693 123.594 39.3693C123.935 39.3693 124.271 39.4261 124.604 39.5398C124.936 39.6534 125.239 39.8381 125.511 40.0938C125.784 40.3466 126.001 40.6818 126.163 41.0994C126.325 41.517 126.406 42.0312 126.406 42.642V43.0682H121.361V42.1989H125.384C125.384 41.8295 125.31 41.5 125.162 41.2102C125.017 40.9205 124.81 40.6918 124.54 40.5241C124.273 40.3565 123.957 40.2727 123.594 40.2727C123.193 40.2727 122.847 40.3722 122.554 40.571C122.264 40.767 122.041 41.0227 121.885 41.3381C121.729 41.6534 121.651 41.9915 121.651 42.3523V42.9318C121.651 43.4261 121.736 43.8452 121.906 44.1889C122.08 44.5298 122.32 44.7898 122.626 44.9688C122.933 45.1449 123.29 45.233 123.696 45.233C123.96 45.233 124.199 45.196 124.412 45.1222C124.628 45.0455 124.814 44.9318 124.97 44.7812C125.126 44.6278 125.247 44.4375 125.332 44.2102L126.304 44.483C126.202 44.8125 126.03 45.1023 125.788 45.3523C125.547 45.5994 125.249 45.7926 124.893 45.9318C124.538 46.0682 124.139 46.1364 123.696 46.1364ZM17.1705 66.4545V57.4545H18.142V58.4943H18.2614C18.3352 58.3807 18.4375 58.2358 18.5682 58.0597C18.7017 57.8807 18.892 57.7216 19.1392 57.5824C19.3892 57.4403 19.7273 57.3693 20.1534 57.3693C20.7045 57.3693 21.1903 57.5071 21.6108 57.7827C22.0313 58.0582 22.3594 58.4489 22.5952 58.9545C22.831 59.4602 22.9489 60.0568 22.9489 60.7443C22.9489 61.4375 22.831 62.0384 22.5952 62.5469C22.3594 63.0526 22.0327 63.4446 21.6151 63.723C21.1974 63.9986 20.7159 64.1364 20.1705 64.1364C19.75 64.1364 19.4134 64.0668 19.1605 63.9276C18.9077 63.7855 18.7131 63.625 18.5767 63.446C18.4403 63.2642 18.3352 63.1136 18.2614 62.9943H18.1761V66.4545H17.1705ZM18.1591 60.7273C18.1591 61.2216 18.2315 61.6577 18.3764 62.0355C18.5213 62.4105 18.733 62.7045 19.0114 62.9176C19.2898 63.1278 19.6307 63.233 20.0341 63.233C20.4545 63.233 20.8054 63.1222 21.0866 62.9006C21.3707 62.6761 21.5838 62.375 21.7259 61.9972C21.8707 61.6165 21.9432 61.1932 21.9432 60.7273C21.9432 60.267 21.8722 59.8523 21.7301 59.483C21.5909 59.1108 21.3793 58.8168 21.0952 58.6009C20.8139 58.3821 20.4602 58.2727 20.0341 58.2727C19.625 58.2727 19.2813 58.3764 19.0028 58.5838C18.7244 58.7884 18.5142 59.0753 18.3722 59.4446C18.2301 59.8111 18.1591 60.2386 18.1591 60.7273ZM27.2273 64.1364C26.5966 64.1364 26.0526 63.9972 25.5952 63.7188C25.1406 63.4375 24.7898 63.0455 24.5426 62.5426C24.2983 62.0369 24.1761 61.4489 24.1761 60.7784C24.1761 60.108 24.2983 59.517 24.5426 59.0057C24.7898 58.4915 25.1335 58.0909 25.5739 57.804C26.017 57.5142 26.5341 57.3693 27.125 57.3693C27.4659 57.3693 27.8026 57.4261 28.1349 57.5398C28.4673 57.6534 28.7699 57.8381 29.0426 58.0938C29.3153 58.3466 29.5327 58.6818 29.6946 59.0994C29.8565 59.517 29.9375 60.0312 29.9375 60.642V61.0682H24.892V60.1989H28.9148C28.9148 59.8295 28.8409 59.5 28.6932 59.2102C28.5483 58.9205 28.3409 58.6918 28.071 58.5241C27.804 58.3565 27.4886 58.2727 27.125 58.2727C26.7244 58.2727 26.3778 58.3722 26.0852 58.571C25.7955 58.767 25.5724 59.0227 25.4162 59.3381C25.2599 59.6534 25.1818 59.9915 25.1818 60.3523V60.9318C25.1818 61.4261 25.267 61.8452 25.4375 62.1889C25.6108 62.5298 25.8509 62.7898 26.1577 62.9688C26.4645 63.1449 26.821 63.233 27.2273 63.233C27.4915 63.233 27.7301 63.196 27.9432 63.1222C28.1591 63.0455 28.3452 62.9318 28.5014 62.7812C28.6577 62.6278 28.7784 62.4375 28.8636 62.2102L29.8352 62.483C29.733 62.8125 29.5611 63.1023 29.3196 63.3523C29.0781 63.5994 28.7798 63.7926 28.4247 63.9318C28.0696 64.0682 27.6705 64.1364 27.2273 64.1364ZM34.2116 64.1364C33.581 64.1364 33.0369 63.9972 32.5795 63.7188C32.125 63.4375 31.7741 63.0455 31.527 62.5426C31.2827 62.0369 31.1605 61.4489 31.1605 60.7784C31.1605 60.108 31.2827 59.517 31.527 59.0057C31.7741 58.4915 32.1179 58.0909 32.5582 57.804C33.0014 57.5142 33.5185 57.3693 34.1094 57.3693C34.4503 57.3693 34.7869 57.4261 35.1193 57.5398C35.4517 57.6534 35.7543 57.8381 36.027 58.0938C36.2997 58.3466 36.517 58.6818 36.679 59.0994C36.8409 59.517 36.9219 60.0312 36.9219 60.642V61.0682H31.8764V60.1989H35.8991C35.8991 59.8295 35.8253 59.5 35.6776 59.2102C35.5327 58.9205 35.3253 58.6918 35.0554 58.5241C34.7884 58.3565 34.473 58.2727 34.1094 58.2727C33.7088 58.2727 33.3622 58.3722 33.0696 58.571C32.7798 58.767 32.5568 59.0227 32.4006 59.3381C32.2443 59.6534 32.1662 59.9915 32.1662 60.3523V60.9318C32.1662 61.4261 32.2514 61.8452 32.4219 62.1889C32.5952 62.5298 32.8352 62.7898 33.142 62.9688C33.4489 63.1449 33.8054 63.233 34.2116 63.233C34.4759 63.233 34.7145 63.196 34.9276 63.1222C35.1435 63.0455 35.3295 62.9318 35.4858 62.7812C35.642 62.6278 35.7628 62.4375 35.848 62.2102L36.8196 62.483C36.7173 62.8125 36.5455 63.1023 36.304 63.3523C36.0625 63.5994 35.7642 63.7926 35.4091 63.9318C35.054 64.0682 34.6548 64.1364 34.2116 64.1364ZM38.4517 64V57.4545H39.4233V58.4432H39.4915C39.6108 58.1193 39.8267 57.8565 40.1392 57.6548C40.4517 57.4531 40.804 57.3523 41.196 57.3523C41.2699 57.3523 41.3622 57.3537 41.473 57.3565C41.5838 57.3594 41.6676 57.3636 41.7244 57.3693V58.392C41.6903 58.3835 41.6122 58.3707 41.4901 58.3537C41.3707 58.3338 41.2443 58.3239 41.1108 58.3239C40.7926 58.3239 40.5085 58.3906 40.2585 58.5241C40.0114 58.6548 39.8153 58.8366 39.6705 59.0696C39.5284 59.2997 39.4574 59.5625 39.4574 59.858V64H38.4517ZM49.1381 57.4545V58.3068H45.7461V57.4545H49.1381ZM46.7347 55.8864H47.7404V62.125C47.7404 62.4091 47.7816 62.6222 47.864 62.7642C47.9492 62.9034 48.0572 62.9972 48.1879 63.0455C48.3214 63.0909 48.462 63.1136 48.6097 63.1136C48.7205 63.1136 48.8114 63.108 48.8825 63.0966C48.9535 63.0824 49.0103 63.071 49.0529 63.0625L49.2575 63.9659C49.1893 63.9915 49.0941 64.017 48.9719 64.0426C48.8498 64.071 48.695 64.0852 48.5075 64.0852C48.2234 64.0852 47.945 64.0241 47.6722 63.902C47.4023 63.7798 47.1779 63.5938 46.9989 63.3438C46.8228 63.0938 46.7347 62.7784 46.7347 62.3977V55.8864ZM53.2397 64.1364C52.6488 64.1364 52.1303 63.9957 51.6843 63.7145C51.2411 63.4332 50.8945 63.0398 50.6445 62.5341C50.3974 62.0284 50.2738 61.4375 50.2738 60.7614C50.2738 60.0795 50.3974 59.4844 50.6445 58.9759C50.8945 58.4673 51.2411 58.0724 51.6843 57.7912C52.1303 57.5099 52.6488 57.3693 53.2397 57.3693C53.8306 57.3693 54.3477 57.5099 54.7908 57.7912C55.2369 58.0724 55.5835 58.4673 55.8306 58.9759C56.0806 59.4844 56.2056 60.0795 56.2056 60.7614C56.2056 61.4375 56.0806 62.0284 55.8306 62.5341C55.5835 63.0398 55.2369 63.4332 54.7908 63.7145C54.3477 63.9957 53.8306 64.1364 53.2397 64.1364ZM53.2397 63.233C53.6886 63.233 54.0579 63.1179 54.3477 62.8878C54.6374 62.6577 54.8519 62.3551 54.9911 61.9801C55.1303 61.6051 55.1999 61.1989 55.1999 60.7614C55.1999 60.3239 55.1303 59.9162 54.9911 59.5384C54.8519 59.1605 54.6374 58.8551 54.3477 58.6222C54.0579 58.3892 53.6886 58.2727 53.2397 58.2727C52.7908 58.2727 52.4215 58.3892 52.1317 58.6222C51.842 58.8551 51.6275 59.1605 51.4883 59.5384C51.3491 59.9162 51.2795 60.3239 51.2795 60.7614C51.2795 61.1989 51.3491 61.6051 51.4883 61.9801C51.6275 62.3551 51.842 62.6577 52.1317 62.8878C52.4215 63.1179 52.7908 63.233 53.2397 63.233ZM61.1158 66.4545V57.4545H62.0874V58.4943H62.2067C62.2805 58.3807 62.3828 58.2358 62.5135 58.0597C62.647 57.8807 62.8374 57.7216 63.0845 57.5824C63.3345 57.4403 63.6726 57.3693 64.0987 57.3693C64.6499 57.3693 65.1357 57.5071 65.5561 57.7827C65.9766 58.0582 66.3047 58.4489 66.5405 58.9545C66.7763 59.4602 66.8942 60.0568 66.8942 60.7443C66.8942 61.4375 66.7763 62.0384 66.5405 62.5469C66.3047 63.0526 65.978 63.4446 65.5604 63.723C65.1428 63.9986 64.6612 64.1364 64.1158 64.1364C63.6953 64.1364 63.3587 64.0668 63.1058 63.9276C62.853 63.7855 62.6584 63.625 62.522 63.446C62.3857 63.2642 62.2805 63.1136 62.2067 62.9943H62.1214V66.4545H61.1158ZM62.1044 60.7273C62.1044 61.2216 62.1768 61.6577 62.3217 62.0355C62.4666 62.4105 62.6783 62.7045 62.9567 62.9176C63.2351 63.1278 63.576 63.233 63.9794 63.233C64.3999 63.233 64.7507 63.1222 65.032 62.9006C65.3161 62.6761 65.5291 62.375 65.6712 61.9972C65.8161 61.6165 65.8885 61.1932 65.8885 60.7273C65.8885 60.267 65.8175 59.8523 65.6754 59.483C65.5362 59.1108 65.3246 58.8168 65.0405 58.6009C64.7592 58.3821 64.4055 58.2727 63.9794 58.2727C63.5703 58.2727 63.2266 58.3764 62.9482 58.5838C62.6697 58.7884 62.4595 59.0753 62.3175 59.4446C62.1754 59.8111 62.1044 60.2386 62.1044 60.7273ZM71.1726 64.1364C70.5419 64.1364 69.9979 63.9972 69.5405 63.7188C69.0859 63.4375 68.7351 63.0455 68.4879 62.5426C68.2436 62.0369 68.1214 61.4489 68.1214 60.7784C68.1214 60.108 68.2436 59.517 68.4879 59.0057C68.7351 58.4915 69.0788 58.0909 69.5192 57.804C69.9624 57.5142 70.4794 57.3693 71.0703 57.3693C71.4112 57.3693 71.7479 57.4261 72.0803 57.5398C72.4126 57.6534 72.7152 57.8381 72.9879 58.0938C73.2607 58.3466 73.478 58.6818 73.6399 59.0994C73.8018 59.517 73.8828 60.0312 73.8828 60.642V61.0682H68.8374V60.1989H72.8601C72.8601 59.8295 72.7862 59.5 72.6385 59.2102C72.4936 58.9205 72.2862 58.6918 72.0163 58.5241C71.7493 58.3565 71.4339 58.2727 71.0703 58.2727C70.6697 58.2727 70.3232 58.3722 70.0305 58.571C69.7408 58.767 69.5178 59.0227 69.3615 59.3381C69.2053 59.6534 69.1271 59.9915 69.1271 60.3523V60.9318C69.1271 61.4261 69.2124 61.8452 69.3828 62.1889C69.5561 62.5298 69.7962 62.7898 70.103 62.9688C70.4098 63.1449 70.7663 63.233 71.1726 63.233C71.4368 63.233 71.6754 63.196 71.8885 63.1222C72.1044 63.0455 72.2905 62.9318 72.4467 62.7812C72.603 62.6278 72.7237 62.4375 72.8089 62.2102L73.7805 62.483C73.6783 62.8125 73.5064 63.1023 73.2649 63.3523C73.0234 63.5994 72.7251 63.7926 72.37 63.9318C72.0149 64.0682 71.6158 64.1364 71.1726 64.1364ZM78.157 64.1364C77.5263 64.1364 76.9822 63.9972 76.5249 63.7188C76.0703 63.4375 75.7195 63.0455 75.4723 62.5426C75.228 62.0369 75.1058 61.4489 75.1058 60.7784C75.1058 60.108 75.228 59.517 75.4723 59.0057C75.7195 58.4915 76.0632 58.0909 76.5036 57.804C76.9467 57.5142 77.4638 57.3693 78.0547 57.3693C78.3956 57.3693 78.7322 57.4261 79.0646 57.5398C79.397 57.6534 79.6996 57.8381 79.9723 58.0938C80.245 58.3466 80.4624 58.6818 80.6243 59.0994C80.7862 59.517 80.8672 60.0312 80.8672 60.642V61.0682H75.8217V60.1989H79.8445C79.8445 59.8295 79.7706 59.5 79.6229 59.2102C79.478 58.9205 79.2706 58.6918 79.0007 58.5241C78.7337 58.3565 78.4183 58.2727 78.0547 58.2727C77.6541 58.2727 77.3075 58.3722 77.0149 58.571C76.7251 58.767 76.5021 59.0227 76.3459 59.3381C76.1896 59.6534 76.1115 59.9915 76.1115 60.3523V60.9318C76.1115 61.4261 76.1967 61.8452 76.3672 62.1889C76.5405 62.5298 76.7805 62.7898 77.0874 62.9688C77.3942 63.1449 77.7507 63.233 78.157 63.233C78.4212 63.233 78.6598 63.196 78.8729 63.1222C79.0888 63.0455 79.2749 62.9318 79.4311 62.7812C79.5874 62.6278 79.7081 62.4375 79.7933 62.2102L80.7649 62.483C80.6626 62.8125 80.4908 63.1023 80.2493 63.3523C80.0078 63.5994 79.7095 63.7926 79.3544 63.9318C78.9993 64.0682 78.6001 64.1364 78.157 64.1364ZM82.397 64V57.4545H83.3686V58.4432H83.4368C83.5561 58.1193 83.772 57.8565 84.0845 57.6548C84.397 57.4531 84.7493 57.3523 85.1413 57.3523C85.2152 57.3523 85.3075 57.3537 85.4183 57.3565C85.5291 57.3594 85.6129 57.3636 85.6697 57.3693V58.392C85.6357 58.3835 85.5575 58.3707 85.4354 58.3537C85.3161 58.3338 85.1896 58.3239 85.0561 58.3239C84.7379 58.3239 84.4538 58.3906 84.2038 58.5241C83.9567 58.6548 83.7607 58.8366 83.6158 59.0696C83.4737 59.2997 83.4027 59.5625 83.4027 59.858V64H82.397ZM94.8732 58.9205L93.9698 59.1761C93.913 59.0256 93.8292 58.8793 93.7184 58.7372C93.6104 58.5923 93.4627 58.473 93.2752 58.3793C93.0877 58.2855 92.8477 58.2386 92.555 58.2386C92.1545 58.2386 91.8207 58.331 91.5536 58.5156C91.2894 58.6974 91.1573 58.929 91.1573 59.2102C91.1573 59.4602 91.2482 59.6577 91.43 59.8026C91.6119 59.9474 91.896 60.0682 92.2823 60.1648L93.2539 60.4034C93.8391 60.5455 94.2752 60.7628 94.5621 61.0554C94.8491 61.3452 94.9925 61.7187 94.9925 62.1761C94.9925 62.5511 94.8846 62.8864 94.6687 63.1818C94.4556 63.4773 94.1573 63.7102 93.7738 63.8807C93.3903 64.0511 92.9442 64.1364 92.4357 64.1364C91.7681 64.1364 91.2156 63.9915 90.7781 63.7017C90.3406 63.4119 90.0636 62.9886 89.9471 62.4318L90.9016 62.1932C90.9925 62.5455 91.1644 62.8097 91.4173 62.9858C91.6729 63.1619 92.0067 63.25 92.4187 63.25C92.8874 63.25 93.2596 63.1506 93.5352 62.9517C93.8136 62.75 93.9528 62.5085 93.9528 62.2273C93.9528 62 93.8732 61.8097 93.7141 61.6562C93.555 61.5 93.3107 61.3835 92.9812 61.3068L91.8903 61.0511C91.2908 60.9091 90.8505 60.6889 90.5692 60.3906C90.2908 60.0895 90.1516 59.7131 90.1516 59.2614C90.1516 58.892 90.2553 58.5653 90.4627 58.2812C90.6729 57.9972 90.9585 57.7741 91.3192 57.6122C91.6829 57.4503 92.0948 57.3693 92.555 57.3693C93.2028 57.3693 93.7113 57.5114 94.0806 57.7955C94.4528 58.0795 94.717 58.4545 94.8732 58.9205ZM97.1541 66.4545C96.9837 66.4545 96.8317 66.4403 96.6982 66.4119C96.5646 66.3864 96.4723 66.3608 96.4212 66.3352L96.6768 65.4489C96.9212 65.5114 97.1371 65.5341 97.3246 65.517C97.5121 65.5 97.6783 65.4162 97.8232 65.2656C97.9709 65.1179 98.1058 64.8778 98.228 64.5455L98.4155 64.0341L95.995 57.4545H97.0859L98.8928 62.6705H98.9609L100.768 57.4545H101.859L99.0803 64.9545C98.9553 65.2926 98.8004 65.5724 98.6158 65.794C98.4311 66.0185 98.2166 66.1847 97.9723 66.2926C97.7308 66.4006 97.4581 66.4545 97.1541 66.4545ZM107.822 58.9205L106.919 59.1761C106.862 59.0256 106.778 58.8793 106.668 58.7372C106.56 58.5923 106.412 58.473 106.224 58.3793C106.037 58.2855 105.797 58.2386 105.504 58.2386C105.104 58.2386 104.77 58.331 104.503 58.5156C104.239 58.6974 104.107 58.929 104.107 59.2102C104.107 59.4602 104.197 59.6577 104.379 59.8026C104.561 59.9474 104.845 60.0682 105.232 60.1648L106.203 60.4034C106.788 60.5455 107.224 60.7628 107.511 61.0554C107.798 61.3452 107.942 61.7187 107.942 62.1761C107.942 62.5511 107.834 62.8864 107.618 63.1818C107.405 63.4773 107.107 63.7102 106.723 63.8807C106.339 64.0511 105.893 64.1364 105.385 64.1364C104.717 64.1364 104.165 63.9915 103.727 63.7017C103.29 63.4119 103.013 62.9886 102.896 62.4318L103.851 62.1932C103.942 62.5455 104.114 62.8097 104.366 62.9858C104.622 63.1619 104.956 63.25 105.368 63.25C105.837 63.25 106.209 63.1506 106.484 62.9517C106.763 62.75 106.902 62.5085 106.902 62.2273C106.902 62 106.822 61.8097 106.663 61.6562C106.504 61.5 106.26 61.3835 105.93 61.3068L104.839 61.0511C104.24 60.9091 103.8 60.6889 103.518 60.3906C103.24 60.0895 103.101 59.7131 103.101 59.2614C103.101 58.892 103.205 58.5653 103.412 58.2812C103.622 57.9972 103.908 57.7741 104.268 57.6122C104.632 57.4503 105.044 57.3693 105.504 57.3693C106.152 57.3693 106.661 57.5114 107.03 57.7955C107.402 58.0795 107.666 58.4545 107.822 58.9205ZM112.302 57.4545V58.3068H108.91V57.4545H112.302ZM109.899 55.8864H110.904V62.125C110.904 62.4091 110.946 62.6222 111.028 62.7642C111.113 62.9034 111.221 62.9972 111.352 63.0455C111.485 63.0909 111.626 63.1136 111.774 63.1136C111.885 63.1136 111.975 63.108 112.047 63.0966C112.118 63.0824 112.174 63.071 112.217 63.0625L112.422 63.9659C112.353 63.9915 112.258 64.017 112.136 64.0426C112.014 64.071 111.859 64.0852 111.672 64.0852C111.387 64.0852 111.109 64.0241 110.836 63.902C110.566 63.7798 110.342 63.5938 110.163 63.3438C109.987 63.0938 109.899 62.7784 109.899 62.3977V55.8864ZM116.489 64.1364C115.858 64.1364 115.314 63.9972 114.857 63.7188C114.402 63.4375 114.051 63.0455 113.804 62.5426C113.56 62.0369 113.438 61.4489 113.438 60.7784C113.438 60.108 113.56 59.517 113.804 59.0057C114.051 58.4915 114.395 58.0909 114.836 57.804C115.279 57.5142 115.796 57.3693 116.387 57.3693C116.728 57.3693 117.064 57.4261 117.397 57.5398C117.729 57.6534 118.032 57.8381 118.304 58.0938C118.577 58.3466 118.794 58.6818 118.956 59.0994C119.118 59.517 119.199 60.0312 119.199 60.642V61.0682H114.154V60.1989H118.176C118.176 59.8295 118.103 59.5 117.955 59.2102C117.81 58.9205 117.603 58.6918 117.333 58.5241C117.066 58.3565 116.75 58.2727 116.387 58.2727C115.986 58.2727 115.64 58.3722 115.347 58.571C115.057 58.767 114.834 59.0227 114.678 59.3381C114.522 59.6534 114.444 59.9915 114.444 60.3523V60.9318C114.444 61.4261 114.529 61.8452 114.699 62.1889C114.873 62.5298 115.113 62.7898 115.419 62.9688C115.726 63.1449 116.083 63.233 116.489 63.233C116.753 63.233 116.992 63.196 117.205 63.1222C117.421 63.0455 117.607 62.9318 117.763 62.7812C117.919 62.6278 118.04 62.4375 118.125 62.2102L119.097 62.483C118.995 62.8125 118.823 63.1023 118.581 63.3523C118.34 63.5994 118.042 63.7926 117.686 63.9318C117.331 64.0682 116.932 64.1364 116.489 64.1364ZM120.729 64V57.4545H121.701V58.4773H121.786C121.922 58.1278 122.142 57.8565 122.446 57.6634C122.75 57.4673 123.115 57.3693 123.542 57.3693C123.973 57.3693 124.333 57.4673 124.62 57.6634C124.909 57.8565 125.135 58.1278 125.297 58.4773H125.365C125.533 58.1392 125.784 57.8707 126.12 57.6719C126.455 57.4702 126.857 57.3693 127.326 57.3693C127.911 57.3693 128.39 57.5526 128.762 57.919C129.134 58.2827 129.32 58.8494 129.32 59.6193V64H128.314V59.6193C128.314 59.1364 128.182 58.7912 127.918 58.5838C127.654 58.3764 127.343 58.2727 126.985 58.2727C126.525 58.2727 126.168 58.4119 125.915 58.6903C125.662 58.9659 125.536 59.3153 125.536 59.7386V64H124.513V59.517C124.513 59.1449 124.392 58.8452 124.151 58.6179C123.909 58.3878 123.598 58.2727 123.218 58.2727C122.956 58.2727 122.712 58.3423 122.485 58.4815C122.26 58.6207 122.078 58.8139 121.939 59.0611C121.803 59.3054 121.735 59.5881 121.735 59.9091V64H120.729Z" fill="white"/><path d="M38.642 28L36.2557 19.2727H37.3295L39.1534 26.3807H39.2386L41.0966 19.2727H42.2898L44.1477 26.3807H44.233L46.0568 19.2727H47.1307L44.7443 28H43.6534L41.7273 21.0455H41.6591L39.733 28H38.642ZM47.9009 28V21.4545H48.8725V22.4432H48.9407C49.06 22.1193 49.2759 21.8565 49.5884 21.6548C49.9009 21.4531 50.2532 21.3523 50.6452 21.3523C50.7191 21.3523 50.8114 21.3537 50.9222 21.3565C51.033 21.3594 51.1168 21.3636 51.1737 21.3693V22.392C51.1396 22.3835 51.0614 22.3707 50.9393 22.3537C50.82 22.3338 50.6935 22.3239 50.56 22.3239C50.2418 22.3239 49.9577 22.3906 49.7077 22.5241C49.4606 22.6548 49.2646 22.8366 49.1197 23.0696C48.9776 23.2997 48.9066 23.5625 48.9066 23.858V28H47.9009ZM52.3658 28V21.4545H53.3714V28H52.3658ZM52.8771 20.3636C52.6811 20.3636 52.5121 20.2969 52.37 20.1634C52.2308 20.0298 52.1612 19.8693 52.1612 19.6818C52.1612 19.4943 52.2308 19.3338 52.37 19.2003C52.5121 19.0668 52.6811 19 52.8771 19C53.0732 19 53.2408 19.0668 53.38 19.2003C53.522 19.3338 53.593 19.4943 53.593 19.6818C53.593 19.8693 53.522 20.0298 53.38 20.1634C53.2408 20.2969 53.0732 20.3636 52.8771 20.3636ZM58.06 21.4545V22.3068H54.668V21.4545H58.06ZM55.6566 19.8864H56.6623V26.125C56.6623 26.4091 56.7035 26.6222 56.7859 26.7642C56.8711 26.9034 56.979 26.9972 57.1097 27.0455C57.2433 27.0909 57.3839 27.1136 57.5316 27.1136C57.6424 27.1136 57.7333 27.108 57.8043 27.0966C57.8754 27.0824 57.9322 27.071 57.9748 27.0625L58.1793 27.9659C58.1112 27.9915 58.016 28.017 57.8938 28.0426C57.7717 28.071 57.6168 28.0852 57.4293 28.0852C57.1452 28.0852 56.8668 28.0241 56.5941 27.902C56.3242 27.7798 56.0998 27.5938 55.9208 27.3438C55.7447 27.0938 55.6566 26.7784 55.6566 26.3977V19.8864ZM62.2468 28.1364C61.6161 28.1364 61.0721 27.9972 60.6147 27.7188C60.1602 27.4375 59.8093 27.0455 59.5621 26.5426C59.3178 26.0369 59.1957 25.4489 59.1957 24.7784C59.1957 24.108 59.3178 23.517 59.5621 23.0057C59.8093 22.4915 60.1531 22.0909 60.5934 21.804C61.0366 21.5142 61.5536 21.3693 62.1445 21.3693C62.4854 21.3693 62.8221 21.4261 63.1545 21.5398C63.4869 21.6534 63.7894 21.8381 64.0621 22.0938C64.3349 22.3466 64.5522 22.6818 64.7141 23.0994C64.8761 23.517 64.957 24.0312 64.957 24.642V25.0682H59.9116V24.1989H63.9343C63.9343 23.8295 63.8604 23.5 63.7127 23.2102C63.5678 22.9205 63.3604 22.6918 63.0906 22.5241C62.8235 22.3565 62.5082 22.2727 62.1445 22.2727C61.744 22.2727 61.3974 22.3722 61.1048 22.571C60.815 22.767 60.592 23.0227 60.4357 23.3381C60.2795 23.6534 60.2013 23.9915 60.2013 24.3523V24.9318C60.2013 25.4261 60.2866 25.8452 60.457 26.1889C60.6303 26.5298 60.8704 26.7898 61.1772 26.9688C61.484 27.1449 61.8406 27.233 62.2468 27.233C62.511 27.233 62.7496 27.196 62.9627 27.1222C63.1786 27.0455 63.3647 26.9318 63.521 26.7812C63.6772 26.6278 63.7979 26.4375 63.8832 26.2102L64.8548 26.483C64.7525 26.8125 64.5806 27.1023 64.3391 27.3523C64.0977 27.5994 63.7994 27.7926 63.4442 27.9318C63.0891 28.0682 62.69 28.1364 62.2468 28.1364ZM71.788 28.1534C71.3732 28.1534 70.9968 28.0753 70.6587 27.919C70.3207 27.7599 70.0522 27.5312 69.8533 27.233C69.6545 26.9318 69.555 26.5682 69.555 26.142C69.555 25.767 69.6289 25.4631 69.7766 25.2301C69.9244 24.9943 70.1218 24.8097 70.369 24.6761C70.6161 24.5426 70.8888 24.4432 71.1871 24.3778C71.4883 24.3097 71.7908 24.2557 72.0948 24.2159C72.4925 24.1648 72.815 24.1264 73.0621 24.1009C73.3121 24.0724 73.494 24.0256 73.6076 23.9602C73.7241 23.8949 73.7823 23.7812 73.7823 23.6193V23.5852C73.7823 23.1648 73.6673 22.8381 73.4371 22.6051C73.2099 22.3722 72.8647 22.2557 72.4016 22.2557C71.9215 22.2557 71.5451 22.3608 71.2724 22.571C70.9996 22.7812 70.8079 23.0057 70.6971 23.2443L69.7425 22.9034C69.913 22.5057 70.1403 22.196 70.4244 21.9744C70.7113 21.75 71.0238 21.5937 71.3619 21.5057C71.7028 21.4148 72.038 21.3693 72.3675 21.3693C72.5778 21.3693 72.8192 21.3949 73.092 21.446C73.3675 21.4943 73.6332 21.5952 73.8888 21.7486C74.1474 21.902 74.3619 22.1335 74.5323 22.4432C74.7028 22.7528 74.788 23.1676 74.788 23.6875V28H73.7823V27.1136H73.7312C73.663 27.2557 73.5494 27.4077 73.3903 27.5696C73.2312 27.7315 73.0195 27.8693 72.7553 27.983C72.4911 28.0966 72.1687 28.1534 71.788 28.1534ZM71.9414 27.25C72.3391 27.25 72.6744 27.1719 72.9471 27.0156C73.2227 26.8594 73.43 26.6577 73.5692 26.4105C73.7113 26.1634 73.7823 25.9034 73.7823 25.6307V24.7102C73.7397 24.7614 73.646 24.8082 73.5011 24.8509C73.359 24.8906 73.1942 24.9261 73.0067 24.9574C72.8221 24.9858 72.6417 25.0114 72.4656 25.0341C72.2923 25.054 72.1516 25.071 72.0437 25.0852C71.7823 25.1193 71.538 25.1747 71.3107 25.2514C71.0863 25.3253 70.9045 25.4375 70.7653 25.5881C70.6289 25.7358 70.5607 25.9375 70.5607 26.1932C70.5607 26.5426 70.69 26.8068 70.9485 26.9858C71.2099 27.1619 71.5408 27.25 71.9414 27.25ZM77.6293 24.0625V28H76.6236V21.4545H77.5952V22.4773H77.6804C77.8338 22.1449 78.0668 21.8778 78.3793 21.6761C78.6918 21.4716 79.0952 21.3693 79.5895 21.3693C80.0327 21.3693 80.4205 21.4602 80.7528 21.642C81.0852 21.821 81.3438 22.0938 81.5284 22.4602C81.7131 22.8239 81.8054 23.2841 81.8054 23.8409V28H80.7997V23.9091C80.7997 23.3949 80.6662 22.9943 80.3991 22.7074C80.1321 22.4176 79.7656 22.2727 79.2997 22.2727C78.9787 22.2727 78.6918 22.3423 78.4389 22.4815C78.1889 22.6207 77.9915 22.8239 77.8466 23.0909C77.7017 23.358 77.6293 23.6818 77.6293 24.0625ZM88.9442 28.1534C88.5295 28.1534 88.1531 28.0753 87.815 27.919C87.4769 27.7599 87.2085 27.5312 87.0096 27.233C86.8107 26.9318 86.7113 26.5682 86.7113 26.142C86.7113 25.767 86.7852 25.4631 86.9329 25.2301C87.0806 24.9943 87.2781 24.8097 87.5252 24.6761C87.7724 24.5426 88.0451 24.4432 88.3434 24.3778C88.6445 24.3097 88.9471 24.2557 89.2511 24.2159C89.6488 24.1648 89.9712 24.1264 90.2184 24.1009C90.4684 24.0724 90.6502 24.0256 90.7638 23.9602C90.8803 23.8949 90.9386 23.7812 90.9386 23.6193V23.5852C90.9386 23.1648 90.8235 22.8381 90.5934 22.6051C90.3661 22.3722 90.021 22.2557 89.5579 22.2557C89.0778 22.2557 88.7013 22.3608 88.4286 22.571C88.1559 22.7812 87.9641 23.0057 87.8533 23.2443L86.8988 22.9034C87.0692 22.5057 87.2965 22.196 87.5806 21.9744C87.8675 21.75 88.18 21.5937 88.5181 21.5057C88.859 21.4148 89.1942 21.3693 89.5238 21.3693C89.734 21.3693 89.9755 21.3949 90.2482 21.446C90.5238 21.4943 90.7894 21.5952 91.0451 21.7486C91.3036 21.902 91.5181 22.1335 91.6886 22.4432C91.859 22.7528 91.9442 23.1676 91.9442 23.6875V28H90.9386V27.1136H90.8874C90.8192 27.2557 90.7056 27.4077 90.5465 27.5696C90.3874 27.7315 90.1758 27.8693 89.9116 27.983C89.6474 28.0966 89.3249 28.1534 88.9442 28.1534ZM89.0977 27.25C89.4954 27.25 89.8306 27.1719 90.1033 27.0156C90.3789 26.8594 90.5863 26.6577 90.7255 26.4105C90.8675 26.1634 90.9386 25.9034 90.9386 25.6307V24.7102C90.896 24.7614 90.8022 24.8082 90.6573 24.8509C90.5153 24.8906 90.3505 24.9261 90.163 24.9574C89.9783 24.9858 89.7979 25.0114 89.6218 25.0341C89.4485 25.054 89.3079 25.071 89.1999 25.0852C88.9386 25.1193 88.6942 25.1747 88.467 25.2514C88.2425 25.3253 88.0607 25.4375 87.9215 25.5881C87.7852 25.7358 87.717 25.9375 87.717 26.1932C87.717 26.5426 87.8462 26.8068 88.1048 26.9858C88.3661 27.1619 88.6971 27.25 89.0977 27.25ZM93.7798 28V21.4545H94.7514V22.4432H94.8196C94.9389 22.1193 95.1548 21.8565 95.4673 21.6548C95.7798 21.4531 96.1321 21.3523 96.5241 21.3523C96.598 21.3523 96.6903 21.3537 96.8011 21.3565C96.9119 21.3594 96.9957 21.3636 97.0526 21.3693V22.392C97.0185 22.3835 96.9403 22.3707 96.8182 22.3537C96.6989 22.3338 96.5724 22.3239 96.4389 22.3239C96.1207 22.3239 95.8366 22.3906 95.5866 22.5241C95.3395 22.6548 95.1435 22.8366 94.9986 23.0696C94.8565 23.2997 94.7855 23.5625 94.7855 23.858V28H93.7798ZM101.501 21.4545V22.3068H98.1094V21.4545H101.501ZM99.098 19.8864H100.104V26.125C100.104 26.4091 100.145 26.6222 100.227 26.7642C100.313 26.9034 100.42 26.9972 100.551 27.0455C100.685 27.0909 100.825 27.1136 100.973 27.1136C101.084 27.1136 101.175 27.108 101.246 27.0966C101.317 27.0824 101.374 27.071 101.416 27.0625L101.621 27.9659C101.553 27.9915 101.457 28.017 101.335 28.0426C101.213 28.071 101.058 28.0852 100.871 28.0852C100.587 28.0852 100.308 28.0241 100.036 27.902C99.7656 27.7798 99.5412 27.5938 99.3622 27.3438C99.1861 27.0938 99.098 26.7784 99.098 26.3977V19.8864ZM103.014 28V21.4545H104.02V28H103.014ZM103.526 20.3636C103.33 20.3636 103.161 20.2969 103.018 20.1634C102.879 20.0298 102.81 19.8693 102.81 19.6818C102.81 19.4943 102.879 19.3338 103.018 19.2003C103.161 19.0668 103.33 19 103.526 19C103.722 19 103.889 19.0668 104.028 19.2003C104.17 19.3338 104.241 19.4943 104.241 19.6818C104.241 19.8693 104.17 20.0298 104.028 20.1634C103.889 20.2969 103.722 20.3636 103.526 20.3636ZM108.521 28.1364C107.907 28.1364 107.379 27.9915 106.936 27.7017C106.493 27.4119 106.152 27.0128 105.913 26.5043C105.674 25.9957 105.555 25.4148 105.555 24.7614C105.555 24.0966 105.677 23.5099 105.922 23.0014C106.169 22.4901 106.512 22.0909 106.953 21.804C107.396 21.5142 107.913 21.3693 108.504 21.3693C108.964 21.3693 109.379 21.4545 109.748 21.625C110.118 21.7955 110.42 22.0341 110.656 22.3409C110.892 22.6477 111.038 23.0057 111.095 23.4148H110.089C110.012 23.1165 109.842 22.8523 109.578 22.6222C109.316 22.3892 108.964 22.2727 108.521 22.2727C108.129 22.2727 107.785 22.375 107.49 22.5795C107.197 22.7812 106.968 23.0668 106.804 23.4361C106.642 23.8026 106.561 24.233 106.561 24.7273C106.561 25.233 106.64 25.6733 106.799 26.0483C106.961 26.4233 107.189 26.7145 107.481 26.9219C107.777 27.1293 108.123 27.233 108.521 27.233C108.782 27.233 109.02 27.1875 109.233 27.0966C109.446 27.0057 109.626 26.875 109.774 26.7045C109.922 26.5341 110.027 26.3295 110.089 26.0909H111.095C111.038 26.4773 110.897 26.8253 110.673 27.1349C110.451 27.4418 110.157 27.6861 109.791 27.8679C109.427 28.0469 109.004 28.1364 108.521 28.1364ZM113.571 19.2727V28H112.565V19.2727H113.571ZM118.157 28.1364C117.526 28.1364 116.982 27.9972 116.525 27.7188C116.07 27.4375 115.719 27.0455 115.472 26.5426C115.228 26.0369 115.106 25.4489 115.106 24.7784C115.106 24.108 115.228 23.517 115.472 23.0057C115.719 22.4915 116.063 22.0909 116.504 21.804C116.947 21.5142 117.464 21.3693 118.055 21.3693C118.396 21.3693 118.732 21.4261 119.065 21.5398C119.397 21.6534 119.7 21.8381 119.972 22.0938C120.245 22.3466 120.462 22.6818 120.624 23.0994C120.786 23.517 120.867 24.0312 120.867 24.642V25.0682H115.822V24.1989H119.844C119.844 23.8295 119.771 23.5 119.623 23.2102C119.478 22.9205 119.271 22.6918 119.001 22.5241C118.734 22.3565 118.418 22.2727 118.055 22.2727C117.654 22.2727 117.308 22.3722 117.015 22.571C116.725 22.767 116.502 23.0227 116.346 23.3381C116.19 23.6534 116.112 23.9915 116.112 24.3523V24.9318C116.112 25.4261 116.197 25.8452 116.367 26.1889C116.54 26.5298 116.781 26.7898 117.087 26.9688C117.394 27.1449 117.751 27.233 118.157 27.233C118.421 27.233 118.66 27.196 118.873 27.1222C119.089 27.0455 119.275 26.9318 119.431 26.7812C119.587 26.6278 119.708 26.4375 119.793 26.2102L120.765 26.483C120.663 26.8125 120.491 27.1023 120.249 27.3523C120.008 27.5994 119.71 27.7926 119.354 27.9318C118.999 28.0682 118.6 28.1364 118.157 28.1364Z" fill="white"/><path d="M16.5 20.5C16.5 18.8431 17.8431 17.5 19.5 17.5H26.5C28.1569 17.5 29.5 18.8431 29.5 20.5V27.5C29.5 29.1569 28.1569 30.5 26.5 30.5H19.5C17.8431 30.5 16.5 29.1569 16.5 27.5V20.5Z" stroke="#808080"/><rect x="16" y="76" width="34" height="16" rx="3" fill="#093B57"/><path d="M21.4219 88L19.2344 80H20.2188L21.8906 86.5156H21.9688L23.6719 80H24.7656L26.4688 86.5156H26.5469L28.2188 80H29.2031L27.0156 88H26.0156L24.25 81.625H24.1875L22.4219 88H21.4219ZM32.3641 88.125C31.8224 88.125 31.3471 87.9961 30.9383 87.7383C30.532 87.4805 30.2143 87.1198 29.9852 86.6562C29.7586 86.1927 29.6453 85.651 29.6453 85.0312C29.6453 84.4062 29.7586 83.8607 29.9852 83.3945C30.2143 82.9284 30.532 82.5664 30.9383 82.3086C31.3471 82.0508 31.8224 81.9219 32.3641 81.9219C32.9057 81.9219 33.3797 82.0508 33.7859 82.3086C34.1948 82.5664 34.5125 82.9284 34.7391 83.3945C34.9682 83.8607 35.0828 84.4062 35.0828 85.0312C35.0828 85.651 34.9682 86.1927 34.7391 86.6562C34.5125 87.1198 34.1948 87.4805 33.7859 87.7383C33.3797 87.9961 32.9057 88.125 32.3641 88.125ZM32.3641 87.2969C32.7755 87.2969 33.1141 87.1914 33.3797 86.9805C33.6453 86.7695 33.8419 86.4922 33.9695 86.1484C34.0971 85.8047 34.1609 85.4323 34.1609 85.0312C34.1609 84.6302 34.0971 84.2565 33.9695 83.9102C33.8419 83.5638 33.6453 83.2839 33.3797 83.0703C33.1141 82.8568 32.7755 82.75 32.3641 82.75C31.9526 82.75 31.6141 82.8568 31.3484 83.0703C31.0828 83.2839 30.8862 83.5638 30.7586 83.9102C30.631 84.2565 30.5672 84.6302 30.5672 85.0312C30.5672 85.4323 30.631 85.8047 30.7586 86.1484C30.8862 86.4922 31.0828 86.7695 31.3484 86.9805C31.6141 87.1914 31.9526 87.2969 32.3641 87.2969ZM36.69 88V82H37.5807V82.9062H37.6432C37.7525 82.6094 37.9505 82.3685 38.2369 82.1836C38.5234 81.9987 38.8463 81.9062 39.2057 81.9062C39.2734 81.9062 39.358 81.9076 39.4596 81.9102C39.5611 81.9128 39.638 81.9167 39.69 81.9219V82.8594C39.6588 82.8516 39.5872 82.8398 39.4752 82.8242C39.3658 82.806 39.2499 82.7969 39.1275 82.7969C38.8359 82.7969 38.5755 82.8581 38.3463 82.9805C38.1197 83.1003 37.94 83.2669 37.8072 83.4805C37.677 83.6914 37.6119 83.9323 37.6119 84.2031V88H36.69ZM41.8422 85.8125L41.8266 84.6719H42.0141L44.6391 82H45.7797L42.9828 84.8281H42.9047L41.8422 85.8125ZM40.9828 88V80H41.9047V88H40.9828ZM44.7953 88L42.4516 85.0312L43.1078 84.3906L45.9672 88H44.7953Z" fill="#18A3F1"/></svg>