<svg xmlns="http://www.w3.org/2000/svg" viewBox="0 0 160 134" fill="none"><path d="M8.67614 2.11506V1.02131H16.3125V2.11506H13.1108V11.2031H11.8778V2.11506H8.67614ZM19.1096 6.60938V11.2031H17.9363V1.02131H19.1096V4.75994H19.209C19.388 4.36553 19.6565 4.05232 20.0144 3.82031C20.3757 3.58499 20.8563 3.46733 21.4562 3.46733C21.9765 3.46733 22.4323 3.57173 22.8234 3.78054C23.2145 3.98603 23.5177 4.30256 23.7332 4.73011C23.9519 5.15436 24.0613 5.6946 24.0613 6.35085V11.2031H22.888V6.4304C22.888 5.82386 22.7306 5.35488 22.4157 5.02344C22.1041 4.68868 21.6716 4.52131 21.1181 4.52131C20.7336 4.52131 20.3889 4.60251 20.084 4.76491C19.7824 4.92732 19.5438 5.1643 19.3681 5.47585C19.1958 5.7874 19.1096 6.16525 19.1096 6.60938ZM26.0878 11.2031V3.56676H27.2611V11.2031H26.0878ZM26.6844 2.29403C26.4557 2.29403 26.2585 2.21615 26.0927 2.06037C25.9303 1.90459 25.8491 1.71733 25.8491 1.49858C25.8491 1.27983 25.9303 1.09257 26.0927 0.936789C26.2585 0.781013 26.4557 0.703125 26.6844 0.703125C26.9131 0.703125 27.1086 0.781013 27.271 0.936789C27.4367 1.09257 27.5196 1.27983 27.5196 1.49858C27.5196 1.71733 27.4367 1.90459 27.271 2.06037C27.1086 2.21615 26.9131 2.29403 26.6844 2.29403ZM34.6991 5.27699L33.6451 5.57528C33.5789 5.39962 33.4811 5.22893 33.3518 5.06321C33.2259 4.89418 33.0535 4.75497 32.8348 4.6456C32.616 4.53622 32.336 4.48153 31.9946 4.48153C31.5273 4.48153 31.1378 4.58925 30.8263 4.80469C30.518 5.01681 30.3639 5.28693 30.3639 5.61506C30.3639 5.90672 30.47 6.13707 30.6821 6.30611C30.8942 6.47514 31.2256 6.616 31.6764 6.72869L32.8099 7.0071C33.4927 7.17282 34.0014 7.42637 34.3362 7.76776C34.671 8.10582 34.8383 8.54167 34.8383 9.07528C34.8383 9.51278 34.7124 9.90388 34.4605 10.2486C34.2119 10.5933 33.8639 10.8651 33.4165 11.0639C32.969 11.2628 32.4487 11.3622 31.8554 11.3622C31.0765 11.3622 30.4318 11.1932 29.9214 10.8551C29.411 10.517 29.0879 10.0232 28.952 9.37358L30.0656 9.09517C30.1717 9.50616 30.3722 9.81439 30.6672 10.0199C30.9655 10.2254 31.3549 10.3281 31.8355 10.3281C32.3824 10.3281 32.8166 10.2121 33.138 9.98011C33.4629 9.74479 33.6253 9.46307 33.6253 9.13494C33.6253 8.86979 33.5325 8.64773 33.3469 8.46875C33.1612 8.28646 32.8762 8.15057 32.4917 8.06108L31.219 7.76278C30.5197 7.59706 30.0059 7.3402 29.6778 6.99219C29.353 6.64086 29.1906 6.2017 29.1906 5.67472C29.1906 5.24384 29.3116 4.86269 29.5535 4.53125C29.7988 4.19981 30.1319 3.93963 30.5528 3.75071C30.9771 3.56179 31.4576 3.46733 31.9946 3.46733C32.7503 3.46733 33.3435 3.63305 33.7744 3.96449C34.2086 4.29593 34.5168 4.73343 34.6991 5.27699ZM42.0321 11.2031L39.7054 3.56676H40.9384L42.5889 9.41335H42.6685L44.2991 3.56676H45.552L47.1628 9.39347H47.2423L48.8929 3.56676H50.1259L47.7991 11.2031H46.6457L44.9753 5.33665H44.856L43.1855 11.2031H42.0321ZM54.4989 11.3622C53.7631 11.3622 53.1284 11.1998 52.5948 10.875C52.0645 10.5469 51.6552 10.0895 51.3668 9.50284C51.0818 8.91288 50.9393 8.2268 50.9393 7.4446C50.9393 6.66241 51.0818 5.97301 51.3668 5.37642C51.6552 4.77652 52.0562 4.30919 52.5699 3.97443C53.087 3.63636 53.6902 3.46733 54.3796 3.46733C54.7773 3.46733 55.1701 3.53362 55.5579 3.66619C55.9457 3.79877 56.2986 4.0142 56.6168 4.3125C56.935 4.60748 57.1886 4.99858 57.3775 5.4858C57.5664 5.97301 57.6609 6.57292 57.6609 7.28551V7.78267H51.7745V6.76847H56.4677C56.4677 6.33759 56.3815 5.95312 56.2092 5.61506C56.0401 5.27699 55.7982 5.01018 55.4833 4.81463C55.1717 4.61908 54.8039 4.52131 54.3796 4.52131C53.9123 4.52131 53.5079 4.63731 53.1665 4.86932C52.8285 5.09801 52.5683 5.39631 52.386 5.7642C52.2037 6.1321 52.1126 6.52651 52.1126 6.94744V7.62358C52.1126 8.20028 52.212 8.68916 52.4109 9.0902C52.613 9.48793 52.8931 9.79119 53.2511 10C53.609 10.2055 54.025 10.3082 54.4989 10.3082C54.8072 10.3082 55.0856 10.2652 55.3342 10.179C55.586 10.0895 55.8031 9.95691 55.9854 9.78125C56.1677 9.60227 56.3086 9.38021 56.408 9.11506L57.5415 9.43324C57.4222 9.81771 57.2217 10.1558 56.94 10.4474C56.6583 10.7358 56.3102 10.9612 55.8959 11.1236C55.4816 11.2827 55.016 11.3622 54.4989 11.3622ZM62.5274 11.3622C61.7916 11.3622 61.1569 11.1998 60.6232 10.875C60.0929 10.5469 59.6836 10.0895 59.3953 9.50284C59.1102 8.91288 58.9677 8.2268 58.9677 7.4446C58.9677 6.66241 59.1102 5.97301 59.3953 5.37642C59.6836 4.77652 60.0847 4.30919 60.5984 3.97443C61.1154 3.63636 61.7187 3.46733 62.408 3.46733C62.8058 3.46733 63.1985 3.53362 63.5863 3.66619C63.9741 3.79877 64.3271 4.0142 64.6453 4.3125C64.9634 4.60748 65.217 4.99858 65.4059 5.4858C65.5948 5.97301 65.6893 6.57292 65.6893 7.28551V7.78267H59.8029V6.76847H64.4961C64.4961 6.33759 64.4099 5.95312 64.2376 5.61506C64.0686 5.27699 63.8266 5.01018 63.5117 4.81463C63.2002 4.61908 62.8323 4.52131 62.408 4.52131C61.9407 4.52131 61.5364 4.63731 61.195 4.86932C60.8569 5.09801 60.5967 5.39631 60.4144 5.7642C60.2321 6.1321 60.141 6.52651 60.141 6.94744V7.62358C60.141 8.20028 60.2404 8.68916 60.4393 9.0902C60.6415 9.48793 60.9215 9.79119 61.2795 10C61.6375 10.2055 62.0534 10.3082 62.5274 10.3082C62.8356 10.3082 63.114 10.2652 63.3626 10.179C63.6145 10.0895 63.8316 9.95691 64.0139 9.78125C64.1962 9.60227 64.337 9.38021 64.4365 9.11506L65.57 9.43324C65.4507 9.81771 65.2501 10.1558 64.9684 10.4474C64.6867 10.7358 64.3387 10.9612 63.9244 11.1236C63.5101 11.2827 63.0444 11.3622 62.5274 11.3622ZM68.4478 8.41903L68.428 6.96733H68.6666L72.0075 3.56676H73.4592L69.8996 7.16619H69.8001L68.4478 8.41903ZM67.3541 11.2031V1.02131H68.5274V11.2031H67.3541ZM72.2064 11.2031L69.2234 7.42472L70.0586 6.60938L73.6978 11.2031H72.2064Z" fill="white"/><rect y="26" width="160" height="108" rx="12" fill="#1F1F1F"/><path d="M17.6648 72H16.5568L19.7614 63.2727H20.8523L24.0568 72H22.9489L20.3409 64.6534H20.2727L17.6648 72ZM18.0739 68.5909H22.5398V69.5284H18.0739V68.5909ZM26.2173 69.6136L26.2003 68.3693H26.4048L29.2685 65.4545H30.5128L27.4616 68.5398H27.3764L26.2173 69.6136ZM25.2798 72V63.2727H26.2855V72H25.2798ZM29.4389 72L26.8821 68.7614L27.598 68.0625L30.7173 72H29.4389ZM34.282 72.1364C33.6513 72.1364 33.1072 71.9972 32.6499 71.7188C32.1953 71.4375 31.8445 71.0455 31.5973 70.5426C31.353 70.0369 31.2308 69.4489 31.2308 68.7784C31.2308 68.108 31.353 67.517 31.5973 67.0057C31.8445 66.4915 32.1882 66.0909 32.6286 65.804C33.0717 65.5142 33.5888 65.3693 34.1797 65.3693C34.5206 65.3693 34.8572 65.4261 35.1896 65.5398C35.522 65.6534 35.8246 65.8381 36.0973 66.0938C36.37 66.3466 36.5874 66.6818 36.7493 67.0994C36.9112 67.517 36.9922 68.0312 36.9922 68.642V69.0682H31.9467V68.1989H35.9695C35.9695 67.8295 35.8956 67.5 35.7479 67.2102C35.603 66.9205 35.3956 66.6918 35.1257 66.5241C34.8587 66.3565 34.5433 66.2727 34.1797 66.2727C33.7791 66.2727 33.4325 66.3722 33.1399 66.571C32.8501 66.767 32.6271 67.0227 32.4709 67.3381C32.3146 67.6534 32.2365 67.9915 32.2365 68.3523V68.9318C32.2365 69.4261 32.3217 69.8452 32.4922 70.1889C32.6655 70.5298 32.9055 70.7898 33.2124 70.9688C33.5192 71.1449 33.8757 71.233 34.282 71.233C34.5462 71.233 34.7848 71.196 34.9979 71.1222C35.2138 71.0455 35.3999 70.9318 35.5561 70.7812C35.7124 70.6278 35.8331 70.4375 35.9183 70.2102L36.8899 70.483C36.7876 70.8125 36.6158 71.1023 36.3743 71.3523C36.1328 71.5994 35.8345 71.7926 35.4794 71.9318C35.1243 72.0682 34.7251 72.1364 34.282 72.1364ZM41.2663 72.1364C40.6357 72.1364 40.0916 71.9972 39.6342 71.7188C39.1797 71.4375 38.8288 71.0455 38.5817 70.5426C38.3374 70.0369 38.2152 69.4489 38.2152 68.7784C38.2152 68.108 38.3374 67.517 38.5817 67.0057C38.8288 66.4915 39.1726 66.0909 39.6129 65.804C40.0561 65.5142 40.5732 65.3693 41.1641 65.3693C41.505 65.3693 41.8416 65.4261 42.174 65.5398C42.5064 65.6534 42.8089 65.8381 43.0817 66.0938C43.3544 66.3466 43.5717 66.6818 43.7337 67.0994C43.8956 67.517 43.9766 68.0312 43.9766 68.642V69.0682H38.9311V68.1989H42.9538C42.9538 67.8295 42.88 67.5 42.7322 67.2102C42.5874 66.9205 42.38 66.6918 42.1101 66.5241C41.843 66.3565 41.5277 66.2727 41.1641 66.2727C40.7635 66.2727 40.4169 66.3722 40.1243 66.571C39.8345 66.767 39.6115 67.0227 39.4553 67.3381C39.299 67.6534 39.2209 67.9915 39.2209 68.3523V68.9318C39.2209 69.4261 39.3061 69.8452 39.4766 70.1889C39.6499 70.5298 39.8899 70.7898 40.1967 70.9688C40.5036 71.1449 40.8601 71.233 41.2663 71.233C41.5305 71.233 41.7692 71.196 41.9822 71.1222C42.1982 71.0455 42.3842 70.9318 42.5405 70.7812C42.6967 70.6278 42.8175 70.4375 42.9027 70.2102L43.8743 70.483C43.772 70.8125 43.6001 71.1023 43.3587 71.3523C43.1172 71.5994 42.8189 71.7926 42.4638 71.9318C42.1087 72.0682 41.7095 72.1364 41.2663 72.1364ZM45.5064 72V65.4545H46.478V66.4773H46.5632C46.6996 66.1278 46.9197 65.8565 47.2237 65.6634C47.5277 65.4673 47.8928 65.3693 48.3189 65.3693C48.7507 65.3693 49.1101 65.4673 49.397 65.6634C49.6868 65.8565 49.9126 66.1278 50.0746 66.4773H50.1428C50.3104 66.1392 50.5618 65.8707 50.897 65.6719C51.2322 65.4702 51.6342 65.3693 52.103 65.3693C52.6882 65.3693 53.1669 65.5526 53.5391 65.919C53.9112 66.2827 54.0973 66.8494 54.0973 67.6193V72H53.0916V67.6193C53.0916 67.1364 52.9595 66.7912 52.6953 66.5838C52.4311 66.3764 52.12 66.2727 51.7621 66.2727C51.3018 66.2727 50.9453 66.4119 50.6925 66.6903C50.4396 66.9659 50.3132 67.3153 50.3132 67.7386V72H49.2905V67.517C49.2905 67.1449 49.1697 66.8452 48.9283 66.6179C48.6868 66.3878 48.3757 66.2727 47.995 66.2727C47.7337 66.2727 47.4893 66.3423 47.2621 66.4815C47.0376 66.6207 46.8558 66.8139 46.7166 67.0611C46.5803 67.3054 46.5121 67.5881 46.5121 67.9091V72H45.5064ZM59.669 68.3182C59.669 67.2443 59.8082 66.2571 60.0866 65.3565C60.3679 64.4531 60.7685 63.6222 61.2884 62.8636H62.1747C61.9702 63.1449 61.7784 63.4915 61.5994 63.9034C61.4233 64.3125 61.2685 64.7628 61.1349 65.2543C61.0014 65.7429 60.8963 66.2486 60.8196 66.7713C60.7457 67.294 60.7088 67.8097 60.7088 68.3182C60.7088 68.9943 60.7741 69.6804 60.9048 70.3764C61.0355 71.0724 61.2116 71.7187 61.4332 72.3153C61.6548 72.9119 61.902 73.3977 62.1747 73.7727H61.2884C60.7685 73.0142 60.3679 72.1847 60.0866 71.2841C59.8082 70.3807 59.669 69.392 59.669 68.3182ZM65.9897 72.1364C65.4442 72.1364 64.9627 71.9986 64.5451 71.723C64.1275 71.4446 63.8008 71.0526 63.565 70.5469C63.3292 70.0384 63.2113 69.4375 63.2113 68.7443C63.2113 68.0568 63.3292 67.4602 63.565 66.9545C63.8008 66.4489 64.1289 66.0582 64.5494 65.7827C64.9698 65.5071 65.4556 65.3693 66.0067 65.3693C66.4329 65.3693 66.7695 65.4403 67.0167 65.5824C67.2667 65.7216 67.457 65.8807 67.5877 66.0597C67.7212 66.2358 67.8249 66.3807 67.8988 66.4943H67.984V63.2727H68.9897V72H68.0181V70.9943H67.8988C67.8249 71.1136 67.7198 71.2642 67.5835 71.446C67.4471 71.625 67.2525 71.7855 66.9996 71.9276C66.7468 72.0668 66.4102 72.1364 65.9897 72.1364ZM66.1261 71.233C66.5295 71.233 66.8704 71.1278 67.1488 70.9176C67.4272 70.7045 67.6388 70.4105 67.7837 70.0355C67.9286 69.6577 68.0011 69.2216 68.0011 68.7273C68.0011 68.2386 67.93 67.8111 67.788 67.4446C67.646 67.0753 67.4357 66.7884 67.1573 66.5838C66.8789 66.3764 66.5352 66.2727 66.1261 66.2727C65.6999 66.2727 65.3448 66.3821 65.0607 66.6009C64.7795 66.8168 64.5678 67.1108 64.4258 67.483C64.2866 67.8523 64.217 68.267 64.217 68.7273C64.217 69.1932 64.288 69.6165 64.43 69.9972C64.5749 70.375 64.788 70.6761 65.0692 70.9006C65.3533 71.1222 65.7056 71.233 66.1261 71.233ZM70.9712 72V65.4545H71.9769V72H70.9712ZM71.4826 64.3636C71.2866 64.3636 71.1175 64.2969 70.9755 64.1634C70.8363 64.0298 70.7667 63.8693 70.7667 63.6818C70.7667 63.4943 70.8363 63.3338 70.9755 63.2003C71.1175 63.0668 71.2866 63 71.4826 63C71.6786 63 71.8462 63.0668 71.9854 63.2003C72.1275 63.3338 72.1985 63.4943 72.1985 63.6818C72.1985 63.8693 72.1275 64.0298 71.9854 64.1634C71.8462 64.2969 71.6786 64.3636 71.4826 64.3636ZM78.4553 66.9205L77.5518 67.1761C77.495 67.0256 77.4112 66.8793 77.3004 66.7372C77.1925 66.5923 77.0447 66.473 76.8572 66.3793C76.6697 66.2855 76.4297 66.2386 76.1371 66.2386C75.7365 66.2386 75.4027 66.331 75.1357 66.5156C74.8714 66.6974 74.7393 66.929 74.7393 67.2102C74.7393 67.4602 74.8303 67.6577 75.0121 67.8026C75.1939 67.9474 75.478 68.0682 75.8643 68.1648L76.8359 68.4034C77.4212 68.5455 77.8572 68.7628 78.1442 69.0554C78.4311 69.3452 78.5746 69.7187 78.5746 70.1761C78.5746 70.5511 78.4666 70.8864 78.2507 71.1818C78.0376 71.4773 77.7393 71.7102 77.3558 71.8807C76.9723 72.0511 76.5263 72.1364 76.0178 72.1364C75.3501 72.1364 74.7976 71.9915 74.3601 71.7017C73.9226 71.4119 73.6456 70.9886 73.5291 70.4318L74.4837 70.1932C74.5746 70.5455 74.7464 70.8097 74.9993 70.9858C75.255 71.1619 75.5888 71.25 76.0007 71.25C76.4695 71.25 76.8416 71.1506 77.1172 70.9517C77.3956 70.75 77.5348 70.5085 77.5348 70.2273C77.5348 70 77.4553 69.8097 77.2962 69.6562C77.1371 69.5 76.8928 69.3835 76.5632 69.3068L75.4723 69.0511C74.8729 68.9091 74.4325 68.6889 74.1513 68.3906C73.8729 68.0895 73.7337 67.7131 73.7337 67.2614C73.7337 66.892 73.8374 66.5653 74.0447 66.2812C74.255 65.9972 74.5405 65.7741 74.9013 65.6122C75.2649 65.4503 75.6768 65.3693 76.1371 65.3693C76.7848 65.3693 77.2933 65.5114 77.6626 65.7955C78.0348 66.0795 78.299 66.4545 78.4553 66.9205ZM82.7475 72.1364C82.1339 72.1364 81.6055 71.9915 81.1623 71.7017C80.7191 71.4119 80.3782 71.0128 80.1396 70.5043C79.9009 69.9957 79.7816 69.4148 79.7816 68.7614C79.7816 68.0966 79.9038 67.5099 80.1481 67.0014C80.3952 66.4901 80.739 66.0909 81.1793 65.804C81.6225 65.5142 82.1396 65.3693 82.7305 65.3693C83.1907 65.3693 83.6055 65.4545 83.9748 65.625C84.3441 65.7955 84.6467 66.0341 84.8825 66.3409C85.1183 66.6477 85.2646 67.0057 85.3214 67.4148H84.3157C84.239 67.1165 84.0685 66.8523 83.8043 66.6222C83.543 66.3892 83.1907 66.2727 82.7475 66.2727C82.3555 66.2727 82.0117 66.375 81.7163 66.5795C81.4237 66.7812 81.195 67.0668 81.0302 67.4361C80.8683 67.8026 80.7873 68.233 80.7873 68.7273C80.7873 69.233 80.8668 69.6733 81.0259 70.0483C81.1879 70.4233 81.4151 70.7145 81.7077 70.9219C82.0032 71.1293 82.3498 71.233 82.7475 71.233C83.0089 71.233 83.2461 71.1875 83.4592 71.0966C83.6722 71.0057 83.8526 70.875 84.0004 70.7045C84.1481 70.5341 84.2532 70.3295 84.3157 70.0909H85.3214C85.2646 70.4773 85.1239 70.8253 84.8995 71.1349C84.6779 71.4418 84.3839 71.6861 84.0174 71.8679C83.6538 72.0469 83.2305 72.1364 82.7475 72.1364ZM90.9165 69.3239V65.4545H91.9222V72H90.9165V70.892H90.8484C90.695 71.2244 90.4563 71.5071 90.1325 71.7401C89.8086 71.9702 89.3995 72.0852 88.9052 72.0852C88.4961 72.0852 88.1325 71.9957 87.8143 71.8168C87.4961 71.6349 87.2461 71.3622 87.0643 70.9986C86.8825 70.6321 86.7915 70.1705 86.7915 69.6136V65.4545H87.7972V69.5455C87.7972 70.0227 87.9308 70.4034 88.1978 70.6875C88.4677 70.9716 88.8114 71.1136 89.229 71.1136C89.479 71.1136 89.7333 71.0497 89.9918 70.9219C90.2532 70.794 90.4719 70.598 90.6481 70.3338C90.8271 70.0696 90.9165 69.733 90.9165 69.3239ZM98.4006 66.9205L97.4972 67.1761C97.4403 67.0256 97.3565 66.8793 97.2457 66.7372C97.1378 66.5923 96.9901 66.473 96.8026 66.3793C96.6151 66.2855 96.375 66.2386 96.0824 66.2386C95.6818 66.2386 95.348 66.331 95.081 66.5156C94.8168 66.6974 94.6847 66.929 94.6847 67.2102C94.6847 67.4602 94.7756 67.6577 94.9574 67.8026C95.1392 67.9474 95.4233 68.0682 95.8097 68.1648L96.7812 68.4034C97.3665 68.5455 97.8026 68.7628 98.0895 69.0554C98.3764 69.3452 98.5199 69.7187 98.5199 70.1761C98.5199 70.5511 98.4119 70.8864 98.196 71.1818C97.983 71.4773 97.6847 71.7102 97.3011 71.8807C96.9176 72.0511 96.4716 72.1364 95.9631 72.1364C95.2955 72.1364 94.7429 71.9915 94.3054 71.7017C93.8679 71.4119 93.5909 70.9886 93.4744 70.4318L94.429 70.1932C94.5199 70.5455 94.6918 70.8097 94.9446 70.9858C95.2003 71.1619 95.5341 71.25 95.946 71.25C96.4148 71.25 96.7869 71.1506 97.0625 70.9517C97.3409 70.75 97.4801 70.5085 97.4801 70.2273C97.4801 70 97.4006 69.8097 97.2415 69.6562C97.0824 69.5 96.8381 69.3835 96.5085 69.3068L95.4176 69.0511C94.8182 68.9091 94.3778 68.6889 94.0966 68.3906C93.8182 68.0895 93.679 67.7131 93.679 67.2614C93.679 66.892 93.7827 66.5653 93.9901 66.2812C94.2003 65.9972 94.4858 65.7741 94.8466 65.6122C95.2102 65.4503 95.6222 65.3693 96.0824 65.3693C96.7301 65.3693 97.2386 65.5114 97.608 65.7955C97.9801 66.0795 98.2443 66.4545 98.4006 66.9205ZM104.67 66.9205L103.767 67.1761C103.71 67.0256 103.626 66.8793 103.515 66.7372C103.407 66.5923 103.26 66.473 103.072 66.3793C102.885 66.2855 102.645 66.2386 102.352 66.2386C101.951 66.2386 101.618 66.331 101.35 66.5156C101.086 66.6974 100.954 66.929 100.954 67.2102C100.954 67.4602 101.045 67.6577 101.227 67.8026C101.409 67.9474 101.693 68.0682 102.079 68.1648L103.051 68.4034C103.636 68.5455 104.072 68.7628 104.359 69.0554C104.646 69.3452 104.789 69.7187 104.789 70.1761C104.789 70.5511 104.681 70.8864 104.466 71.1818C104.252 71.4773 103.954 71.7102 103.571 71.8807C103.187 72.0511 102.741 72.1364 102.233 72.1364C101.565 72.1364 101.012 71.9915 100.575 71.7017C100.137 71.4119 99.8604 70.9886 99.744 70.4318L100.699 70.1932C100.789 70.5455 100.961 70.8097 101.214 70.9858C101.47 71.1619 101.804 71.25 102.216 71.25C102.684 71.25 103.056 71.1506 103.332 70.9517C103.61 70.75 103.75 70.5085 103.75 70.2273C103.75 70 103.67 69.8097 103.511 69.6562C103.352 69.5 103.108 69.3835 102.778 69.3068L101.687 69.0511C101.088 68.9091 100.647 68.6889 100.366 68.3906C100.088 68.0895 99.9485 67.7131 99.9485 67.2614C99.9485 66.892 100.052 66.5653 100.26 66.2812C100.47 65.9972 100.755 65.7741 101.116 65.6122C101.48 65.4503 101.892 65.3693 102.352 65.3693C103 65.3693 103.508 65.5114 103.877 65.7955C104.25 66.0795 104.514 66.4545 104.67 66.9205ZM106.303 72V65.4545H107.309V72H106.303ZM106.815 64.3636C106.619 64.3636 106.45 64.2969 106.308 64.1634C106.168 64.0298 106.099 63.8693 106.099 63.6818C106.099 63.4943 106.168 63.3338 106.308 63.2003C106.45 63.0668 106.619 63 106.815 63C107.011 63 107.178 63.0668 107.317 63.2003C107.46 63.3338 107.531 63.4943 107.531 63.6818C107.531 63.8693 107.46 64.0298 107.317 64.1634C107.178 64.2969 107.011 64.3636 106.815 64.3636ZM110.157 68.0625V72H109.151V65.4545H110.123V66.4773H110.208C110.361 66.1449 110.594 65.8778 110.907 65.6761C111.219 65.4716 111.623 65.3693 112.117 65.3693C112.56 65.3693 112.948 65.4602 113.28 65.642C113.613 65.821 113.871 66.0938 114.056 66.4602C114.24 66.8239 114.333 67.2841 114.333 67.8409V72H113.327V67.9091C113.327 67.3949 113.194 66.9943 112.926 66.7074C112.659 66.4176 112.293 66.2727 111.827 66.2727C111.506 66.2727 111.219 66.3423 110.966 66.4815C110.716 66.6207 110.519 66.8239 110.374 67.0909C110.229 67.358 110.157 67.6818 110.157 68.0625ZM118.812 74.5909C118.327 74.5909 117.909 74.5284 117.56 74.4034C117.21 74.2812 116.919 74.1193 116.686 73.9176C116.456 73.7188 116.273 73.5057 116.136 73.2784L116.938 72.7159C117.028 72.8352 117.143 72.9716 117.283 73.125C117.422 73.2812 117.612 73.4162 117.854 73.5298C118.098 73.6463 118.418 73.7045 118.812 73.7045C119.341 73.7045 119.777 73.5767 120.121 73.321C120.464 73.0653 120.636 72.6648 120.636 72.1193V70.7898H120.551C120.477 70.9091 120.372 71.0568 120.236 71.233C120.102 71.4062 119.909 71.5611 119.656 71.6974C119.406 71.831 119.068 71.8977 118.642 71.8977C118.114 71.8977 117.639 71.7727 117.219 71.5227C116.801 71.2727 116.47 70.9091 116.226 70.4318C115.984 69.9545 115.864 69.375 115.864 68.6932C115.864 68.0227 115.982 67.4389 116.217 66.9418C116.453 66.4418 116.781 66.0554 117.202 65.7827C117.622 65.5071 118.108 65.3693 118.659 65.3693C119.085 65.3693 119.423 65.4403 119.673 65.5824C119.926 65.7216 120.119 65.8807 120.253 66.0597C120.389 66.2358 120.494 66.3807 120.568 66.4943H120.67V65.4545H121.642V72.1875C121.642 72.75 121.514 73.2074 121.259 73.5597C121.006 73.9148 120.665 74.1747 120.236 74.3395C119.81 74.5071 119.335 74.5909 118.812 74.5909ZM118.778 70.9943C119.182 70.9943 119.523 70.902 119.801 70.7173C120.08 70.5327 120.291 70.267 120.436 69.9205C120.581 69.5739 120.653 69.1591 120.653 68.6761C120.653 68.2045 120.582 67.7884 120.44 67.4276C120.298 67.0668 120.088 66.7841 119.81 66.5795C119.531 66.375 119.188 66.2727 118.778 66.2727C118.352 66.2727 117.997 66.3807 117.713 66.5966C117.432 66.8125 117.22 67.1023 117.078 67.4659C116.939 67.8295 116.869 68.233 116.869 68.6761C116.869 69.1307 116.94 69.5327 117.082 69.8821C117.227 70.2287 117.44 70.5014 117.722 70.7003C118.006 70.8963 118.358 70.9943 118.778 70.9943ZM126.994 63.2727H128.256L131.222 70.517H131.324L134.29 63.2727H135.551V72H134.562V65.3693H134.477L131.75 72H130.795L128.068 65.3693H127.983V72H126.994V63.2727ZM137.67 72V63.2727H138.727V71.0625H142.784V72H137.67ZM17.1705 90V83.4545H18.142V84.4773H18.2273C18.3636 84.1278 18.5838 83.8565 18.8878 83.6634C19.1918 83.4673 19.5568 83.3693 19.983 83.3693C20.4148 83.3693 20.7741 83.4673 21.0611 83.6634C21.3509 83.8565 21.5767 84.1278 21.7386 84.4773H21.8068C21.9744 84.1392 22.2259 83.8707 22.5611 83.6719C22.8963 83.4702 23.2983 83.3693 23.767 83.3693C24.3523 83.3693 24.831 83.5526 25.2031 83.919C25.5753 84.2827 25.7614 84.8494 25.7614 85.6193V90H24.7557V85.6193C24.7557 85.1364 24.6236 84.7912 24.3594 84.5838C24.0952 84.3764 23.7841 84.2727 23.4261 84.2727C22.9659 84.2727 22.6094 84.4119 22.3565 84.6903C22.1037 84.9659 21.9773 85.3153 21.9773 85.7386V90H20.9545V85.517C20.9545 85.1449 20.8338 84.8452 20.5923 84.6179C20.3509 84.3878 20.0398 84.2727 19.6591 84.2727C19.3977 84.2727 19.1534 84.3423 18.9261 84.4815C18.7017 84.6207 18.5199 84.8139 18.3807 85.0611C18.2443 85.3054 18.1761 85.5881 18.1761 85.9091V90H17.1705ZM30.2592 90.1364C29.6683 90.1364 29.1499 89.9957 28.7038 89.7145C28.2607 89.4332 27.9141 89.0398 27.6641 88.5341C27.4169 88.0284 27.2933 87.4375 27.2933 86.7614C27.2933 86.0795 27.4169 85.4844 27.6641 84.9759C27.9141 84.4673 28.2607 84.0724 28.7038 83.7912C29.1499 83.5099 29.6683 83.3693 30.2592 83.3693C30.8501 83.3693 31.3672 83.5099 31.8104 83.7912C32.2564 84.0724 32.603 84.4673 32.8501 84.9759C33.1001 85.4844 33.2251 86.0795 33.2251 86.7614C33.2251 87.4375 33.1001 88.0284 32.8501 88.5341C32.603 89.0398 32.2564 89.4332 31.8104 89.7145C31.3672 89.9957 30.8501 90.1364 30.2592 90.1364ZM30.2592 89.233C30.7081 89.233 31.0774 89.1179 31.3672 88.8878C31.657 88.6577 31.8714 88.3551 32.0107 87.9801C32.1499 87.6051 32.2195 87.1989 32.2195 86.7614C32.2195 86.3239 32.1499 85.9162 32.0107 85.5384C31.8714 85.1605 31.657 84.8551 31.3672 84.6222C31.0774 84.3892 30.7081 84.2727 30.2592 84.2727C29.8104 84.2727 29.4411 84.3892 29.1513 84.6222C28.8615 84.8551 28.647 85.1605 28.5078 85.5384C28.3686 85.9162 28.299 86.3239 28.299 86.7614C28.299 87.1989 28.3686 87.6051 28.5078 87.9801C28.647 88.3551 28.8615 88.6577 29.1513 88.8878C29.4411 89.1179 29.8104 89.233 30.2592 89.233ZM37.2319 90.1364C36.6864 90.1364 36.2049 89.9986 35.7873 89.723C35.3697 89.4446 35.043 89.0526 34.8072 88.5469C34.5714 88.0384 34.4535 87.4375 34.4535 86.7443C34.4535 86.0568 34.5714 85.4602 34.8072 84.9545C35.043 84.4489 35.3711 84.0582 35.7915 83.7827C36.212 83.5071 36.6978 83.3693 37.2489 83.3693C37.6751 83.3693 38.0117 83.4403 38.2589 83.5824C38.5089 83.7216 38.6992 83.8807 38.8299 84.0597C38.9634 84.2358 39.0671 84.3807 39.141 84.4943H39.2262V81.2727H40.2319V90H39.2603V88.9943H39.141C39.0671 89.1136 38.962 89.2642 38.8256 89.446C38.6893 89.625 38.4947 89.7855 38.2418 89.9276C37.989 90.0668 37.6523 90.1364 37.2319 90.1364ZM37.3683 89.233C37.7717 89.233 38.1126 89.1278 38.391 88.9176C38.6694 88.7045 38.881 88.4105 39.0259 88.0355C39.1708 87.6577 39.2433 87.2216 39.2433 86.7273C39.2433 86.2386 39.1722 85.8111 39.0302 85.4446C38.8881 85.0753 38.6779 84.7884 38.3995 84.5838C38.1211 84.3764 37.7773 84.2727 37.3683 84.2727C36.9421 84.2727 36.587 84.3821 36.3029 84.6009C36.0217 84.8168 35.81 85.1108 35.668 85.483C35.5288 85.8523 35.4592 86.267 35.4592 86.7273C35.4592 87.1932 35.5302 87.6165 35.6722 87.9972C35.8171 88.375 36.0302 88.6761 36.3114 88.9006C36.5955 89.1222 36.9478 89.233 37.3683 89.233ZM46.3384 87.3239V83.4545H47.3441V90H46.3384V88.892H46.2702C46.1168 89.2244 45.8782 89.5071 45.5543 89.7401C45.2305 89.9702 44.8214 90.0852 44.3271 90.0852C43.918 90.0852 43.5543 89.9957 43.2362 89.8168C42.918 89.6349 42.668 89.3622 42.4862 88.9986C42.3043 88.6321 42.2134 88.1705 42.2134 87.6136V83.4545H43.2191V87.5455C43.2191 88.0227 43.3526 88.4034 43.6197 88.6875C43.8896 88.9716 44.2333 89.1136 44.6509 89.1136C44.9009 89.1136 45.1552 89.0497 45.4137 88.9219C45.6751 88.794 45.8938 88.598 46.07 88.3338C46.2489 88.0696 46.3384 87.733 46.3384 87.3239ZM50.1918 81.2727V90H49.1861V81.2727H50.1918ZM54.7781 90.1364C54.1474 90.1364 53.6033 89.9972 53.146 89.7188C52.6914 89.4375 52.3406 89.0455 52.0934 88.5426C51.8491 88.0369 51.7269 87.4489 51.7269 86.7784C51.7269 86.108 51.8491 85.517 52.0934 85.0057C52.3406 84.4915 52.6843 84.0909 53.1246 83.804C53.5678 83.5142 54.0849 83.3693 54.6758 83.3693C55.0167 83.3693 55.3533 83.4261 55.6857 83.5398C56.0181 83.6534 56.3207 83.8381 56.5934 84.0938C56.8661 84.3466 57.0835 84.6818 57.2454 85.0994C57.4073 85.517 57.4883 86.0312 57.4883 86.642V87.0682H52.4428V86.1989H56.4656C56.4656 85.8295 56.3917 85.5 56.244 85.2102C56.0991 84.9205 55.8917 84.6918 55.6218 84.5241C55.3548 84.3565 55.0394 84.2727 54.6758 84.2727C54.2752 84.2727 53.9286 84.3722 53.636 84.571C53.3462 84.767 53.1232 85.0227 52.967 85.3381C52.8107 85.6534 52.7326 85.9915 52.7326 86.3523V86.9318C52.7326 87.4261 52.8178 87.8452 52.9883 88.1889C53.1616 88.5298 53.4016 88.7898 53.7085 88.9688C54.0153 89.1449 54.3718 89.233 54.7781 89.233C55.0423 89.233 55.2809 89.196 55.494 89.1222C55.7099 89.0455 55.896 88.9318 56.0522 88.7812C56.2085 88.6278 56.3292 88.4375 56.4144 88.2102L57.386 88.483C57.2837 88.8125 57.1119 89.1023 56.8704 89.3523C56.6289 89.5994 56.3306 89.7926 55.9755 89.9318C55.6204 90.0682 55.2212 90.1364 54.7781 90.1364ZM63.6545 84.9205L62.7511 85.1761C62.6942 85.0256 62.6104 84.8793 62.4996 84.7372C62.3917 84.5923 62.244 84.473 62.0565 84.3793C61.869 84.2855 61.6289 84.2386 61.3363 84.2386C60.9357 84.2386 60.6019 84.331 60.3349 84.5156C60.0707 84.6974 59.9386 84.929 59.9386 85.2102C59.9386 85.4602 60.0295 85.6577 60.2113 85.8026C60.3931 85.9474 60.6772 86.0682 61.0636 86.1648L62.0352 86.4034C62.6204 86.5455 63.0565 86.7628 63.3434 87.0554C63.6303 87.3452 63.7738 87.7187 63.7738 88.1761C63.7738 88.5511 63.6658 88.8864 63.4499 89.1818C63.2369 89.4773 62.9386 89.7102 62.555 89.8807C62.1715 90.0511 61.7255 90.1364 61.217 90.1364C60.5494 90.1364 59.9968 89.9915 59.5593 89.7017C59.1218 89.4119 58.8448 88.9886 58.7283 88.4318L59.6829 88.1932C59.7738 88.5455 59.9457 88.8097 60.1985 88.9858C60.4542 89.1619 60.788 89.25 61.1999 89.25C61.6687 89.25 62.0408 89.1506 62.3164 88.9517C62.5948 88.75 62.734 88.5085 62.734 88.2273C62.734 88 62.6545 87.8097 62.4954 87.6562C62.3363 87.5 62.092 87.3835 61.7624 87.3068L60.6715 87.0511C60.0721 86.9091 59.6317 86.6889 59.3505 86.3906C59.0721 86.0895 58.9329 85.7131 58.9329 85.2614C58.9329 84.892 59.0366 84.5653 59.244 84.2812C59.4542 83.9972 59.7397 83.7741 60.1005 83.6122C60.4641 83.4503 60.8761 83.3693 61.3363 83.3693C61.984 83.3693 62.4925 83.5114 62.8619 83.7955C63.234 84.0795 63.4982 84.4545 63.6545 84.9205ZM67.4354 86.3182C67.4354 87.392 67.2947 88.3807 67.0135 89.2841C66.7351 90.1847 66.3359 91.0142 65.8161 91.7727H64.9297C65.1342 91.4915 65.3246 91.1449 65.5007 90.733C65.6797 90.3239 65.8359 89.875 65.9695 89.3864C66.103 88.8949 66.2067 88.3878 66.2805 87.8651C66.3572 87.3395 66.3956 86.8239 66.3956 86.3182C66.3956 85.642 66.3303 84.956 66.1996 84.2599C66.0689 83.5639 65.8928 82.9176 65.6712 82.321C65.4496 81.7244 65.2024 81.2386 64.9297 80.8636H65.8161C66.3359 81.6222 66.7351 82.4531 67.0135 83.3565C67.2947 84.2571 67.4354 85.2443 67.4354 86.3182Z" fill="white"/><path d="M38.642 54L36.2557 45.2727H37.3295L39.1534 52.3807H39.2386L41.0966 45.2727H42.2898L44.1477 52.3807H44.233L46.0568 45.2727H47.1307L44.7443 54H43.6534L41.7273 47.0455H41.6591L39.733 54H38.642ZM49.6278 54.1534C49.2131 54.1534 48.8366 54.0753 48.4986 53.919C48.1605 53.7599 47.892 53.5312 47.6932 53.233C47.4943 52.9318 47.3949 52.5682 47.3949 52.142C47.3949 51.767 47.4688 51.4631 47.6165 51.2301C47.7642 50.9943 47.9616 50.8097 48.2088 50.6761C48.456 50.5426 48.7287 50.4432 49.027 50.3778C49.3281 50.3097 49.6307 50.2557 49.9347 50.2159C50.3324 50.1648 50.6548 50.1264 50.902 50.1009C51.152 50.0724 51.3338 50.0256 51.4474 49.9602C51.5639 49.8949 51.6222 49.7812 51.6222 49.6193V49.5852C51.6222 49.1648 51.5071 48.8381 51.277 48.6051C51.0497 48.3722 50.7045 48.2557 50.2415 48.2557C49.7614 48.2557 49.3849 48.3608 49.1122 48.571C48.8395 48.7812 48.6477 49.0057 48.5369 49.2443L47.5824 48.9034C47.7528 48.5057 47.9801 48.196 48.2642 47.9744C48.5511 47.75 48.8636 47.5937 49.2017 47.5057C49.5426 47.4148 49.8778 47.3693 50.2074 47.3693C50.4176 47.3693 50.6591 47.3949 50.9318 47.446C51.2074 47.4943 51.473 47.5952 51.7287 47.7486C51.9872 47.902 52.2017 48.1335 52.3722 48.4432C52.5426 48.7528 52.6278 49.1676 52.6278 49.6875V54H51.6222V53.1136H51.571C51.5028 53.2557 51.3892 53.4077 51.2301 53.5696C51.071 53.7315 50.8594 53.8693 50.5952 53.983C50.331 54.0966 50.0085 54.1534 49.6278 54.1534ZM49.7812 53.25C50.179 53.25 50.5142 53.1719 50.7869 53.0156C51.0625 52.8594 51.2699 52.6577 51.4091 52.4105C51.5511 52.1634 51.6222 51.9034 51.6222 51.6307V50.7102C51.5795 50.7614 51.4858 50.8082 51.3409 50.8509C51.1989 50.8906 51.0341 50.9261 50.8466 50.9574C50.6619 50.9858 50.4815 51.0114 50.3054 51.0341C50.1321 51.054 49.9915 51.071 49.8835 51.0852C49.6222 51.1193 49.3778 51.1747 49.1506 51.2514C48.9261 51.3253 48.7443 51.4375 48.6051 51.5881C48.4688 51.7358 48.4006 51.9375 48.4006 52.1932C48.4006 52.5426 48.5298 52.8068 48.7884 52.9858C49.0497 53.1619 49.3807 53.25 49.7812 53.25ZM55.4691 45.2727V54H54.4634V45.2727H55.4691ZM58.2486 51.6136L58.2315 50.3693H58.4361L61.2997 47.4545H62.544L59.4929 50.5398H59.4077L58.2486 51.6136ZM57.3111 54V45.2727H58.3168V54H57.3111ZM61.4702 54L58.9134 50.7614L59.6293 50.0625L62.7486 54H61.4702ZM63.8384 54V47.4545H64.8441V54H63.8384ZM64.3498 46.3636C64.1538 46.3636 63.9847 46.2969 63.8427 46.1634C63.7035 46.0298 63.6339 45.8693 63.6339 45.6818C63.6339 45.4943 63.7035 45.3338 63.8427 45.2003C63.9847 45.0668 64.1538 45 64.3498 45C64.5458 45 64.7134 45.0668 64.8526 45.2003C64.9947 45.3338 65.0657 45.4943 65.0657 45.6818C65.0657 45.8693 64.9947 46.0298 64.8526 46.1634C64.7134 46.2969 64.5458 46.3636 64.3498 46.3636ZM67.6918 50.0625V54H66.6861V47.4545H67.6577V48.4773H67.7429C67.8963 48.1449 68.1293 47.8778 68.4418 47.6761C68.7543 47.4716 69.1577 47.3693 69.652 47.3693C70.0952 47.3693 70.483 47.4602 70.8153 47.642C71.1477 47.821 71.4063 48.0938 71.5909 48.4602C71.7756 48.8239 71.8679 49.2841 71.8679 49.8409V54H70.8622V49.9091C70.8622 49.3949 70.7287 48.9943 70.4616 48.7074C70.1946 48.4176 69.8281 48.2727 69.3622 48.2727C69.0412 48.2727 68.7543 48.3423 68.5014 48.4815C68.2514 48.6207 68.054 48.8239 67.9091 49.0909C67.7642 49.358 67.6918 49.6818 67.6918 50.0625ZM76.3477 56.5909C75.8619 56.5909 75.4442 56.5284 75.0948 56.4034C74.7454 56.2812 74.4542 56.1193 74.2212 55.9176C73.9911 55.7188 73.8079 55.5057 73.6715 55.2784L74.4727 54.7159C74.5636 54.8352 74.6786 54.9716 74.8178 55.125C74.957 55.2812 75.1474 55.4162 75.3888 55.5298C75.6332 55.6463 75.9528 55.7045 76.3477 55.7045C76.8761 55.7045 77.3121 55.5767 77.6559 55.321C77.9996 55.0653 78.1715 54.6648 78.1715 54.1193V52.7898H78.0863C78.0124 52.9091 77.9073 53.0568 77.771 53.233C77.6374 53.4062 77.4442 53.5611 77.1914 53.6974C76.9414 53.831 76.6033 53.8977 76.1772 53.8977C75.6488 53.8977 75.1744 53.7727 74.7539 53.5227C74.3363 53.2727 74.0053 52.9091 73.761 52.4318C73.5195 51.9545 73.3988 51.375 73.3988 50.6932C73.3988 50.0227 73.5167 49.4389 73.7525 48.9418C73.9883 48.4418 74.3164 48.0554 74.7369 47.7827C75.1573 47.5071 75.6431 47.3693 76.1942 47.3693C76.6204 47.3693 76.9585 47.4403 77.2085 47.5824C77.4613 47.7216 77.6545 47.8807 77.788 48.0597C77.9244 48.2358 78.0295 48.3807 78.1033 48.4943H78.2056V47.4545H79.1772V54.1875C79.1772 54.75 79.0494 55.2074 78.7937 55.5597C78.5408 55.9148 78.1999 56.1747 77.771 56.3395C77.3448 56.5071 76.8704 56.5909 76.3477 56.5909ZM76.3136 52.9943C76.717 52.9943 77.0579 52.902 77.3363 52.7173C77.6147 52.5327 77.8263 52.267 77.9712 51.9205C78.1161 51.5739 78.1886 51.1591 78.1886 50.6761C78.1886 50.2045 78.1175 49.7884 77.9755 49.4276C77.8335 49.0668 77.6232 48.7841 77.3448 48.5795C77.0664 48.375 76.7227 48.2727 76.3136 48.2727C75.8874 48.2727 75.5323 48.3807 75.2482 48.5966C74.967 48.8125 74.7553 49.1023 74.6133 49.4659C74.4741 49.8295 74.4045 50.233 74.4045 50.6761C74.4045 51.1307 74.4755 51.5327 74.6175 51.8821C74.7624 52.2287 74.9755 52.5014 75.2567 52.7003C75.5408 52.8963 75.8931 52.9943 76.3136 52.9943ZM85.8761 54L83.8817 47.4545H84.9386L86.3533 52.4659H86.4215L87.8192 47.4545H88.8931L90.2738 52.4489H90.342L91.7567 47.4545H92.8136L90.8192 54H89.8306L88.3988 48.9716H88.2965L86.8647 54H85.8761ZM94.1431 54V47.4545H95.1488V54H94.1431ZM94.6545 46.3636C94.4585 46.3636 94.2894 46.2969 94.1474 46.1634C94.0082 46.0298 93.9386 45.8693 93.9386 45.6818C93.9386 45.4943 94.0082 45.3338 94.1474 45.2003C94.2894 45.0668 94.4585 45 94.6545 45C94.8505 45 95.0181 45.0668 95.1573 45.2003C95.2994 45.3338 95.3704 45.4943 95.3704 45.6818C95.3704 45.8693 95.2994 46.0298 95.1573 46.1634C95.0181 46.2969 94.8505 46.3636 94.6545 46.3636ZM99.8374 47.4545V48.3068H96.4453V47.4545H99.8374ZM97.4339 45.8864H98.4396V52.125C98.4396 52.4091 98.4808 52.6222 98.5632 52.7642C98.6484 52.9034 98.7564 52.9972 98.8871 53.0455C99.0206 53.0909 99.1612 53.1136 99.3089 53.1136C99.4197 53.1136 99.5107 53.108 99.5817 53.0966C99.6527 53.0824 99.7095 53.071 99.7521 53.0625L99.9567 53.9659C99.8885 53.9915 99.7933 54.017 99.6712 54.0426C99.549 54.071 99.3942 54.0852 99.2067 54.0852C98.9226 54.0852 98.6442 54.0241 98.3714 53.902C98.1016 53.7798 97.8771 53.5938 97.6982 53.3438C97.522 53.0938 97.4339 52.7784 97.4339 52.3977V45.8864ZM102.496 50.0625V54H101.491V45.2727H102.496V48.4773H102.582C102.735 48.1392 102.965 47.8707 103.272 47.6719C103.582 47.4702 103.994 47.3693 104.508 47.3693C104.954 47.3693 105.344 47.4588 105.68 47.6378C106.015 47.8139 106.275 48.0852 106.46 48.4517C106.647 48.8153 106.741 49.2784 106.741 49.8409V54H105.735V49.9091C105.735 49.3892 105.6 48.9872 105.33 48.7031C105.063 48.4162 104.692 48.2727 104.218 48.2727C103.888 48.2727 103.593 48.3423 103.332 48.4815C103.073 48.6207 102.869 48.8239 102.718 49.0909C102.57 49.358 102.496 49.6818 102.496 50.0625Z" fill="white"/><rect x="16.25" y="102" width="40" height="16" rx="3" fill="#483308"/><path d="M20.2188 114V106H25.0156V106.859H21.1875V109.562H24.6563V110.422H21.1875V114H20.2188ZM26.6854 114V108H27.576V108.906H27.6385C27.7479 108.609 27.9458 108.368 28.2322 108.184C28.5187 107.999 28.8416 107.906 29.201 107.906C29.2687 107.906 29.3533 107.908 29.4549 107.91C29.5564 107.913 29.6333 107.917 29.6854 107.922V108.859C29.6541 108.852 29.5825 108.84 29.4705 108.824C29.3611 108.806 29.2452 108.797 29.1229 108.797C28.8312 108.797 28.5708 108.858 28.3416 108.98C28.115 109.1 27.9354 109.267 27.8025 109.48C27.6723 109.691 27.6072 109.932 27.6072 110.203V114H26.6854ZM30.9781 114V108H31.9V114H30.9781ZM31.4469 107C31.2672 107 31.1122 106.939 30.982 106.816C30.8544 106.694 30.7906 106.547 30.7906 106.375C30.7906 106.203 30.8544 106.056 30.982 105.934C31.1122 105.811 31.2672 105.75 31.4469 105.75C31.6266 105.75 31.7802 105.811 31.9078 105.934C32.038 106.056 32.1031 106.203 32.1031 106.375C32.1031 106.547 32.038 106.694 31.9078 106.816C31.7802 106.939 31.6266 107 31.4469 107ZM36.3041 114.125C35.726 114.125 35.2273 113.997 34.808 113.742C34.3913 113.484 34.0697 113.125 33.8432 112.664C33.6192 112.201 33.5072 111.661 33.5072 111.047C33.5072 110.432 33.6192 109.891 33.8432 109.422C34.0697 108.951 34.3848 108.583 34.7885 108.32C35.1947 108.055 35.6687 107.922 36.2104 107.922C36.5229 107.922 36.8314 107.974 37.1361 108.078C37.4408 108.182 37.7182 108.352 37.9682 108.586C38.2182 108.818 38.4174 109.125 38.5658 109.508C38.7143 109.891 38.7885 110.362 38.7885 110.922V111.312H34.1635V110.516H37.851C37.851 110.177 37.7833 109.875 37.6479 109.609C37.515 109.344 37.3249 109.134 37.0775 108.98C36.8327 108.827 36.5437 108.75 36.2104 108.75C35.8432 108.75 35.5255 108.841 35.2572 109.023C34.9916 109.203 34.7872 109.437 34.6439 109.727C34.5007 110.016 34.4291 110.326 34.4291 110.656V111.188C34.4291 111.641 34.5072 112.025 34.6635 112.34C34.8223 112.652 35.0424 112.891 35.3236 113.055C35.6049 113.216 35.9317 113.297 36.3041 113.297C36.5463 113.297 36.765 113.263 36.9604 113.195C37.1583 113.125 37.3288 113.021 37.4721 112.883C37.6153 112.742 37.726 112.568 37.8041 112.359L38.6947 112.609C38.601 112.911 38.4434 113.177 38.2221 113.406C38.0007 113.633 37.7273 113.81 37.4018 113.937C37.0762 114.063 36.7104 114.125 36.3041 114.125ZM41.3127 110.391V114H40.3908V108H41.2814V108.937H41.3596C41.5002 108.633 41.7137 108.388 42.0002 108.203C42.2867 108.016 42.6564 107.922 43.1096 107.922C43.5158 107.922 43.8713 108.005 44.176 108.172C44.4807 108.336 44.7176 108.586 44.8869 108.922C45.0562 109.255 45.1408 109.677 45.1408 110.188V114H44.2189V110.25C44.2189 109.779 44.0965 109.411 43.8518 109.148C43.607 108.883 43.271 108.75 42.8439 108.75C42.5497 108.75 42.2867 108.814 42.0549 108.941C41.8257 109.069 41.6447 109.255 41.5119 109.5C41.3791 109.745 41.3127 110.042 41.3127 110.391ZM49.291 114.125C48.791 114.125 48.3496 113.999 47.9668 113.746C47.584 113.491 47.2845 113.132 47.0684 112.668C46.8522 112.202 46.7441 111.651 46.7441 111.016C46.7441 110.385 46.8522 109.839 47.0684 109.375C47.2845 108.911 47.5853 108.553 47.9707 108.301C48.3561 108.048 48.8014 107.922 49.3066 107.922C49.6973 107.922 50.0059 107.987 50.2324 108.117C50.4616 108.245 50.6361 108.391 50.7559 108.555C50.8783 108.716 50.9733 108.849 51.041 108.953H51.1191V106H52.041V114H51.1504V113.078H51.041C50.9733 113.187 50.877 113.326 50.752 113.492C50.627 113.656 50.4486 113.803 50.2168 113.934C49.985 114.061 49.6764 114.125 49.291 114.125ZM49.416 113.297C49.7858 113.297 50.0983 113.201 50.3535 113.008C50.6087 112.812 50.8027 112.543 50.9355 112.199C51.0684 111.853 51.1348 111.453 51.1348 111C51.1348 110.552 51.0697 110.16 50.9395 109.824C50.8092 109.486 50.6165 109.223 50.3613 109.035C50.1061 108.845 49.791 108.75 49.416 108.75C49.0254 108.75 48.6999 108.85 48.4395 109.051C48.1816 109.249 47.9876 109.518 47.8574 109.859C47.7298 110.198 47.666 110.578 47.666 111C47.666 111.427 47.7311 111.815 47.8613 112.164C47.9941 112.51 48.1895 112.786 48.4473 112.992C48.7077 113.195 49.0306 113.297 49.416 113.297Z" fill="#FFB522"/><path d="M16.5 46.5C16.5 44.8431 17.8431 43.5 19.5 43.5H26.5C28.1569 43.5 29.5 44.8431 29.5 46.5V53.5C29.5 55.1569 28.1569 56.5 26.5 56.5H19.5C17.8431 56.5 16.5 55.1569 16.5 53.5V46.5Z" stroke="#808080"/></svg>