<svg width="190" height="162" viewBox="0 0 190 162" fill="none" xmlns="http://www.w3.org/2000/svg">
<path opacity="0.4" d="M95 48L0 0H190L95 48Z" fill="url(#paint0_linear_2246_12797)"/>
<path opacity="0.4" d="M95 79.8398L0 31.8398H190L95 79.8398Z" fill="url(#paint1_linear_2246_12797)"/>
<path opacity="0.4" d="M95 112L0 64H190L95 112Z" fill="url(#paint2_linear_2246_12797)"/>
<path d="M78.5 162V159H111.5V162H78.5Z" fill="black"/>
<rect x="48.5" y="84" width="3" height="63" fill="black"/>
<rect x="138.5" y="84" width="3" height="63" fill="black"/>
<path d="M51.5 84V81H138.5V84H51.5Z" fill="black"/>
<path d="M51.5 150V147H138.5V150H51.5Z" fill="black"/>
<path d="M51.5 138V135H138.5V138H51.5Z" fill="black"/>
<path d="M81.543 161.943V149.943H84.543V161.943H81.543Z" fill="black"/>
<path d="M105.5 161.943V149.943H108.5V161.943H105.5Z" fill="black"/>
<rect x="54.5" y="87" width="3" height="3" fill="black"/>
<rect x="60.5" y="87" width="3" height="3" fill="black"/>
<rect x="66.5" y="87" width="3" height="3" fill="black"/>
<rect x="72.5" y="87" width="3" height="3" fill="black"/>
<rect x="78.5" y="87" width="3" height="3" fill="black"/>
<rect x="84.5" y="87" width="3" height="3" fill="black"/>
<rect x="90.5" y="86.9844" width="3" height="3" fill="black"/>
<rect x="96.5" y="86.9844" width="3" height="3" fill="black"/>
<rect x="102.5" y="86.9844" width="3" height="3" fill="black"/>
<rect x="108.5" y="86.9844" width="3" height="3" fill="black"/>
<rect x="114.5" y="86.9844" width="3" height="3" fill="black"/>
<rect x="120.5" y="86.9844" width="3" height="3" fill="black"/>
<rect x="126.5" y="86.9844" width="3" height="3" fill="black"/>
<rect x="132.5" y="86.9844" width="3" height="3" fill="black"/>
<rect x="54.5" y="93" width="3" height="3" fill="black"/>
<rect x="60.5" y="93" width="3" height="3" fill="black"/>
<rect x="66.5" y="93" width="3" height="3" fill="black"/>
<rect x="72.5" y="93" width="3" height="3" fill="black"/>
<rect x="78.5" y="93" width="3" height="3" fill="black"/>
<rect x="84.5" y="93" width="3" height="3" fill="black"/>
<rect x="90.5" y="92.9844" width="3" height="3" fill="black"/>
<rect x="96.5" y="92.9844" width="3" height="3" fill="black"/>
<rect x="102.5" y="92.9844" width="3" height="3" fill="black"/>
<rect x="108.5" y="92.9844" width="3" height="3" fill="black"/>
<rect x="114.5" y="92.9844" width="3" height="3" fill="black"/>
<rect x="120.5" y="92.9844" width="3" height="3" fill="black"/>
<rect x="54.5" y="99" width="3" height="3" fill="black"/>
<rect x="60.5" y="99" width="3" height="3" fill="black"/>
<rect x="66.5" y="99" width="3" height="3" fill="black"/>
<rect x="72.5" y="99" width="3" height="3" fill="black"/>
<rect x="78.5" y="99" width="3" height="3" fill="black"/>
<rect x="84.5" y="99" width="3" height="3" fill="black"/>
<rect x="90.5" y="98.9844" width="3" height="3" fill="black"/>
<rect x="96.5" y="98.9844" width="3" height="3" fill="black"/>
<rect x="102.5" y="98.9844" width="3" height="3" fill="black"/>
<rect x="108.5" y="98.9844" width="3" height="3" fill="black"/>
<rect x="54.5" y="105" width="3" height="3" fill="black"/>
<rect x="60.5" y="105" width="3" height="3" fill="black"/>
<rect x="66.5" y="105" width="3" height="3" fill="black"/>
<rect x="72.5" y="105" width="3" height="3" fill="black"/>
<rect x="78.5" y="105" width="3" height="3" fill="black"/>
<rect x="84.5" y="105" width="3" height="3" fill="black"/>
<rect x="90.5" y="104.984" width="3" height="3" fill="black"/>
<rect x="96.5" y="104.984" width="3" height="3" fill="black"/>
<rect x="54.5" y="111" width="3" height="3" fill="black"/>
<rect x="60.5" y="111" width="3" height="3" fill="black"/>
<rect x="66.5" y="111" width="3" height="3" fill="black"/>
<rect x="72.5" y="111" width="3" height="3" fill="black"/>
<rect x="78.5" y="111" width="3" height="3" fill="black"/>
<rect x="84.5" y="111" width="3" height="3" fill="black"/>
<rect x="54.5" y="117" width="3" height="3" fill="black"/>
<rect x="60.5" y="117" width="3" height="3" fill="black"/>
<rect x="66.5" y="117" width="3" height="3" fill="black"/>
<rect x="72.5" y="117" width="3" height="3" fill="black"/>
<rect x="54.5" y="123" width="3" height="3" fill="black"/>
<rect x="60.5" y="123" width="3" height="3" fill="black"/>
<rect x="54.5" y="123" width="3" height="3" fill="black"/>
<rect x="60.5" y="123" width="3" height="3" fill="black"/>
<rect x="54.5" y="129" width="3" height="3" fill="black"/>
<rect x="60.5" y="129" width="3" height="3" fill="black"/>
<rect x="66.5" y="129" width="3" height="3" fill="black"/>
<rect x="72.5" y="129" width="3" height="3" fill="black"/>
<rect x="78.5" y="129" width="3" height="3" fill="black"/>
<rect x="84.5" y="129" width="3" height="3" fill="black"/>
<defs>
<linearGradient id="paint0_linear_2246_12797" x1="95" y1="0" x2="95" y2="48" gradientUnits="userSpaceOnUse">
<stop stop-color="#4E75FF" stop-opacity="0.25"/>
<stop offset="1" stop-color="#4E75FF"/>
</linearGradient>
<linearGradient id="paint1_linear_2246_12797" x1="95" y1="31.8398" x2="95" y2="79.8398" gradientUnits="userSpaceOnUse">
<stop stop-color="#4E75FF" stop-opacity="0.25"/>
<stop offset="1" stop-color="#4E75FF"/>
</linearGradient>
<linearGradient id="paint2_linear_2246_12797" x1="95" y1="64" x2="95" y2="112" gradientUnits="userSpaceOnUse">
<stop stop-color="#4E75FF" stop-opacity="0.25"/>
<stop offset="1" stop-color="#4E75FF"/>
</linearGradient>
</defs>
</svg>
