<svg width="168" height="169" viewBox="0 0 168 169" fill="none" xmlns="http://www.w3.org/2000/svg">
<path opacity="0.4" d="M168 128.999C168 151.09 150.091 169 128 169C105.909 169 88.0003 151.091 88.0002 128.999C88.0001 106.908 105.909 88.998 128 88.998C150.091 88.998 168 106.908 168 128.999Z" fill="url(#paint0_linear_2246_12704)"/>
<path opacity="0.4" d="M79.9998 40.9989C79.9999 63.0903 62.0914 81.0003 40 81.0003C17.9088 81.0003 0.000315808 63.0906 0.000203451 40.9994C9.10918e-05 18.908 17.9086 0.998047 40 0.998047C62.0912 0.998047 79.9997 18.9078 79.9998 40.9989Z" fill="url(#paint1_linear_2246_12704)"/>
<path opacity="0.4" d="M91.0003 58.0002L91.0001 23.9981C91 12.9524 99.9544 3.99805 111 3.99805H145C156.045 3.99805 165 12.9523 165 23.998L165 58C165 69.0457 156.046 78.0001 145 78.0001H111C99.9546 78.0001 91.0003 69.0458 91.0003 58.0002Z" fill="url(#paint2_linear_2246_12704)"/>
<path opacity="0.4" d="M3.00027 146L3.0001 111.998C3.00005 100.952 11.9544 91.998 23.0001 91.998H56.9997C68.0454 91.998 76.9997 100.952 76.9997 111.998L76.9999 146C77 157.046 68.0456 166 56.9999 166H23.0003C11.9546 166 3.00033 157.046 3.00027 146Z" fill="url(#paint3_linear_2246_12704)"/>
<path d="M57 42.998V39.998H111V42.998H57Z" fill="black"/>
<path d="M57 129.998V126.998H111V129.998H57Z" fill="black"/>
<path d="M51 45.998V42.998H57V45.998H51Z" fill="black"/>
<path d="M48 48.998V45.998H51V48.998H48Z" fill="black"/>
<path d="M45 51.998V48.998H48V51.998H45Z" fill="black"/>
<path d="M42 51.998H45V57.998H42V51.998Z" fill="black"/>
<path d="M51 123.998V126.998H57V123.998H51Z" fill="black"/>
<path d="M48 120.998V123.998H51V120.998H48Z" fill="black"/>
<path d="M45 117.998V120.998H48V117.998H45Z" fill="black"/>
<path d="M42 117.998H45V111.998H42V117.998Z" fill="black"/>
<path d="M117 45.998V42.998H111V45.998H117Z" fill="black"/>
<path d="M120 48.998V45.998H117V48.998H120Z" fill="black"/>
<path d="M123 51.998V48.998H120V51.998H123Z" fill="black"/>
<path d="M126 51.998H123V57.998H126V51.998Z" fill="black"/>
<path d="M117 123.998V126.998H111V123.998H117Z" fill="black"/>
<path d="M120 120.998V123.998H117V120.998H120Z" fill="black"/>
<path d="M123 117.998V120.998H120V117.998H123Z" fill="black"/>
<path d="M126 117.998H123V111.998H126V117.998Z" fill="black"/>
<path d="M72 111.998V114.998H78V111.998H72Z" fill="black"/>
<path d="M72 114.998H75V108.998H72V114.998Z" fill="black"/>
<path d="M96 111.998V114.998H90V111.998H96Z" fill="black"/>
<path d="M96 114.998H93V108.998H96V114.998Z" fill="black"/>
<path d="M78 90.998V87.998H90V90.998H78Z" fill="black"/>
<path d="M78 117.998V114.998H90V117.998H78Z" fill="black"/>
<path d="M69 96.998H72V108.998H69V96.998Z" fill="black"/>
<path d="M96 96.998H99V108.998H96V96.998Z" fill="black"/>
<path d="M72 93.998V90.998H78V93.998H72Z" fill="black"/>
<path d="M72 90.998H75V96.998H72V90.998Z" fill="black"/>
<path d="M96 93.998V90.998H90V93.998H96Z" fill="black"/>
<path d="M96 90.998H93V96.998H96V90.998Z" fill="black"/>
<path d="M107.959 102.998H104.959V84.998H107.959V102.998Z" fill="black"/>
<path d="M63.041 102.998H60.041V84.998H63.041V102.998Z" fill="black"/>
<path d="M74.959 72.998V69.998H92.959V72.998H74.959Z" fill="black"/>
<path d="M75.041 117.998V114.998H92.959V117.998H75.041Z" fill="black"/>
<path d="M98.959 75.998V72.998H92.959V75.998H98.959Z" fill="black"/>
<path d="M101.959 78.998V75.998H98.959V78.998H101.959Z" fill="black"/>
<path d="M104.959 78.998H101.959V84.998H104.959V78.998Z" fill="black"/>
<path d="M98.959 111.998V114.998H92.959V111.998H98.959Z" fill="black"/>
<path d="M101.959 108.998V111.998H98.959V108.998H101.959Z" fill="black"/>
<path d="M104.959 108.998H101.959V102.998H104.959V108.998Z" fill="black"/>
<path d="M69.041 75.998V72.998H75.041V75.998H69.041Z" fill="black"/>
<path d="M66.041 78.998V75.998H69.041V78.998H66.041Z" fill="black"/>
<path d="M63.041 78.998H66.041V84.998H63.041V78.998Z" fill="black"/>
<path d="M69.041 111.998V114.998H75.041V111.998H69.041Z" fill="black"/>
<path d="M66.041 108.998V111.998H69.041V108.998H66.041Z" fill="black"/>
<path d="M63.041 108.998H66.041V102.998H63.041V108.998Z" fill="black"/>
<path d="M72 117.998V114.998H96V117.998H72Z" fill="black"/>
<path d="M72 54.998V51.998H96V54.998H72Z" fill="black"/>
<path d="M117 96.998H114V72.998H117V96.998Z" fill="black"/>
<path d="M54 96.998H51V72.998H54V96.998Z" fill="black"/>
<path d="M66 57.998V54.998H72V57.998H66Z" fill="black"/>
<path d="M60 60.998V57.998H66V60.998H60Z" fill="black"/>
<path d="M57 66.998V60.998H60V66.998H57Z" fill="black"/>
<path d="M54 66.998H57V72.998H54V66.998Z" fill="black"/>
<path d="M102 111.998V114.998H96V111.998H102Z" fill="black"/>
<path d="M108 108.998V111.998H102V108.998H108Z" fill="black"/>
<path d="M111 102.998V108.998H108V102.998H111Z" fill="black"/>
<path d="M114 102.998H111V96.998H114V102.998Z" fill="black"/>
<path d="M102 57.998V54.998H96V57.998H102Z" fill="black"/>
<path d="M108 60.998V57.998H102V60.998H108Z" fill="black"/>
<path d="M111 66.998V60.998H108V66.998H111Z" fill="black"/>
<path d="M114 66.998H111V72.998H114V66.998Z" fill="black"/>
<path d="M66 111.998V114.998H72V111.998H66Z" fill="black"/>
<path d="M60 108.998V111.998H66V108.998H60Z" fill="black"/>
<path d="M57 102.998V108.998H60V102.998H57Z" fill="black"/>
<path d="M54 102.998H57V96.998H54V102.998Z" fill="black"/>
<path d="M42 111.998H39L39 57.998H42L42 111.998Z" fill="black"/>
<path d="M129 111.998H126V57.998H129V111.998Z" fill="black"/>
<defs>
<linearGradient id="paint0_linear_2246_12704" x1="128" y1="88.998" x2="128" y2="169" gradientUnits="userSpaceOnUse">
<stop stop-color="#4E75FF" stop-opacity="0.25"/>
<stop offset="1" stop-color="#4E75FF"/>
</linearGradient>
<linearGradient id="paint1_linear_2246_12704" x1="39.9998" y1="0.998047" x2="40" y2="81.0003" gradientUnits="userSpaceOnUse">
<stop stop-color="#4E75FF" stop-opacity="0.25"/>
<stop offset="1" stop-color="#4E75FF"/>
</linearGradient>
<linearGradient id="paint2_linear_2246_12704" x1="128" y1="3.99805" x2="128" y2="78.0001" gradientUnits="userSpaceOnUse">
<stop stop-color="#4E75FF" stop-opacity="0.25"/>
<stop offset="1" stop-color="#4E75FF"/>
</linearGradient>
<linearGradient id="paint3_linear_2246_12704" x1="39.9998" y1="91.998" x2="40" y2="166" gradientUnits="userSpaceOnUse">
<stop stop-color="#4E75FF" stop-opacity="0.25"/>
<stop offset="1" stop-color="#4E75FF"/>
</linearGradient>
</defs>
</svg>
