<svg width="168" height="168" viewBox="0 0 168 168" fill="none" xmlns="http://www.w3.org/2000/svg">
  <circle opacity="0.6" cx="84" cy="34.5" r="34.5" fill="url(#paint0_radial_3025_2406)"/>
  <circle opacity="0.6" cx="34.5" cy="84" r="34.5" fill="url(#paint1_radial_3025_2406)"/>
  <circle opacity="0.6" cx="133.5" cy="84" r="34.5" fill="url(#paint2_radial_3025_2406)"/>
  <circle opacity="0.6" cx="84" cy="133.5" r="34.5" fill="url(#paint3_radial_3025_2406)"/>
  <rect x="130.5" y="79.5" width="3" height="3" fill="black"/>
  <rect x="127.5" y="76.5" width="3" height="3" fill="black"/>
  <rect x="124.5" y="73.5" width="3" height="3" fill="black"/>
  <rect x="121.5" y="70.5" width="3" height="3" fill="black"/>
  <rect x="118.5" y="67.4551" width="3" height="3" fill="black"/>
  <rect x="115.5" y="64.4551" width="3" height="3" fill="black"/>
  <rect x="112.5" y="61.4551" width="3" height="3" fill="black"/>
  <rect x="109.5" y="58.4551" width="3" height="3" fill="black"/>
  <rect x="106.5" y="55.4551" width="3" height="3" fill="black"/>
  <rect x="103.5" y="52.4551" width="3" height="3" fill="black"/>
  <rect x="100.5" y="49.4551" width="3" height="3" fill="black"/>
  <rect x="97.5" y="46.4551" width="3" height="3" fill="black"/>
  <rect x="94.5" y="43.5" width="3" height="3" fill="black"/>
  <rect x="91.5" y="40.5" width="3" height="3" fill="black"/>
  <rect x="88.5" y="37.5" width="3" height="3" fill="black"/>
  <rect x="85.5" y="34.5" width="3" height="3" fill="black"/>
  <rect x="82.5" y="31.5" width="3" height="3" fill="black"/>
  <rect width="3" height="3" transform="matrix(1 0 0 -1 133.5 85.4551)" fill="black"/>
  <rect width="3" height="3" transform="matrix(1 0 0 -1 130.5 88.4551)" fill="black"/>
  <rect width="3" height="3" transform="matrix(1 0 0 -1 127.5 91.4551)" fill="black"/>
  <rect width="3" height="3" transform="matrix(1 0 0 -1 124.5 94.4551)" fill="black"/>
  <rect width="3" height="3" transform="matrix(1 0 0 -1 121.5 97.5)" fill="black"/>
  <rect width="3" height="3" transform="matrix(1 0 0 -1 118.5 100.5)" fill="black"/>
  <rect width="3" height="3" transform="matrix(1 0 0 -1 115.5 103.5)" fill="black"/>
  <rect width="3" height="3" transform="matrix(1 0 0 -1 112.5 106.5)" fill="black"/>
  <rect width="3" height="3" transform="matrix(1 0 0 -1 109.5 109.5)" fill="black"/>
  <rect width="3" height="3" transform="matrix(1 0 0 -1 106.5 112.5)" fill="black"/>
  <rect width="3" height="3" transform="matrix(1 0 0 -1 103.5 115.5)" fill="black"/>
  <rect width="3" height="3" transform="matrix(1 0 0 -1 100.5 118.5)" fill="black"/>
  <rect width="3" height="3" transform="matrix(1 0 0 -1 97.5 121.455)" fill="black"/>
  <rect width="3" height="3" transform="matrix(1 0 0 -1 94.5 124.455)" fill="black"/>
  <rect width="3" height="3" transform="matrix(1 0 0 -1 91.5 127.455)" fill="black"/>
  <rect width="3" height="3" transform="matrix(1 0 0 -1 88.5 130.455)" fill="black"/>
  <rect width="3" height="3" transform="matrix(1 0 0 -1 85.5 133.455)" fill="black"/>
  <rect width="3" height="3" transform="matrix(-1 0 0 1 37.5 79.4551)" fill="black"/>
  <rect width="3" height="3" transform="matrix(-1 0 0 1 40.5 76.4551)" fill="black"/>
  <rect width="3" height="3" transform="matrix(-1 0 0 1 43.5 73.4551)" fill="black"/>
  <rect width="3" height="3" transform="matrix(-1 0 0 1 46.5 70.4551)" fill="black"/>
  <rect width="3" height="3" transform="matrix(-1 0 0 1 49.5 67.4102)" fill="black"/>
  <rect width="3" height="3" transform="matrix(-1 0 0 1 52.5 64.4102)" fill="black"/>
  <rect width="3" height="3" transform="matrix(-1 0 0 1 55.5 61.4102)" fill="black"/>
  <rect width="3" height="3" transform="matrix(-1 0 0 1 58.5 58.4102)" fill="black"/>
  <rect width="3" height="3" transform="matrix(-1 0 0 1 61.5 55.4102)" fill="black"/>
  <rect width="3" height="3" transform="matrix(-1 0 0 1 64.5 52.4102)" fill="black"/>
  <rect width="3" height="3" transform="matrix(-1 0 0 1 67.5 49.4102)" fill="black"/>
  <rect width="3" height="3" transform="matrix(-1 0 0 1 70.5 46.4102)" fill="black"/>
  <rect width="3" height="3" transform="matrix(-1 0 0 1 73.5 43.4551)" fill="black"/>
  <rect width="3" height="3" transform="matrix(-1 0 0 1 76.5 40.4551)" fill="black"/>
  <rect width="3" height="3" transform="matrix(-1 0 0 1 79.5 37.4551)" fill="black"/>
  <rect width="3" height="3" transform="matrix(-1 0 0 1 82.5 34.4551)" fill="black"/>
  <rect width="3" height="3" transform="matrix(-1 0 0 1 85.5 31.4551)" fill="black"/>
  <rect x="37.5" y="88.5" width="3" height="3" transform="rotate(180 37.5 88.5)" fill="black"/>
  <rect x="40.5" y="91.5" width="3" height="3" transform="rotate(180 40.5 91.5)" fill="black"/>
  <rect x="43.5" y="94.5" width="3" height="3" transform="rotate(180 43.5 94.5)" fill="black"/>
  <rect x="46.5" y="97.5" width="3" height="3" transform="rotate(180 46.5 97.5)" fill="black"/>
  <rect x="49.5" y="100.545" width="3" height="3" transform="rotate(180 49.5 100.545)" fill="black"/>
  <rect x="52.5" y="103.545" width="3" height="3" transform="rotate(180 52.5 103.545)" fill="black"/>
  <rect x="55.5" y="106.545" width="3" height="3" transform="rotate(180 55.5 106.545)" fill="black"/>
  <rect x="58.5" y="109.545" width="3" height="3" transform="rotate(180 58.5 109.545)" fill="black"/>
  <rect x="61.5" y="112.545" width="3" height="3" transform="rotate(180 61.5 112.545)" fill="black"/>
  <rect x="64.5" y="115.545" width="3" height="3" transform="rotate(180 64.5 115.545)" fill="black"/>
  <rect x="67.5" y="118.545" width="3" height="3" transform="rotate(180 67.5 118.545)" fill="black"/>
  <rect x="70.5" y="121.545" width="3" height="3" transform="rotate(180 70.5 121.545)" fill="black"/>
  <rect x="73.5" y="124.5" width="3" height="3" transform="rotate(180 73.5 124.5)" fill="black"/>
  <rect x="76.5" y="127.5" width="3" height="3" transform="rotate(180 76.5 127.5)" fill="black"/>
  <rect x="79.5" y="130.5" width="3" height="3" transform="rotate(180 79.5 130.5)" fill="black"/>
  <rect x="82.5" y="133.5" width="3" height="3" transform="rotate(180 82.5 133.5)" fill="black"/>
  <rect x="85.5" y="136.5" width="3" height="3" transform="rotate(180 85.5 136.5)" fill="black"/>
  <rect x="31.5" y="82.5" width="3" height="3" fill="black"/>
  <rect x="43.5" y="82.5" width="3" height="3" fill="black"/>
  <rect x="37.5" y="82.5" width="3" height="3" fill="black"/>
  <rect x="49.5" y="82.5" width="3" height="3" fill="black"/>
  <rect x="55.5" y="82.5" width="3" height="3" fill="black"/>
  <rect x="67.5" y="82.5" width="3" height="3" fill="black"/>
  <rect x="61.5" y="82.5" width="3" height="3" fill="black"/>
  <rect x="73.5" y="82.5" width="3" height="3" fill="black"/>
  <rect x="79.5" y="82.5" width="3" height="3" fill="black"/>
  <rect x="91.5" y="82.5" width="3" height="3" fill="black"/>
  <rect x="85.5" y="82.5" width="3" height="3" fill="black"/>
  <rect x="97.5" y="82.5" width="3" height="3" fill="black"/>
  <rect x="103.5" y="82.5" width="3" height="3" fill="black"/>
  <rect x="115.5" y="82.5" width="3" height="3" fill="black"/>
  <rect x="127.5" y="82.5" width="3" height="3" fill="black"/>
  <rect x="133.5" y="82.5" width="3" height="3" fill="black"/>
  <rect x="109.5" y="82.5" width="3" height="3" fill="black"/>
  <rect x="121.5" y="82.5" width="3" height="3" fill="black"/>
  <rect x="82.5" y="130.5" width="3" height="3" transform="rotate(-90 82.5 130.5)" fill="black"/>
  <rect x="82.5" y="136.5" width="3" height="3" transform="rotate(-90 82.5 136.5)" fill="black"/>
  <rect x="82.5" y="124.5" width="3" height="3" transform="rotate(-90 82.5 124.5)" fill="black"/>
  <rect x="82.5" y="118.5" width="3" height="3" transform="rotate(-90 82.5 118.5)" fill="black"/>
  <rect x="82.5" y="106.5" width="3" height="3" transform="rotate(-90 82.5 106.5)" fill="black"/>
  <rect x="82.5" y="112.5" width="3" height="3" transform="rotate(-90 82.5 112.5)" fill="black"/>
  <rect x="82.5" y="100.5" width="3" height="3" transform="rotate(-90 82.5 100.5)" fill="black"/>
  <rect x="82.5" y="94.5" width="3" height="3" transform="rotate(-90 82.5 94.5)" fill="black"/>
  <rect x="82.5" y="82.5" width="3" height="3" transform="rotate(-90 82.5 82.5)" fill="black"/>
  <rect x="82.5" y="88.5" width="3" height="3" transform="rotate(-90 82.5 88.5)" fill="black"/>
  <rect x="82.5" y="76.5" width="3" height="3" transform="rotate(-90 82.5 76.5)" fill="black"/>
  <rect x="82.5" y="70.5" width="3" height="3" transform="rotate(-90 82.5 70.5)" fill="black"/>
  <rect x="82.5" y="58.5" width="3" height="3" transform="rotate(-90 82.5 58.5)" fill="black"/>
  <rect x="82.5" y="46.5" width="3" height="3" transform="rotate(-90 82.5 46.5)" fill="black"/>
  <rect x="82.5" y="40.5" width="3" height="3" transform="rotate(-90 82.5 40.5)" fill="black"/>
  <rect x="82.5" y="34.5" width="3" height="3" transform="rotate(-90 82.5 34.5)" fill="black"/>
  <rect x="82.5" y="64.5" width="3" height="3" transform="rotate(-90 82.5 64.5)" fill="black"/>
  <rect x="82.5" y="52.5" width="3" height="3" transform="rotate(-90 82.5 52.5)" fill="black"/>
  <defs>
    <radialGradient id="paint0_radial_3025_2406" cx="0" cy="0" r="1" gradientUnits="userSpaceOnUse" gradientTransform="translate(84 34.5) rotate(90) scale(34.5)">
      <stop offset="0.5" stop-color="#7DD1FF" stop-opacity="0.2"/>
      <stop offset="1" stop-color="#7DD1FF"/>
    </radialGradient>
    <radialGradient id="paint1_radial_3025_2406" cx="0" cy="0" r="1" gradientUnits="userSpaceOnUse" gradientTransform="translate(34.5 84) rotate(90) scale(34.5)">
      <stop offset="0.5" stop-color="#7DD1FF" stop-opacity="0.2"/>
      <stop offset="1" stop-color="#7DD1FF"/>
    </radialGradient>
    <radialGradient id="paint2_radial_3025_2406" cx="0" cy="0" r="1" gradientUnits="userSpaceOnUse" gradientTransform="translate(133.5 84) rotate(90) scale(34.5)">
      <stop offset="0.5" stop-color="#7DD1FF" stop-opacity="0.2"/>
      <stop offset="1" stop-color="#7DD1FF"/>
    </radialGradient>
    <radialGradient id="paint3_radial_3025_2406" cx="0" cy="0" r="1" gradientUnits="userSpaceOnUse" gradientTransform="translate(84 133.5) rotate(90) scale(34.5)">
      <stop offset="0.5" stop-color="#7DD1FF" stop-opacity="0.2"/>
      <stop offset="1" stop-color="#7DD1FF"/>
    </radialGradient>
  </defs>
</svg>
