<svg width="164" height="130" viewBox="0 0 164 130" fill="none" xmlns="http://www.w3.org/2000/svg">
  <rect y="0.941406" width="164" height="128.119" rx="16" fill="#1F1F1F"/>
  <rect x="16" y="96.9414" width="35" height="18" rx="4" fill="#093B57"/>
  <path d="M21.642 109.941L19.2557 101.214H20.3295L22.1534 108.322H22.2386L24.0966 101.214H25.2898L27.1477 108.322H27.233L29.0568 101.214H30.1307L27.7443 109.941H26.6534L24.7273 102.987H24.6591L22.733 109.941H21.642ZM33.3608 110.078C32.7699 110.078 32.2514 109.937 31.8054 109.656C31.3622 109.375 31.0156 108.981 30.7656 108.475C30.5185 107.97 30.3949 107.379 30.3949 106.703C30.3949 106.021 30.5185 105.426 30.7656 104.917C31.0156 104.409 31.3622 104.014 31.8054 103.733C32.2514 103.451 32.7699 103.311 33.3608 103.311C33.9517 103.311 34.4688 103.451 34.9119 103.733C35.358 104.014 35.7045 104.409 35.9517 104.917C36.2017 105.426 36.3267 106.021 36.3267 106.703C36.3267 107.379 36.2017 107.97 35.9517 108.475C35.7045 108.981 35.358 109.375 34.9119 109.656C34.4688 109.937 33.9517 110.078 33.3608 110.078ZM33.3608 109.174C33.8097 109.174 34.179 109.059 34.4688 108.829C34.7585 108.599 34.973 108.297 35.1122 107.922C35.2514 107.547 35.321 107.14 35.321 106.703C35.321 106.265 35.2514 105.858 35.1122 105.48C34.973 105.102 34.7585 104.797 34.4688 104.564C34.179 104.331 33.8097 104.214 33.3608 104.214C32.9119 104.214 32.5426 104.331 32.2528 104.564C31.9631 104.797 31.7486 105.102 31.6094 105.48C31.4702 105.858 31.4006 106.265 31.4006 106.703C31.4006 107.14 31.4702 107.547 31.6094 107.922C31.7486 108.297 31.9631 108.599 32.2528 108.829C32.5426 109.059 32.9119 109.174 33.3608 109.174ZM37.8619 109.941V103.396H38.8335V104.385H38.9016C39.021 104.061 39.2369 103.798 39.5494 103.596C39.8619 103.395 40.2141 103.294 40.6062 103.294C40.68 103.294 40.7724 103.295 40.8832 103.298C40.994 103.301 41.0778 103.305 41.1346 103.311V104.333C41.1005 104.325 41.0224 104.312 40.9002 104.295C40.7809 104.275 40.6545 104.265 40.521 104.265C40.2028 104.265 39.9187 104.332 39.6687 104.466C39.4215 104.596 39.2255 104.778 39.0806 105.011C38.9386 105.241 38.8675 105.504 38.8675 105.799V109.941H37.8619ZM43.2642 107.555L43.2472 106.311H43.4517L46.3153 103.396H47.5597L44.5085 106.481H44.4233L43.2642 107.555ZM42.3267 109.941V101.214H43.3324V109.941H42.3267ZM46.4858 109.941L43.929 106.703L44.6449 106.004L47.7642 109.941H46.4858Z" fill="#2AA7EE"/>
  <path d="M48.1932 23.0625C48.0838 22.7277 47.9396 22.4278 47.7607 22.1626C47.585 21.8942 47.3745 21.6655 47.1293 21.4766C46.8873 21.2876 46.6122 21.1435 46.304 21.044C45.9957 20.9446 45.6577 20.8949 45.2898 20.8949C44.6866 20.8949 44.138 21.0507 43.6442 21.3622C43.1503 21.6738 42.7576 22.1328 42.4659 22.7393C42.1742 23.3459 42.0284 24.09 42.0284 24.9716C42.0284 25.8532 42.1759 26.5973 42.4709 27.2038C42.7659 27.8104 43.1652 28.2694 43.669 28.581C44.1728 28.8925 44.7396 29.0483 45.3693 29.0483C45.9527 29.0483 46.4664 28.924 46.9105 28.6754C47.358 28.4235 47.706 28.0689 47.9545 27.6115C48.2064 27.1508 48.3324 26.6089 48.3324 25.9858L48.7102 26.0653H45.6477V24.9716H49.5256V26.0653C49.5256 26.9039 49.3466 27.633 48.9886 28.2528C48.634 28.8726 48.1435 29.3532 47.517 29.6946C46.8939 30.0327 46.178 30.2017 45.3693 30.2017C44.4678 30.2017 43.6757 29.9896 42.9929 29.5653C42.3134 29.1411 41.7831 28.5379 41.402 27.7557C41.0241 26.9735 40.8352 26.0455 40.8352 24.9716C40.8352 24.1662 40.9429 23.442 41.1584 22.799C41.3771 22.1527 41.6854 21.6025 42.0831 21.1484C42.4808 20.6944 42.9515 20.3464 43.495 20.1044C44.0386 19.8625 44.6368 19.7415 45.2898 19.7415C45.8267 19.7415 46.3272 19.8227 46.7912 19.9851C47.2585 20.1442 47.6745 20.3712 48.0391 20.6662C48.407 20.9579 48.7135 21.3075 48.9588 21.7152C49.2041 22.1196 49.3731 22.5687 49.4659 23.0625H48.1932ZM51.3582 30.0625V22.4261H52.4917V23.5795H52.5712C52.7104 23.2017 52.9623 22.8951 53.3269 22.6598C53.6915 22.4245 54.1025 22.3068 54.5599 22.3068C54.646 22.3068 54.7538 22.3085 54.883 22.3118C55.0123 22.3151 55.1101 22.3201 55.1763 22.3267V23.5199C55.1366 23.5099 55.0454 23.495 54.9029 23.4751C54.7637 23.4519 54.6162 23.4403 54.4604 23.4403C54.0892 23.4403 53.7578 23.5182 53.4661 23.674C53.1778 23.8265 52.9491 24.0386 52.78 24.3104C52.6143 24.5788 52.5315 24.8854 52.5315 25.2301V30.0625H51.3582ZM59.317 30.2216C58.6276 30.2216 58.0227 30.0575 57.5024 29.7294C56.9853 29.4013 56.581 28.9422 56.2893 28.3523C56.0009 27.7623 55.8568 27.0729 55.8568 26.2841C55.8568 25.4886 56.0009 24.7943 56.2893 24.201C56.581 23.6077 56.9853 23.147 57.5024 22.8189C58.0227 22.4908 58.6276 22.3267 59.317 22.3267C60.0064 22.3267 60.6096 22.4908 61.1267 22.8189C61.647 23.147 62.0514 23.6077 62.3397 24.201C62.6314 24.7943 62.7772 25.4886 62.7772 26.2841C62.7772 27.0729 62.6314 27.7623 62.3397 28.3523C62.0514 28.9422 61.647 29.4013 61.1267 29.7294C60.6096 30.0575 60.0064 30.2216 59.317 30.2216ZM59.317 29.1676C59.8407 29.1676 60.2715 29.0334 60.6096 28.7649C60.9477 28.4964 61.1979 28.1435 61.3603 27.706C61.5227 27.2685 61.6039 26.7945 61.6039 26.2841C61.6039 25.7737 61.5227 25.2981 61.3603 24.8572C61.1979 24.4164 60.9477 24.0601 60.6096 23.7884C60.2715 23.5166 59.8407 23.3807 59.317 23.3807C58.7933 23.3807 58.3625 23.5166 58.0244 23.7884C57.6863 24.0601 57.4361 24.4164 57.2737 24.8572C57.1113 25.2981 57.0301 25.7737 57.0301 26.2841C57.0301 26.7945 57.1113 27.2685 57.2737 27.706C57.4361 28.1435 57.6863 28.4964 58.0244 28.7649C58.3625 29.0334 58.7933 29.1676 59.317 29.1676ZM69.2607 26.9403V22.4261H70.434V30.0625H69.2607V28.7699H69.1812C69.0022 29.1577 68.7238 29.4875 68.346 29.7592C67.9681 30.0277 67.4909 30.1619 66.9141 30.1619C66.4369 30.1619 66.0126 30.0575 65.6414 29.8487C65.2702 29.6366 64.9785 29.3184 64.7664 28.8942C64.5543 28.4666 64.4482 27.928 64.4482 27.2784V22.4261H65.6215V27.1989C65.6215 27.7557 65.7773 28.1998 66.0889 28.5312C66.4037 28.8627 66.8048 29.0284 67.292 29.0284C67.5837 29.0284 67.8803 28.9538 68.1819 28.8047C68.4868 28.6555 68.742 28.4268 68.9475 28.1186C69.1563 27.8104 69.2607 27.4176 69.2607 26.9403ZM72.463 32.9261V22.4261H73.5965V23.6392H73.7357C73.8219 23.5066 73.9412 23.3376 74.0937 23.1321C74.2495 22.9233 74.4715 22.7377 74.7599 22.5753C75.0515 22.4096 75.446 22.3267 75.9431 22.3267C76.5861 22.3267 77.1529 22.4875 77.6434 22.8089C78.1339 23.1304 78.5167 23.5862 78.7918 24.1761C79.0669 24.7661 79.2045 25.4621 79.2045 26.2642C79.2045 27.0729 79.0669 27.7739 78.7918 28.3672C78.5167 28.9571 78.1356 29.4145 77.6484 29.7393C77.1612 30.0608 76.5994 30.2216 75.963 30.2216C75.4725 30.2216 75.0797 30.1404 74.7847 29.978C74.4898 29.8123 74.2627 29.625 74.1036 29.4162C73.9445 29.2041 73.8219 29.0284 73.7357 28.8892H73.6363V32.9261H72.463ZM73.6164 26.2443C73.6164 26.821 73.7009 27.3298 73.87 27.7706C74.039 28.2081 74.2859 28.5511 74.6107 28.7997C74.9355 29.045 75.3333 29.1676 75.8039 29.1676C76.2944 29.1676 76.7038 29.0384 77.0319 28.7798C77.3633 28.518 77.6119 28.1667 77.7776 27.7259C77.9467 27.2817 78.0312 26.7879 78.0312 26.2443C78.0312 25.7074 77.9483 25.2235 77.7826 24.7926C77.6202 24.3584 77.3733 24.0154 77.0418 23.7635C76.7137 23.5083 76.3011 23.3807 75.8039 23.3807C75.3266 23.3807 74.9256 23.5017 74.6008 23.7436C74.276 23.9822 74.0307 24.317 73.865 24.7479C73.6993 25.1754 73.6164 25.6742 73.6164 26.2443ZM87.794 30.2216C87.0781 30.2216 86.4616 30.0526 85.9446 29.7145C85.4275 29.3764 85.0298 28.9107 84.7514 28.3175C84.473 27.7242 84.3338 27.0464 84.3338 26.2841C84.3338 25.5085 84.4763 24.8241 84.7614 24.2308C85.0497 23.6342 85.4507 23.1686 85.9645 22.8338C86.4815 22.4957 87.0847 22.3267 87.7741 22.3267C88.3111 22.3267 88.795 22.4261 89.2258 22.625C89.6567 22.8239 90.0097 23.1023 90.2848 23.4602C90.5599 23.8182 90.7306 24.2358 90.7969 24.7131H89.6236C89.5341 24.3651 89.3352 24.0568 89.027 23.7884C88.7221 23.5166 88.3111 23.3807 87.794 23.3807C87.3366 23.3807 86.9356 23.5 86.5909 23.7386C86.2495 23.974 85.9827 24.3071 85.7905 24.7379C85.6016 25.1655 85.5071 25.6676 85.5071 26.2443C85.5071 26.8343 85.5999 27.348 85.7855 27.7855C85.9744 28.223 86.2396 28.5627 86.581 28.8047C86.9257 29.0466 87.33 29.1676 87.794 29.1676C88.099 29.1676 88.3757 29.1146 88.6243 29.0085C88.8729 28.9025 89.0833 28.75 89.2557 28.5511C89.428 28.3523 89.5507 28.1136 89.6236 27.8352H90.7969C90.7306 28.286 90.5665 28.692 90.3047 29.0533C90.0462 29.4112 89.7031 29.6963 89.2756 29.9084C88.8513 30.1172 88.3575 30.2216 87.794 30.2216ZM94.6392 30.2415C94.1553 30.2415 93.7162 30.1503 93.3218 29.968C92.9273 29.7824 92.6141 29.5156 92.3821 29.1676C92.1501 28.8163 92.0341 28.392 92.0341 27.8949C92.0341 27.4574 92.1203 27.1027 92.2926 26.831C92.465 26.5559 92.6953 26.3404 92.9837 26.1847C93.272 26.0289 93.5902 25.9129 93.9382 25.8366C94.2896 25.7571 94.6425 25.6941 94.9972 25.6477C95.4612 25.5881 95.8374 25.5433 96.1257 25.5135C96.4174 25.4804 96.6295 25.4257 96.7621 25.3494C96.898 25.2732 96.9659 25.1406 96.9659 24.9517V24.9119C96.9659 24.4214 96.8317 24.0402 96.5632 23.7685C96.2981 23.4967 95.8954 23.3608 95.3551 23.3608C94.795 23.3608 94.3558 23.4834 94.0377 23.7287C93.7195 23.974 93.4958 24.2358 93.3665 24.5142L92.2529 24.1165C92.4517 23.6525 92.7169 23.2912 93.0483 23.0327C93.3831 22.7708 93.7477 22.5885 94.1421 22.4858C94.5398 22.3797 94.9309 22.3267 95.3154 22.3267C95.5606 22.3267 95.8424 22.3565 96.1605 22.4162C96.482 22.4725 96.7919 22.5902 97.0902 22.7692C97.3918 22.9482 97.6421 23.2183 97.8409 23.5795C98.0398 23.9408 98.1392 24.4247 98.1392 25.0312V30.0625H96.9659V29.0284H96.9063C96.8267 29.1941 96.6942 29.3714 96.5085 29.5604C96.3229 29.7493 96.076 29.91 95.7678 30.0426C95.4595 30.1752 95.0834 30.2415 94.6392 30.2415ZM94.8182 29.1875C95.2822 29.1875 95.6733 29.0964 95.9915 28.9141C96.313 28.7318 96.5549 28.4964 96.7174 28.2081C96.8831 27.9197 96.9659 27.6165 96.9659 27.2983V26.2244C96.9162 26.2841 96.8068 26.3388 96.6378 26.3885C96.4721 26.4349 96.2799 26.4763 96.0611 26.5128C95.8457 26.5459 95.6352 26.5758 95.4297 26.6023C95.2275 26.6255 95.0635 26.6454 94.9375 26.6619C94.6326 26.7017 94.3476 26.7663 94.0824 26.8558C93.8206 26.942 93.6084 27.0729 93.446 27.2486C93.287 27.4209 93.2074 27.6562 93.2074 27.9545C93.2074 28.3622 93.3582 28.6705 93.6598 28.8793C93.9647 29.0848 94.3509 29.1875 94.8182 29.1875ZM101.334 19.8807V30.0625H100.161V19.8807H101.334ZM104.536 19.8807V30.0625H103.363V19.8807H104.536ZM113.485 30.2216C112.796 30.2216 112.191 30.0575 111.67 29.7294C111.153 29.4013 110.749 28.9422 110.457 28.3523C110.169 27.7623 110.025 27.0729 110.025 26.2841C110.025 25.4886 110.169 24.7943 110.457 24.201C110.749 23.6077 111.153 23.147 111.67 22.8189C112.191 22.4908 112.796 22.3267 113.485 22.3267C114.174 22.3267 114.778 22.4908 115.295 22.8189C115.815 23.147 116.219 23.6077 116.508 24.201C116.799 24.7943 116.945 25.4886 116.945 26.2841C116.945 27.0729 116.799 27.7623 116.508 28.3523C116.219 28.9422 115.815 29.4013 115.295 29.7294C114.778 30.0575 114.174 30.2216 113.485 30.2216ZM113.485 29.1676C114.009 29.1676 114.44 29.0334 114.778 28.7649C115.116 28.4964 115.366 28.1435 115.528 27.706C115.691 27.2685 115.772 26.7945 115.772 26.2841C115.772 25.7737 115.691 25.2981 115.528 24.8572C115.366 24.4164 115.116 24.0601 114.778 23.7884C114.44 23.5166 114.009 23.3807 113.485 23.3807C112.961 23.3807 112.53 23.5166 112.192 23.7884C111.854 24.0601 111.604 24.4164 111.442 24.8572C111.279 25.2981 111.198 25.7737 111.198 26.2841C111.198 26.7945 111.279 27.2685 111.442 27.706C111.604 28.1435 111.854 28.4964 112.192 28.7649C112.53 29.0334 112.961 29.1676 113.485 29.1676ZM119.79 25.4688V30.0625H118.616V22.4261H119.75V23.6193H119.849C120.028 23.2315 120.3 22.92 120.665 22.6847C121.029 22.446 121.5 22.3267 122.077 22.3267C122.594 22.3267 123.046 22.4328 123.434 22.6449C123.822 22.8537 124.123 23.1719 124.339 23.5994C124.554 24.0237 124.662 24.5606 124.662 25.2102V30.0625H123.488V25.2898C123.488 24.6899 123.333 24.2225 123.021 23.8878C122.71 23.5497 122.282 23.3807 121.738 23.3807C121.364 23.3807 121.029 23.4619 120.734 23.6243C120.443 23.7867 120.212 24.0237 120.043 24.3352C119.874 24.6468 119.79 25.0246 119.79 25.4688Z" fill="white"/>
  <path d="M20.3949 41.4261V42.4205H16.4375V41.4261H20.3949ZM17.5909 39.5966H18.7642V46.875C18.7642 47.2064 18.8123 47.455 18.9084 47.6207C19.0078 47.7831 19.1338 47.8925 19.2862 47.9489C19.442 48.0019 19.6061 48.0284 19.7784 48.0284C19.9077 48.0284 20.0137 48.0218 20.0966 48.0085C20.1795 47.992 20.2457 47.9787 20.2955 47.9688L20.5341 49.0227C20.4545 49.0526 20.3435 49.0824 20.201 49.1122C20.0585 49.1454 19.8778 49.1619 19.6591 49.1619C19.3277 49.1619 19.0028 49.0907 18.6847 48.9482C18.3698 48.8056 18.108 48.5885 17.8991 48.2969C17.6937 48.0052 17.5909 47.6373 17.5909 47.1932V39.5966ZM25.06 49.2216C24.3706 49.2216 23.7658 49.0575 23.2454 48.7294C22.7284 48.4013 22.324 47.9422 22.0323 47.3523C21.744 46.7623 21.5998 46.0729 21.5998 45.2841C21.5998 44.4886 21.744 43.7943 22.0323 43.201C22.324 42.6077 22.7284 42.147 23.2454 41.8189C23.7658 41.4908 24.3706 41.3267 25.06 41.3267C25.7494 41.3267 26.3527 41.4908 26.8697 41.8189C27.3901 42.147 27.7944 42.6077 28.0828 43.201C28.3744 43.7943 28.5203 44.4886 28.5203 45.2841C28.5203 46.0729 28.3744 46.7623 28.0828 47.3523C27.7944 47.9422 27.3901 48.4013 26.8697 48.7294C26.3527 49.0575 25.7494 49.2216 25.06 49.2216ZM25.06 48.1676C25.5837 48.1676 26.0146 48.0334 26.3527 47.7649C26.6907 47.4964 26.941 47.1435 27.1034 46.706C27.2658 46.2685 27.347 45.7945 27.347 45.2841C27.347 44.7737 27.2658 44.2981 27.1034 43.8572C26.941 43.4164 26.6907 43.0601 26.3527 42.7884C26.0146 42.5166 25.5837 42.3807 25.06 42.3807C24.5364 42.3807 24.1055 42.5166 23.7674 42.7884C23.4294 43.0601 23.1791 43.4164 23.0167 43.8572C22.8543 44.2981 22.7731 44.7737 22.7731 45.2841C22.7731 45.7945 22.8543 46.2685 23.0167 46.706C23.1791 47.1435 23.4294 47.4964 23.7674 47.7649C24.1055 48.0334 24.5364 48.1676 25.06 48.1676ZM30.1913 51.9261V41.4261H31.3248V42.6392H31.464C31.5502 42.5066 31.6695 42.3376 31.822 42.1321C31.9777 41.9233 32.1998 41.7377 32.4882 41.5753C32.7798 41.4096 33.1742 41.3267 33.6714 41.3267C34.3144 41.3267 34.8812 41.4875 35.3717 41.8089C35.8622 42.1304 36.245 42.5862 36.5201 43.1761C36.7952 43.7661 36.9328 44.4621 36.9328 45.2642C36.9328 46.0729 36.7952 46.7739 36.5201 47.3672C36.245 47.9571 35.8639 48.4145 35.3767 48.7393C34.8894 49.0608 34.3276 49.2216 33.6913 49.2216C33.2008 49.2216 32.808 49.1404 32.513 48.978C32.218 48.8123 31.991 48.625 31.8319 48.4162C31.6728 48.2041 31.5502 48.0284 31.464 47.8892H31.3646V51.9261H30.1913ZM31.3447 45.2443C31.3447 45.821 31.4292 46.3298 31.5982 46.7706C31.7673 47.2081 32.0142 47.5511 32.339 47.7997C32.6638 48.045 33.0616 48.1676 33.5322 48.1676C34.0227 48.1676 34.4321 48.0384 34.7602 47.7798C35.0916 47.518 35.3402 47.1667 35.5059 46.7259C35.675 46.2817 35.7595 45.7879 35.7595 45.2443C35.7595 44.7074 35.6766 44.2235 35.5109 43.7926C35.3485 43.3584 35.1016 43.0154 34.7701 42.7635C34.442 42.5083 34.0294 42.3807 33.5322 42.3807C33.0549 42.3807 32.6539 42.5017 32.3291 42.7436C32.0043 42.9822 31.759 43.317 31.5933 43.7479C31.4276 44.1754 31.3447 44.6742 31.3447 45.2443ZM38.6025 49.0625V41.4261H39.7758V49.0625H38.6025ZM39.1991 40.1534C38.9704 40.1534 38.7732 40.0755 38.6075 39.9197C38.4451 39.764 38.3639 39.5767 38.3639 39.358C38.3639 39.1392 38.4451 38.9519 38.6075 38.7962C38.7732 38.6404 38.9704 38.5625 39.1991 38.5625C39.4278 38.5625 39.6234 38.6404 39.7858 38.7962C39.9515 38.9519 40.0344 39.1392 40.0344 39.358C40.0344 39.5767 39.9515 39.764 39.7858 39.9197C39.6234 40.0755 39.4278 40.1534 39.1991 40.1534ZM44.9071 49.2216C44.1912 49.2216 43.5747 49.0526 43.0576 48.7145C42.5406 48.3764 42.1429 47.9107 41.8645 47.3175C41.5861 46.7242 41.4468 46.0464 41.4468 45.2841C41.4468 44.5085 41.5894 43.8241 41.8744 43.2308C42.1628 42.6342 42.5638 42.1686 43.0775 41.8338C43.5946 41.4957 44.1978 41.3267 44.8872 41.3267C45.4241 41.3267 45.908 41.4261 46.3389 41.625C46.7698 41.8239 47.1227 42.1023 47.3978 42.4602C47.6729 42.8182 47.8436 43.2358 47.9099 43.7131H46.7366C46.6471 43.3651 46.4483 43.0568 46.14 42.7884C45.8351 42.5166 45.4241 42.3807 44.9071 42.3807C44.4497 42.3807 44.0486 42.5 43.7039 42.7386C43.3626 42.974 43.0958 43.3071 42.9035 43.7379C42.7146 44.1655 42.6201 44.6676 42.6201 45.2443C42.6201 45.8343 42.7129 46.348 42.8986 46.7855C43.0875 47.223 43.3526 47.5627 43.694 47.8047C44.0387 48.0466 44.4431 48.1676 44.9071 48.1676C45.212 48.1676 45.4888 48.1146 45.7373 48.0085C45.9859 47.9025 46.1964 47.75 46.3687 47.5511C46.5411 47.3523 46.6637 47.1136 46.7366 46.8352H47.9099C47.8436 47.286 47.6796 47.692 47.4177 48.0533C47.1592 48.4112 46.8162 48.6963 46.3886 48.9084C45.9644 49.1172 45.4705 49.2216 44.9071 49.2216ZM56.4249 49.2216C55.7355 49.2216 55.1306 49.0575 54.6103 48.7294C54.0932 48.4013 53.6889 47.9422 53.3972 47.3523C53.1088 46.7623 52.9647 46.0729 52.9647 45.2841C52.9647 44.4886 53.1088 43.7943 53.3972 43.201C53.6889 42.6077 54.0932 42.147 54.6103 41.8189C55.1306 41.4908 55.7355 41.3267 56.4249 41.3267C57.1143 41.3267 57.7175 41.4908 58.2345 41.8189C58.7549 42.147 59.1593 42.6077 59.4476 43.201C59.7393 43.7943 59.8851 44.4886 59.8851 45.2841C59.8851 46.0729 59.7393 46.7623 59.4476 47.3523C59.1593 47.9422 58.7549 48.4013 58.2345 48.7294C57.7175 49.0575 57.1143 49.2216 56.4249 49.2216ZM56.4249 48.1676C56.9486 48.1676 57.3794 48.0334 57.7175 47.7649C58.0556 47.4964 58.3058 47.1435 58.4682 46.706C58.6306 46.2685 58.7118 45.7945 58.7118 45.2841C58.7118 44.7737 58.6306 44.2981 58.4682 43.8572C58.3058 43.4164 58.0556 43.0601 57.7175 42.7884C57.3794 42.5166 56.9486 42.3807 56.4249 42.3807C55.9012 42.3807 55.4703 42.5166 55.1323 42.7884C54.7942 43.0601 54.544 43.4164 54.3816 43.8572C54.2192 44.2981 54.138 44.7737 54.138 45.2841C54.138 45.7945 54.2192 46.2685 54.3816 46.706C54.544 47.1435 54.7942 47.4964 55.1323 47.7649C55.4703 48.0334 55.9012 48.1676 56.4249 48.1676ZM64.9567 41.4261V42.4205H60.8402V41.4261H64.9567ZM62.0732 49.0625V40.3722C62.0732 39.9347 62.1759 39.5701 62.3814 39.2784C62.5869 38.9867 62.8537 38.768 63.1818 38.6222C63.51 38.4763 63.8563 38.4034 64.2209 38.4034C64.5093 38.4034 64.7446 38.4266 64.9269 38.473C65.1092 38.5194 65.245 38.5625 65.3345 38.6023L64.9965 39.6165C64.9368 39.5966 64.854 39.5717 64.7479 39.5419C64.6451 39.5121 64.5093 39.4972 64.3402 39.4972C63.9524 39.4972 63.6724 39.5949 63.5 39.7905C63.331 39.986 63.2465 40.2727 63.2465 40.6506V49.0625H62.0732ZM78.5315 38.8807V49.0625H77.3383L71.79 41.0682H71.6906V49.0625H70.4576V38.8807H71.6508L77.219 46.8949H77.3184V38.8807H78.5315ZM80.8787 49.0625V38.8807H82.1116V47.9688H86.8446V49.0625H80.8787ZM88.6337 49.0625V38.8807H92.074C92.8728 38.8807 93.5257 39.0249 94.0328 39.3132C94.5432 39.5982 94.9211 39.9844 95.1663 40.4716C95.4116 40.9588 95.5342 41.5024 95.5342 42.1023C95.5342 42.7022 95.4116 43.2474 95.1663 43.7379C94.9244 44.2285 94.5499 44.6196 94.0427 44.9112C93.5356 45.1996 92.886 45.3438 92.0939 45.3438H89.628V44.25H92.0541C92.601 44.25 93.0401 44.1555 93.3716 43.9666C93.703 43.7777 93.9433 43.5225 94.0925 43.201C94.2449 42.8762 94.3212 42.5099 94.3212 42.1023C94.3212 41.6946 94.2449 41.33 94.0925 41.0085C93.9433 40.687 93.7014 40.4351 93.3666 40.2528C93.0319 40.0672 92.5877 39.9744 92.0342 39.9744H89.8666V49.0625H88.6337ZM101.059 49.0625V41.4261H102.192V42.6193H102.292C102.451 42.2116 102.708 41.8951 103.062 41.6697C103.417 41.4411 103.843 41.3267 104.34 41.3267C104.844 41.3267 105.263 41.4411 105.598 41.6697C105.936 41.8951 106.199 42.2116 106.388 42.6193H106.468C106.663 42.2249 106.957 41.9117 107.348 41.6797C107.739 41.4444 108.208 41.3267 108.755 41.3267C109.438 41.3267 109.996 41.5405 110.43 41.968C110.864 42.3923 111.082 43.0535 111.082 43.9517V49.0625H109.908V43.9517C109.908 43.3883 109.754 42.9856 109.446 42.7436C109.138 42.5017 108.775 42.3807 108.357 42.3807C107.82 42.3807 107.404 42.5431 107.109 42.8679C106.814 43.1894 106.667 43.5971 106.667 44.0909V49.0625H105.474V43.8324C105.474 43.3982 105.333 43.0485 105.051 42.7834C104.769 42.5149 104.406 42.3807 103.962 42.3807C103.657 42.3807 103.372 42.4619 103.107 42.6243C102.845 42.7867 102.633 43.0121 102.471 43.3004C102.312 43.5855 102.232 43.9152 102.232 44.2898V49.0625H101.059ZM116.209 49.2216C115.52 49.2216 114.915 49.0575 114.394 48.7294C113.877 48.4013 113.473 47.9422 113.181 47.3523C112.893 46.7623 112.749 46.0729 112.749 45.2841C112.749 44.4886 112.893 43.7943 113.181 43.201C113.473 42.6077 113.877 42.147 114.394 41.8189C114.915 41.4908 115.52 41.3267 116.209 41.3267C116.898 41.3267 117.502 41.4908 118.019 41.8189C118.539 42.147 118.943 42.6077 119.232 43.201C119.523 43.7943 119.669 44.4886 119.669 45.2841C119.669 46.0729 119.523 46.7623 119.232 47.3523C118.943 47.9422 118.539 48.4013 118.019 48.7294C117.502 49.0575 116.898 49.2216 116.209 49.2216ZM116.209 48.1676C116.733 48.1676 117.164 48.0334 117.502 47.7649C117.84 47.4964 118.09 47.1435 118.252 46.706C118.415 46.2685 118.496 45.7945 118.496 45.2841C118.496 44.7737 118.415 44.2981 118.252 43.8572C118.09 43.4164 117.84 43.0601 117.502 42.7884C117.164 42.5166 116.733 42.3807 116.209 42.3807C115.685 42.3807 115.254 42.5166 114.916 42.7884C114.578 43.0601 114.328 43.4164 114.166 43.8572C114.003 44.2981 113.922 44.7737 113.922 45.2841C113.922 45.7945 114.003 46.2685 114.166 46.706C114.328 47.1435 114.578 47.4964 114.916 47.7649C115.254 48.0334 115.685 48.1676 116.209 48.1676ZM124.224 49.2216C123.587 49.2216 123.026 49.0608 122.538 48.7393C122.051 48.4145 121.67 47.9571 121.395 47.3672C121.12 46.7739 120.982 46.0729 120.982 45.2642C120.982 44.4621 121.12 43.7661 121.395 43.1761C121.67 42.5862 122.053 42.1304 122.543 41.8089C123.034 41.4875 123.601 41.3267 124.244 41.3267C124.741 41.3267 125.134 41.4096 125.422 41.5753C125.714 41.7377 125.936 41.9233 126.088 42.1321C126.244 42.3376 126.365 42.5066 126.451 42.6392H126.55V38.8807H127.724V49.0625H126.59V47.8892H126.451C126.365 48.0284 126.242 48.2041 126.083 48.4162C125.924 48.625 125.697 48.8123 125.402 48.978C125.107 49.1404 124.714 49.2216 124.224 49.2216ZM124.383 48.1676C124.854 48.1676 125.251 48.045 125.576 47.7997C125.901 47.5511 126.148 47.2081 126.317 46.7706C126.486 46.3298 126.57 45.821 126.57 45.2443C126.57 44.6742 126.488 44.1754 126.322 43.7479C126.156 43.317 125.911 42.9822 125.586 42.7436C125.261 42.5017 124.86 42.3807 124.383 42.3807C123.886 42.3807 123.471 42.5083 123.14 42.7635C122.812 43.0154 122.565 43.3584 122.399 43.7926C122.237 44.2235 122.156 44.7074 122.156 45.2443C122.156 45.7879 122.238 46.2817 122.404 46.7259C122.573 47.1667 122.822 47.518 123.15 47.7798C123.481 48.0384 123.892 48.1676 124.383 48.1676ZM134.728 45.9403V41.4261H135.901V49.0625H134.728V47.7699H134.649C134.47 48.1577 134.191 48.4875 133.813 48.7592C133.435 49.0277 132.958 49.1619 132.381 49.1619C131.904 49.1619 131.48 49.0575 131.109 48.8487C130.738 48.6366 130.446 48.3184 130.234 47.8942C130.022 47.4666 129.916 46.928 129.916 46.2784V41.4261H131.089V46.1989C131.089 46.7557 131.245 47.1998 131.556 47.5312C131.871 47.8627 132.272 48.0284 132.759 48.0284C133.051 48.0284 133.348 47.9538 133.649 47.8047C133.954 47.6555 134.209 47.4268 134.415 47.1186C134.624 46.8104 134.728 46.4176 134.728 45.9403ZM139.104 38.8807V49.0625H137.93V38.8807H139.104ZM144.334 49.2216C143.599 49.2216 142.964 49.0592 142.43 48.7344C141.9 48.4062 141.491 47.9489 141.202 47.3622C140.917 46.7723 140.775 46.0862 140.775 45.304C140.775 44.5218 140.917 43.8324 141.202 43.2358C141.491 42.6359 141.892 42.1686 142.405 41.8338C142.922 41.4957 143.526 41.3267 144.215 41.3267C144.613 41.3267 145.005 41.393 145.393 41.5256C145.781 41.6581 146.134 41.8736 146.452 42.1719C146.77 42.4669 147.024 42.858 147.213 43.3452C147.402 43.8324 147.496 44.4323 147.496 45.1449V45.642H141.61V44.6278H146.303C146.303 44.197 146.217 43.8125 146.045 43.4744C145.876 43.1364 145.634 42.8696 145.319 42.674C145.007 42.4785 144.639 42.3807 144.215 42.3807C143.748 42.3807 143.343 42.4967 143.002 42.7287C142.664 42.9574 142.404 43.2557 142.221 43.6236C142.039 43.9915 141.948 44.3859 141.948 44.8068V45.483C141.948 46.0597 142.047 46.5485 142.246 46.9496C142.448 47.3473 142.728 47.6506 143.086 47.8594C143.444 48.0649 143.86 48.1676 144.334 48.1676C144.643 48.1676 144.921 48.1245 145.17 48.0384C145.421 47.9489 145.639 47.8163 145.821 47.6406C146.003 47.4616 146.144 47.2396 146.243 46.9744L147.377 47.2926C147.258 47.6771 147.057 48.0152 146.775 48.3068C146.494 48.5952 146.146 48.8205 145.731 48.983C145.317 49.142 144.851 49.2216 144.334 49.2216ZM20.4744 61.4261V62.4205H16.358V61.4261H20.4744ZM17.5909 69.0625V60.3722C17.5909 59.9347 17.6937 59.5701 17.8991 59.2784C18.1046 58.9867 18.3714 58.768 18.6996 58.6222C19.0277 58.4763 19.3741 58.4034 19.7386 58.4034C20.027 58.4034 20.2623 58.4266 20.4446 58.473C20.6269 58.5194 20.7628 58.5625 20.8523 58.6023L20.5142 59.6165C20.4545 59.5966 20.3717 59.5717 20.2656 59.5419C20.1629 59.5121 20.027 59.4972 19.858 59.4972C19.4702 59.4972 19.1901 59.5949 19.0178 59.7905C18.8487 59.986 18.7642 60.2727 18.7642 60.6506V69.0625H17.5909ZM24.7866 69.2216C24.0972 69.2216 23.4923 69.0575 22.972 68.7294C22.4549 68.4013 22.0506 67.9422 21.7589 67.3523C21.4706 66.7623 21.3264 66.0729 21.3264 65.2841C21.3264 64.4886 21.4706 63.7943 21.7589 63.201C22.0506 62.6077 22.4549 62.147 22.972 61.8189C23.4923 61.4908 24.0972 61.3267 24.7866 61.3267C25.476 61.3267 26.0792 61.4908 26.5963 61.8189C27.1166 62.147 27.521 62.6077 27.8093 63.201C28.101 63.7943 28.2468 64.4886 28.2468 65.2841C28.2468 66.0729 28.101 66.7623 27.8093 67.3523C27.521 67.9422 27.1166 68.4013 26.5963 68.7294C26.0792 69.0575 25.476 69.2216 24.7866 69.2216ZM24.7866 68.1676C25.3103 68.1676 25.7412 68.0334 26.0792 67.7649C26.4173 67.4964 26.6675 67.1435 26.8299 66.706C26.9923 66.2685 27.0735 65.7945 27.0735 65.2841C27.0735 64.7737 26.9923 64.2981 26.8299 63.8572C26.6675 63.4164 26.4173 63.0601 26.0792 62.7884C25.7412 62.5166 25.3103 62.3807 24.7866 62.3807C24.2629 62.3807 23.8321 62.5166 23.494 62.7884C23.1559 63.0601 22.9057 63.4164 22.7433 63.8572C22.5809 64.2981 22.4997 64.7737 22.4997 65.2841C22.4997 65.7945 22.5809 66.2685 22.7433 66.706C22.9057 67.1435 23.1559 67.4964 23.494 67.7649C23.8321 68.0334 24.2629 68.1676 24.7866 68.1676ZM29.9178 69.0625V61.4261H31.0514V62.5795H31.1309C31.2701 62.2017 31.522 61.8951 31.8866 61.6598C32.2512 61.4245 32.6622 61.3068 33.1196 61.3068C33.2057 61.3068 33.3134 61.3085 33.4427 61.3118C33.572 61.3151 33.6697 61.3201 33.736 61.3267V62.5199C33.6963 62.5099 33.6051 62.495 33.4626 62.4751C33.3234 62.4519 33.1759 62.4403 33.0201 62.4403C32.6489 62.4403 32.3175 62.5182 32.0258 62.674C31.7375 62.8265 31.5088 63.0386 31.3397 63.3104C31.174 63.5788 31.0911 63.8854 31.0911 64.2301V69.0625H29.9178ZM44.2334 63.1364L43.1794 63.4347C43.1132 63.259 43.0154 63.0883 42.8861 62.9226C42.7602 62.7536 42.5878 62.6143 42.3691 62.505C42.1503 62.3956 41.8703 62.3409 41.5289 62.3409C41.0615 62.3409 40.6721 62.4486 40.3606 62.6641C40.0523 62.8762 39.8982 63.1463 39.8982 63.4744C39.8982 63.7661 40.0043 63.9964 40.2164 64.1655C40.4285 64.3345 40.7599 64.4754 41.2107 64.5881L42.3442 64.8665C43.027 65.0322 43.5357 65.2857 43.8705 65.6271C44.2053 65.9652 44.3726 66.401 44.3726 66.9347C44.3726 67.3722 44.2467 67.7633 43.9948 68.108C43.7462 68.4527 43.3982 68.7244 42.9508 68.9233C42.5033 69.1222 41.983 69.2216 41.3897 69.2216C40.6108 69.2216 39.9661 69.0526 39.4557 68.7145C38.9453 68.3764 38.6222 67.8826 38.4863 67.233L39.5999 66.9545C39.706 67.3655 39.9065 67.6738 40.2015 67.8793C40.4998 68.0848 40.8892 68.1875 41.3698 68.1875C41.9167 68.1875 42.3508 68.0715 42.6723 67.8395C42.9972 67.6042 43.1596 67.3224 43.1596 66.9943C43.1596 66.7292 43.0668 66.5071 42.8812 66.3281C42.6955 66.1458 42.4105 66.0099 42.026 65.9205L40.7533 65.6222C40.054 65.4564 39.5402 65.1996 39.2121 64.8516C38.8873 64.5002 38.7249 64.0611 38.7249 63.5341C38.7249 63.1032 38.8459 62.7221 39.0878 62.3906C39.3331 62.0592 39.6662 61.799 40.0871 61.6101C40.5114 61.4212 40.9919 61.3267 41.5289 61.3267C42.2846 61.3267 42.8778 61.4924 43.3087 61.8239C43.7429 62.1553 44.0511 62.5928 44.2334 63.1364ZM50.8313 65.9403V61.4261H52.0046V69.0625H50.8313V67.7699H50.7517C50.5728 68.1577 50.2944 68.4875 49.9165 68.7592C49.5387 69.0277 49.0614 69.1619 48.4847 69.1619C48.0074 69.1619 47.5832 69.0575 47.212 68.8487C46.8408 68.6366 46.5491 68.3184 46.337 67.8942C46.1248 67.4666 46.0188 66.928 46.0188 66.2784V61.4261H47.1921V66.1989C47.1921 66.7557 47.3479 67.1998 47.6594 67.5312C47.9743 67.8627 48.3753 68.0284 48.8625 68.0284C49.1542 68.0284 49.4508 67.9538 49.7525 67.8047C50.0574 67.6555 50.3126 67.4268 50.5181 67.1186C50.7269 66.8104 50.8313 66.4176 50.8313 65.9403ZM57.1159 72.0852C56.5492 72.0852 56.062 72.0123 55.6543 71.8665C55.2466 71.724 54.9069 71.535 54.6351 71.2997C54.3666 71.0677 54.1529 70.8191 53.9938 70.554L54.9284 69.8977C55.0345 70.0369 55.1687 70.196 55.3311 70.375C55.4935 70.5573 55.7156 70.7147 55.9973 70.8473C56.2824 70.9832 56.6552 71.0511 57.1159 71.0511C57.7324 71.0511 58.2412 70.902 58.6422 70.6037C59.0433 70.3054 59.2438 69.8381 59.2438 69.2017V67.6506H59.1443C59.0582 67.7898 58.9355 67.9621 58.7764 68.1676C58.6207 68.3698 58.3953 68.5504 58.1003 68.7095C57.8086 68.8653 57.4142 68.9432 56.9171 68.9432C56.3006 68.9432 55.7471 68.7973 55.2566 68.5057C54.7693 68.214 54.3832 67.7898 54.0982 67.233C53.8165 66.6761 53.6756 66 53.6756 65.2045C53.6756 64.4223 53.8131 63.7412 54.0882 63.1612C54.3633 62.5779 54.7461 62.1271 55.2367 61.8089C55.7272 61.4875 56.294 61.3267 56.937 61.3267C57.4341 61.3267 57.8285 61.4096 58.1202 61.5753C58.4152 61.7377 58.6406 61.9233 58.7963 62.1321C58.9554 62.3376 59.0781 62.5066 59.1642 62.6392H59.2836V61.4261H60.4171V69.2812C60.4171 69.9375 60.2679 70.4711 59.9696 70.8821C59.6746 71.2964 59.2769 71.5997 58.7764 71.7919C58.2793 71.9875 57.7258 72.0852 57.1159 72.0852ZM57.0762 67.8892C57.5468 67.8892 57.9445 67.7815 58.2693 67.5661C58.5942 67.3506 58.8411 67.0407 59.0101 66.6364C59.1791 66.232 59.2637 65.7481 59.2637 65.1847C59.2637 64.6345 59.1808 64.1489 59.0151 63.728C58.8494 63.3071 58.6041 62.9773 58.2793 62.7386C57.9545 62.5 57.5534 62.3807 57.0762 62.3807C56.579 62.3807 56.1647 62.5066 55.8333 62.7585C55.5051 63.0104 55.2582 63.3485 55.0925 63.7727C54.9301 64.197 54.8489 64.6676 54.8489 65.1847C54.8489 65.715 54.9318 66.1839 55.0975 66.5916C55.2665 66.996 55.5151 67.3142 55.8432 67.5462C56.1746 67.7749 56.5856 67.8892 57.0762 67.8892ZM65.5272 72.0852C64.9604 72.0852 64.4732 72.0123 64.0655 71.8665C63.6579 71.724 63.3181 71.535 63.0464 71.2997C62.7779 71.0677 62.5641 70.8191 62.405 70.554L63.3397 69.8977C63.4457 70.0369 63.58 70.196 63.7424 70.375C63.9048 70.5573 64.1269 70.7147 64.4086 70.8473C64.6936 70.9832 65.0665 71.0511 65.5272 71.0511C66.1437 71.0511 66.6524 70.902 67.0535 70.6037C67.4545 70.3054 67.655 69.8381 67.655 69.2017V67.6506H67.5556C67.4694 67.7898 67.3468 67.9621 67.1877 68.1676C67.0319 68.3698 66.8065 68.5504 66.5116 68.7095C66.2199 68.8653 65.8255 68.9432 65.3283 68.9432C64.7118 68.9432 64.1583 68.7973 63.6678 68.5057C63.1806 68.214 62.7945 67.7898 62.5094 67.233C62.2277 66.6761 62.0868 66 62.0868 65.2045C62.0868 64.4223 62.2244 63.7412 62.4995 63.1612C62.7746 62.5779 63.1574 62.1271 63.6479 61.8089C64.1385 61.4875 64.7052 61.3267 65.3482 61.3267C65.8454 61.3267 66.2398 61.4096 66.5314 61.5753C66.8264 61.7377 67.0518 61.9233 67.2076 62.1321C67.3667 62.3376 67.4893 62.5066 67.5755 62.6392H67.6948V61.4261H68.8283V69.2812C68.8283 69.9375 68.6792 70.4711 68.3809 70.8821C68.0859 71.2964 67.6882 71.5997 67.1877 71.7919C66.6905 71.9875 66.137 72.0852 65.5272 72.0852ZM65.4874 67.8892C65.9581 67.8892 66.3558 67.7815 66.6806 67.5661C67.0054 67.3506 67.2523 67.0407 67.4214 66.6364C67.5904 66.232 67.6749 65.7481 67.6749 65.1847C67.6749 64.6345 67.5921 64.1489 67.4263 63.728C67.2606 63.3071 67.0154 62.9773 66.6905 62.7386C66.3657 62.5 65.9647 62.3807 65.4874 62.3807C64.9903 62.3807 64.576 62.5066 64.2445 62.7585C63.9164 63.0104 63.6695 63.3485 63.5037 63.7727C63.3413 64.197 63.2601 64.6676 63.2601 65.1847C63.2601 65.715 63.343 66.1839 63.5087 66.5916C63.6778 66.996 63.9263 67.3142 64.2545 67.5462C64.5859 67.7749 64.9969 67.8892 65.4874 67.8892ZM74.0578 69.2216C73.322 69.2216 72.6873 69.0592 72.1536 68.7344C71.6233 68.4062 71.214 67.9489 70.9257 67.3622C70.6406 66.7723 70.4981 66.0862 70.4981 65.304C70.4981 64.5218 70.6406 63.8324 70.9257 63.2358C71.214 62.6359 71.615 62.1686 72.1288 61.8338C72.6458 61.4957 73.249 61.3267 73.9384 61.3267C74.3362 61.3267 74.7289 61.393 75.1167 61.5256C75.5045 61.6581 75.8575 61.8736 76.1757 62.1719C76.4938 62.4669 76.7474 62.858 76.9363 63.3452C77.1252 63.8324 77.2197 64.4323 77.2197 65.1449V65.642H71.3333V64.6278H76.0265C76.0265 64.197 75.9403 63.8125 75.768 63.4744C75.5989 63.1364 75.357 62.8696 75.0421 62.674C74.7306 62.4785 74.3627 62.3807 73.9384 62.3807C73.4711 62.3807 73.0668 62.4967 72.7254 62.7287C72.3873 62.9574 72.1271 63.2557 71.9448 63.6236C71.7625 63.9915 71.6714 64.3859 71.6714 64.8068V65.483C71.6714 66.0597 71.7708 66.5485 71.9697 66.9496C72.1719 67.3473 72.4519 67.6506 72.8099 67.8594C73.1678 68.0649 73.5838 68.1676 74.0578 68.1676C74.366 68.1676 74.6444 68.1245 74.893 68.0384C75.1449 67.9489 75.362 67.8163 75.5443 67.6406C75.7266 67.4616 75.8674 67.2396 75.9668 66.9744L77.1004 67.2926C76.9811 67.6771 76.7805 68.0152 76.4988 68.3068C76.2171 68.5952 75.8691 68.8205 75.4548 68.983C75.0405 69.142 74.5748 69.2216 74.0578 69.2216ZM84.2936 63.1364L83.2396 63.4347C83.1733 63.259 83.0755 63.0883 82.9463 62.9226C82.8203 62.7536 82.648 62.6143 82.4292 62.505C82.2105 62.3956 81.9304 62.3409 81.589 62.3409C81.1217 62.3409 80.7323 62.4486 80.4207 62.6641C80.1125 62.8762 79.9584 63.1463 79.9584 63.4744C79.9584 63.7661 80.0644 63.9964 80.2765 64.1655C80.4887 64.3345 80.8201 64.4754 81.2709 64.5881L82.4044 64.8665C83.0871 65.0322 83.5959 65.2857 83.9307 65.6271C84.2654 65.9652 84.4328 66.401 84.4328 66.9347C84.4328 67.3722 84.3068 67.7633 84.0549 68.108C83.8064 68.4527 83.4584 68.7244 83.0109 68.9233C82.5635 69.1222 82.0431 69.2216 81.4498 69.2216C80.6709 69.2216 80.0263 69.0526 79.5159 68.7145C79.0055 68.3764 78.6823 67.8826 78.5464 67.233L79.6601 66.9545C79.7661 67.3655 79.9666 67.6738 80.2616 67.8793C80.5599 68.0848 80.9494 68.1875 81.4299 68.1875C81.9768 68.1875 82.411 68.0715 82.7325 67.8395C83.0573 67.6042 83.2197 67.3224 83.2197 66.9943C83.2197 66.7292 83.1269 66.5071 82.9413 66.3281C82.7557 66.1458 82.4707 66.0099 82.0862 65.9205L80.8135 65.6222C80.1141 65.4564 79.6004 65.1996 79.2723 64.8516C78.9475 64.5002 78.7851 64.0611 78.7851 63.5341C78.7851 63.1032 78.906 62.7221 79.148 62.3906C79.3932 62.0592 79.7263 61.799 80.1473 61.6101C80.5715 61.4212 81.0521 61.3267 81.589 61.3267C82.3447 61.3267 82.938 61.4924 83.3689 61.8239C83.803 62.1553 84.1113 62.5928 84.2936 63.1364ZM89.4 61.4261V62.4205H85.4426V61.4261H89.4ZM86.596 59.5966H87.7693V66.875C87.7693 67.2064 87.8173 67.455 87.9135 67.6207C88.0129 67.7831 88.1388 67.8925 88.2913 67.9489C88.4471 68.0019 88.6111 68.0284 88.7835 68.0284C88.9128 68.0284 89.0188 68.0218 89.1017 68.0085C89.1845 67.992 89.2508 67.9787 89.3005 67.9688L89.5392 69.0227C89.4596 69.0526 89.3486 69.0824 89.2061 69.1122C89.0636 69.1454 88.8829 69.1619 88.6642 69.1619C88.3327 69.1619 88.0079 69.0907 87.6897 68.9482C87.3749 68.8056 87.113 68.5885 86.9042 68.2969C86.6987 68.0052 86.596 67.6373 86.596 67.1932V59.5966ZM91.0449 69.0625V61.4261H92.2182V69.0625H91.0449ZM91.6415 60.1534C91.4128 60.1534 91.2156 60.0755 91.0499 59.9197C90.8874 59.764 90.8062 59.5767 90.8062 59.358C90.8062 59.1392 90.8874 58.9519 91.0499 58.7962C91.2156 58.6404 91.4128 58.5625 91.6415 58.5625C91.8702 58.5625 92.0657 58.6404 92.2281 58.7962C92.3938 58.9519 92.4767 59.1392 92.4767 59.358C92.4767 59.5767 92.3938 59.764 92.2281 59.9197C92.0657 60.0755 91.8702 60.1534 91.6415 60.1534ZM97.3494 69.2216C96.66 69.2216 96.0551 69.0575 95.5348 68.7294C95.0177 68.4013 94.6134 67.9422 94.3217 67.3523C94.0334 66.7623 93.8892 66.0729 93.8892 65.2841C93.8892 64.4886 94.0334 63.7943 94.3217 63.201C94.6134 62.6077 95.0177 62.147 95.5348 61.8189C96.0551 61.4908 96.66 61.3267 97.3494 61.3267C98.0388 61.3267 98.642 61.4908 99.1591 61.8189C99.6794 62.147 100.084 62.6077 100.372 63.201C100.664 63.7943 100.81 64.4886 100.81 65.2841C100.81 66.0729 100.664 66.7623 100.372 67.3523C100.084 67.9422 99.6794 68.4013 99.1591 68.7294C98.642 69.0575 98.0388 69.2216 97.3494 69.2216ZM97.3494 68.1676C97.8731 68.1676 98.304 68.0334 98.642 67.7649C98.9801 67.4964 99.2303 67.1435 99.3927 66.706C99.5551 66.2685 99.6363 65.7945 99.6363 65.2841C99.6363 64.7737 99.5551 64.2981 99.3927 63.8572C99.2303 63.4164 98.9801 63.0601 98.642 62.7884C98.304 62.5166 97.8731 62.3807 97.3494 62.3807C96.8257 62.3807 96.3949 62.5166 96.0568 62.7884C95.7187 63.0601 95.4685 63.4164 95.3061 63.8572C95.1437 64.2981 95.0625 64.7737 95.0625 65.2841C95.0625 65.7945 95.1437 66.2685 95.3061 66.706C95.4685 67.1435 95.7187 67.4964 96.0568 67.7649C96.3949 68.0334 96.8257 68.1676 97.3494 68.1676ZM103.654 64.4688V69.0625H102.481V61.4261H103.614V62.6193H103.714C103.893 62.2315 104.164 61.92 104.529 61.6847C104.894 61.446 105.364 61.3267 105.941 61.3267C106.458 61.3267 106.91 61.4328 107.298 61.6449C107.686 61.8537 107.988 62.1719 108.203 62.5994C108.418 63.0237 108.526 63.5606 108.526 64.2102V69.0625H107.353V64.2898C107.353 63.6899 107.197 63.2225 106.885 62.8878C106.574 62.5497 106.146 62.3807 105.603 62.3807C105.228 62.3807 104.894 62.4619 104.599 62.6243C104.307 62.7867 104.077 63.0237 103.908 63.3352C103.738 63.6468 103.654 64.0246 103.654 64.4688ZM115.959 63.1364L114.905 63.4347C114.839 63.259 114.741 63.0883 114.612 62.9226C114.486 62.7536 114.314 62.6143 114.095 62.505C113.876 62.3956 113.596 62.3409 113.255 62.3409C112.787 62.3409 112.398 62.4486 112.086 62.6641C111.778 62.8762 111.624 63.1463 111.624 63.4744C111.624 63.7661 111.73 63.9964 111.942 64.1655C112.154 64.3345 112.486 64.4754 112.936 64.5881L114.07 64.8665C114.753 65.0322 115.262 65.2857 115.596 65.6271C115.931 65.9652 116.098 66.401 116.098 66.9347C116.098 67.3722 115.972 67.7633 115.721 68.108C115.472 68.4527 115.124 68.7244 114.677 68.9233C114.229 69.1222 113.709 69.2216 113.115 69.2216C112.337 69.2216 111.692 69.0526 111.182 68.7145C110.671 68.3764 110.348 67.8826 110.212 67.233L111.326 66.9545C111.432 67.3655 111.632 67.6738 111.927 67.8793C112.226 68.0848 112.615 68.1875 113.096 68.1875C113.642 68.1875 114.077 68.0715 114.398 67.8395C114.723 67.6042 114.885 67.3224 114.885 66.9943C114.885 66.7292 114.793 66.5071 114.607 66.3281C114.421 66.1458 114.136 66.0099 113.752 65.9205L112.479 65.6222C111.78 65.4564 111.266 65.1996 110.938 64.8516C110.613 64.5002 110.451 64.0611 110.451 63.5341C110.451 63.1032 110.572 62.7221 110.814 62.3906C111.059 62.0592 111.392 61.799 111.813 61.6101C112.237 61.4212 112.718 61.3267 113.255 61.3267C114.01 61.3267 114.604 61.4924 115.034 61.8239C115.469 62.1553 115.777 62.5928 115.959 63.1364Z" fill="white"/>
  <path opacity="0.5" d="M16.5 21.0625C16.5 19.1295 18.067 17.5625 20 17.5625H28C29.933 17.5625 31.5 19.1295 31.5 21.0625V29.0625C31.5 30.9955 29.933 32.5625 28 32.5625H20C18.067 32.5625 16.5 30.9955 16.5 29.0625V21.0625Z" stroke="white"/>
  <path opacity="0.5" d="M19.8523 90.1193C19.2898 90.1193 18.7884 90.0227 18.348 89.8295C17.9105 89.6364 17.5625 89.3679 17.304 89.0241C17.0483 88.6776 16.9091 88.2756 16.8864 87.8182H17.9602C17.983 88.0994 18.0795 88.3423 18.25 88.5469C18.4205 88.7486 18.6435 88.9048 18.919 89.0156C19.1946 89.1264 19.5 89.1818 19.8352 89.1818C20.2102 89.1818 20.5426 89.1165 20.8324 88.9858C21.1222 88.8551 21.3494 88.6733 21.5142 88.4403C21.679 88.2074 21.7614 87.9375 21.7614 87.6307C21.7614 87.3097 21.6818 87.027 21.5227 86.7827C21.3636 86.5355 21.1307 86.3423 20.8239 86.2031C20.517 86.0639 20.142 85.9943 19.6989 85.9943H19V85.0568H19.6989C20.0455 85.0568 20.3494 84.9943 20.6108 84.8693C20.875 84.7443 21.081 84.5682 21.2287 84.3409C21.3793 84.1136 21.4545 83.8466 21.4545 83.5398C21.4545 83.2443 21.3892 82.9872 21.2585 82.7685C21.1278 82.5497 20.9432 82.3793 20.7045 82.2571C20.4688 82.1349 20.1903 82.0739 19.8693 82.0739C19.5682 82.0739 19.2841 82.1293 19.017 82.2401C18.7528 82.348 18.5369 82.5057 18.3693 82.7131C18.2017 82.9176 18.1108 83.1648 18.0966 83.4545H17.0739C17.0909 82.9972 17.2287 82.5966 17.4872 82.2528C17.7457 81.9062 18.0838 81.6364 18.5014 81.4432C18.9219 81.25 19.3835 81.1534 19.8864 81.1534C20.4261 81.1534 20.8892 81.2628 21.2756 81.4815C21.6619 81.6974 21.9588 81.983 22.1662 82.3381C22.3736 82.6932 22.4773 83.0767 22.4773 83.4886C22.4773 83.9801 22.348 84.3991 22.0895 84.7457C21.8338 85.0923 21.4858 85.3324 21.0455 85.4659V85.5341C21.5966 85.625 22.027 85.8594 22.3366 86.2372C22.6463 86.6122 22.8011 87.0767 22.8011 87.6307C22.8011 88.1051 22.6719 88.5312 22.4134 88.9091C22.1577 89.2841 21.8082 89.5795 21.3651 89.7955C20.9219 90.0114 20.4176 90.1193 19.8523 90.1193ZM27.3906 90.1193C26.7486 90.1193 26.2017 89.9446 25.75 89.5952C25.2983 89.2429 24.9531 88.733 24.7145 88.0653C24.4759 87.3949 24.3565 86.5852 24.3565 85.6364C24.3565 84.6932 24.4759 83.8878 24.7145 83.2202C24.956 82.5497 25.3026 82.0384 25.7543 81.6861C26.2088 81.331 26.7543 81.1534 27.3906 81.1534C28.027 81.1534 28.571 81.331 29.0227 81.6861C29.4773 82.0384 29.8239 82.5497 30.0625 83.2202C30.304 83.8878 30.4247 84.6932 30.4247 85.6364C30.4247 86.5852 30.3054 87.3949 30.0668 88.0653C29.8281 88.733 29.483 89.2429 29.0312 89.5952C28.5795 89.9446 28.0327 90.1193 27.3906 90.1193ZM27.3906 89.1818C28.027 89.1818 28.5213 88.875 28.8736 88.2614C29.2259 87.6477 29.402 86.7727 29.402 85.6364C29.402 84.8807 29.321 84.2372 29.1591 83.706C29 83.1747 28.7699 82.7699 28.4688 82.4915C28.1705 82.2131 27.8111 82.0739 27.3906 82.0739C26.7599 82.0739 26.267 82.3849 25.9119 83.0071C25.5568 83.6264 25.3793 84.5028 25.3793 85.6364C25.3793 86.392 25.4588 87.0341 25.6179 87.5625C25.777 88.0909 26.0057 88.4929 26.304 88.7685C26.6051 89.044 26.9673 89.1818 27.3906 89.1818ZM38.9134 81.2727H39.9702V87.5114C39.9702 88.0682 39.8679 88.5412 39.6634 88.9304C39.4588 89.3196 39.1705 89.6151 38.7983 89.8168C38.4261 90.0185 37.9872 90.1193 37.4815 90.1193C37.0043 90.1193 36.5795 90.0327 36.2074 89.8594C35.8352 89.6832 35.5426 89.4332 35.3295 89.1094C35.1165 88.7855 35.0099 88.4006 35.0099 87.9545H36.0497C36.0497 88.2017 36.1108 88.4176 36.233 88.6023C36.358 88.7841 36.5284 88.9261 36.7443 89.0284C36.9602 89.1307 37.206 89.1818 37.4815 89.1818C37.7855 89.1818 38.044 89.1179 38.2571 88.9901C38.4702 88.8622 38.6321 88.6747 38.7429 88.4276C38.8565 88.1776 38.9134 87.8722 38.9134 87.5114V81.2727ZM43.8778 90.1534C43.4631 90.1534 43.0866 90.0753 42.7486 89.919C42.4105 89.7599 42.142 89.5312 41.9432 89.233C41.7443 88.9318 41.6449 88.5682 41.6449 88.142C41.6449 87.767 41.7188 87.4631 41.8665 87.2301C42.0142 86.9943 42.2116 86.8097 42.4588 86.6761C42.706 86.5426 42.9787 86.4432 43.277 86.3778C43.5781 86.3097 43.8807 86.2557 44.1847 86.2159C44.5824 86.1648 44.9048 86.1264 45.152 86.1009C45.402 86.0724 45.5838 86.0256 45.6974 85.9602C45.8139 85.8949 45.8722 85.7812 45.8722 85.6193V85.5852C45.8722 85.1648 45.7571 84.8381 45.527 84.6051C45.2997 84.3722 44.9545 84.2557 44.4915 84.2557C44.0114 84.2557 43.6349 84.3608 43.3622 84.571C43.0895 84.7812 42.8977 85.0057 42.7869 85.2443L41.8324 84.9034C42.0028 84.5057 42.2301 84.196 42.5142 83.9744C42.8011 83.75 43.1136 83.5937 43.4517 83.5057C43.7926 83.4148 44.1278 83.3693 44.4574 83.3693C44.6676 83.3693 44.9091 83.3949 45.1818 83.446C45.4574 83.4943 45.723 83.5952 45.9787 83.7486C46.2372 83.902 46.4517 84.1335 46.6222 84.4432C46.7926 84.7528 46.8778 85.1676 46.8778 85.6875V90H45.8722V89.1136H45.821C45.7528 89.2557 45.6392 89.4077 45.4801 89.5696C45.321 89.7315 45.1094 89.8693 44.8452 89.983C44.581 90.0966 44.2585 90.1534 43.8778 90.1534ZM44.0312 89.25C44.429 89.25 44.7642 89.1719 45.0369 89.0156C45.3125 88.8594 45.5199 88.6577 45.6591 88.4105C45.8011 88.1634 45.8722 87.9034 45.8722 87.6307V86.7102C45.8295 86.7614 45.7358 86.8082 45.5909 86.8509C45.4489 86.8906 45.2841 86.9261 45.0966 86.9574C44.9119 86.9858 44.7315 87.0114 44.5554 87.0341C44.3821 87.054 44.2415 87.071 44.1335 87.0852C43.8722 87.1193 43.6278 87.1747 43.4006 87.2514C43.1761 87.3253 42.9943 87.4375 42.8551 87.5881C42.7188 87.7358 42.6506 87.9375 42.6506 88.1932C42.6506 88.5426 42.7798 88.8068 43.0384 88.9858C43.2997 89.1619 43.6307 89.25 44.0312 89.25ZM49.7191 86.0625V90H48.7134V83.4545H49.685V84.4773H49.7702C49.9237 84.1449 50.1566 83.8778 50.4691 83.6761C50.7816 83.4716 51.185 83.3693 51.6793 83.3693C52.1225 83.3693 52.5103 83.4602 52.8427 83.642C53.1751 83.821 53.4336 84.0938 53.6183 84.4602C53.8029 84.8239 53.8952 85.2841 53.8952 85.8409V90H52.8896V85.9091C52.8896 85.3949 52.756 84.9943 52.489 84.7074C52.2219 84.4176 51.8555 84.2727 51.3896 84.2727C51.0685 84.2727 50.7816 84.3423 50.5288 84.4815C50.2788 84.6207 50.0813 84.8239 49.9364 85.0909C49.7915 85.358 49.7191 85.6818 49.7191 86.0625ZM59.858 87.3239V83.4545H60.8636V90H59.858V88.892H59.7898C59.6364 89.2244 59.3977 89.5071 59.0739 89.7401C58.75 89.9702 58.3409 90.0852 57.8466 90.0852C57.4375 90.0852 57.0739 89.9957 56.7557 89.8168C56.4375 89.6349 56.1875 89.3622 56.0057 88.9986C55.8239 88.6321 55.733 88.1705 55.733 87.6136V83.4545H56.7386V87.5455C56.7386 88.0227 56.8722 88.4034 57.1392 88.6875C57.4091 88.9716 57.7528 89.1136 58.1705 89.1136C58.4205 89.1136 58.6747 89.0497 58.9332 88.9219C59.1946 88.794 59.4134 88.598 59.5895 88.3338C59.7685 88.0696 59.858 87.733 59.858 87.3239ZM64.6317 90.1534C64.217 90.1534 63.8406 90.0753 63.5025 89.919C63.1644 89.7599 62.896 89.5312 62.6971 89.233C62.4982 88.9318 62.3988 88.5682 62.3988 88.142C62.3988 87.767 62.4727 87.4631 62.6204 87.2301C62.7681 86.9943 62.9656 86.8097 63.2127 86.6761C63.4599 86.5426 63.7326 86.4432 64.0309 86.3778C64.332 86.3097 64.6346 86.2557 64.9386 86.2159C65.3363 86.1648 65.6587 86.1264 65.9059 86.1009C66.1559 86.0724 66.3377 86.0256 66.4513 85.9602C66.5678 85.8949 66.6261 85.7812 66.6261 85.6193V85.5852C66.6261 85.1648 66.511 84.8381 66.2809 84.6051C66.0536 84.3722 65.7085 84.2557 65.2454 84.2557C64.7653 84.2557 64.3888 84.3608 64.1161 84.571C63.8434 84.7812 63.6516 85.0057 63.5408 85.2443L62.5863 84.9034C62.7567 84.5057 62.984 84.196 63.2681 83.9744C63.555 83.75 63.8675 83.5937 64.2056 83.5057C64.5465 83.4148 64.8817 83.3693 65.2113 83.3693C65.4215 83.3693 65.663 83.3949 65.9357 83.446C66.2113 83.4943 66.4769 83.5952 66.7326 83.7486C66.9911 83.902 67.2056 84.1335 67.3761 84.4432C67.5465 84.7528 67.6317 85.1676 67.6317 85.6875V90H66.6261V89.1136H66.5749C66.5067 89.2557 66.3931 89.4077 66.234 89.5696C66.0749 89.7315 65.8633 89.8693 65.5991 89.983C65.3349 90.0966 65.0124 90.1534 64.6317 90.1534ZM64.7852 89.25C65.1829 89.25 65.5181 89.1719 65.7908 89.0156C66.0664 88.8594 66.2738 88.6577 66.413 88.4105C66.555 88.1634 66.6261 87.9034 66.6261 87.6307V86.7102C66.5835 86.7614 66.4897 86.8082 66.3448 86.8509C66.2028 86.8906 66.038 86.9261 65.8505 86.9574C65.6658 86.9858 65.4854 87.0114 65.3093 87.0341C65.136 87.054 64.9954 87.071 64.8874 87.0852C64.6261 87.1193 64.3817 87.1747 64.1545 87.2514C63.93 87.3253 63.7482 87.4375 63.609 87.5881C63.4727 87.7358 63.4045 87.9375 63.4045 88.1932C63.4045 88.5426 63.5337 88.8068 63.7923 88.9858C64.0536 89.1619 64.3846 89.25 64.7852 89.25ZM69.4673 90V83.4545H70.4389V84.4432H70.5071C70.6264 84.1193 70.8423 83.8565 71.1548 83.6548C71.4673 83.4531 71.8196 83.3523 72.2116 83.3523C72.2855 83.3523 72.3778 83.3537 72.4886 83.3565C72.5994 83.3594 72.6832 83.3636 72.7401 83.3693V84.392C72.706 84.3835 72.6278 84.3707 72.5057 84.3537C72.3864 84.3338 72.2599 84.3239 72.1264 84.3239C71.8082 84.3239 71.5241 84.3906 71.2741 84.5241C71.027 84.6548 70.831 84.8366 70.6861 85.0696C70.544 85.2997 70.473 85.5625 70.473 85.858V90H69.4673ZM74.7791 92.4545C74.6087 92.4545 74.4567 92.4403 74.3232 92.4119C74.1896 92.3864 74.0973 92.3608 74.0462 92.3352L74.3018 91.4489C74.5462 91.5114 74.7621 91.5341 74.9496 91.517C75.1371 91.5 75.3033 91.4162 75.4482 91.2656C75.5959 91.1179 75.7308 90.8778 75.853 90.5455L76.0405 90.0341L73.62 83.4545H74.7109L76.5178 88.6705H76.5859L78.3928 83.4545H79.4837L76.7053 90.9545C76.5803 91.2926 76.4254 91.5724 76.2408 91.794C76.0561 92.0185 75.8416 92.1847 75.5973 92.2926C75.3558 92.4006 75.0831 92.4545 74.7791 92.4545Z" fill="white"/>
</svg>
