<svg width="164" height="130" viewBox="0 0 164 130" fill="none" xmlns="http://www.w3.org/2000/svg">
  <rect y="0.998047" width="164" height="128.119" rx="16" fill="#1F1F1F"/>
  <path d="M49.8239 25.0282C49.8239 26.1021 49.63 27.0301 49.2422 27.8123C48.8544 28.5945 48.3224 29.1977 47.6463 29.622C46.9702 30.0462 46.1979 30.2583 45.3295 30.2583C44.4612 30.2583 43.6889 30.0462 43.0128 29.622C42.3366 29.1977 41.8047 28.5945 41.4169 27.8123C41.0291 27.0301 40.8352 26.1021 40.8352 25.0282C40.8352 23.9544 41.0291 23.0263 41.4169 22.2441C41.8047 21.4619 42.3366 20.8587 43.0128 20.4345C43.6889 20.0102 44.4612 19.7981 45.3295 19.7981C46.1979 19.7981 46.9702 20.0102 47.6463 20.4345C48.3224 20.8587 48.8544 21.4619 49.2422 22.2441C49.63 23.0263 49.8239 23.9544 49.8239 25.0282ZM48.6307 25.0282C48.6307 24.1466 48.4832 23.4025 48.1882 22.796C47.8965 22.1895 47.5005 21.7304 47 21.4189C46.5028 21.1073 45.946 20.9515 45.3295 20.9515C44.7131 20.9515 44.1546 21.1073 43.6541 21.4189C43.157 21.7304 42.7609 22.1895 42.4659 22.796C42.1742 23.4025 42.0284 24.1466 42.0284 25.0282C42.0284 25.9099 42.1742 26.6539 42.4659 27.2605C42.7609 27.867 43.157 28.3261 43.6541 28.6376C44.1546 28.9492 44.7131 29.1049 45.3295 29.1049C45.946 29.1049 46.5028 28.9492 47 28.6376C47.5005 28.3261 47.8965 27.867 48.1882 27.2605C48.4832 26.6539 48.6307 25.9099 48.6307 25.0282ZM51.6179 30.1191V22.4828H52.7514V23.6362H52.831C52.9702 23.2583 53.2221 22.9518 53.5867 22.7164C53.9513 22.4811 54.3622 22.3635 54.8196 22.3635C54.9058 22.3635 55.0135 22.3651 55.1428 22.3684C55.272 22.3717 55.3698 22.3767 55.4361 22.3833V23.5765C55.3963 23.5666 55.3052 23.5517 55.1627 23.5318C55.0235 23.5086 54.876 23.497 54.7202 23.497C54.349 23.497 54.0175 23.5749 53.7259 23.7306C53.4375 23.8831 53.2088 24.0952 53.0398 24.367C52.8741 24.6355 52.7912 24.9421 52.7912 25.2868V30.1191H51.6179ZM59.358 30.2782C58.7216 30.2782 58.1599 30.1175 57.6726 29.796C57.1854 29.4712 56.8043 29.0138 56.5292 28.4238C56.2541 27.8306 56.1165 27.1296 56.1165 26.3208C56.1165 25.5188 56.2541 24.8227 56.5292 24.2328C56.8043 23.6428 57.1871 23.1871 57.6776 22.8656C58.1681 22.5441 58.7349 22.3833 59.3779 22.3833C59.8751 22.3833 60.2678 22.4662 60.5562 22.6319C60.8478 22.7943 61.0699 22.9799 61.2224 23.1887C61.3781 23.3942 61.4991 23.5633 61.5853 23.6958H61.6847V19.9373H62.858V30.1191H61.7245V28.9458H61.5853C61.4991 29.085 61.3765 29.2607 61.2174 29.4728C61.0583 29.6816 60.8313 29.8689 60.5363 30.0346C60.2413 30.197 59.8485 30.2782 59.358 30.2782ZM59.5171 29.2243C59.9877 29.2243 60.3855 29.1016 60.7103 28.8564C61.0351 28.6078 61.282 28.2647 61.4511 27.8272C61.6201 27.3864 61.7046 26.8777 61.7046 26.301C61.7046 25.7309 61.6217 25.2321 61.456 24.8045C61.2903 24.3736 61.045 24.0389 60.7202 23.8002C60.3954 23.5583 59.9944 23.4373 59.5171 23.4373C59.0199 23.4373 58.6056 23.5649 58.2742 23.8201C57.9461 24.072 57.6992 24.4151 57.5334 24.8493C57.371 25.2801 57.2898 25.764 57.2898 26.301C57.2898 26.8445 57.3727 27.3384 57.5384 27.7825C57.7074 28.2233 57.956 28.5746 58.2841 28.8365C58.6156 29.095 59.0266 29.2243 59.5171 29.2243ZM68.2515 30.2782C67.5157 30.2782 66.881 30.1158 66.3474 29.791C65.8171 29.4629 65.4078 29.0055 65.1194 28.4189C64.8344 27.8289 64.6918 27.1428 64.6918 26.3606C64.6918 25.5784 64.8344 24.889 65.1194 24.2924C65.4078 23.6925 65.8088 23.2252 66.3225 22.8904C66.8396 22.5524 67.4428 22.3833 68.1322 22.3833C68.5299 22.3833 68.9227 22.4496 69.3105 22.5822C69.6982 22.7148 70.0512 22.9302 70.3694 23.2285C70.6876 23.5235 70.9411 23.9146 71.1301 24.4018C71.319 24.889 71.4134 25.4889 71.4134 26.2015V26.6987H65.5271V25.6845H70.2203C70.2203 25.2536 70.1341 24.8691 69.9617 24.5311C69.7927 24.193 69.5507 23.9262 69.2359 23.7306C68.9243 23.5351 68.5564 23.4373 68.1322 23.4373C67.6649 23.4373 67.2605 23.5533 66.9191 23.7853C66.5811 24.014 66.3209 24.3123 66.1386 24.6802C65.9563 25.0481 65.8651 25.4425 65.8651 25.8635V26.5396C65.8651 27.1163 65.9646 27.6052 66.1634 28.0062C66.3656 28.4039 66.6457 28.7072 67.0036 28.916C67.3616 29.1215 67.7775 29.2243 68.2515 29.2243C68.5597 29.2243 68.8382 29.1812 69.0867 29.095C69.3386 29.0055 69.5557 28.8729 69.738 28.6973C69.9203 28.5183 70.0612 28.2962 70.1606 28.0311L71.2941 28.3493C71.1748 28.7337 70.9743 29.0718 70.6926 29.3635C70.4108 29.6518 70.0628 29.8772 69.6485 30.0396C69.2342 30.1987 68.7686 30.2782 68.2515 30.2782ZM73.0782 30.1191V22.4828H74.2118V23.6362H74.2913C74.4305 23.2583 74.6824 22.9518 75.047 22.7164C75.4116 22.4811 75.8226 22.3635 76.2799 22.3635C76.3661 22.3635 76.4738 22.3651 76.6031 22.3684C76.7324 22.3717 76.8301 22.3767 76.8964 22.3833V23.5765C76.8566 23.5666 76.7655 23.5517 76.623 23.5318C76.4838 23.5086 76.3363 23.497 76.1805 23.497C75.8093 23.497 75.4779 23.5749 75.1862 23.7306C74.8978 23.8831 74.6691 24.0952 74.5001 24.367C74.3344 24.6355 74.2515 24.9421 74.2515 25.2868V30.1191H73.0782ZM83.7148 30.1191L81.3881 22.4828H82.6211L84.2717 28.3294H84.3512L85.9819 22.4828H87.2347L88.8455 28.3095H88.9251L90.5756 22.4828H91.8086L89.4819 30.1191H88.3285L86.658 24.2527H86.5387L84.8682 30.1191H83.7148ZM95.4869 30.2981C95.003 30.2981 94.5638 30.207 94.1694 30.0247C93.775 29.8391 93.4618 29.5723 93.2298 29.2243C92.9978 28.8729 92.8818 28.4487 92.8818 27.9515C92.8818 27.514 92.9679 27.1594 93.1403 26.8876C93.3126 26.6125 93.543 26.3971 93.8313 26.2413C94.1197 26.0855 94.4379 25.9695 94.7859 25.8933C95.1372 25.8137 95.4902 25.7508 95.8448 25.7044C96.3089 25.6447 96.685 25.6 96.9734 25.5701C97.2651 25.537 97.4772 25.4823 97.6098 25.4061C97.7456 25.3298 97.8136 25.1973 97.8136 25.0083V24.9686C97.8136 24.478 97.6794 24.0969 97.4109 23.8251C97.1457 23.5533 96.743 23.4174 96.2028 23.4174C95.6427 23.4174 95.2035 23.5401 94.8853 23.7853C94.5671 24.0306 94.3434 24.2924 94.2142 24.5708L93.1005 24.1731C93.2994 23.7091 93.5645 23.3478 93.896 23.0893C94.2307 22.8275 94.5953 22.6452 94.9897 22.5424C95.3875 22.4364 95.7785 22.3833 96.163 22.3833C96.4083 22.3833 96.69 22.4132 97.0082 22.4728C97.3297 22.5292 97.6396 22.6468 97.9379 22.8258C98.2395 23.0048 98.4897 23.2749 98.6886 23.6362C98.8875 23.9975 98.9869 24.4814 98.9869 25.0879V30.1191H97.8136V29.085H97.7539C97.6744 29.2508 97.5418 29.4281 97.3562 29.617C97.1706 29.8059 96.9237 29.9667 96.6154 30.0993C96.3072 30.2318 95.931 30.2981 95.4869 30.2981ZM95.6659 29.2441C96.1299 29.2441 96.521 29.153 96.8392 28.9707C97.1607 28.7884 97.4026 28.5531 97.565 28.2647C97.7307 27.9764 97.8136 27.6731 97.8136 27.3549V26.2811C97.7639 26.3407 97.6545 26.3954 97.4855 26.4451C97.3197 26.4915 97.1275 26.533 96.9088 26.5694C96.6933 26.6026 96.4829 26.6324 96.2774 26.6589C96.0752 26.6821 95.9111 26.702 95.7852 26.7186C95.4803 26.7583 95.1952 26.823 94.9301 26.9125C94.6682 26.9986 94.4561 27.1296 94.2937 27.3052C94.1346 27.4776 94.0551 27.7129 94.0551 28.0112C94.0551 28.4189 94.2059 28.7271 94.5075 28.9359C94.8124 29.1414 95.1985 29.2441 95.6659 29.2441ZM104.329 22.4828V23.4771H100.372V22.4828H104.329ZM101.525 20.6532H102.699V27.9316C102.699 28.2631 102.747 28.5117 102.843 28.6774C102.942 28.8398 103.068 28.9492 103.221 29.0055C103.377 29.0585 103.541 29.085 103.713 29.085C103.842 29.085 103.948 29.0784 104.031 29.0652C104.114 29.0486 104.18 29.0353 104.23 29.0254L104.469 30.0794C104.389 30.1092 104.278 30.139 104.136 30.1689C103.993 30.202 103.812 30.2186 103.594 30.2186C103.262 30.2186 102.937 30.1473 102.619 30.0048C102.304 29.8623 102.042 29.6452 101.834 29.3535C101.628 29.0618 101.525 28.694 101.525 28.2498V20.6532ZM109.094 30.2782C108.358 30.2782 107.724 30.1158 107.19 29.791C106.66 29.4629 106.25 29.0055 105.962 28.4189C105.677 27.8289 105.534 27.1428 105.534 26.3606C105.534 25.5784 105.677 24.889 105.962 24.2924C106.25 23.6925 106.651 23.2252 107.165 22.8904C107.682 22.5524 108.285 22.3833 108.975 22.3833C109.372 22.3833 109.765 22.4496 110.153 22.5822C110.541 22.7148 110.894 22.9302 111.212 23.2285C111.53 23.5235 111.784 23.9146 111.973 24.4018C112.161 24.889 112.256 25.4889 112.256 26.2015V26.6987H106.37V25.6845H111.063C111.063 25.2536 110.977 24.8691 110.804 24.5311C110.635 24.193 110.393 23.9262 110.078 23.7306C109.767 23.5351 109.399 23.4373 108.975 23.4373C108.507 23.4373 108.103 23.5533 107.762 23.7853C107.424 24.014 107.163 24.3123 106.981 24.6802C106.799 25.0481 106.708 25.4425 106.708 25.8635V26.5396C106.708 27.1163 106.807 27.6052 107.006 28.0062C107.208 28.4039 107.488 28.7072 107.846 28.916C108.204 29.1215 108.62 29.2243 109.094 29.2243C109.402 29.2243 109.681 29.1812 109.929 29.095C110.181 29.0055 110.398 28.8729 110.581 28.6973C110.763 28.5183 110.904 28.2962 111.003 28.0311L112.137 28.3493C112.017 28.7337 111.817 29.0718 111.535 29.3635C111.253 29.6518 110.905 29.8772 110.491 30.0396C110.077 30.1987 109.611 30.2782 109.094 30.2782ZM113.921 30.1191V22.4828H115.054V23.6362H115.134C115.273 23.2583 115.525 22.9518 115.889 22.7164C116.254 22.4811 116.665 22.3635 117.122 22.3635C117.209 22.3635 117.316 22.3651 117.446 22.3684C117.575 22.3717 117.673 22.3767 117.739 22.3833V23.5765C117.699 23.5666 117.608 23.5517 117.465 23.5318C117.326 23.5086 117.179 23.497 117.023 23.497C116.652 23.497 116.32 23.5749 116.029 23.7306C115.74 23.8831 115.512 24.0952 115.343 24.367C115.177 24.6355 115.094 24.9421 115.094 25.2868V30.1191H113.921ZM125.074 30.2981C124.59 30.2981 124.151 30.207 123.757 30.0247C123.362 29.8391 123.049 29.5723 122.817 29.2243C122.585 28.8729 122.469 28.4487 122.469 27.9515C122.469 27.514 122.555 27.1594 122.728 26.8876C122.9 26.6125 123.13 26.3971 123.419 26.2413C123.707 26.0855 124.025 25.9695 124.373 25.8933C124.725 25.8137 125.078 25.7508 125.432 25.7044C125.896 25.6447 126.273 25.6 126.561 25.5701C126.853 25.537 127.065 25.4823 127.197 25.4061C127.333 25.3298 127.401 25.1973 127.401 25.0083V24.9686C127.401 24.478 127.267 24.0969 126.998 23.8251C126.733 23.5533 126.331 23.4174 125.79 23.4174C125.23 23.4174 124.791 23.5401 124.473 23.7853C124.155 24.0306 123.931 24.2924 123.802 24.5708L122.688 24.1731C122.887 23.7091 123.152 23.3478 123.483 23.0893C123.818 22.8275 124.183 22.6452 124.577 22.5424C124.975 22.4364 125.366 22.3833 125.751 22.3833C125.996 22.3833 126.278 22.4132 126.596 22.4728C126.917 22.5292 127.227 22.6468 127.525 22.8258C127.827 23.0048 128.077 23.2749 128.276 23.6362C128.475 23.9975 128.574 24.4814 128.574 25.0879V30.1191H127.401V29.085H127.341C127.262 29.2508 127.129 29.4281 126.944 29.617C126.758 29.8059 126.511 29.9667 126.203 30.0993C125.895 30.2318 125.519 30.2981 125.074 30.2981ZM125.253 29.2441C125.717 29.2441 126.108 29.153 126.427 28.9707C126.748 28.7884 126.99 28.5531 127.153 28.2647C127.318 27.9764 127.401 27.6731 127.401 27.3549V26.2811C127.351 26.3407 127.242 26.3954 127.073 26.4451C126.907 26.4915 126.715 26.533 126.496 26.5694C126.281 26.6026 126.07 26.6324 125.865 26.6589C125.663 26.6821 125.499 26.702 125.373 26.7186C125.068 26.7583 124.783 26.823 124.518 26.9125C124.256 26.9986 124.044 27.1296 123.881 27.3052C123.722 27.4776 123.643 27.7129 123.643 28.0112C123.643 28.4189 123.793 28.7271 124.095 28.9359C124.4 29.1414 124.786 29.2441 125.253 29.2441ZM131.769 25.5254V30.1191H130.596V22.4828H131.729V23.676H131.829C132.008 23.2882 132.28 22.9766 132.644 22.7413C133.009 22.5027 133.479 22.3833 134.056 22.3833C134.573 22.3833 135.026 22.4894 135.413 22.7015C135.801 22.9103 136.103 23.2285 136.318 23.6561C136.534 24.0803 136.641 24.6172 136.641 25.2669V30.1191H135.468V25.3464C135.468 24.7465 135.312 24.2792 135.001 23.9444C134.689 23.6064 134.262 23.4373 133.718 23.4373C133.344 23.4373 133.009 23.5185 132.714 23.6809C132.422 23.8433 132.192 24.0803 132.023 24.3919C131.854 24.7034 131.769 25.0813 131.769 25.5254ZM141.549 30.2782C140.913 30.2782 140.351 30.1175 139.864 29.796C139.376 29.4712 138.995 29.0138 138.72 28.4238C138.445 27.8306 138.307 27.1296 138.307 26.3208C138.307 25.5188 138.445 24.8227 138.72 24.2328C138.995 23.6428 139.378 23.1871 139.868 22.8656C140.359 22.5441 140.926 22.3833 141.569 22.3833C142.066 22.3833 142.459 22.4662 142.747 22.6319C143.039 22.7943 143.261 22.9799 143.413 23.1887C143.569 23.3942 143.69 23.5633 143.776 23.6958H143.876V19.9373H145.049V30.1191H143.915V28.9458H143.776C143.69 29.085 143.567 29.2607 143.408 29.4728C143.249 29.6816 143.022 29.8689 142.727 30.0346C142.432 30.197 142.039 30.2782 141.549 30.2782ZM141.708 29.2243C142.179 29.2243 142.576 29.1016 142.901 28.8564C143.226 28.6078 143.473 28.2647 143.642 27.8272C143.811 27.3864 143.895 26.8777 143.895 26.301C143.895 25.7309 143.813 25.2321 143.647 24.8045C143.481 24.3736 143.236 24.0389 142.911 23.8002C142.586 23.5583 142.185 23.4373 141.708 23.4373C141.211 23.4373 140.797 23.5649 140.465 23.8201C140.137 24.072 139.89 24.4151 139.724 24.8493C139.562 25.2801 139.481 25.764 139.481 26.301C139.481 26.8445 139.564 27.3384 139.729 27.7825C139.898 28.2233 140.147 28.5746 140.475 28.8365C140.806 29.095 141.217 29.2243 141.708 29.2243Z" fill="white"/>
  <path d="M20.4744 42.4828V43.4771H16.358V42.4828H20.4744ZM17.5909 50.1191V41.4288C17.5909 40.9913 17.6937 40.6267 17.8991 40.335C18.1046 40.0434 18.3714 39.8246 18.6996 39.6788C19.0277 39.533 19.3741 39.46 19.7386 39.46C20.027 39.46 20.2623 39.4832 20.4446 39.5297C20.6269 39.5761 20.7628 39.6191 20.8523 39.6589L20.5142 40.6731C20.4545 40.6532 20.3717 40.6284 20.2656 40.5985C20.1629 40.5687 20.027 40.5538 19.858 40.5538C19.4702 40.5538 19.1901 40.6516 19.0178 40.8471C18.8487 41.0427 18.7642 41.3294 18.7642 41.7072V50.1191H17.5909ZM21.9988 50.1191V42.4828H23.1323V43.6362H23.2119C23.3511 43.2583 23.603 42.9518 23.9675 42.7164C24.3321 42.4811 24.7431 42.3635 25.2005 42.3635C25.2867 42.3635 25.3944 42.3651 25.5236 42.3684C25.6529 42.3717 25.7507 42.3767 25.817 42.3833V43.5765C25.7772 43.5666 25.686 43.5517 25.5435 43.5318C25.4043 43.5086 25.2568 43.497 25.1011 43.497C24.7298 43.497 24.3984 43.5749 24.1067 43.7306C23.8184 43.8831 23.5897 44.0952 23.4207 44.367C23.2549 44.6355 23.1721 44.9421 23.1721 45.2868V50.1191H21.9988ZM31.9003 46.997V42.4828H33.0736V50.1191H31.9003V48.8265H31.8207C31.6417 49.2143 31.3633 49.5441 30.9855 49.8159C30.6077 50.0843 30.1304 50.2186 29.5537 50.2186C29.0764 50.2186 28.6522 50.1142 28.281 49.9054C27.9097 49.6932 27.6181 49.3751 27.406 48.9508C27.1938 48.5233 27.0878 47.9847 27.0878 47.335V42.4828H28.2611V47.2555C28.2611 47.8123 28.4168 48.2565 28.7284 48.5879C29.0433 48.9193 29.4443 49.085 29.9315 49.085C30.2232 49.085 30.5198 49.0105 30.8214 48.8613C31.1264 48.7122 31.3816 48.4835 31.5871 48.1752C31.7959 47.867 31.9003 47.4743 31.9003 46.997ZM35.1025 50.1191V42.4828H36.2758V50.1191H35.1025ZM35.6991 41.21C35.4704 41.21 35.2732 41.1322 35.1075 40.9764C34.9451 40.8206 34.8639 40.6333 34.8639 40.4146C34.8639 40.1958 34.9451 40.0086 35.1075 39.8528C35.2732 39.697 35.4704 39.6191 35.6991 39.6191C35.9278 39.6191 36.1234 39.697 36.2858 39.8528C36.4515 40.0086 36.5344 40.1958 36.5344 40.4146C36.5344 40.6333 36.4515 40.8206 36.2858 40.9764C36.1234 41.1322 35.9278 41.21 35.6991 41.21ZM41.6258 42.4828V43.4771H37.6684V42.4828H41.6258ZM38.8218 40.6532H39.9951V47.9316C39.9951 48.2631 40.0432 48.5117 40.1393 48.6774C40.2388 48.8398 40.3647 48.9492 40.5172 49.0055C40.6729 49.0585 40.837 49.085 41.0093 49.085C41.1386 49.085 41.2447 49.0784 41.3275 49.0652C41.4104 49.0486 41.4767 49.0353 41.5264 49.0254L41.765 50.0794C41.6855 50.1092 41.5745 50.139 41.4319 50.1689C41.2894 50.202 41.1088 50.2186 40.89 50.2186C40.5586 50.2186 40.2338 50.1473 39.9156 50.0048C39.6007 49.8623 39.3389 49.6452 39.1301 49.3535C38.9246 49.0618 38.8218 48.694 38.8218 48.2498V40.6532ZM48.5431 44.193L47.4891 44.4913C47.4228 44.3156 47.3251 44.1449 47.1958 43.9792C47.0699 43.8102 46.8975 43.671 46.6788 43.5616C46.46 43.4522 46.1799 43.3975 45.8386 43.3975C45.3712 43.3975 44.9818 43.5053 44.6702 43.7207C44.362 43.9328 44.2079 44.2029 44.2079 44.5311C44.2079 44.8227 44.3139 45.0531 44.5261 45.2221C44.7382 45.3912 45.0696 45.532 45.5204 45.6447L46.6539 45.9231C47.3367 46.0888 47.8454 46.3424 48.1802 46.6838C48.5149 47.0218 48.6823 47.4577 48.6823 47.9913C48.6823 48.4288 48.5564 48.8199 48.3045 49.1646C48.0559 49.5093 47.7079 49.7811 47.2604 49.9799C46.813 50.1788 46.2926 50.2782 45.6994 50.2782C44.9205 50.2782 44.2758 50.1092 43.7654 49.7711C43.255 49.4331 42.9318 48.9392 42.796 48.2896L43.9096 48.0112C44.0156 48.4222 44.2162 48.7304 44.5112 48.9359C44.8094 49.1414 45.1989 49.2441 45.6795 49.2441C46.2263 49.2441 46.6605 49.1281 46.982 48.8961C47.3068 48.6608 47.4692 48.3791 47.4692 48.051C47.4692 47.7858 47.3764 47.5637 47.1908 47.3848C47.0052 47.2025 46.7202 47.0666 46.3357 46.9771L45.063 46.6788C44.3637 46.5131 43.8499 46.2562 43.5218 45.9082C43.197 45.5569 43.0346 45.1177 43.0346 44.5907C43.0346 44.1599 43.1556 43.7787 43.3975 43.4473C43.6428 43.1158 43.9759 42.8556 44.3968 42.6667C44.821 42.4778 45.3016 42.3833 45.8386 42.3833C46.5942 42.3833 47.1875 42.5491 47.6184 42.8805C48.0526 43.2119 48.3608 43.6494 48.5431 44.193ZM57.2482 50.2782C56.5589 50.2782 55.954 50.1142 55.4336 49.786C54.9166 49.4579 54.5122 48.9989 54.2205 48.4089C53.9322 47.819 53.788 47.1296 53.788 46.3407C53.788 45.5453 53.9322 44.8509 54.2205 44.2576C54.5122 43.6644 54.9166 43.2037 55.4336 42.8755C55.954 42.5474 56.5589 42.3833 57.2482 42.3833C57.9376 42.3833 58.5409 42.5474 59.0579 42.8755C59.5783 43.2037 59.9826 43.6644 60.271 44.2576C60.5626 44.8509 60.7085 45.5453 60.7085 46.3407C60.7085 47.1296 60.5626 47.819 60.271 48.4089C59.9826 48.9989 59.5783 49.4579 59.0579 49.786C58.5409 50.1142 57.9376 50.2782 57.2482 50.2782ZM57.2482 49.2243C57.7719 49.2243 58.2028 49.09 58.5409 48.8216C58.8789 48.5531 59.1292 48.2001 59.2916 47.7626C59.454 47.3251 59.5352 46.8511 59.5352 46.3407C59.5352 45.8303 59.454 45.3547 59.2916 44.9139C59.1292 44.4731 58.8789 44.1168 58.5409 43.845C58.2028 43.5732 57.7719 43.4373 57.2482 43.4373C56.7246 43.4373 56.2937 43.5732 55.9556 43.845C55.6176 44.1168 55.3673 44.4731 55.2049 44.9139C55.0425 45.3547 54.9613 45.8303 54.9613 46.3407C54.9613 46.8511 55.0425 47.3251 55.2049 47.7626C55.3673 48.2001 55.6176 48.5531 55.9556 48.8216C56.2937 49.09 56.7246 49.2243 57.2482 49.2243ZM63.5528 45.5254V50.1191H62.3795V42.4828H63.513V43.676H63.6124C63.7914 43.2882 64.0632 42.9766 64.4278 42.7413C64.7924 42.5027 65.263 42.3833 65.8397 42.3833C66.3568 42.3833 66.8092 42.4894 67.197 42.7015C67.5847 42.9103 67.8864 43.2285 68.1018 43.6561C68.3172 44.0803 68.4249 44.6172 68.4249 45.2669V50.1191H67.2516V45.3464C67.2516 44.7465 67.0959 44.2792 66.7843 43.9444C66.4728 43.6064 66.0452 43.4373 65.5016 43.4373C65.1271 43.4373 64.7924 43.5185 64.4974 43.6809C64.2057 43.8433 63.9754 44.0803 63.8063 44.3919C63.6373 44.7034 63.5528 45.0813 63.5528 45.5254ZM71.6222 39.9373V50.1191H70.4489V39.9373H71.6222ZM73.6512 50.1191V42.4828H74.8245V50.1191H73.6512ZM74.2478 41.21C74.0191 41.21 73.8219 41.1322 73.6562 40.9764C73.4938 40.8206 73.4126 40.6333 73.4126 40.4146C73.4126 40.1958 73.4938 40.0086 73.6562 39.8528C73.8219 39.697 74.0191 39.6191 74.2478 39.6191C74.4765 39.6191 74.672 39.697 74.8344 39.8528C75.0002 40.0086 75.083 40.1958 75.083 40.4146C75.083 40.6333 75.0002 40.8206 74.8344 40.9764C74.672 41.1322 74.4765 41.21 74.2478 41.21ZM78.0268 45.5254V50.1191H76.8535V42.4828H77.987V43.676H78.0864C78.2654 43.2882 78.5372 42.9766 78.9018 42.7413C79.2664 42.5027 79.737 42.3833 80.3137 42.3833C80.8307 42.3833 81.2832 42.4894 81.6709 42.7015C82.0587 42.9103 82.3603 43.2285 82.5758 43.6561C82.7912 44.0803 82.8989 44.6172 82.8989 45.2669V50.1191H81.7256V45.3464C81.7256 44.7465 81.5699 44.2792 81.2583 43.9444C80.9468 43.6064 80.5192 43.4373 79.9756 43.4373C79.6011 43.4373 79.2664 43.5185 78.9714 43.6809C78.6797 43.8433 78.4494 44.0803 78.2803 44.3919C78.1113 44.7034 78.0268 45.0813 78.0268 45.5254ZM88.1246 50.2782C87.3888 50.2782 86.7541 50.1158 86.2205 49.791C85.6902 49.4629 85.2809 49.0055 84.9925 48.4189C84.7075 47.8289 84.565 47.1428 84.565 46.3606C84.565 45.5784 84.7075 44.889 84.9925 44.2924C85.2809 43.6925 85.6819 43.2252 86.1957 42.8904C86.7127 42.5524 87.3159 42.3833 88.0053 42.3833C88.403 42.3833 88.7958 42.4496 89.1836 42.5822C89.5714 42.7148 89.9243 42.9302 90.2425 43.2285C90.5607 43.5235 90.8143 43.9146 91.0032 44.4018C91.1921 44.889 91.2866 45.4889 91.2866 46.2015V46.6987H85.4002V45.6845H90.0934C90.0934 45.2536 90.0072 44.8691 89.8349 44.5311C89.6658 44.193 89.4239 43.9262 89.109 43.7306C88.7975 43.5351 88.4296 43.4373 88.0053 43.4373C87.538 43.4373 87.1336 43.5533 86.7922 43.7853C86.4542 44.014 86.194 44.3123 86.0117 44.6802C85.8294 45.0481 85.7383 45.4425 85.7383 45.8635V46.5396C85.7383 47.1163 85.8377 47.6052 86.0366 48.0062C86.2387 48.4039 86.5188 48.7072 86.8768 48.916C87.2347 49.1215 87.6507 49.2243 88.1246 49.2243C88.4329 49.2243 88.7113 49.1812 88.9599 49.095C89.2117 49.0055 89.4288 48.8729 89.6111 48.6973C89.7934 48.5183 89.9343 48.2962 90.0337 48.0311L91.1672 48.3493C91.0479 48.7337 90.8474 49.0718 90.5657 49.3635C90.284 49.6518 89.9359 49.8772 89.5216 50.0396C89.1073 50.1987 88.6417 50.2782 88.1246 50.2782Z" fill="white"/>
  <path opacity="0.5" d="M16.5 21.1191C16.5 19.1861 18.067 17.6191 20 17.6191H28C29.933 17.6191 31.5 19.1861 31.5 21.1191V29.1191C31.5 31.0521 29.933 32.6191 28 32.6191H20C18.067 32.6191 16.5 31.0521 16.5 29.1191V21.1191Z" stroke="white"/>
  <rect x="16" y="96.998" width="45" height="18" rx="4" fill="#264707"/>
  <path d="M24.8295 103.453C24.7784 103.021 24.571 102.686 24.2074 102.447C23.8438 102.208 23.3977 102.089 22.8693 102.089C22.483 102.089 22.1449 102.151 21.8551 102.276C21.5682 102.401 21.3438 102.573 21.1818 102.792C21.0227 103.011 20.9432 103.259 20.9432 103.538C20.9432 103.771 20.9986 103.971 21.1094 104.139C21.223 104.303 21.3679 104.441 21.544 104.552C21.7202 104.66 21.9048 104.749 22.098 104.82C22.2912 104.889 22.4688 104.944 22.6307 104.987L23.517 105.225C23.7443 105.285 23.9972 105.367 24.2756 105.472C24.5568 105.578 24.8253 105.721 25.081 105.903C25.3395 106.082 25.5526 106.312 25.7202 106.593C25.8878 106.874 25.9716 107.22 25.9716 107.629C25.9716 108.1 25.848 108.526 25.6009 108.907C25.3565 109.288 24.9986 109.59 24.527 109.815C24.0582 110.039 23.4886 110.151 22.8182 110.151C22.1932 110.151 21.652 110.051 21.1946 109.849C20.7401 109.647 20.3821 109.366 20.1207 109.005C19.8622 108.644 19.7159 108.225 19.6818 107.748H20.7727C20.8011 108.078 20.9119 108.35 21.1051 108.566C21.3011 108.779 21.5483 108.938 21.8466 109.044C22.1477 109.146 22.4716 109.197 22.8182 109.197C23.2216 109.197 23.5838 109.132 23.9048 109.001C24.2259 108.867 24.4801 108.683 24.6676 108.447C24.8551 108.208 24.9489 107.93 24.9489 107.612C24.9489 107.322 24.8679 107.086 24.706 106.904C24.544 106.722 24.331 106.575 24.0668 106.461C23.8026 106.347 23.517 106.248 23.2102 106.163L22.1364 105.856C21.4545 105.66 20.9148 105.38 20.517 105.017C20.1193 104.653 19.9205 104.177 19.9205 103.589C19.9205 103.1 20.0526 102.674 20.3168 102.311C20.5838 101.944 20.9418 101.66 21.3906 101.458C21.8423 101.254 22.3466 101.151 22.9034 101.151C23.4659 101.151 23.9659 101.252 24.4034 101.454C24.8409 101.653 25.1875 101.926 25.4432 102.272C25.7017 102.619 25.8381 103.012 25.8523 103.453H24.8295ZM31.6978 107.322V103.453H32.7035V109.998H31.6978V108.89H31.6296C31.4762 109.222 31.2376 109.505 30.9137 109.738C30.5898 109.968 30.1808 110.083 29.6864 110.083C29.2773 110.083 28.9137 109.994 28.5955 109.815C28.2773 109.633 28.0273 109.36 27.8455 108.997C27.6637 108.63 27.5728 108.169 27.5728 107.612V103.453H28.5785V107.544C28.5785 108.021 28.712 108.401 28.979 108.686C29.2489 108.97 29.5927 109.112 30.0103 109.112C30.2603 109.112 30.5146 109.048 30.7731 108.92C31.0344 108.792 31.2532 108.596 31.4293 108.332C31.6083 108.068 31.6978 107.731 31.6978 107.322ZM34.5455 112.453V103.453H35.517V104.492H35.6364C35.7102 104.379 35.8125 104.234 35.9432 104.058C36.0767 103.879 36.267 103.72 36.5142 103.58C36.7642 103.438 37.1023 103.367 37.5284 103.367C38.0795 103.367 38.5653 103.505 38.9858 103.781C39.4063 104.056 39.7344 104.447 39.9702 104.953C40.206 105.458 40.3239 106.055 40.3239 106.742C40.3239 107.436 40.206 108.036 39.9702 108.545C39.7344 109.051 39.4077 109.443 38.9901 109.721C38.5724 109.997 38.0909 110.134 37.5455 110.134C37.125 110.134 36.7884 110.065 36.5355 109.926C36.2827 109.784 36.0881 109.623 35.9517 109.444C35.8153 109.262 35.7102 109.112 35.6364 108.992H35.5511V112.453H34.5455ZM35.5341 106.725C35.5341 107.22 35.6065 107.656 35.7514 108.034C35.8963 108.409 36.108 108.703 36.3864 108.916C36.6648 109.126 37.0057 109.231 37.4091 109.231C37.8295 109.231 38.1804 109.12 38.4616 108.899C38.7457 108.674 38.9588 108.373 39.1009 107.995C39.2457 107.615 39.3182 107.191 39.3182 106.725C39.3182 106.265 39.2472 105.85 39.1051 105.481C38.9659 105.109 38.7543 104.815 38.4702 104.599C38.1889 104.38 37.8352 104.271 37.4091 104.271C37 104.271 36.6563 104.374 36.3778 104.582C36.0994 104.786 35.8892 105.073 35.7472 105.443C35.6051 105.809 35.5341 106.237 35.5341 106.725ZM41.858 112.453V103.453H42.8295V104.492H42.9489C43.0227 104.379 43.125 104.234 43.2557 104.058C43.3892 103.879 43.5795 103.72 43.8267 103.58C44.0767 103.438 44.4148 103.367 44.8409 103.367C45.392 103.367 45.8778 103.505 46.2983 103.781C46.7188 104.056 47.0469 104.447 47.2827 104.953C47.5185 105.458 47.6364 106.055 47.6364 106.742C47.6364 107.436 47.5185 108.036 47.2827 108.545C47.0469 109.051 46.7202 109.443 46.3026 109.721C45.8849 109.997 45.4034 110.134 44.858 110.134C44.4375 110.134 44.1009 110.065 43.848 109.926C43.5952 109.784 43.4006 109.623 43.2642 109.444C43.1278 109.262 43.0227 109.112 42.9489 108.992H42.8636V112.453H41.858ZM42.8466 106.725C42.8466 107.22 42.919 107.656 43.0639 108.034C43.2088 108.409 43.4205 108.703 43.6989 108.916C43.9773 109.126 44.3182 109.231 44.7216 109.231C45.142 109.231 45.4929 109.12 45.7741 108.899C46.0582 108.674 46.2713 108.373 46.4134 107.995C46.5582 107.615 46.6307 107.191 46.6307 106.725C46.6307 106.265 46.5597 105.85 46.4176 105.481C46.2784 105.109 46.0668 104.815 45.7827 104.599C45.5014 104.38 45.1477 104.271 44.7216 104.271C44.3125 104.271 43.9688 104.374 43.6903 104.582C43.4119 104.786 43.2017 105.073 43.0597 105.443C42.9176 105.809 42.8466 106.237 42.8466 106.725ZM50.1761 101.271V109.998H49.1705V101.271H50.1761ZM52.6658 112.453C52.4954 112.453 52.3434 112.438 52.2099 112.41C52.0763 112.384 51.984 112.359 51.9329 112.333L52.1886 111.447C52.4329 111.509 52.6488 111.532 52.8363 111.515C53.0238 111.498 53.19 111.414 53.3349 111.264C53.4826 111.116 53.6175 110.876 53.7397 110.544L53.9272 110.032L51.5067 103.453H52.5977L54.4045 108.669H54.4727L56.2795 103.453H57.3704L54.592 110.953C54.467 111.291 54.3121 111.57 54.1275 111.792C53.9428 112.017 53.7283 112.183 53.484 112.291C53.2425 112.399 52.9698 112.453 52.6658 112.453Z" fill="#57C600"/>
  <path opacity="0.5" d="M16.5795 82.2688V81.3313H23.125V82.2688H20.3807V90.0586H19.3239V82.2688H16.5795ZM26.3295 90.195C25.7386 90.195 25.2202 90.0543 24.7741 89.7731C24.331 89.4918 23.9844 89.0984 23.7344 88.5927C23.4872 88.087 23.3636 87.4961 23.3636 86.82C23.3636 86.1381 23.4872 85.543 23.7344 85.0344C23.9844 84.5259 24.331 84.131 24.7741 83.8498C25.2202 83.5685 25.7386 83.4279 26.3295 83.4279C26.9205 83.4279 27.4375 83.5685 27.8807 83.8498C28.3267 84.131 28.6733 84.5259 28.9205 85.0344C29.1705 85.543 29.2955 86.1381 29.2955 86.82C29.2955 87.4961 29.1705 88.087 28.9205 88.5927C28.6733 89.0984 28.3267 89.4918 27.8807 89.7731C27.4375 90.0543 26.9205 90.195 26.3295 90.195ZM26.3295 89.2915C26.7784 89.2915 27.1477 89.1765 27.4375 88.9464C27.7273 88.7163 27.9418 88.4137 28.081 88.0387C28.2202 87.6637 28.2898 87.2575 28.2898 86.82C28.2898 86.3825 28.2202 85.9748 28.081 85.5969C27.9418 85.2191 27.7273 84.9137 27.4375 84.6808C27.1477 84.4478 26.7784 84.3313 26.3295 84.3313C25.8807 84.3313 25.5114 84.4478 25.2216 84.6808C24.9318 84.9137 24.7173 85.2191 24.5781 85.5969C24.4389 85.9748 24.3693 86.3825 24.3693 86.82C24.3693 87.2575 24.4389 87.6637 24.5781 88.0387C24.7173 88.4137 24.9318 88.7163 25.2216 88.9464C25.5114 89.1765 25.8807 89.2915 26.3295 89.2915ZM30.8306 90.0586V83.5131H31.8022V84.5359H31.8874C32.0238 84.1864 32.244 83.9151 32.5479 83.7219C32.8519 83.5259 33.217 83.4279 33.6431 83.4279C34.0749 83.4279 34.4343 83.5259 34.7212 83.7219C35.011 83.9151 35.2369 84.1864 35.3988 84.5359H35.467C35.6346 84.1978 35.886 83.9293 36.2212 83.7305C36.5565 83.5288 36.9585 83.4279 37.4272 83.4279C38.0124 83.4279 38.4911 83.6112 38.8633 83.9776C39.2354 84.3413 39.4215 84.908 39.4215 85.6779V90.0586H38.4158V85.6779C38.4158 85.195 38.2837 84.8498 38.0195 84.6424C37.7553 84.435 37.4442 84.3313 37.0863 84.3313C36.6261 84.3313 36.2695 84.4705 36.0167 84.7489C35.7638 85.0245 35.6374 85.3739 35.6374 85.7972V90.0586H34.6147V85.5756C34.6147 85.2035 34.494 84.9038 34.2525 84.6765C34.011 84.4464 33.6999 84.3313 33.3192 84.3313C33.0579 84.3313 32.8136 84.4009 32.5863 84.5401C32.3619 84.6793 32.18 84.8725 32.0408 85.1197C31.9045 85.364 31.8363 85.6467 31.8363 85.9677V90.0586H30.8306ZM43.9194 90.195C43.3285 90.195 42.81 90.0543 42.364 89.7731C41.9208 89.4918 41.5742 89.0984 41.3242 88.5927C41.0771 88.087 40.9535 87.4961 40.9535 86.82C40.9535 86.1381 41.0771 85.543 41.3242 85.0344C41.5742 84.5259 41.9208 84.131 42.364 83.8498C42.81 83.5685 43.3285 83.4279 43.9194 83.4279C44.5103 83.4279 45.0273 83.5685 45.4705 83.8498C45.9165 84.131 46.2631 84.5259 46.5103 85.0344C46.7603 85.543 46.8853 86.1381 46.8853 86.82C46.8853 87.4961 46.7603 88.087 46.5103 88.5927C46.2631 89.0984 45.9165 89.4918 45.4705 89.7731C45.0273 90.0543 44.5103 90.195 43.9194 90.195ZM43.9194 89.2915C44.3683 89.2915 44.7376 89.1765 45.0273 88.9464C45.3171 88.7163 45.5316 88.4137 45.6708 88.0387C45.81 87.6637 45.8796 87.2575 45.8796 86.82C45.8796 86.3825 45.81 85.9748 45.6708 85.5969C45.5316 85.2191 45.3171 84.9137 45.0273 84.6808C44.7376 84.4478 44.3683 84.3313 43.9194 84.3313C43.4705 84.3313 43.1012 84.4478 42.8114 84.6808C42.5217 84.9137 42.3072 85.2191 42.168 85.5969C42.0288 85.9748 41.9592 86.3825 41.9592 86.82C41.9592 87.2575 42.0288 87.6637 42.168 88.0387C42.3072 88.4137 42.5217 88.7163 42.8114 88.9464C43.1012 89.1765 43.4705 89.2915 43.9194 89.2915ZM48.4205 90.0586V83.5131H49.392V84.5018H49.4602C49.5795 84.1779 49.7955 83.9151 50.108 83.7134C50.4205 83.5117 50.7727 83.4109 51.1648 83.4109C51.2386 83.4109 51.331 83.4123 51.4418 83.4151C51.5526 83.418 51.6364 83.4222 51.6932 83.4279V84.4506C51.6591 84.4421 51.581 84.4293 51.4588 84.4123C51.3395 84.3924 51.2131 84.3825 51.0795 84.3825C50.7614 84.3825 50.4773 84.4492 50.2273 84.5827C49.9801 84.7134 49.7841 84.8952 49.6392 85.1282C49.4972 85.3583 49.4261 85.6211 49.4261 85.9165V90.0586H48.4205ZM52.8853 90.0586V83.5131H53.8569V84.5018H53.9251C54.0444 84.1779 54.2603 83.9151 54.5728 83.7134C54.8853 83.5117 55.2376 83.4109 55.6296 83.4109C55.7035 83.4109 55.7958 83.4123 55.9066 83.4151C56.0174 83.418 56.1012 83.4222 56.158 83.4279V84.4506C56.1239 84.4421 56.0458 84.4293 55.9237 84.4123C55.8043 84.3924 55.6779 84.3825 55.5444 84.3825C55.2262 84.3825 54.9421 84.4492 54.6921 84.5827C54.445 84.7134 54.2489 84.8952 54.104 85.1282C53.962 85.3583 53.891 85.6211 53.891 85.9165V90.0586H52.8853ZM59.81 90.195C59.2191 90.195 58.7006 90.0543 58.2546 89.7731C57.8114 89.4918 57.4648 89.0984 57.2148 88.5927C56.9677 88.087 56.8441 87.4961 56.8441 86.82C56.8441 86.1381 56.9677 85.543 57.2148 85.0344C57.4648 84.5259 57.8114 84.131 58.2546 83.8498C58.7006 83.5685 59.2191 83.4279 59.81 83.4279C60.4009 83.4279 60.918 83.5685 61.3612 83.8498C61.8072 84.131 62.1538 84.5259 62.4009 85.0344C62.6509 85.543 62.7759 86.1381 62.7759 86.82C62.7759 87.4961 62.6509 88.087 62.4009 88.5927C62.1538 89.0984 61.8072 89.4918 61.3612 89.7731C60.918 90.0543 60.4009 90.195 59.81 90.195ZM59.81 89.2915C60.2589 89.2915 60.6282 89.1765 60.918 88.9464C61.2077 88.7163 61.4222 88.4137 61.5614 88.0387C61.7006 87.6637 61.7702 87.2575 61.7702 86.82C61.7702 86.3825 61.7006 85.9748 61.5614 85.5969C61.4222 85.2191 61.2077 84.9137 60.918 84.6808C60.6282 84.4478 60.2589 84.3313 59.81 84.3313C59.3612 84.3313 58.9918 84.4478 58.7021 84.6808C58.4123 84.9137 58.1978 85.2191 58.0586 85.5969C57.9194 85.9748 57.8498 86.3825 57.8498 86.82C57.8498 87.2575 57.9194 87.6637 58.0586 88.0387C58.1978 88.4137 58.4123 88.7163 58.7021 88.9464C58.9918 89.1765 59.3612 89.2915 59.81 89.2915ZM65.5714 90.0586L63.5771 83.5131H64.6339L66.0487 88.5245H66.1168L67.5146 83.5131H68.5884L69.9691 88.5075H70.0373L71.4521 83.5131H72.5089L70.5146 90.0586H69.5259L68.0941 85.0302H67.9918L66.56 90.0586H65.5714Z" fill="white"/>
</svg>
