<svg width="164" height="130" viewBox="0 0 164 130" fill="none" xmlns="http://www.w3.org/2000/svg">
  <rect y="0.998047" width="164" height="128.119" rx="16" fill="#1F1F1F"/>
  <path d="M43.0824 30.1191L40.2983 19.9373H41.5511L43.679 28.2299H43.7784L45.946 19.9373H47.3381L49.5057 28.2299H49.6051L51.733 19.9373H52.9858L50.2017 30.1191H48.929L46.6818 22.0055H46.6023L44.3551 30.1191H43.0824ZM53.7644 30.1191V22.4828H54.8979V23.6362H54.9775C55.1167 23.2583 55.3686 22.9518 55.7332 22.7164C56.0977 22.4811 56.5087 22.3635 56.9661 22.3635C57.0523 22.3635 57.16 22.3651 57.2893 22.3684C57.4185 22.3717 57.5163 22.3767 57.5826 22.3833V23.5765C57.5428 23.5666 57.4517 23.5517 57.3092 23.5318C57.17 23.5086 57.0225 23.497 56.8667 23.497C56.4955 23.497 56.164 23.5749 55.8724 23.7306C55.584 23.8831 55.3553 24.0952 55.1863 24.367C55.0206 24.6355 54.9377 24.9421 54.9377 25.2868V30.1191H53.7644ZM58.8534 30.1191V22.4828H60.0267V30.1191H58.8534ZM59.45 21.21C59.2213 21.21 59.0241 21.1322 58.8584 20.9764C58.696 20.8206 58.6148 20.6333 58.6148 20.4146C58.6148 20.1958 58.696 20.0086 58.8584 19.8528C59.0241 19.697 59.2213 19.6191 59.45 19.6191C59.6787 19.6191 59.8742 19.697 60.0366 19.8528C60.2024 20.0086 60.2852 20.1958 60.2852 20.4146C60.2852 20.6333 60.2024 20.8206 60.0366 20.9764C59.8742 21.1322 59.6787 21.21 59.45 21.21ZM65.3767 22.4828V23.4771H61.4193V22.4828H65.3767ZM62.5727 20.6532H63.746V27.9316C63.746 28.2631 63.7941 28.5117 63.8902 28.6774C63.9896 28.8398 64.1156 28.9492 64.268 29.0055C64.4238 29.0585 64.5879 29.085 64.7602 29.085C64.8895 29.085 64.9955 29.0784 65.0784 29.0652C65.1612 29.0486 65.2275 29.0353 65.2773 29.0254L65.5159 30.0794C65.4363 30.1092 65.3253 30.139 65.1828 30.1689C65.0403 30.202 64.8596 30.2186 64.6409 30.2186C64.3094 30.2186 63.9846 30.1473 63.6665 30.0048C63.3516 29.8623 63.0898 29.6452 62.8809 29.3535C62.6755 29.0618 62.5727 28.694 62.5727 28.2498V20.6532ZM70.1413 30.2782C69.4055 30.2782 68.7708 30.1158 68.2372 29.791C67.7068 29.4629 67.2975 29.0055 67.0092 28.4189C66.7241 27.8289 66.5816 27.1428 66.5816 26.3606C66.5816 25.5784 66.7241 24.889 67.0092 24.2924C67.2975 23.6925 67.6986 23.2252 68.2123 22.8904C68.7293 22.5524 69.3326 22.3833 70.022 22.3833C70.4197 22.3833 70.8124 22.4496 71.2002 22.5822C71.588 22.7148 71.941 22.9302 72.2592 23.2285C72.5774 23.5235 72.8309 23.9146 73.0198 24.4018C73.2087 24.889 73.3032 25.4889 73.3032 26.2015V26.6987H67.4168V25.6845H72.11C72.11 25.2536 72.0238 24.8691 71.8515 24.5311C71.6825 24.193 71.4405 23.9262 71.1256 23.7306C70.8141 23.5351 70.4462 23.4373 70.022 23.4373C69.5546 23.4373 69.1503 23.5533 68.8089 23.7853C68.4708 24.014 68.2106 24.3123 68.0283 24.6802C67.8461 25.0481 67.7549 25.4425 67.7549 25.8635V26.5396C67.7549 27.1163 67.8543 27.6052 68.0532 28.0062C68.2554 28.4039 68.5354 28.7072 68.8934 28.916C69.2514 29.1215 69.6673 29.2243 70.1413 29.2243C70.4495 29.2243 70.7279 29.1812 70.9765 29.095C71.2284 29.0055 71.4455 28.8729 71.6278 28.6973C71.8101 28.5183 71.9509 28.2962 72.0504 28.0311L73.1839 28.3493C73.0646 28.7337 72.864 29.0718 72.5823 29.3635C72.3006 29.6518 71.9526 29.8772 71.5383 30.0396C71.124 30.1987 70.6583 30.2782 70.1413 30.2782ZM81.0327 30.2981C80.5488 30.2981 80.1096 30.207 79.7152 30.0247C79.3208 29.8391 79.0076 29.5723 78.7756 29.2243C78.5436 28.8729 78.4275 28.4487 78.4275 27.9515C78.4275 27.514 78.5137 27.1594 78.6861 26.8876C78.8584 26.6125 79.0888 26.3971 79.3771 26.2413C79.6655 26.0855 79.9837 25.9695 80.3317 25.8933C80.683 25.8137 81.036 25.7508 81.3906 25.7044C81.8546 25.6447 82.2308 25.6 82.5192 25.5701C82.8108 25.537 83.023 25.4823 83.1555 25.4061C83.2914 25.3298 83.3594 25.1973 83.3594 25.0083V24.9686C83.3594 24.478 83.2251 24.0969 82.9567 23.8251C82.6915 23.5533 82.2888 23.4174 81.7486 23.4174C81.1884 23.4174 80.7493 23.5401 80.4311 23.7853C80.1129 24.0306 79.8892 24.2924 79.7599 24.5708L78.6463 24.1731C78.8452 23.7091 79.1103 23.3478 79.4418 23.0893C79.7765 22.8275 80.1411 22.6452 80.5355 22.5424C80.9332 22.4364 81.3243 22.3833 81.7088 22.3833C81.9541 22.3833 82.2358 22.4132 82.554 22.4728C82.8755 22.5292 83.1854 22.6468 83.4837 22.8258C83.7853 23.0048 84.0355 23.2749 84.2344 23.6362C84.4332 23.9975 84.5327 24.4814 84.5327 25.0879V30.1191H83.3594V29.085H83.2997C83.2202 29.2508 83.0876 29.4281 82.902 29.617C82.7164 29.8059 82.4695 29.9667 82.1612 30.0993C81.853 30.2318 81.4768 30.2981 81.0327 30.2981ZM81.2116 29.2441C81.6757 29.2441 82.0668 29.153 82.3849 28.9707C82.7064 28.7884 82.9484 28.5531 83.1108 28.2647C83.2765 27.9764 83.3594 27.6731 83.3594 27.3549V26.2811C83.3097 26.3407 83.2003 26.3954 83.0312 26.4451C82.8655 26.4915 82.6733 26.533 82.4545 26.5694C82.2391 26.6026 82.0286 26.6324 81.8231 26.6589C81.621 26.6821 81.4569 26.702 81.331 26.7186C81.026 26.7583 80.741 26.823 80.4758 26.9125C80.214 26.9986 80.0019 27.1296 79.8395 27.3052C79.6804 27.4776 79.6008 27.7129 79.6008 28.0112C79.6008 28.4189 79.7516 28.7271 80.0533 28.9359C80.3582 29.1414 80.7443 29.2441 81.2116 29.2441ZM87.7275 25.5254V30.1191H86.5542V22.4828H87.6877V23.676H87.7871C87.9661 23.2882 88.2379 22.9766 88.6025 22.7413C88.9671 22.5027 89.4377 22.3833 90.0144 22.3833C90.5314 22.3833 90.9839 22.4894 91.3716 22.7015C91.7594 22.9103 92.061 23.2285 92.2765 23.6561C92.4919 24.0803 92.5996 24.6172 92.5996 25.2669V30.1191H91.4263V25.3464C91.4263 24.7465 91.2706 24.2792 90.959 23.9444C90.6475 23.6064 90.2199 23.4373 89.6763 23.4373C89.3018 23.4373 88.9671 23.5185 88.6721 23.6809C88.3804 23.8433 88.1501 24.0803 87.981 24.3919C87.812 24.7034 87.7275 25.0813 87.7275 25.5254ZM100.688 30.2981C100.204 30.2981 99.7652 30.207 99.3708 30.0247C98.9764 29.8391 98.6632 29.5723 98.4312 29.2243C98.1992 28.8729 98.0832 28.4487 98.0832 27.9515C98.0832 27.514 98.1693 27.1594 98.3417 26.8876C98.514 26.6125 98.7444 26.3971 99.0327 26.2413C99.3211 26.0855 99.6393 25.9695 99.9873 25.8933C100.339 25.8137 100.692 25.7508 101.046 25.7044C101.51 25.6447 101.886 25.6 102.175 25.5701C102.466 25.537 102.679 25.4823 102.811 25.4061C102.947 25.3298 103.015 25.1973 103.015 25.0083V24.9686C103.015 24.478 102.881 24.0969 102.612 23.8251C102.347 23.5533 101.944 23.4174 101.404 23.4174C100.844 23.4174 100.405 23.5401 100.087 23.7853C99.7685 24.0306 99.5448 24.2924 99.4156 24.5708L98.3019 24.1731C98.5008 23.7091 98.7659 23.3478 99.0974 23.0893C99.4321 22.8275 99.7967 22.6452 100.191 22.5424C100.589 22.4364 100.98 22.3833 101.364 22.3833C101.61 22.3833 101.891 22.4132 102.21 22.4728C102.531 22.5292 102.841 22.6468 103.139 22.8258C103.441 23.0048 103.691 23.2749 103.89 23.6362C104.089 23.9975 104.188 24.4814 104.188 25.0879V30.1191H103.015V29.085H102.955C102.876 29.2508 102.743 29.4281 102.558 29.617C102.372 29.8059 102.125 29.9667 101.817 30.0993C101.509 30.2318 101.132 30.2981 100.688 30.2981ZM100.867 29.2441C101.331 29.2441 101.722 29.153 102.041 28.9707C102.362 28.7884 102.604 28.5531 102.766 28.2647C102.932 27.9764 103.015 27.6731 103.015 27.3549V26.2811C102.965 26.3407 102.856 26.3954 102.687 26.4451C102.521 26.4915 102.329 26.533 102.11 26.5694C101.895 26.6026 101.684 26.6324 101.479 26.6589C101.277 26.6821 101.113 26.702 100.987 26.7186C100.682 26.7583 100.397 26.823 100.131 26.9125C99.8696 26.9986 99.6575 27.1296 99.4951 27.3052C99.336 27.4776 99.2565 27.7129 99.2565 28.0112C99.2565 28.4189 99.4073 28.7271 99.7089 28.9359C100.014 29.1414 100.4 29.2441 100.867 29.2441ZM106.21 30.1191V22.4828H107.343V23.6362H107.423C107.562 23.2583 107.814 22.9518 108.179 22.7164C108.543 22.4811 108.954 22.3635 109.412 22.3635C109.498 22.3635 109.605 22.3651 109.735 22.3684C109.864 22.3717 109.962 22.3767 110.028 22.3833V23.5765C109.988 23.5666 109.897 23.5517 109.755 23.5318C109.615 23.5086 109.468 23.497 109.312 23.497C108.941 23.497 108.609 23.5749 108.318 23.7306C108.029 23.8831 107.801 24.0952 107.632 24.367C107.466 24.6355 107.383 24.9421 107.383 25.2868V30.1191H106.21ZM115.098 22.4828V23.4771H111.141V22.4828H115.098ZM112.294 20.6532H113.468V27.9316C113.468 28.2631 113.516 28.5117 113.612 28.6774C113.711 28.8398 113.837 28.9492 113.99 29.0055C114.145 29.0585 114.309 29.085 114.482 29.085C114.611 29.085 114.717 29.0784 114.8 29.0652C114.883 29.0486 114.949 29.0353 114.999 29.0254L115.238 30.0794C115.158 30.1092 115.047 30.139 114.904 30.1689C114.762 30.202 114.581 30.2186 114.363 30.2186C114.031 30.2186 113.706 30.1473 113.388 30.0048C113.073 29.8623 112.811 29.6452 112.603 29.3535C112.397 29.0618 112.294 28.694 112.294 28.2498V20.6532ZM116.743 30.1191V22.4828H117.917V30.1191H116.743ZM117.34 21.21C117.111 21.21 116.914 21.1322 116.748 20.9764C116.586 20.8206 116.505 20.6333 116.505 20.4146C116.505 20.1958 116.586 20.0086 116.748 19.8528C116.914 19.697 117.111 19.6191 117.34 19.6191C117.569 19.6191 117.764 19.697 117.926 19.8528C118.092 20.0086 118.175 20.1958 118.175 20.4146C118.175 20.6333 118.092 20.8206 117.926 20.9764C117.764 21.1322 117.569 21.21 117.34 21.21ZM123.048 30.2782C122.332 30.2782 121.715 30.1092 121.198 29.7711C120.681 29.4331 120.284 28.9674 120.005 28.3741C119.727 27.7808 119.588 27.103 119.588 26.3407C119.588 25.5652 119.73 24.8807 120.015 24.2875C120.303 23.6909 120.705 23.2252 121.218 22.8904C121.735 22.5524 122.338 22.3833 123.028 22.3833C123.565 22.3833 124.049 22.4828 124.48 22.6816C124.91 22.8805 125.263 23.1589 125.539 23.5169C125.814 23.8748 125.984 24.2924 126.051 24.7697H124.877C124.788 24.4217 124.589 24.1135 124.281 23.845C123.976 23.5732 123.565 23.4373 123.048 23.4373C122.59 23.4373 122.189 23.5566 121.845 23.7953C121.503 24.0306 121.236 24.3637 121.044 24.7946C120.855 25.2221 120.761 25.7243 120.761 26.301C120.761 26.8909 120.854 27.4047 121.039 27.8422C121.228 28.2797 121.493 28.6194 121.835 28.8613C122.179 29.1033 122.584 29.2243 123.048 29.2243C123.353 29.2243 123.629 29.1712 123.878 29.0652C124.127 28.9591 124.337 28.8066 124.509 28.6078C124.682 28.4089 124.804 28.1703 124.877 27.8919H126.051C125.984 28.3426 125.82 28.7486 125.558 29.1099C125.3 29.4679 124.957 29.7529 124.529 29.965C124.105 30.1738 123.611 30.2782 123.048 30.2782ZM128.819 19.9373V30.1191H127.646V19.9373H128.819ZM134.05 30.2782C133.314 30.2782 132.679 30.1158 132.146 29.791C131.615 29.4629 131.206 29.0055 130.918 28.4189C130.633 27.8289 130.49 27.1428 130.49 26.3606C130.49 25.5784 130.633 24.889 130.918 24.2924C131.206 23.6925 131.607 23.2252 132.121 22.8904C132.638 22.5524 133.241 22.3833 133.93 22.3833C134.328 22.3833 134.721 22.4496 135.109 22.5822C135.497 22.7148 135.85 22.9302 136.168 23.2285C136.486 23.5235 136.739 23.9146 136.928 24.4018C137.117 24.889 137.212 25.4889 137.212 26.2015V26.6987H131.325V25.6845H136.019C136.019 25.2536 135.932 24.8691 135.76 24.5311C135.591 24.193 135.349 23.9262 135.034 23.7306C134.723 23.5351 134.355 23.4373 133.93 23.4373C133.463 23.4373 133.059 23.5533 132.717 23.7853C132.379 24.014 132.119 24.3123 131.937 24.6802C131.755 25.0481 131.663 25.4425 131.663 25.8635V26.5396C131.663 27.1163 131.763 27.6052 131.962 28.0062C132.164 28.4039 132.444 28.7072 132.802 28.916C133.16 29.1215 133.576 29.2243 134.05 29.2243C134.358 29.2243 134.636 29.1812 134.885 29.095C135.137 29.0055 135.354 28.8729 135.536 28.6973C135.719 28.5183 135.859 28.2962 135.959 28.0311L137.092 28.3493C136.973 28.7337 136.773 29.0718 136.491 29.3635C136.209 29.6518 135.861 29.8772 135.447 30.0396C135.033 30.1987 134.567 30.2782 134.05 30.2782Z" fill="white"/>
  <path d="M19.571 50.2981C19.0871 50.2981 18.648 50.207 18.2536 50.0247C17.8591 49.8391 17.5459 49.5723 17.3139 49.2243C17.0819 48.8729 16.9659 48.4487 16.9659 47.9515C16.9659 47.514 17.0521 47.1594 17.2244 46.8876C17.3968 46.6125 17.6271 46.3971 17.9155 46.2413C18.2038 46.0855 18.522 45.9695 18.87 45.8933C19.2214 45.8137 19.5743 45.7508 19.929 45.7044C20.393 45.6447 20.7692 45.6 21.0575 45.5701C21.3492 45.537 21.5613 45.4823 21.6939 45.4061C21.8298 45.3298 21.8977 45.1973 21.8977 45.0083V44.9686C21.8977 44.478 21.7635 44.0969 21.495 43.8251C21.2299 43.5533 20.8272 43.4174 20.2869 43.4174C19.7268 43.4174 19.2876 43.5401 18.9695 43.7853C18.6513 44.0306 18.4276 44.2924 18.2983 44.5708L17.1847 44.1731C17.3835 43.7091 17.6487 43.3478 17.9801 43.0893C18.3149 42.8275 18.6795 42.6452 19.0739 42.5424C19.4716 42.4364 19.8627 42.3833 20.2472 42.3833C20.4924 42.3833 20.7741 42.4132 21.0923 42.4728C21.4138 42.5292 21.7237 42.6468 22.022 42.8258C22.3236 43.0048 22.5739 43.2749 22.7727 43.6362C22.9716 43.9975 23.071 44.4814 23.071 45.0879V50.1191H21.8977V49.085H21.8381C21.7585 49.2508 21.6259 49.4281 21.4403 49.617C21.2547 49.8059 21.0078 49.9667 20.6996 50.0993C20.3913 50.2318 20.0152 50.2981 19.571 50.2981ZM19.75 49.2441C20.214 49.2441 20.6051 49.153 20.9233 48.9707C21.2448 48.7884 21.4867 48.5531 21.6491 48.2647C21.8149 47.9764 21.8977 47.6731 21.8977 47.3549V46.2811C21.848 46.3407 21.7386 46.3954 21.5696 46.4451C21.4039 46.4915 21.2116 46.533 20.9929 46.5694C20.7775 46.6026 20.567 46.6324 20.3615 46.6589C20.1593 46.6821 19.9953 46.702 19.8693 46.7186C19.5644 46.7583 19.2794 46.823 19.0142 46.9125C18.7524 46.9986 18.5402 47.1296 18.3778 47.3052C18.2188 47.4776 18.1392 47.7129 18.1392 48.0112C18.1392 48.4189 18.29 48.7271 18.5916 48.9359C18.8965 49.1414 19.2827 49.2441 19.75 49.2441ZM25.2516 50.1191V39.9373H26.4249V43.6958H26.5244C26.6105 43.5633 26.7298 43.3942 26.8823 43.1887C27.0381 42.9799 27.2601 42.7943 27.5485 42.6319C27.8402 42.4662 28.2346 42.3833 28.7317 42.3833C29.3747 42.3833 29.9415 42.5441 30.432 42.8656C30.9226 43.1871 31.3054 43.6428 31.5805 44.2328C31.8556 44.8227 31.9931 45.5188 31.9931 46.3208C31.9931 47.1296 31.8556 47.8306 31.5805 48.4238C31.3054 49.0138 30.9242 49.4712 30.437 49.796C29.9498 50.1175 29.388 50.2782 28.7516 50.2782C28.2611 50.2782 27.8683 50.197 27.5734 50.0346C27.2784 49.8689 27.0513 49.6816 26.8923 49.4728C26.7332 49.2607 26.6105 49.085 26.5244 48.9458H26.3851V50.1191H25.2516ZM26.405 46.301C26.405 46.8777 26.4896 47.3864 26.6586 47.8272C26.8276 48.2647 27.0745 48.6078 27.3994 48.8564C27.7242 49.1016 28.1219 49.2243 28.5925 49.2243C29.0831 49.2243 29.4924 49.095 29.8205 48.8365C30.152 48.5746 30.4005 48.2233 30.5663 47.7825C30.7353 47.3384 30.8198 46.8445 30.8198 46.301C30.8198 45.764 30.7369 45.2801 30.5712 44.8493C30.4088 44.4151 30.1619 44.072 29.8305 43.8201C29.5023 43.5649 29.0897 43.4373 28.5925 43.4373C28.1153 43.4373 27.7142 43.5583 27.3894 43.8002C27.0646 44.0389 26.8193 44.3736 26.6536 44.8045C26.4879 45.2321 26.405 45.7309 26.405 46.301ZM36.7701 50.2782C36.0807 50.2782 35.4759 50.1142 34.9555 49.786C34.4384 49.4579 34.0341 48.9989 33.7424 48.4089C33.4541 47.819 33.3099 47.1296 33.3099 46.3407C33.3099 45.5453 33.4541 44.8509 33.7424 44.2576C34.0341 43.6644 34.4384 43.2037 34.9555 42.8755C35.4759 42.5474 36.0807 42.3833 36.7701 42.3833C37.4595 42.3833 38.0627 42.5474 38.5798 42.8755C39.1001 43.2037 39.5045 43.6644 39.7928 44.2576C40.0845 44.8509 40.2303 45.5453 40.2303 46.3407C40.2303 47.1296 40.0845 47.819 39.7928 48.4089C39.5045 48.9989 39.1001 49.4579 38.5798 49.786C38.0627 50.1142 37.4595 50.2782 36.7701 50.2782ZM36.7701 49.2243C37.2938 49.2243 37.7247 49.09 38.0627 48.8216C38.4008 48.5531 38.651 48.2001 38.8134 47.7626C38.9759 47.3251 39.0571 46.8511 39.0571 46.3407C39.0571 45.8303 38.9759 45.3547 38.8134 44.9139C38.651 44.4731 38.4008 44.1168 38.0627 43.845C37.7247 43.5732 37.2938 43.4373 36.7701 43.4373C36.2464 43.4373 35.8156 43.5732 35.4775 43.845C35.1394 44.1168 34.8892 44.4731 34.7268 44.9139C34.5644 45.3547 34.4832 45.8303 34.4832 46.3407C34.4832 46.8511 34.5644 47.3251 34.7268 47.7626C34.8892 48.2001 35.1394 48.5531 35.4775 48.8216C35.8156 49.09 36.2464 49.2243 36.7701 49.2243ZM46.7139 46.997V42.4828H47.8872V50.1191H46.7139V48.8265H46.6343C46.4553 49.2143 46.1769 49.5441 45.7991 49.8159C45.4212 50.0843 44.944 50.2186 44.3673 50.2186C43.89 50.2186 43.4658 50.1142 43.0945 49.9054C42.7233 49.6932 42.4317 49.3751 42.2195 48.9508C42.0074 48.5233 41.9014 47.9847 41.9014 47.335V42.4828H43.0747V47.2555C43.0747 47.8123 43.2304 48.2565 43.542 48.5879C43.8569 48.9193 44.2579 49.085 44.7451 49.085C45.0368 49.085 45.3334 49.0105 45.635 48.8613C45.94 48.7122 46.1952 48.4835 46.4007 48.1752C46.6095 47.867 46.7139 47.4743 46.7139 46.997ZM53.2372 42.4828V43.4771H49.2798V42.4828H53.2372ZM50.4332 40.6532H51.6065V47.9316C51.6065 48.2631 51.6545 48.5117 51.7506 48.6774C51.8501 48.8398 51.976 48.9492 52.1285 49.0055C52.2843 49.0585 52.4483 49.085 52.6207 49.085C52.7499 49.085 52.856 49.0784 52.9389 49.0652C53.0217 49.0486 53.088 49.0353 53.1377 49.0254L53.3764 50.0794C53.2968 50.1092 53.1858 50.139 53.0433 50.1689C52.9007 50.202 52.7201 50.2186 52.5014 50.2186C52.1699 50.2186 51.8451 50.1473 51.5269 50.0048C51.2121 49.8623 50.9502 49.6452 50.7414 49.3535C50.5359 49.0618 50.4332 48.694 50.4332 48.2498V40.6532ZM60.9467 50.2981C60.4628 50.2981 60.0237 50.207 59.6293 50.0247C59.2348 49.8391 58.9216 49.5723 58.6896 49.2243C58.4576 48.8729 58.3416 48.4487 58.3416 47.9515C58.3416 47.514 58.4278 47.1594 58.6001 46.8876C58.7725 46.6125 59.0028 46.3971 59.2912 46.2413C59.5795 46.0855 59.8977 45.9695 60.2457 45.8933C60.5971 45.8137 60.95 45.7508 61.3047 45.7044C61.7687 45.6447 62.1449 45.6 62.4332 45.5701C62.7249 45.537 62.937 45.4823 63.0696 45.4061C63.2055 45.3298 63.2734 45.1973 63.2734 45.0083V44.9686C63.2734 44.478 63.1392 44.0969 62.8707 43.8251C62.6056 43.5533 62.2029 43.4174 61.6626 43.4174C61.1025 43.4174 60.6633 43.5401 60.3452 43.7853C60.027 44.0306 59.8033 44.2924 59.674 44.5708L58.5604 44.1731C58.7592 43.7091 59.0244 43.3478 59.3558 43.0893C59.6906 42.8275 60.0552 42.6452 60.4496 42.5424C60.8473 42.4364 61.2384 42.3833 61.6229 42.3833C61.8681 42.3833 62.1498 42.4132 62.468 42.4728C62.7895 42.5292 63.0994 42.6468 63.3977 42.8258C63.6993 43.0048 63.9496 43.2749 64.1484 43.6362C64.3473 43.9975 64.4467 44.4814 64.4467 45.0879V50.1191H63.2734V49.085H63.2138C63.1342 49.2508 63.0016 49.4281 62.816 49.617C62.6304 49.8059 62.3835 49.9667 62.0753 50.0993C61.767 50.2318 61.3909 50.2981 60.9467 50.2981ZM61.1257 49.2441C61.5897 49.2441 61.9808 49.153 62.299 48.9707C62.6205 48.7884 62.8624 48.5531 63.0248 48.2647C63.1906 47.9764 63.2734 47.6731 63.2734 47.3549V46.2811C63.2237 46.3407 63.1143 46.3954 62.9453 46.4451C62.7796 46.4915 62.5873 46.533 62.3686 46.5694C62.1532 46.6026 61.9427 46.6324 61.7372 46.6589C61.535 46.6821 61.371 46.702 61.245 46.7186C60.9401 46.7583 60.6551 46.823 60.3899 46.9125C60.1281 46.9986 59.9159 47.1296 59.7535 47.3052C59.5945 47.4776 59.5149 47.7129 59.5149 48.0112C59.5149 48.4189 59.6657 48.7271 59.9673 48.9359C60.2722 49.1414 60.6584 49.2441 61.1257 49.2441ZM75.6948 44.193L74.6409 44.4913C74.5746 44.3156 74.4768 44.1449 74.3475 43.9792C74.2216 43.8102 74.0492 43.671 73.8305 43.5616C73.6117 43.4522 73.3317 43.3975 72.9903 43.3975C72.523 43.3975 72.1335 43.5053 71.822 43.7207C71.5137 43.9328 71.3596 44.2029 71.3596 44.5311C71.3596 44.8227 71.4657 45.0531 71.6778 45.2221C71.8899 45.3912 72.2213 45.532 72.6721 45.6447L73.8056 45.9231C74.4884 46.0888 74.9972 46.3424 75.3319 46.6838C75.6667 47.0218 75.834 47.4577 75.834 47.9913C75.834 48.4288 75.7081 48.8199 75.4562 49.1646C75.2076 49.5093 74.8596 49.7811 74.4122 49.9799C73.9647 50.1788 73.4444 50.2782 72.8511 50.2782C72.0722 50.2782 71.4275 50.1092 70.9171 49.7711C70.4067 49.4331 70.0836 48.9392 69.9477 48.2896L71.0613 48.0112C71.1674 48.4222 71.3679 48.7304 71.6629 48.9359C71.9612 49.1414 72.3506 49.2441 72.8312 49.2441C73.3781 49.2441 73.8123 49.1281 74.1338 48.8961C74.4586 48.6608 74.621 48.3791 74.621 48.051C74.621 47.7858 74.5282 47.5637 74.3426 47.3848C74.157 47.2025 73.8719 47.0666 73.4874 46.9771L72.2147 46.6788C71.5154 46.5131 71.0016 46.2562 70.6735 45.9082C70.3487 45.5569 70.1863 45.1177 70.1863 44.5907C70.1863 44.1599 70.3073 43.7787 70.5492 43.4473C70.7945 43.1158 71.1276 42.8556 71.5485 42.6667C71.9728 42.4778 72.4534 42.3833 72.9903 42.3833C73.746 42.3833 74.3392 42.5491 74.7701 42.8805C75.2043 43.2119 75.5125 43.6494 75.6948 44.193ZM82.2927 46.997V42.4828H83.466V50.1191H82.2927V48.8265H82.2131C82.0342 49.2143 81.7558 49.5441 81.3779 49.8159C81.0001 50.0843 80.5228 50.2186 79.9461 50.2186C79.4688 50.2186 79.0446 50.1142 78.6734 49.9054C78.3022 49.6932 78.0105 49.3751 77.7984 48.9508C77.5863 48.5233 77.4802 47.9847 77.4802 47.335V42.4828H78.6535V47.2555C78.6535 47.8123 78.8093 48.2565 79.1208 48.5879C79.4357 48.9193 79.8367 49.085 80.3239 49.085C80.6156 49.085 80.9122 49.0105 81.2139 48.8613C81.5188 48.7122 81.774 48.4835 81.9795 48.1752C82.1883 47.867 82.2927 47.4743 82.2927 46.997ZM90.9041 44.193L89.8501 44.4913C89.7838 44.3156 89.686 44.1449 89.5568 43.9792C89.4308 43.8102 89.2585 43.671 89.0397 43.5616C88.821 43.4522 88.5409 43.3975 88.1995 43.3975C87.7322 43.3975 87.3427 43.5053 87.0312 43.7207C86.7229 43.9328 86.5688 44.2029 86.5688 44.5311C86.5688 44.8227 86.6749 45.0531 86.887 45.2221C87.0991 45.3912 87.4306 45.532 87.8813 45.6447L89.0148 45.9231C89.6976 46.0888 90.2064 46.3424 90.5411 46.6838C90.8759 47.0218 91.0433 47.4577 91.0433 47.9913C91.0433 48.4288 90.9173 48.8199 90.6654 49.1646C90.4168 49.5093 90.0688 49.7811 89.6214 49.9799C89.1739 50.1788 88.6536 50.2782 88.0603 50.2782C87.2814 50.2782 86.6368 50.1092 86.1264 49.7711C85.6159 49.4331 85.2928 48.9392 85.1569 48.2896L86.2705 48.0112C86.3766 48.4222 86.5771 48.7304 86.8721 48.9359C87.1704 49.1414 87.5598 49.2441 88.0404 49.2441C88.5873 49.2441 89.0215 49.1281 89.343 48.8961C89.6678 48.6608 89.8302 48.3791 89.8302 48.051C89.8302 47.7858 89.7374 47.5637 89.5518 47.3848C89.3662 47.2025 89.0811 47.0666 88.6967 46.9771L87.4239 46.6788C86.7246 46.5131 86.2109 46.2562 85.8827 45.9082C85.5579 45.5569 85.3955 45.1177 85.3955 44.5907C85.3955 44.1599 85.5165 43.7787 85.7585 43.4473C86.0037 43.1158 86.3368 42.8556 86.7577 42.6667C87.182 42.4778 87.6626 42.3833 88.1995 42.3833C88.9552 42.3833 89.5485 42.5491 89.9793 42.8805C90.4135 43.2119 90.7218 43.6494 90.9041 44.193ZM96.0104 42.4828V43.4771H92.053V42.4828H96.0104ZM93.2065 40.6532H94.3798V47.9316C94.3798 48.2631 94.4278 48.5117 94.5239 48.6774C94.6234 48.8398 94.7493 48.9492 94.9018 49.0055C95.0575 49.0585 95.2216 49.085 95.394 49.085C95.5232 49.085 95.6293 49.0784 95.7121 49.0652C95.795 49.0486 95.8613 49.0353 95.911 49.0254L96.1496 50.0794C96.0701 50.1092 95.9591 50.139 95.8165 50.1689C95.674 50.202 95.4934 50.2186 95.2746 50.2186C94.9432 50.2186 94.6184 50.1473 94.3002 50.0048C93.9853 49.8623 93.7235 49.6452 93.5147 49.3535C93.3092 49.0618 93.2065 48.694 93.2065 48.2498V40.6532ZM99.9025 50.2981C99.4186 50.2981 98.9794 50.207 98.585 50.0247C98.1906 49.8391 97.8774 49.5723 97.6454 49.2243C97.4134 48.8729 97.2974 48.4487 97.2974 47.9515C97.2974 47.514 97.3836 47.1594 97.5559 46.8876C97.7283 46.6125 97.9586 46.3971 98.247 46.2413C98.5353 46.0855 98.8535 45.9695 99.2015 45.8933C99.5528 45.8137 99.9058 45.7508 100.26 45.7044C100.724 45.6447 101.101 45.6 101.389 45.5701C101.681 45.537 101.893 45.4823 102.025 45.4061C102.161 45.3298 102.229 45.1973 102.229 45.0083V44.9686C102.229 44.478 102.095 44.0969 101.827 43.8251C101.561 43.5533 101.159 43.4174 100.618 43.4174C100.058 43.4174 99.6191 43.5401 99.3009 43.7853C98.9828 44.0306 98.759 44.2924 98.6298 44.5708L97.5161 44.1731C97.715 43.7091 97.9802 43.3478 98.3116 43.0893C98.6463 42.8275 99.0109 42.6452 99.4053 42.5424C99.8031 42.4364 100.194 42.3833 100.579 42.3833C100.824 42.3833 101.106 42.4132 101.424 42.4728C101.745 42.5292 102.055 42.6468 102.353 42.8258C102.655 43.0048 102.905 43.2749 103.104 43.6362C103.303 43.9975 103.403 44.4814 103.403 45.0879V50.1191H102.229V49.085H102.17C102.09 49.2508 101.957 49.4281 101.772 49.617C101.586 49.8059 101.339 49.9667 101.031 50.0993C100.723 50.2318 100.347 50.2981 99.9025 50.2981ZM100.081 49.2441C100.545 49.2441 100.937 49.153 101.255 48.9707C101.576 48.7884 101.818 48.5531 101.981 48.2647C102.146 47.9764 102.229 47.6731 102.229 47.3549V46.2811C102.179 46.3407 102.07 46.3954 101.901 46.4451C101.735 46.4915 101.543 46.533 101.324 46.5694C101.109 46.6026 100.898 46.6324 100.693 46.6589C100.491 46.6821 100.327 46.702 100.201 46.7186C99.8959 46.7583 99.6108 46.823 99.3457 46.9125C99.0838 46.9986 98.8717 47.1296 98.7093 47.3052C98.5502 47.4776 98.4707 47.7129 98.4707 48.0112C98.4707 48.4189 98.6215 48.7271 98.9231 48.9359C99.228 49.1414 99.6142 49.2441 100.081 49.2441ZM105.424 50.1191V42.4828H106.597V50.1191H105.424ZM106.021 41.21C105.792 41.21 105.595 41.1322 105.429 40.9764C105.267 40.8206 105.185 40.6333 105.185 40.4146C105.185 40.1958 105.267 40.0086 105.429 39.8528C105.595 39.697 105.792 39.6191 106.021 39.6191C106.249 39.6191 106.445 39.697 106.607 39.8528C106.773 40.0086 106.856 40.1958 106.856 40.4146C106.856 40.6333 106.773 40.8206 106.607 40.9764C106.445 41.1322 106.249 41.21 106.021 41.21ZM109.8 45.5254V50.1191H108.626V42.4828H109.76V43.676H109.859C110.038 43.2882 110.31 42.9766 110.675 42.7413C111.039 42.5027 111.51 42.3833 112.087 42.3833C112.604 42.3833 113.056 42.4894 113.444 42.7015C113.832 42.9103 114.133 43.2285 114.349 43.6561C114.564 44.0803 114.672 44.6172 114.672 45.2669V50.1191H113.498V45.3464C113.498 44.7465 113.343 44.2792 113.031 43.9444C112.72 43.6064 112.292 43.4373 111.748 43.4373C111.374 43.4373 111.039 43.5185 110.744 43.6809C110.453 43.8433 110.222 44.0803 110.053 44.3919C109.884 44.7034 109.8 45.0813 109.8 45.5254ZM118.943 50.2981C118.459 50.2981 118.02 50.207 117.625 50.0247C117.231 49.8391 116.918 49.5723 116.686 49.2243C116.454 48.8729 116.338 48.4487 116.338 47.9515C116.338 47.514 116.424 47.1594 116.596 46.8876C116.769 46.6125 116.999 46.3971 117.287 46.2413C117.576 46.0855 117.894 45.9695 118.242 45.8933C118.593 45.8137 118.946 45.7508 119.301 45.7044C119.765 45.6447 120.141 45.6 120.429 45.5701C120.721 45.537 120.933 45.4823 121.066 45.4061C121.202 45.3298 121.27 45.1973 121.27 45.0083V44.9686C121.27 44.478 121.135 44.0969 120.867 43.8251C120.602 43.5533 120.199 43.4174 119.659 43.4174C119.099 43.4174 118.66 43.5401 118.341 43.7853C118.023 44.0306 117.799 44.2924 117.67 44.5708L116.557 44.1731C116.755 43.7091 117.021 43.3478 117.352 43.0893C117.687 42.8275 118.051 42.6452 118.446 42.5424C118.843 42.4364 119.235 42.3833 119.619 42.3833C119.864 42.3833 120.146 42.4132 120.464 42.4728C120.786 42.5292 121.096 42.6468 121.394 42.8258C121.695 43.0048 121.946 43.2749 122.145 43.6362C122.343 43.9975 122.443 44.4814 122.443 45.0879V50.1191H121.27V49.085H121.21C121.13 49.2508 120.998 49.4281 120.812 49.617C120.627 49.8059 120.38 49.9667 120.071 50.0993C119.763 50.2318 119.387 50.2981 118.943 50.2981ZM119.122 49.2441C119.586 49.2441 119.977 49.153 120.295 48.9707C120.617 48.7884 120.859 48.5531 121.021 48.2647C121.187 47.9764 121.27 47.6731 121.27 47.3549V46.2811C121.22 46.3407 121.111 46.3954 120.941 46.4451C120.776 46.4915 120.584 46.533 120.365 46.5694C120.149 46.6026 119.939 46.6324 119.733 46.6589C119.531 46.6821 119.367 46.702 119.241 46.7186C118.936 46.7583 118.651 46.823 118.386 46.9125C118.124 46.9986 117.912 47.1296 117.75 47.3052C117.591 47.4776 117.511 47.7129 117.511 48.0112C117.511 48.4189 117.662 48.7271 117.963 48.9359C118.268 49.1414 118.655 49.2441 119.122 49.2441ZM124.624 50.1191V39.9373H125.797V43.6958H125.896C125.982 43.5633 126.102 43.3942 126.254 43.1887C126.41 42.9799 126.632 42.7943 126.92 42.6319C127.212 42.4662 127.606 42.3833 128.104 42.3833C128.747 42.3833 129.313 42.5441 129.804 42.8656C130.294 43.1871 130.677 43.6428 130.952 44.2328C131.227 44.8227 131.365 45.5188 131.365 46.3208C131.365 47.1296 131.227 47.8306 130.952 48.4238C130.677 49.0138 130.296 49.4712 129.809 49.796C129.322 50.1175 128.76 50.2782 128.124 50.2782C127.633 50.2782 127.24 50.197 126.945 50.0346C126.65 49.8689 126.423 49.6816 126.264 49.4728C126.105 49.2607 125.982 49.085 125.896 48.9458H125.757V50.1191H124.624ZM125.777 46.301C125.777 46.8777 125.861 47.3864 126.03 47.8272C126.199 48.2647 126.446 48.6078 126.771 48.8564C127.096 49.1016 127.494 49.2243 127.964 49.2243C128.455 49.2243 128.864 49.095 129.192 48.8365C129.524 48.5746 129.772 48.2233 129.938 47.7825C130.107 47.3384 130.192 46.8445 130.192 46.301C130.192 45.764 130.109 45.2801 129.943 44.8493C129.781 44.4151 129.534 44.072 129.202 43.8201C128.874 43.5649 128.462 43.4373 127.964 43.4373C127.487 43.4373 127.086 43.5583 126.761 43.8002C126.436 44.0389 126.191 44.3736 126.025 44.8045C125.86 45.2321 125.777 45.7309 125.777 46.301ZM134.213 39.9373V50.1191H133.04V39.9373H134.213ZM139.444 50.2782C138.708 50.2782 138.073 50.1158 137.54 49.791C137.009 49.4629 136.6 49.0055 136.312 48.4189C136.027 47.8289 135.884 47.1428 135.884 46.3606C135.884 45.5784 136.027 44.889 136.312 44.2924C136.6 43.6925 137.001 43.2252 137.515 42.8904C138.032 42.5524 138.635 42.3833 139.324 42.3833C139.722 42.3833 140.115 42.4496 140.503 42.5822C140.89 42.7148 141.243 42.9302 141.562 43.2285C141.88 43.5235 142.133 43.9146 142.322 44.4018C142.511 44.889 142.606 45.4889 142.606 46.2015V46.6987H136.719V45.6845H141.412C141.412 45.2536 141.326 44.8691 141.154 44.5311C140.985 44.193 140.743 43.9262 140.428 43.7306C140.117 43.5351 139.749 43.4373 139.324 43.4373C138.857 43.4373 138.453 43.5533 138.111 43.7853C137.773 44.014 137.513 44.3123 137.331 44.6802C137.148 45.0481 137.057 45.4425 137.057 45.8635V46.5396C137.057 47.1163 137.157 47.6052 137.356 48.0062C137.558 48.4039 137.838 48.7072 138.196 48.916C138.554 49.1215 138.97 49.2243 139.444 49.2243C139.752 49.2243 140.03 49.1812 140.279 49.095C140.531 49.0055 140.748 48.8729 140.93 48.6973C141.112 48.5183 141.253 48.2962 141.353 48.0311L142.486 48.3493C142.367 48.7337 142.166 49.0718 141.885 49.3635C141.603 49.6518 141.255 49.8772 140.841 50.0396C140.426 50.1987 139.961 50.2782 139.444 50.2782ZM17.3239 72.9828V62.4828H18.4574V63.6958H18.5966C18.6828 63.5633 18.8021 63.3942 18.9545 63.1887C19.1103 62.9799 19.3324 62.7943 19.6207 62.6319C19.9124 62.4662 20.3068 62.3833 20.804 62.3833C21.447 62.3833 22.0137 62.5441 22.5043 62.8656C22.9948 63.1871 23.3776 63.6428 23.6527 64.2328C23.9278 64.8227 24.0653 65.5188 24.0653 66.3208C24.0653 67.1296 23.9278 67.8306 23.6527 68.4238C23.3776 69.0138 22.9964 69.4712 22.5092 69.796C22.022 70.1175 21.4602 70.2782 20.8239 70.2782C20.3333 70.2782 19.9406 70.197 19.6456 70.0346C19.3506 69.8689 19.1236 69.6816 18.9645 69.4728C18.8054 69.2607 18.6828 69.085 18.5966 68.9458H18.4972V72.9828H17.3239ZM18.4773 66.301C18.4773 66.8777 18.5618 67.3864 18.7308 67.8272C18.8999 68.2647 19.1468 68.6078 19.4716 68.8564C19.7964 69.1016 20.1941 69.2243 20.6648 69.2243C21.1553 69.2243 21.5646 69.095 21.8928 68.8365C22.2242 68.5746 22.4728 68.2233 22.6385 67.7825C22.8075 67.3384 22.892 66.8445 22.892 66.301C22.892 65.764 22.8092 65.2801 22.6435 64.8493C22.4811 64.4151 22.2341 64.072 21.9027 63.8201C21.5746 63.5649 21.1619 63.4373 20.6648 63.4373C20.1875 63.4373 19.7865 63.5583 19.4616 63.8002C19.1368 64.0389 18.8916 64.3736 18.7259 64.8045C18.5601 65.2321 18.4773 65.7309 18.4773 66.301ZM28.9368 70.2782C28.201 70.2782 27.5663 70.1158 27.0327 69.791C26.5024 69.4629 26.0931 69.0055 25.8047 68.4189C25.5197 67.8289 25.3772 67.1428 25.3772 66.3606C25.3772 65.5784 25.5197 64.889 25.8047 64.2924C26.0931 63.6925 26.4941 63.2252 27.0078 62.8904C27.5249 62.5524 28.1281 62.3833 28.8175 62.3833C29.2152 62.3833 29.608 62.4496 29.9958 62.5822C30.3836 62.7148 30.7365 62.9302 31.0547 63.2285C31.3729 63.5235 31.6264 63.9146 31.8154 64.4018C32.0043 64.889 32.0988 65.4889 32.0988 66.2015V66.6987H26.2124V65.6845H30.9056C30.9056 65.2536 30.8194 64.8691 30.647 64.5311C30.478 64.193 30.2361 63.9262 29.9212 63.7306C29.6096 63.5351 29.2417 63.4373 28.8175 63.4373C28.3502 63.4373 27.9458 63.5533 27.6044 63.7853C27.2664 64.014 27.0062 64.3123 26.8239 64.6802C26.6416 65.0481 26.5505 65.4425 26.5505 65.8635V66.5396C26.5505 67.1163 26.6499 67.6052 26.8488 68.0062C27.0509 68.4039 27.331 68.7072 27.6889 68.916C28.0469 69.1215 28.4629 69.2243 28.9368 69.2243C29.2451 69.2243 29.5235 69.1812 29.772 69.095C30.0239 69.0055 30.241 68.8729 30.4233 68.6973C30.6056 68.5183 30.7465 68.2962 30.8459 68.0311L31.9794 68.3493C31.8601 68.7337 31.6596 69.0718 31.3779 69.3635C31.0961 69.6518 30.7481 69.8772 30.3338 70.0396C29.9195 70.1987 29.4539 70.2782 28.9368 70.2782ZM36.9653 70.2782C36.2295 70.2782 35.5948 70.1158 35.0611 69.791C34.5308 69.4629 34.1215 69.0055 33.8332 68.4189C33.5481 67.8289 33.4056 67.1428 33.4056 66.3606C33.4056 65.5784 33.5481 64.889 33.8332 64.2924C34.1215 63.6925 34.5225 63.2252 35.0363 62.8904C35.5533 62.5524 36.1565 62.3833 36.8459 62.3833C37.2437 62.3833 37.6364 62.4496 38.0242 62.5822C38.412 62.7148 38.765 62.9302 39.0832 63.2285C39.4013 63.5235 39.6549 63.9146 39.8438 64.4018C40.0327 64.889 40.1272 65.4889 40.1272 66.2015V66.6987H34.2408V65.6845H38.934C38.934 65.2536 38.8478 64.8691 38.6755 64.5311C38.5064 64.193 38.2645 63.9262 37.9496 63.7306C37.6381 63.5351 37.2702 63.4373 36.8459 63.4373C36.3786 63.4373 35.9743 63.5533 35.6329 63.7853C35.2948 64.014 35.0346 64.3123 34.8523 64.6802C34.67 65.0481 34.5789 65.4425 34.5789 65.8635V66.5396C34.5789 67.1163 34.6783 67.6052 34.8772 68.0062C35.0794 68.4039 35.3594 68.7072 35.7174 68.916C36.0753 69.1215 36.4913 69.2243 36.9653 69.2243C37.2735 69.2243 37.5519 69.1812 37.8005 69.095C38.0524 69.0055 38.2695 68.8729 38.4518 68.6973C38.6341 68.5183 38.7749 68.2962 38.8743 68.0311L40.0079 68.3493C39.8886 68.7337 39.688 69.0718 39.4063 69.3635C39.1246 69.6518 38.7766 69.8772 38.3623 70.0396C37.948 70.1987 37.4823 70.2782 36.9653 70.2782ZM41.792 70.1191V62.4828H42.9255V63.6362H43.0051C43.1443 63.2583 43.3962 62.9518 43.7607 62.7164C44.1253 62.4811 44.5363 62.3635 44.9937 62.3635C45.0799 62.3635 45.1876 62.3651 45.3168 62.3684C45.4461 62.3717 45.5439 62.3767 45.6102 62.3833V63.5765C45.5704 63.5666 45.4793 63.5517 45.3367 63.5318C45.1975 63.5086 45.05 63.497 44.8943 63.497C44.523 63.497 44.1916 63.5749 43.8999 63.7306C43.6116 63.8831 43.3829 64.0952 43.2139 64.367C43.0481 64.6355 42.9653 64.9421 42.9653 65.2868V70.1191H41.792ZM54.0195 62.4828V63.4771H50.0621V62.4828H54.0195ZM51.2155 60.6532H52.3888V67.9316C52.3888 68.2631 52.4369 68.5117 52.533 68.6774C52.6324 68.8398 52.7584 68.9492 52.9108 69.0055C53.0666 69.0585 53.2307 69.085 53.403 69.085C53.5323 69.085 53.6383 69.0784 53.7212 69.0652C53.8041 69.0486 53.8703 69.0353 53.9201 69.0254L54.1587 70.0794C54.0792 70.1092 53.9681 70.139 53.8256 70.1689C53.6831 70.202 53.5025 70.2186 53.2837 70.2186C52.9523 70.2186 52.6275 70.1473 52.3093 70.0048C51.9944 69.8623 51.7326 69.6452 51.5238 69.3535C51.3183 69.0618 51.2155 68.694 51.2155 68.2498V60.6532ZM58.6847 70.2782C57.9953 70.2782 57.3904 70.1142 56.87 69.786C56.353 69.4579 55.9486 68.9989 55.657 68.4089C55.3686 67.819 55.2244 67.1296 55.2244 66.3407C55.2244 65.5453 55.3686 64.8509 55.657 64.2576C55.9486 63.6644 56.353 63.2037 56.87 62.8755C57.3904 62.5474 57.9953 62.3833 58.6847 62.3833C59.374 62.3833 59.9773 62.5474 60.4943 62.8755C61.0147 63.2037 61.419 63.6644 61.7074 64.2576C61.999 64.8509 62.1449 65.5453 62.1449 66.3407C62.1449 67.1296 61.999 67.819 61.7074 68.4089C61.419 68.9989 61.0147 69.4579 60.4943 69.786C59.9773 70.1142 59.374 70.2782 58.6847 70.2782ZM58.6847 69.2243C59.2083 69.2243 59.6392 69.09 59.9773 68.8216C60.3153 68.5531 60.5656 68.2001 60.728 67.7626C60.8904 67.3251 60.9716 66.8511 60.9716 66.3407C60.9716 65.8303 60.8904 65.3547 60.728 64.9139C60.5656 64.4731 60.3153 64.1168 59.9773 63.845C59.6392 63.5732 59.2083 63.4373 58.6847 63.4373C58.161 63.4373 57.7301 63.5732 57.392 63.845C57.054 64.1168 56.8037 64.4731 56.6413 64.9139C56.4789 65.3547 56.3977 65.8303 56.3977 66.3407C56.3977 66.8511 56.4789 67.3251 56.6413 67.7626C56.8037 68.2001 57.054 68.5531 57.392 68.8216C57.7301 69.09 58.161 69.2243 58.6847 69.2243ZM67.6334 72.9828V62.4828H68.7669V63.6958H68.9061C68.9923 63.5633 69.1116 63.3942 69.2641 63.1887C69.4199 62.9799 69.6419 62.7943 69.9303 62.6319C70.2219 62.4662 70.6164 62.3833 71.1135 62.3833C71.7565 62.3833 72.3233 62.5441 72.8138 62.8656C73.3043 63.1871 73.6871 63.6428 73.9622 64.2328C74.2373 64.8227 74.3749 65.5188 74.3749 66.3208C74.3749 67.1296 74.2373 67.8306 73.9622 68.4238C73.6871 69.0138 73.306 69.4712 72.8188 69.796C72.3315 70.1175 71.7698 70.2782 71.1334 70.2782C70.6429 70.2782 70.2501 70.197 69.9551 70.0346C69.6601 69.8689 69.4331 69.6816 69.274 69.4728C69.1149 69.2607 68.9923 69.085 68.9061 68.9458H68.8067V72.9828H67.6334ZM68.7868 66.301C68.7868 66.8777 68.8713 67.3864 69.0404 67.8272C69.2094 68.2647 69.4563 68.6078 69.7811 68.8564C70.1059 69.1016 70.5037 69.2243 70.9743 69.2243C71.4648 69.2243 71.8742 69.095 72.2023 68.8365C72.5337 68.5746 72.7823 68.2233 72.948 67.7825C73.1171 67.3384 73.2016 66.8445 73.2016 66.301C73.2016 65.764 73.1187 65.2801 72.953 64.8493C72.7906 64.4151 72.5437 64.072 72.2122 63.8201C71.8841 63.5649 71.4715 63.4373 70.9743 63.4373C70.497 63.4373 70.096 63.5583 69.7712 63.8002C69.4464 64.0389 69.2011 64.3736 69.0354 64.8045C68.8697 65.2321 68.7868 65.7309 68.7868 66.301ZM79.2463 70.2782C78.5106 70.2782 77.8758 70.1158 77.3422 69.791C76.8119 69.4629 76.4026 69.0055 76.1142 68.4189C75.8292 67.8289 75.6867 67.1428 75.6867 66.3606C75.6867 65.5784 75.8292 64.889 76.1142 64.2924C76.4026 63.6925 76.8036 63.2252 77.3174 62.8904C77.8344 62.5524 78.4376 62.3833 79.127 62.3833C79.5248 62.3833 79.9175 62.4496 80.3053 62.5822C80.6931 62.7148 81.0461 62.9302 81.3642 63.2285C81.6824 63.5235 81.936 63.9146 82.1249 64.4018C82.3138 64.889 82.4083 65.4889 82.4083 66.2015V66.6987H76.5219V65.6845H81.2151C81.2151 65.2536 81.1289 64.8691 80.9566 64.5311C80.7875 64.193 80.5456 63.9262 80.2307 63.7306C79.9192 63.5351 79.5513 63.4373 79.127 63.4373C78.6597 63.4373 78.2553 63.5533 77.914 63.7853C77.5759 64.014 77.3157 64.3123 77.1334 64.6802C76.9511 65.0481 76.86 65.4425 76.86 65.8635V66.5396C76.86 67.1163 76.9594 67.6052 77.1583 68.0062C77.3605 68.4039 77.6405 68.7072 77.9985 68.916C78.3564 69.1215 78.7724 69.2243 79.2463 69.2243C79.5546 69.2243 79.833 69.1812 80.0816 69.095C80.3335 69.0055 80.5506 68.8729 80.7329 68.6973C80.9151 68.5183 81.056 68.2962 81.1554 68.0311L82.289 68.3493C82.1696 68.7337 81.9691 69.0718 81.6874 69.3635C81.4057 69.6518 81.0577 69.8772 80.6434 70.0396C80.2291 70.1987 79.7634 70.2782 79.2463 70.2782ZM87.2748 70.2782C86.539 70.2782 85.9043 70.1158 85.3707 69.791C84.8404 69.4629 84.431 69.0055 84.1427 68.4189C83.8576 67.8289 83.7151 67.1428 83.7151 66.3606C83.7151 65.5784 83.8576 64.889 84.1427 64.2924C84.431 63.6925 84.8321 63.2252 85.3458 62.8904C85.8629 62.5524 86.4661 62.3833 87.1555 62.3833C87.5532 62.3833 87.946 62.4496 88.3337 62.5822C88.7215 62.7148 89.0745 62.9302 89.3927 63.2285C89.7109 63.5235 89.9644 63.9146 90.1533 64.4018C90.3423 64.889 90.4367 65.4889 90.4367 66.2015V66.6987H84.5504V65.6845H89.2435C89.2435 65.2536 89.1574 64.8691 88.985 64.5311C88.816 64.193 88.574 63.9262 88.2592 63.7306C87.9476 63.5351 87.5797 63.4373 87.1555 63.4373C86.6881 63.4373 86.2838 63.5533 85.9424 63.7853C85.6043 64.014 85.3442 64.3123 85.1619 64.6802C84.9796 65.0481 84.8884 65.4425 84.8884 65.8635V66.5396C84.8884 67.1163 84.9879 67.6052 85.1867 68.0062C85.3889 68.4039 85.669 68.7072 86.0269 68.916C86.3849 69.1215 86.8008 69.2243 87.2748 69.2243C87.583 69.2243 87.8614 69.1812 88.11 69.095C88.3619 69.0055 88.579 68.8729 88.7613 68.6973C88.9436 68.5183 89.0844 68.2962 89.1839 68.0311L90.3174 68.3493C90.1981 68.7337 89.9976 69.0718 89.7158 69.3635C89.4341 69.6518 89.0861 69.8772 88.6718 70.0396C88.2575 70.1987 87.7918 70.2782 87.2748 70.2782ZM92.1015 70.1191V62.4828H93.235V63.6362H93.3146C93.4538 63.2583 93.7057 62.9518 94.0703 62.7164C94.4349 62.4811 94.8458 62.3635 95.3032 62.3635C95.3894 62.3635 95.4971 62.3651 95.6264 62.3684C95.7556 62.3717 95.8534 62.3767 95.9197 62.3833V63.5765C95.8799 63.5666 95.7888 63.5517 95.6463 63.5318C95.5071 63.5086 95.3596 63.497 95.2038 63.497C94.8326 63.497 94.5011 63.5749 94.2095 63.7306C93.9211 63.8831 93.6924 64.0952 93.5234 64.367C93.3577 64.6355 93.2748 64.9421 93.2748 65.2868V70.1191H92.1015ZM106.417 64.193L105.363 64.4913C105.297 64.3156 105.199 64.1449 105.07 63.9792C104.944 63.8102 104.772 63.671 104.553 63.5616C104.334 63.4522 104.054 63.3975 103.713 63.3975C103.245 63.3975 102.856 63.5053 102.544 63.7207C102.236 63.9328 102.082 64.2029 102.082 64.5311C102.082 64.8227 102.188 65.0531 102.4 65.2221C102.612 65.3912 102.944 65.532 103.394 65.6447L104.528 65.9231C105.211 66.0888 105.719 66.3424 106.054 66.6838C106.389 67.0218 106.556 67.4577 106.556 67.9913C106.556 68.4288 106.43 68.8199 106.178 69.1646C105.93 69.5093 105.582 69.7811 105.134 69.9799C104.687 70.1788 104.167 70.2782 103.573 70.2782C102.794 70.2782 102.15 70.1092 101.639 69.7711C101.129 69.4331 100.806 68.9392 100.67 68.2896L101.784 68.0112C101.89 68.4222 102.09 68.7304 102.385 68.9359C102.683 69.1414 103.073 69.2441 103.553 69.2441C104.1 69.2441 104.535 69.1281 104.856 68.8961C105.181 68.6608 105.343 68.3791 105.343 68.051C105.343 67.7858 105.25 67.5637 105.065 67.3848C104.879 67.2025 104.594 67.0666 104.21 66.9771L102.937 66.6788C102.238 66.5131 101.724 66.2562 101.396 65.9082C101.071 65.5569 100.909 65.1177 100.909 64.5907C100.909 64.1599 101.03 63.7787 101.272 63.4473C101.517 63.1158 101.85 62.8556 102.271 62.6667C102.695 62.4778 103.176 62.3833 103.713 62.3833C104.468 62.3833 105.062 62.5491 105.492 62.8805C105.927 63.2119 106.235 63.6494 106.417 64.193ZM108.958 72.9828C108.759 72.9828 108.582 72.9662 108.426 72.9331C108.27 72.9032 108.163 72.8734 108.103 72.8436L108.401 71.8095C108.686 71.8824 108.938 71.9089 109.157 71.889C109.376 71.8691 109.57 71.7714 109.739 71.5957C109.911 71.4234 110.068 71.1433 110.211 70.7555L110.43 70.1589L107.606 62.4828H108.879L110.987 68.568H111.066L113.174 62.4828H114.447L111.205 71.2328C111.059 71.6272 110.879 71.9537 110.663 72.2122C110.448 72.474 110.198 72.6679 109.913 72.7939C109.631 72.9198 109.313 72.9828 108.958 72.9828ZM121.285 64.193L120.231 64.4913C120.164 64.3156 120.066 64.1449 119.937 63.9792C119.811 63.8102 119.639 63.671 119.42 63.5616C119.201 63.4522 118.921 63.3975 118.58 63.3975C118.113 63.3975 117.723 63.5053 117.412 63.7207C117.103 63.9328 116.949 64.2029 116.949 64.5311C116.949 64.8227 117.055 65.0531 117.267 65.2221C117.48 65.3912 117.811 65.532 118.262 65.6447L119.395 65.9231C120.078 66.0888 120.587 66.3424 120.922 66.6838C121.256 67.0218 121.424 67.4577 121.424 67.9913C121.424 68.4288 121.298 68.8199 121.046 69.1646C120.797 69.5093 120.449 69.7811 120.002 69.9799C119.554 70.1788 119.034 70.2782 118.441 70.2782C117.662 70.2782 117.017 70.1092 116.507 69.7711C115.996 69.4331 115.673 68.9392 115.537 68.2896L116.651 68.0112C116.757 68.4222 116.958 68.7304 117.253 68.9359C117.551 69.1414 117.94 69.2441 118.421 69.2441C118.968 69.2441 119.402 69.1281 119.723 68.8961C120.048 68.6608 120.211 68.3791 120.211 68.051C120.211 67.7858 120.118 67.5637 119.932 67.3848C119.747 67.2025 119.462 67.0666 119.077 66.9771L117.804 66.6788C117.105 66.5131 116.591 66.2562 116.263 65.9082C115.938 65.5569 115.776 65.1177 115.776 64.5907C115.776 64.1599 115.897 63.7787 116.139 63.4473C116.384 63.1158 116.717 62.8556 117.138 62.6667C117.562 62.4778 118.043 62.3833 118.58 62.3833C119.336 62.3833 119.929 62.5491 120.36 62.8805C120.794 63.2119 121.102 63.6494 121.285 64.193ZM126.391 62.4828V63.4771H122.434V62.4828H126.391ZM123.587 60.6532H124.76V67.9316C124.76 68.2631 124.808 68.5117 124.904 68.6774C125.004 68.8398 125.13 68.9492 125.282 69.0055C125.438 69.0585 125.602 69.085 125.774 69.085C125.904 69.085 126.01 69.0784 126.093 69.0652C126.175 69.0486 126.242 69.0353 126.291 69.0254L126.53 70.0794C126.451 70.1092 126.34 70.139 126.197 70.1689C126.054 70.202 125.874 70.2186 125.655 70.2186C125.324 70.2186 124.999 70.1473 124.681 70.0048C124.366 69.8623 124.104 69.6452 123.895 69.3535C123.69 69.0618 123.587 68.694 123.587 68.2498V60.6532ZM131.155 70.2782C130.42 70.2782 129.785 70.1158 129.251 69.791C128.721 69.4629 128.312 69.0055 128.023 68.4189C127.738 67.8289 127.596 67.1428 127.596 66.3606C127.596 65.5784 127.738 64.889 128.023 64.2924C128.312 63.6925 128.713 63.2252 129.227 62.8904C129.744 62.5524 130.347 62.3833 131.036 62.3833C131.434 62.3833 131.827 62.4496 132.214 62.5822C132.602 62.7148 132.955 62.9302 133.273 63.2285C133.592 63.5235 133.845 63.9146 134.034 64.4018C134.223 64.889 134.317 65.4889 134.317 66.2015V66.6987H128.431V65.6845H133.124C133.124 65.2536 133.038 64.8691 132.866 64.5311C132.697 64.193 132.455 63.9262 132.14 63.7306C131.828 63.5351 131.46 63.4373 131.036 63.4373C130.569 63.4373 130.164 63.5533 129.823 63.7853C129.485 64.014 129.225 64.3123 129.043 64.6802C128.86 65.0481 128.769 65.4425 128.769 65.8635V66.5396C128.769 67.1163 128.869 67.6052 129.067 68.0062C129.27 68.4039 129.55 68.7072 129.908 68.916C130.266 69.1215 130.682 69.2243 131.155 69.2243C131.464 69.2243 131.742 69.1812 131.991 69.095C132.243 69.0055 132.46 68.8729 132.642 68.6973C132.824 68.5183 132.965 68.2962 133.065 68.0311L134.198 68.3493C134.079 68.7337 133.878 69.0718 133.597 69.3635C133.315 69.6518 132.967 69.8772 132.553 70.0396C132.138 70.1987 131.673 70.2782 131.155 70.2782ZM135.982 70.1191V62.4828H137.116V63.676H137.215C137.374 63.2683 137.631 62.9518 137.986 62.7264C138.34 62.4977 138.766 62.3833 139.263 62.3833C139.767 62.3833 140.187 62.4977 140.521 62.7264C140.859 62.9518 141.123 63.2683 141.312 63.676H141.391C141.587 63.2815 141.88 62.9683 142.271 62.7363C142.662 62.501 143.131 62.3833 143.678 62.3833C144.361 62.3833 144.919 62.5971 145.354 63.0247C145.788 63.4489 146.005 64.1101 146.005 65.0083V70.1191H144.832V65.0083C144.832 64.4449 144.678 64.0422 144.369 63.8002C144.061 63.5583 143.698 63.4373 143.281 63.4373C142.744 63.4373 142.328 63.5997 142.033 63.9245C141.738 64.246 141.59 64.6537 141.59 65.1475V70.1191H140.397V64.889C140.397 64.4548 140.256 64.1052 139.974 63.84C139.693 63.5716 139.33 63.4373 138.886 63.4373C138.581 63.4373 138.296 63.5185 138.031 63.6809C137.769 63.8433 137.557 64.0687 137.394 64.3571C137.235 64.6421 137.156 64.9719 137.156 65.3464V70.1191H135.982Z" fill="white"/>
  <rect x="16" y="96.998" width="35" height="18" rx="4" fill="#093B57"/>
  <path d="M21.642 109.998L19.2557 101.271H20.3295L22.1534 108.379H22.2386L24.0966 101.271H25.2898L27.1477 108.379H27.233L29.0568 101.271H30.1307L27.7443 109.998H26.6534L24.7273 103.044H24.6591L22.733 109.998H21.642ZM33.3608 110.134C32.7699 110.134 32.2514 109.994 31.8054 109.713C31.3622 109.431 31.0156 109.038 30.7656 108.532C30.5185 108.026 30.3949 107.436 30.3949 106.759C30.3949 106.078 30.5185 105.482 30.7656 104.974C31.0156 104.465 31.3622 104.07 31.8054 103.789C32.2514 103.508 32.7699 103.367 33.3608 103.367C33.9517 103.367 34.4688 103.508 34.9119 103.789C35.358 104.07 35.7045 104.465 35.9517 104.974C36.2017 105.482 36.3267 106.078 36.3267 106.759C36.3267 107.436 36.2017 108.026 35.9517 108.532C35.7045 109.038 35.358 109.431 34.9119 109.713C34.4688 109.994 33.9517 110.134 33.3608 110.134ZM33.3608 109.231C33.8097 109.231 34.179 109.116 34.4688 108.886C34.7585 108.656 34.973 108.353 35.1122 107.978C35.2514 107.603 35.321 107.197 35.321 106.759C35.321 106.322 35.2514 105.914 35.1122 105.536C34.973 105.159 34.7585 104.853 34.4688 104.62C34.179 104.387 33.8097 104.271 33.3608 104.271C32.9119 104.271 32.5426 104.387 32.2528 104.62C31.9631 104.853 31.7486 105.159 31.6094 105.536C31.4702 105.914 31.4006 106.322 31.4006 106.759C31.4006 107.197 31.4702 107.603 31.6094 107.978C31.7486 108.353 31.9631 108.656 32.2528 108.886C32.5426 109.116 32.9119 109.231 33.3608 109.231ZM37.8619 109.998V103.453H38.8335V104.441H38.9016C39.021 104.117 39.2369 103.855 39.5494 103.653C39.8619 103.451 40.2141 103.35 40.6062 103.35C40.68 103.35 40.7724 103.352 40.8832 103.355C40.994 103.357 41.0778 103.362 41.1346 103.367V104.39C41.1005 104.382 41.0224 104.369 40.9002 104.352C40.7809 104.332 40.6545 104.322 40.521 104.322C40.2028 104.322 39.9187 104.389 39.6687 104.522C39.4215 104.653 39.2255 104.835 39.0806 105.068C38.9386 105.298 38.8675 105.561 38.8675 105.856V109.998H37.8619ZM43.2642 107.612L43.2472 106.367H43.4517L46.3153 103.453H47.5597L44.5085 106.538H44.4233L43.2642 107.612ZM42.3267 109.998V101.271H43.3324V109.998H42.3267ZM46.4858 109.998L43.929 106.759L44.6449 106.061L47.7642 109.998H46.4858Z" fill="#2AA7EE"/>
  <path opacity="0.5" d="M16.5795 82.2688V81.3313H23.125V82.2688H20.3807V90.0586H19.3239V82.2688H16.5795ZM26.3295 90.195C25.7386 90.195 25.2202 90.0543 24.7741 89.7731C24.331 89.4918 23.9844 89.0984 23.7344 88.5927C23.4872 88.087 23.3636 87.4961 23.3636 86.82C23.3636 86.1381 23.4872 85.543 23.7344 85.0344C23.9844 84.5259 24.331 84.131 24.7741 83.8498C25.2202 83.5685 25.7386 83.4279 26.3295 83.4279C26.9205 83.4279 27.4375 83.5685 27.8807 83.8498C28.3267 84.131 28.6733 84.5259 28.9205 85.0344C29.1705 85.543 29.2955 86.1381 29.2955 86.82C29.2955 87.4961 29.1705 88.087 28.9205 88.5927C28.6733 89.0984 28.3267 89.4918 27.8807 89.7731C27.4375 90.0543 26.9205 90.195 26.3295 90.195ZM26.3295 89.2915C26.7784 89.2915 27.1477 89.1765 27.4375 88.9464C27.7273 88.7163 27.9418 88.4137 28.081 88.0387C28.2202 87.6637 28.2898 87.2575 28.2898 86.82C28.2898 86.3825 28.2202 85.9748 28.081 85.5969C27.9418 85.2191 27.7273 84.9137 27.4375 84.6808C27.1477 84.4478 26.7784 84.3313 26.3295 84.3313C25.8807 84.3313 25.5114 84.4478 25.2216 84.6808C24.9318 84.9137 24.7173 85.2191 24.5781 85.5969C24.4389 85.9748 24.3693 86.3825 24.3693 86.82C24.3693 87.2575 24.4389 87.6637 24.5781 88.0387C24.7173 88.4137 24.9318 88.7163 25.2216 88.9464C25.5114 89.1765 25.8807 89.2915 26.3295 89.2915ZM33.3022 90.195C32.7567 90.195 32.2752 90.0572 31.8576 89.7816C31.44 89.5032 31.1133 89.1112 30.8775 88.6055C30.6417 88.0969 30.5238 87.4961 30.5238 86.8029C30.5238 86.1154 30.6417 85.5188 30.8775 85.0131C31.1133 84.5075 31.4414 84.1168 31.8619 83.8413C32.2823 83.5657 32.7681 83.4279 33.3192 83.4279C33.7454 83.4279 34.082 83.4989 34.3292 83.641C34.5792 83.7802 34.7695 83.9393 34.9002 84.1183C35.0337 84.2944 35.1374 84.4393 35.2113 84.5529H35.2965V81.3313H36.3022V90.0586H35.3306V89.0529H35.2113C35.1374 89.1722 35.0323 89.3228 34.896 89.5046C34.7596 89.6836 34.565 89.8441 34.3121 89.9862C34.0593 90.1254 33.7227 90.195 33.3022 90.195ZM33.4386 89.2915C33.842 89.2915 34.1829 89.1864 34.4613 88.9762C34.7397 88.7631 34.9513 88.4691 35.0962 88.0941C35.2411 87.7163 35.3136 87.2802 35.3136 86.7859C35.3136 86.2972 35.2425 85.8697 35.1005 85.5032C34.9585 85.1339 34.7482 84.8469 34.4698 84.6424C34.1914 84.435 33.8477 84.3313 33.4386 84.3313C33.0124 84.3313 32.6573 84.4407 32.3732 84.6594C32.092 84.8754 31.8803 85.1694 31.7383 85.5415C31.5991 85.9109 31.5295 86.3256 31.5295 86.7859C31.5295 87.2518 31.6005 87.6751 31.7425 88.0558C31.8874 88.4336 32.1005 88.7347 32.3817 88.9592C32.6658 89.1808 33.0181 89.2915 33.4386 89.2915ZM40.2099 90.212C39.7951 90.212 39.4187 90.1339 39.0806 89.9776C38.7425 89.8185 38.4741 89.5898 38.2752 89.2915C38.0763 88.9904 37.9769 88.6268 37.9769 88.2006C37.9769 87.8256 38.0508 87.5217 38.1985 87.2887C38.3462 87.0529 38.5437 86.8683 38.7908 86.7347C39.038 86.6012 39.3107 86.5018 39.609 86.4364C39.9102 86.3683 40.2127 86.3143 40.5167 86.2745C40.9144 86.2234 41.2369 86.185 41.484 86.1594C41.734 86.131 41.9158 86.0842 42.0295 86.0188C42.146 85.9535 42.2042 85.8398 42.2042 85.6779V85.6438C42.2042 85.2234 42.0891 84.8967 41.859 84.6637C41.6317 84.4308 41.2866 84.3143 40.8235 84.3143C40.3434 84.3143 39.967 84.4194 39.6942 84.6296C39.4215 84.8398 39.2298 85.0643 39.119 85.3029L38.1644 84.962C38.3349 84.5643 38.5621 84.2546 38.8462 84.033C39.1332 83.8086 39.4457 83.6523 39.7837 83.5643C40.1246 83.4734 40.4599 83.4279 40.7894 83.4279C40.9996 83.4279 41.2411 83.4535 41.5138 83.5046C41.7894 83.5529 42.055 83.6538 42.3107 83.8072C42.5692 83.9606 42.7837 84.1921 42.9542 84.5018C43.1246 84.8114 43.2099 85.2262 43.2099 85.7461V90.0586H42.2042V89.1722H42.1531C42.0849 89.3143 41.9712 89.4663 41.8121 89.6282C41.6531 89.7901 41.4414 89.9279 41.1772 90.0415C40.913 90.1552 40.5906 90.212 40.2099 90.212ZM40.3633 89.3086C40.761 89.3086 41.0962 89.2305 41.369 89.0742C41.6445 88.918 41.8519 88.7163 41.9911 88.4691C42.1332 88.2219 42.2042 87.962 42.2042 87.6893V86.7688C42.1616 86.82 42.0678 86.8668 41.9229 86.9094C41.7809 86.9492 41.6161 86.9847 41.4286 87.016C41.244 87.0444 41.0636 87.07 40.8874 87.0927C40.7141 87.1126 40.5735 87.1296 40.4656 87.1438C40.2042 87.1779 39.9599 87.2333 39.7326 87.31C39.5082 87.3839 39.3263 87.4961 39.1871 87.6467C39.0508 87.7944 38.9826 87.9961 38.9826 88.2518C38.9826 88.6012 39.1119 88.8654 39.3704 89.0444C39.6317 89.2205 39.9627 89.3086 40.3633 89.3086ZM45.4588 92.5131C45.2884 92.5131 45.1364 92.4989 45.0028 92.4705C44.8693 92.445 44.777 92.4194 44.7259 92.3938L44.9815 91.5075C45.2259 91.57 45.4418 91.5927 45.6293 91.5756C45.8168 91.5586 45.983 91.4748 46.1278 91.3242C46.2756 91.1765 46.4105 90.9364 46.5327 90.604L46.7202 90.0927L44.2997 83.5131H45.3906L47.1974 88.729H47.2656L49.0724 83.5131H50.1634L47.3849 91.0131C47.2599 91.3512 47.1051 91.631 46.9205 91.8526C46.7358 92.0771 46.5213 92.2433 46.277 92.3512C46.0355 92.4592 45.7628 92.5131 45.4588 92.5131Z" fill="white"/>
  <g clip-path="url(#clip0_0_1)">
    <path d="M16.25 21.1191C16.25 18.91 18.0409 17.1191 20.25 17.1191H28.25C30.4591 17.1191 32.25 18.91 32.25 21.1191V29.1191C32.25 31.3283 30.4591 33.1191 28.25 33.1191H20.25C18.0409 33.1191 16.25 31.3283 16.25 29.1191V21.1191Z" fill="#4CAD00"/>
    <path d="M20.0312 25L23.75 28.6191L28 20.9766" stroke="white" stroke-width="1.20205"/>
  </g>
  <defs>
    <clipPath id="clip0_0_1">
      <rect width="16" height="16" fill="white" transform="translate(16.25 17.1191)"/>
    </clipPath>
  </defs>
</svg>
