<svg width="165" height="130" viewBox="0 0 165 130" fill="none" xmlns="http://www.w3.org/2000/svg">
  <rect x="0.125" y="0.941406" width="164" height="128.119" rx="16" fill="#1F1F1F"/>
  <path d="M41.358 19.8807H42.8295L46.2898 28.3324H46.4091L49.8693 19.8807H51.3409V30.0625H50.1875V22.3267H50.0881L46.9062 30.0625H45.7926L42.6108 22.3267H42.5114V30.0625H41.358V19.8807ZM56.7356 30.2216C55.9999 30.2216 55.3651 30.0592 54.8315 29.7344C54.3012 29.4062 53.8919 28.9489 53.6035 28.3622C53.3185 27.7723 53.176 27.0862 53.176 26.304C53.176 25.5218 53.3185 24.8324 53.6035 24.2358C53.8919 23.6359 54.2929 23.1686 54.8067 22.8338C55.3237 22.4957 55.9269 22.3267 56.6163 22.3267C57.0141 22.3267 57.4068 22.393 57.7946 22.5256C58.1824 22.6581 58.5354 22.8736 58.8535 23.1719C59.1717 23.4669 59.4253 23.858 59.6142 24.3452C59.8031 24.8324 59.8976 25.4323 59.8976 26.1449V26.642H54.0112V25.6278H58.7044C58.7044 25.197 58.6182 24.8125 58.4459 24.4744C58.2768 24.1364 58.0349 23.8696 57.72 23.674C57.4085 23.4785 57.0406 23.3807 56.6163 23.3807C56.149 23.3807 55.7446 23.4967 55.4033 23.7287C55.0652 23.9574 54.805 24.2557 54.6227 24.6236C54.4404 24.9915 54.3493 25.3859 54.3493 25.8068V26.483C54.3493 27.0597 54.4487 27.5485 54.6476 27.9496C54.8498 28.3473 55.1298 28.6506 55.4878 28.8594C55.8457 29.0649 56.2617 29.1676 56.7356 29.1676C57.0439 29.1676 57.3223 29.1245 57.5709 29.0384C57.8228 28.9489 58.0399 28.8163 58.2222 28.6406C58.4044 28.4616 58.5453 28.2396 58.6447 27.9744L59.7783 28.2926C59.6589 28.6771 59.4584 29.0152 59.1767 29.3068C58.895 29.5952 58.547 29.8205 58.1327 29.983C57.7184 30.142 57.2527 30.2216 56.7356 30.2216ZM64.7641 30.2216C64.0283 30.2216 63.3936 30.0592 62.86 29.7344C62.3297 29.4062 61.9203 28.9489 61.632 28.3622C61.3469 27.7723 61.2044 27.0862 61.2044 26.304C61.2044 25.5218 61.3469 24.8324 61.632 24.2358C61.9203 23.6359 62.3214 23.1686 62.8351 22.8338C63.3522 22.4957 63.9554 22.3267 64.6448 22.3267C65.0425 22.3267 65.4352 22.393 65.823 22.5256C66.2108 22.6581 66.5638 22.8736 66.882 23.1719C67.2002 23.4669 67.4537 23.858 67.6426 24.3452C67.8316 24.8324 67.926 25.4323 67.926 26.1449V26.642H62.0397V25.6278H66.7328C66.7328 25.197 66.6467 24.8125 66.4743 24.4744C66.3053 24.1364 66.0633 23.8696 65.7485 23.674C65.4369 23.4785 65.069 23.3807 64.6448 23.3807C64.1774 23.3807 63.7731 23.4967 63.4317 23.7287C63.0936 23.9574 62.8334 24.2557 62.6512 24.6236C62.4689 24.9915 62.3777 25.3859 62.3777 25.8068V26.483C62.3777 27.0597 62.4772 27.5485 62.676 27.9496C62.8782 28.3473 63.1583 28.6506 63.5162 28.8594C63.8742 29.0649 64.2901 29.1676 64.7641 29.1676C65.0723 29.1676 65.3507 29.1245 65.5993 29.0384C65.8512 28.9489 66.0683 28.8163 66.2506 28.6406C66.4329 28.4616 66.5737 28.2396 66.6732 27.9744L67.8067 28.2926C67.6874 28.6771 67.4869 29.0152 67.2051 29.3068C66.9234 29.5952 66.5754 29.8205 66.1611 29.983C65.7468 30.142 65.2811 30.2216 64.7641 30.2216ZM72.9118 22.4261V23.4205H68.9545V22.4261H72.9118ZM70.1079 20.5966H71.2812V27.875C71.2812 28.2064 71.3292 28.455 71.4253 28.6207C71.5248 28.7831 71.6507 28.8925 71.8032 28.9489C71.959 29.0019 72.123 29.0284 72.2954 29.0284C72.4246 29.0284 72.5307 29.0218 72.6135 29.0085C72.6964 28.992 72.7627 28.9787 72.8124 28.9688L73.051 30.0227C72.9715 30.0526 72.8605 30.0824 72.7179 30.1122C72.5754 30.1454 72.3948 30.1619 72.176 30.1619C71.8446 30.1619 71.5198 30.0907 71.2016 29.9482C70.8867 29.8056 70.6249 29.5885 70.4161 29.2969C70.2106 29.0052 70.1079 28.6373 70.1079 28.1932V20.5966ZM78.951 30.0625H77.6583L81.397 19.8807H82.6697L86.4083 30.0625H85.1157L82.0731 21.4915H81.9936L78.951 30.0625ZM79.4282 26.0852H84.6385V27.179H79.4282V26.0852ZM88.8885 19.8807V30.0625H87.7152V19.8807H88.8885ZM90.9175 30.0625V22.4261H92.0908V30.0625H90.9175ZM91.514 21.1534C91.2854 21.1534 91.0881 21.0755 90.9224 20.9197C90.76 20.764 90.6788 20.5767 90.6788 20.358C90.6788 20.1392 90.76 19.9519 90.9224 19.7962C91.0881 19.6404 91.2854 19.5625 91.514 19.5625C91.7427 19.5625 91.9383 19.6404 92.1007 19.7962C92.2664 19.9519 92.3493 20.1392 92.3493 20.358C92.3493 20.5767 92.2664 20.764 92.1007 20.9197C91.9383 21.0755 91.7427 21.1534 91.514 21.1534ZM97.222 30.2216C96.5061 30.2216 95.8896 30.0526 95.3726 29.7145C94.8555 29.3764 94.4578 28.9107 94.1794 28.3175C93.901 27.7242 93.7618 27.0464 93.7618 26.2841C93.7618 25.5085 93.9043 24.8241 94.1893 24.2308C94.4777 23.6342 94.8787 23.1686 95.3925 22.8338C95.9095 22.4957 96.5127 22.3267 97.2021 22.3267C97.739 22.3267 98.2229 22.4261 98.6538 22.625C99.0847 22.8239 99.4377 23.1023 99.7128 23.4602C99.9879 23.8182 100.159 24.2358 100.225 24.7131H99.0515C98.9621 24.3651 98.7632 24.0568 98.455 23.7884C98.15 23.5166 97.739 23.3807 97.222 23.3807C96.7646 23.3807 96.3636 23.5 96.0189 23.7386C95.6775 23.974 95.4107 24.3071 95.2184 24.7379C95.0295 25.1655 94.9351 25.6676 94.9351 26.2443C94.9351 26.8343 95.0279 27.348 95.2135 27.7855C95.4024 28.223 95.6675 28.5627 96.0089 28.8047C96.3536 29.0466 96.758 29.1676 97.222 29.1676C97.5269 29.1676 97.8037 29.1146 98.0523 29.0085C98.3008 28.9025 98.5113 28.75 98.6836 28.5511C98.856 28.3523 98.9786 28.1136 99.0515 27.8352H100.225C100.159 28.286 99.9945 28.692 99.7327 29.0533C99.4741 29.4112 99.1311 29.6963 98.7035 29.9084C98.2793 30.1172 97.7854 30.2216 97.222 30.2216ZM105.022 30.2216C104.286 30.2216 103.651 30.0592 103.118 29.7344C102.587 29.4062 102.178 28.9489 101.89 28.3622C101.605 27.7723 101.462 27.0862 101.462 26.304C101.462 25.5218 101.605 24.8324 101.89 24.2358C102.178 23.6359 102.579 23.1686 103.093 22.8338C103.61 22.4957 104.213 22.3267 104.902 22.3267C105.3 22.3267 105.693 22.393 106.081 22.5256C106.468 22.6581 106.821 22.8736 107.14 23.1719C107.458 23.4669 107.711 23.858 107.9 24.3452C108.089 24.8324 108.184 25.4323 108.184 26.1449V26.642H102.297V25.6278H106.99C106.99 25.197 106.904 24.8125 106.732 24.4744C106.563 24.1364 106.321 23.8696 106.006 23.674C105.695 23.4785 105.327 23.3807 104.902 23.3807C104.435 23.3807 104.031 23.4967 103.689 23.7287C103.351 23.9574 103.091 24.2557 102.909 24.6236C102.727 24.9915 102.635 25.3859 102.635 25.8068V26.483C102.635 27.0597 102.735 27.5485 102.934 27.9496C103.136 28.3473 103.416 28.6506 103.774 28.8594C104.132 29.0649 104.548 29.1676 105.022 29.1676C105.33 29.1676 105.608 29.1245 105.857 29.0384C106.109 28.9489 106.326 28.8163 106.508 28.6406C106.691 28.4616 106.831 28.2396 106.931 27.9744L108.064 28.2926C107.945 28.6771 107.745 29.0152 107.463 29.3068C107.181 29.5952 106.833 29.8205 106.419 29.983C106.004 30.142 105.539 30.2216 105.022 30.2216ZM117.067 22.4261V23.4205H112.95V22.4261H117.067ZM114.183 30.0625V21.3722C114.183 20.9347 114.286 20.5701 114.491 20.2784C114.697 19.9867 114.964 19.768 115.292 19.6222C115.62 19.4763 115.966 19.4034 116.331 19.4034C116.619 19.4034 116.854 19.4266 117.037 19.473C117.219 19.5194 117.355 19.5625 117.444 19.6023L117.106 20.6165C117.047 20.5966 116.964 20.5717 116.858 20.5419C116.755 20.5121 116.619 20.4972 116.45 20.4972C116.062 20.4972 115.782 20.5949 115.61 20.7905C115.441 20.986 115.356 21.2727 115.356 21.6506V30.0625H114.183ZM118.591 30.0625V22.4261H119.724V23.5795H119.804C119.943 23.2017 120.195 22.8951 120.56 22.6598C120.924 22.4245 121.335 22.3068 121.793 22.3068C121.879 22.3068 121.986 22.3085 122.116 22.3118C122.245 22.3151 122.343 22.3201 122.409 22.3267V23.5199C122.369 23.5099 122.278 23.495 122.136 23.4751C121.996 23.4519 121.849 23.4403 121.693 23.4403C121.322 23.4403 120.991 23.5182 120.699 23.674C120.41 23.8265 120.182 24.0386 120.013 24.3104C119.847 24.5788 119.764 24.8854 119.764 25.2301V30.0625H118.591ZM126.55 30.2216C125.86 30.2216 125.255 30.0575 124.735 29.7294C124.218 29.4013 123.814 28.9422 123.522 28.3523C123.234 27.7623 123.09 27.0729 123.09 26.2841C123.09 25.4886 123.234 24.7943 123.522 24.201C123.814 23.6077 124.218 23.147 124.735 22.8189C125.255 22.4908 125.86 22.3267 126.55 22.3267C127.239 22.3267 127.842 22.4908 128.359 22.8189C128.88 23.147 129.284 23.6077 129.572 24.201C129.864 24.7943 130.01 25.4886 130.01 26.2841C130.01 27.0729 129.864 27.7623 129.572 28.3523C129.284 28.9422 128.88 29.4013 128.359 29.7294C127.842 30.0575 127.239 30.2216 126.55 30.2216ZM126.55 29.1676C127.073 29.1676 127.504 29.0334 127.842 28.7649C128.18 28.4964 128.431 28.1435 128.593 27.706C128.755 27.2685 128.837 26.7945 128.837 26.2841C128.837 25.7737 128.755 25.2981 128.593 24.8572C128.431 24.4164 128.18 24.0601 127.842 23.7884C127.504 23.5166 127.073 23.3807 126.55 23.3807C126.026 23.3807 125.595 23.5166 125.257 23.7884C124.919 24.0601 124.669 24.4164 124.506 24.8572C124.344 25.2981 124.263 25.7737 124.263 26.2841C124.263 26.7945 124.344 27.2685 124.506 27.706C124.669 28.1435 124.919 28.4964 125.257 28.7649C125.595 29.0334 126.026 29.1676 126.55 29.1676ZM131.681 30.0625V22.4261H132.814V23.6193H132.914C133.073 23.2116 133.33 22.8951 133.685 22.6697C134.039 22.4411 134.465 22.3267 134.962 22.3267C135.466 22.3267 135.885 22.4411 136.22 22.6697C136.558 22.8951 136.822 23.2116 137.011 23.6193H137.09C137.286 23.2249 137.579 22.9117 137.97 22.6797C138.361 22.4444 138.83 22.3267 139.377 22.3267C140.06 22.3267 140.618 22.5405 141.052 22.968C141.487 23.3923 141.704 24.0535 141.704 24.9517V30.0625H140.53V24.9517C140.53 24.3883 140.376 23.9856 140.068 23.7436C139.76 23.5017 139.397 23.3807 138.979 23.3807C138.442 23.3807 138.026 23.5431 137.731 23.8679C137.436 24.1894 137.289 24.5971 137.289 25.0909V30.0625H136.096V24.8324C136.096 24.3982 135.955 24.0485 135.673 23.7834C135.391 23.5149 135.029 23.3807 134.584 23.3807C134.279 23.3807 133.994 23.4619 133.729 23.6243C133.467 23.7867 133.255 24.0121 133.093 24.3004C132.934 24.5855 132.854 24.9152 132.854 25.2898V30.0625H131.681Z" fill="white"/>
  <path d="M17.7756 39.8807L20.7983 48.4517H20.9176L23.9403 39.8807H25.233L21.4943 50.0625H20.2216L16.483 39.8807H17.7756ZM26.5398 50.0625V42.4261H27.7131V50.0625H26.5398ZM27.1364 41.1534C26.9077 41.1534 26.7105 41.0755 26.5448 40.9197C26.3824 40.764 26.3012 40.5767 26.3012 40.358C26.3012 40.1392 26.3824 39.9519 26.5448 39.7962C26.7105 39.6404 26.9077 39.5625 27.1364 39.5625C27.3651 39.5625 27.5606 39.6404 27.723 39.7962C27.8888 39.9519 27.9716 40.1392 27.9716 40.358C27.9716 40.5767 27.8888 40.764 27.723 40.9197C27.5606 41.0755 27.3651 41.1534 27.1364 41.1534ZM32.9438 50.2216C32.208 50.2216 31.5733 50.0592 31.0397 49.7344C30.5093 49.4062 30.1 48.9489 29.8117 48.3622C29.5266 47.7723 29.3841 47.0862 29.3841 46.304C29.3841 45.5218 29.5266 44.8324 29.8117 44.2358C30.1 43.6359 30.5011 43.1686 31.0148 42.8338C31.5318 42.4957 32.1351 42.3267 32.8245 42.3267C33.2222 42.3267 33.6149 42.393 34.0027 42.5256C34.3905 42.6581 34.7435 42.8736 35.0617 43.1719C35.3799 43.4669 35.6334 43.858 35.8223 44.3452C36.0112 44.8324 36.1057 45.4323 36.1057 46.1449V46.642H30.2193V45.6278H34.9125C34.9125 45.197 34.8263 44.8125 34.654 44.4744C34.485 44.1364 34.243 43.8696 33.9281 43.674C33.6166 43.4785 33.2487 43.3807 32.8245 43.3807C32.3571 43.3807 31.9528 43.4967 31.6114 43.7287C31.2733 43.9574 31.0131 44.2557 30.8308 44.6236C30.6486 44.9915 30.5574 45.3859 30.5574 45.8068V46.483C30.5574 47.0597 30.6568 47.5485 30.8557 47.9496C31.0579 48.3473 31.3379 48.6506 31.6959 48.8594C32.0539 49.0649 32.4698 49.1676 32.9438 49.1676C33.252 49.1676 33.5304 49.1245 33.779 49.0384C34.0309 48.9489 34.248 48.8163 34.4303 48.6406C34.6126 48.4616 34.7534 48.2396 34.8529 47.9744L35.9864 48.2926C35.8671 48.6771 35.6665 49.0152 35.3848 49.3068C35.1031 49.5952 34.7551 49.8205 34.3408 49.983C33.9265 50.142 33.4608 50.2216 32.9438 50.2216ZM38.9438 45.4688V50.0625H37.7705V42.4261H38.904V43.6193H39.0035C39.1824 43.2315 39.4542 42.92 39.8188 42.6847C40.1834 42.446 40.654 42.3267 41.2307 42.3267C41.7478 42.3267 42.2002 42.4328 42.588 42.6449C42.9758 42.8537 43.2774 43.1719 43.4928 43.5994C43.7082 44.0237 43.816 44.5606 43.816 45.2102V50.0625H42.6427V45.2898C42.6427 44.6899 42.4869 44.2225 42.1753 43.8878C41.8638 43.5497 41.4362 43.3807 40.8927 43.3807C40.5181 43.3807 40.1834 43.4619 39.8884 43.6243C39.5967 43.7867 39.3664 44.0237 39.1974 44.3352C39.0283 44.6468 38.9438 45.0246 38.9438 45.4688ZM47.0133 45.4688V50.0625H45.84V42.4261H46.9735V43.6193H47.0729C47.2519 43.2315 47.5237 42.92 47.8883 42.6847C48.2528 42.446 48.7235 42.3267 49.3002 42.3267C49.8172 42.3267 50.2696 42.4328 50.6574 42.6449C51.0452 42.8537 51.3468 43.1719 51.5623 43.5994C51.7777 44.0237 51.8854 44.5606 51.8854 45.2102V50.0625H50.7121V45.2898C50.7121 44.6899 50.5563 44.2225 50.2448 43.8878C49.9332 43.5497 49.5057 43.3807 48.9621 43.3807C48.5876 43.3807 48.2528 43.4619 47.9579 43.6243C47.6662 43.7867 47.4358 44.0237 47.2668 44.3352C47.0978 44.6468 47.0133 45.0246 47.0133 45.4688ZM56.1566 50.2415C55.6727 50.2415 55.2335 50.1503 54.8391 49.968C54.4447 49.7824 54.1315 49.5156 53.8995 49.1676C53.6675 48.8163 53.5515 48.392 53.5515 47.8949C53.5515 47.4574 53.6376 47.1027 53.81 46.831C53.9823 46.5559 54.2127 46.3404 54.501 46.1847C54.7894 46.0289 55.1076 45.9129 55.4556 45.8366C55.8069 45.7571 56.1599 45.6941 56.5145 45.6477C56.9785 45.5881 57.3547 45.5433 57.6431 45.5135C57.9347 45.4804 58.1469 45.4257 58.2794 45.3494C58.4153 45.2732 58.4833 45.1406 58.4833 44.9517V44.9119C58.4833 44.4214 58.349 44.0402 58.0806 43.7685C57.8154 43.4967 57.4127 43.3608 56.8725 43.3608C56.3123 43.3608 55.8732 43.4834 55.555 43.7287C55.2368 43.974 55.0131 44.2358 54.8838 44.5142L53.7702 44.1165C53.9691 43.6525 54.2342 43.2912 54.5657 43.0327C54.9004 42.7708 55.265 42.5885 55.6594 42.4858C56.0571 42.3797 56.4482 42.3267 56.8327 42.3267C57.078 42.3267 57.3597 42.3565 57.6779 42.4162C57.9994 42.4725 58.3093 42.5902 58.6076 42.7692C58.9092 42.9482 59.1594 43.2183 59.3583 43.5795C59.5571 43.9408 59.6566 44.4247 59.6566 45.0312V50.0625H58.4833V49.0284H58.4236C58.3441 49.1941 58.2115 49.3714 58.0259 49.5604C57.8403 49.7493 57.5934 49.91 57.2851 50.0426C56.9769 50.1752 56.6007 50.2415 56.1566 50.2415ZM56.3355 49.1875C56.7996 49.1875 57.1907 49.0964 57.5088 48.9141C57.8303 48.7318 58.0723 48.4964 58.2347 48.2081C58.4004 47.9197 58.4833 47.6165 58.4833 47.2983V46.2244C58.4336 46.2841 58.3242 46.3388 58.1552 46.3885C57.9894 46.4349 57.7972 46.4763 57.5784 46.5128C57.363 46.5459 57.1525 46.5758 56.9471 46.6023C56.7449 46.6255 56.5808 46.6454 56.4549 46.6619C56.1499 46.7017 55.8649 46.7663 55.5998 46.8558C55.3379 46.942 55.1258 47.0729 54.9634 47.2486C54.8043 47.4209 54.7248 47.6562 54.7248 47.9545C54.7248 48.3622 54.8756 48.6705 55.1772 48.8793C55.4821 49.0848 55.8682 49.1875 56.3355 49.1875Z" fill="white"/>
  <path opacity="0.5" d="M16.625 21.0625C16.625 19.1295 18.192 17.5625 20.125 17.5625H28.125C30.058 17.5625 31.625 19.1295 31.625 21.0625V29.0625C31.625 30.9955 30.058 32.5625 28.125 32.5625H20.125C18.192 32.5625 16.625 30.9955 16.625 29.0625V21.0625Z" stroke="white"/>
  <path opacity="0.5" d="M16.7045 82.2102V81.2727H23.25V82.2102H20.5057V90H19.4489V82.2102H16.7045ZM26.4545 90.1364C25.8636 90.1364 25.3452 89.9957 24.8991 89.7145C24.456 89.4332 24.1094 89.0398 23.8594 88.5341C23.6122 88.0284 23.4886 87.4375 23.4886 86.7614C23.4886 86.0795 23.6122 85.4844 23.8594 84.9759C24.1094 84.4673 24.456 84.0724 24.8991 83.7912C25.3452 83.5099 25.8636 83.3693 26.4545 83.3693C27.0455 83.3693 27.5625 83.5099 28.0057 83.7912C28.4517 84.0724 28.7983 84.4673 29.0455 84.9759C29.2955 85.4844 29.4205 86.0795 29.4205 86.7614C29.4205 87.4375 29.2955 88.0284 29.0455 88.5341C28.7983 89.0398 28.4517 89.4332 28.0057 89.7145C27.5625 89.9957 27.0455 90.1364 26.4545 90.1364ZM26.4545 89.233C26.9034 89.233 27.2727 89.1179 27.5625 88.8878C27.8523 88.6577 28.0668 88.3551 28.206 87.9801C28.3452 87.6051 28.4148 87.1989 28.4148 86.7614C28.4148 86.3239 28.3452 85.9162 28.206 85.5384C28.0668 85.1605 27.8523 84.8551 27.5625 84.6222C27.2727 84.3892 26.9034 84.2727 26.4545 84.2727C26.0057 84.2727 25.6364 84.3892 25.3466 84.6222C25.0568 84.8551 24.8423 85.1605 24.7031 85.5384C24.5639 85.9162 24.4943 86.3239 24.4943 86.7614C24.4943 87.1989 24.5639 87.6051 24.7031 87.9801C24.8423 88.3551 25.0568 88.6577 25.3466 88.8878C25.6364 89.1179 26.0057 89.233 26.4545 89.233ZM30.9556 90V83.4545H31.9272V84.4773H32.0124C32.1488 84.1278 32.369 83.8565 32.6729 83.6634C32.9769 83.4673 33.342 83.3693 33.7681 83.3693C34.1999 83.3693 34.5593 83.4673 34.8462 83.6634C35.136 83.8565 35.3619 84.1278 35.5238 84.4773H35.592C35.7596 84.1392 36.011 83.8707 36.3462 83.6719C36.6815 83.4702 37.0835 83.3693 37.5522 83.3693C38.1374 83.3693 38.6161 83.5526 38.9883 83.919C39.3604 84.2827 39.5465 84.8494 39.5465 85.6193V90H38.5408V85.6193C38.5408 85.1364 38.4087 84.7912 38.1445 84.5838C37.8803 84.3764 37.5692 84.2727 37.2113 84.2727C36.7511 84.2727 36.3945 84.4119 36.1417 84.6903C35.8888 84.9659 35.7624 85.3153 35.7624 85.7386V90H34.7397V85.517C34.7397 85.1449 34.619 84.8452 34.3775 84.6179C34.136 84.3878 33.8249 84.2727 33.4442 84.2727C33.1829 84.2727 32.9386 84.3423 32.7113 84.4815C32.4869 84.6207 32.305 84.8139 32.1658 85.0611C32.0295 85.3054 31.9613 85.5881 31.9613 85.9091V90H30.9556ZM44.0444 90.1364C43.4535 90.1364 42.935 89.9957 42.489 89.7145C42.0458 89.4332 41.6992 89.0398 41.4492 88.5341C41.2021 88.0284 41.0785 87.4375 41.0785 86.7614C41.0785 86.0795 41.2021 85.4844 41.4492 84.9759C41.6992 84.4673 42.0458 84.0724 42.489 83.7912C42.935 83.5099 43.4535 83.3693 44.0444 83.3693C44.6353 83.3693 45.1523 83.5099 45.5955 83.7912C46.0415 84.0724 46.3881 84.4673 46.6353 84.9759C46.8853 85.4844 47.0103 86.0795 47.0103 86.7614C47.0103 87.4375 46.8853 88.0284 46.6353 88.5341C46.3881 89.0398 46.0415 89.4332 45.5955 89.7145C45.1523 89.9957 44.6353 90.1364 44.0444 90.1364ZM44.0444 89.233C44.4933 89.233 44.8626 89.1179 45.1523 88.8878C45.4421 88.6577 45.6566 88.3551 45.7958 87.9801C45.935 87.6051 46.0046 87.1989 46.0046 86.7614C46.0046 86.3239 45.935 85.9162 45.7958 85.5384C45.6566 85.1605 45.4421 84.8551 45.1523 84.6222C44.8626 84.3892 44.4933 84.2727 44.0444 84.2727C43.5955 84.2727 43.2262 84.3892 42.9364 84.6222C42.6467 84.8551 42.4322 85.1605 42.293 85.5384C42.1538 85.9162 42.0842 86.3239 42.0842 86.7614C42.0842 87.1989 42.1538 87.6051 42.293 87.9801C42.4322 88.3551 42.6467 88.6577 42.9364 88.8878C43.2262 89.1179 43.5955 89.233 44.0444 89.233ZM48.5455 90V83.4545H49.517V84.4432H49.5852C49.7045 84.1193 49.9205 83.8565 50.233 83.6548C50.5455 83.4531 50.8977 83.3523 51.2898 83.3523C51.3636 83.3523 51.456 83.3537 51.5668 83.3565C51.6776 83.3594 51.7614 83.3636 51.8182 83.3693V84.392C51.7841 84.3835 51.706 84.3707 51.5838 84.3537C51.4645 84.3338 51.3381 84.3239 51.2045 84.3239C50.8864 84.3239 50.6023 84.3906 50.3523 84.5241C50.1051 84.6548 49.9091 84.8366 49.7642 85.0696C49.6222 85.2997 49.5511 85.5625 49.5511 85.858V90H48.5455ZM53.0103 90V83.4545H53.9819V84.4432H54.0501C54.1694 84.1193 54.3853 83.8565 54.6978 83.6548C55.0103 83.4531 55.3626 83.3523 55.7546 83.3523C55.8285 83.3523 55.9208 83.3537 56.0316 83.3565C56.1424 83.3594 56.2262 83.3636 56.283 83.3693V84.392C56.2489 84.3835 56.1708 84.3707 56.0487 84.3537C55.9293 84.3338 55.8029 84.3239 55.6694 84.3239C55.3512 84.3239 55.0671 84.3906 54.8171 84.5241C54.57 84.6548 54.3739 84.8366 54.229 85.0696C54.087 85.2997 54.016 85.5625 54.016 85.858V90H53.0103ZM59.935 90.1364C59.3441 90.1364 58.8256 89.9957 58.3796 89.7145C57.9364 89.4332 57.5898 89.0398 57.3398 88.5341C57.0927 88.0284 56.9691 87.4375 56.9691 86.7614C56.9691 86.0795 57.0927 85.4844 57.3398 84.9759C57.5898 84.4673 57.9364 84.0724 58.3796 83.7912C58.8256 83.5099 59.3441 83.3693 59.935 83.3693C60.5259 83.3693 61.043 83.5099 61.4862 83.7912C61.9322 84.0724 62.2788 84.4673 62.5259 84.9759C62.7759 85.4844 62.9009 86.0795 62.9009 86.7614C62.9009 87.4375 62.7759 88.0284 62.5259 88.5341C62.2788 89.0398 61.9322 89.4332 61.4862 89.7145C61.043 89.9957 60.5259 90.1364 59.935 90.1364ZM59.935 89.233C60.3839 89.233 60.7532 89.1179 61.043 88.8878C61.3327 88.6577 61.5472 88.3551 61.6864 87.9801C61.8256 87.6051 61.8952 87.1989 61.8952 86.7614C61.8952 86.3239 61.8256 85.9162 61.6864 85.5384C61.5472 85.1605 61.3327 84.8551 61.043 84.6222C60.7532 84.3892 60.3839 84.2727 59.935 84.2727C59.4862 84.2727 59.1168 84.3892 58.8271 84.6222C58.5373 84.8551 58.3228 85.1605 58.1836 85.5384C58.0444 85.9162 57.9748 86.3239 57.9748 86.7614C57.9748 87.1989 58.0444 87.6051 58.1836 87.9801C58.3228 88.3551 58.5373 88.6577 58.8271 88.8878C59.1168 89.1179 59.4862 89.233 59.935 89.233ZM65.6964 90L63.7021 83.4545H64.7589L66.1737 88.4659H66.2418L67.6396 83.4545H68.7134L70.0941 88.4489H70.1623L71.5771 83.4545H72.6339L70.6396 90H69.6509L68.2191 84.9716H68.1168L66.685 90H65.6964Z" fill="white"/>
  <rect x="16" y="96.9414" width="44" height="18" rx="3" fill="#483308"/>
  <path d="M21.0568 109.941V101.214H26.2898V102.152H22.1136V105.1H25.8977V106.038H22.1136V109.941H21.0568ZM27.8931 109.941V103.396H28.8647V104.385H28.9329C29.0522 104.061 29.2681 103.798 29.5806 103.596C29.8931 103.395 30.2454 103.294 30.6374 103.294C30.7113 103.294 30.8036 103.295 30.9144 103.298C31.0252 103.301 31.109 103.305 31.1658 103.311V104.333C31.1317 104.325 31.0536 104.312 30.9315 104.295C30.8121 104.275 30.6857 104.265 30.5522 104.265C30.234 104.265 29.9499 104.332 29.6999 104.466C29.4528 104.596 29.2567 104.778 29.1119 105.011C28.9698 105.241 28.8988 105.504 28.8988 105.799V109.941H27.8931ZM32.358 109.941V103.396H33.3636V109.941H32.358ZM32.8693 102.305C32.6733 102.305 32.5043 102.238 32.3622 102.105C32.223 101.971 32.1534 101.811 32.1534 101.623C32.1534 101.436 32.223 101.275 32.3622 101.142C32.5043 101.008 32.6733 100.941 32.8693 100.941C33.0653 100.941 33.233 101.008 33.3722 101.142C33.5142 101.275 33.5852 101.436 33.5852 101.623C33.5852 101.811 33.5142 101.971 33.3722 102.105C33.233 102.238 33.0653 102.305 32.8693 102.305ZM37.9499 110.078C37.3192 110.078 36.7752 109.939 36.3178 109.66C35.8633 109.379 35.5124 108.987 35.2653 108.484C35.021 107.978 34.8988 107.39 34.8988 106.72C34.8988 106.049 35.021 105.458 35.2653 104.947C35.5124 104.433 35.8562 104.032 36.2965 103.745C36.7397 103.456 37.2567 103.311 37.8477 103.311C38.1886 103.311 38.5252 103.368 38.8576 103.481C39.19 103.595 39.4925 103.779 39.7653 104.035C40.038 104.288 40.2553 104.623 40.4173 105.041C40.5792 105.458 40.6602 105.973 40.6602 106.583V107.01H35.6147V106.14H39.6374C39.6374 105.771 39.5636 105.441 39.4158 105.152C39.271 104.862 39.0636 104.633 38.7937 104.466C38.5266 104.298 38.2113 104.214 37.8477 104.214C37.4471 104.214 37.1005 104.314 36.8079 104.512C36.5181 104.708 36.2951 104.964 36.1388 105.279C35.9826 105.595 35.9045 105.933 35.9045 106.294V106.873C35.9045 107.368 35.9897 107.787 36.1602 108.13C36.3335 108.471 36.5735 108.731 36.8803 108.91C37.1871 109.086 37.5437 109.174 37.9499 109.174C38.2141 109.174 38.4528 109.137 38.6658 109.064C38.8817 108.987 39.0678 108.873 39.2241 108.723C39.3803 108.569 39.5011 108.379 39.5863 108.152L40.5579 108.424C40.4556 108.754 40.2837 109.044 40.0423 109.294C39.8008 109.541 39.5025 109.734 39.1474 109.873C38.7923 110.01 38.3931 110.078 37.9499 110.078ZM43.1957 106.004V109.941H42.19V103.396H43.1616V104.419H43.2468C43.4002 104.086 43.6332 103.819 43.9457 103.618C44.2582 103.413 44.6616 103.311 45.1559 103.311C45.5991 103.311 45.9869 103.402 46.3192 103.583C46.6516 103.762 46.9102 104.035 47.0948 104.402C47.2795 104.765 47.3718 105.225 47.3718 105.782V109.941H46.3661V105.85C46.3661 105.336 46.2326 104.936 45.9656 104.649C45.6985 104.359 45.332 104.214 44.8661 104.214C44.5451 104.214 44.2582 104.284 44.0053 104.423C43.7553 104.562 43.5579 104.765 43.413 105.032C43.2681 105.299 43.1957 105.623 43.1957 106.004ZM51.6811 110.078C51.1357 110.078 50.6541 109.94 50.2365 109.664C49.8189 109.386 49.4922 108.994 49.2564 108.488C49.0206 107.98 48.9027 107.379 48.9027 106.686C48.9027 105.998 49.0206 105.402 49.2564 104.896C49.4922 104.39 49.8203 104 50.2408 103.724C50.6612 103.449 51.147 103.311 51.6982 103.311C52.1243 103.311 52.4609 103.382 52.7081 103.524C52.9581 103.663 53.1484 103.822 53.2791 104.001C53.4126 104.177 53.5163 104.322 53.5902 104.436H53.6754V101.214H54.6811V109.941H53.7095V108.936H53.5902C53.5163 109.055 53.4112 109.206 53.2749 109.387C53.1385 109.566 52.9439 109.727 52.6911 109.869C52.4382 110.008 52.1016 110.078 51.6811 110.078ZM51.8175 109.174C52.2209 109.174 52.5618 109.069 52.8402 108.859C53.1186 108.646 53.3303 108.352 53.4751 107.977C53.62 107.599 53.6925 107.163 53.6925 106.669C53.6925 106.18 53.6214 105.752 53.4794 105.386C53.3374 105.017 53.1271 104.73 52.8487 104.525C52.5703 104.318 52.2266 104.214 51.8175 104.214C51.3913 104.214 51.0362 104.324 50.7521 104.542C50.4709 104.758 50.2592 105.052 50.1172 105.424C49.978 105.794 49.9084 106.208 49.9084 106.669C49.9084 107.135 49.9794 107.558 50.1214 107.939C50.2663 108.316 50.4794 108.618 50.7607 108.842C51.0447 109.064 51.397 109.174 51.8175 109.174Z" fill="#FFB522"/>
</svg>
